<svg width="644" height="562" viewBox="0 0 644 562" fill="none" xmlns="http://www.w3.org/2000/svg">
<g clip-path="url(#clip0_2811_188253)">
<rect width="644" height="562" fill="white"/>
<rect width="645.43" height="564.578" fill="url(#paint0_linear_2811_188253)"/>
<mask id="mask0_2811_188253" style="mask-type:alpha" maskUnits="userSpaceOnUse" x="0" y="0" width="646" height="565">
<rect width="645.43" height="564.578" fill="#4A3AFF"/>
</mask>
<g mask="url(#mask0_2811_188253)">
<g clip-path="url(#clip1_2811_188253)">
<path d="M44.3065 28.5614L36.5649 31.3791C35.1397 31.8978 34.4049 33.4737 34.9236 34.8989L40.559 50.382C41.0777 51.8072 42.6536 52.542 44.0788 52.0233L51.8203 49.2056C53.2455 48.6869 53.9804 47.111 53.4616 45.6859L47.8262 30.2027C47.3075 28.7775 45.7317 28.0427 44.3065 28.5614Z" stroke="white" stroke-width="2.19691" stroke-linecap="round" stroke-linejoin="round"/>
<line x1="44.8684" y1="46.8773" x2="47.9076" y2="45.7711" stroke="white" stroke-width="2.19691" stroke-linecap="round" stroke-linejoin="round"/>
</g>
<g clip-path="url(#clip2_2811_188253)">
<path d="M117.065 15.684L113.809 6.73831C113.676 6.3733 113.404 6.07602 113.052 5.91186C112.7 5.7477 112.297 5.73012 111.932 5.86297L98.1692 10.8721C97.8042 11.005 97.5069 11.2774 97.3428 11.6294C97.1786 11.9815 97.161 12.3843 97.2939 12.7493L100.55 21.695L117.065 15.684Z" stroke="white" stroke-width="2.19691" stroke-linecap="round" stroke-linejoin="round"/>
<path d="M120.56 19.2347C120.729 19.4103 120.852 19.6255 120.917 19.8607C120.982 20.0959 120.987 20.3436 120.932 20.5813C120.877 20.8191 120.764 21.0393 120.602 21.222C120.44 21.4047 120.236 21.5441 120.006 21.6275L102.115 28.1394C101.886 28.2229 101.639 28.2478 101.398 28.2118C101.156 28.1758 100.928 28.0801 100.733 27.9333C100.538 27.7866 100.383 27.5934 100.282 27.3714C100.18 27.1495 100.136 26.9057 100.153 26.6623L100.549 21.6958L117.064 15.6848L120.56 19.2347Z" stroke="white" stroke-width="2.19691" stroke-linecap="round" stroke-linejoin="round"/>
<path d="M108.683 22.6318L111.435 21.63" stroke="white" stroke-width="2.19691" stroke-linecap="round" stroke-linejoin="round"/>
</g>
<g clip-path="url(#clip3_2811_188253)">
<path d="M176.689 -19.6228L160.174 -13.6117C159.034 -13.1968 158.446 -11.9361 158.861 -10.7959L163.369 1.59059C163.784 2.73073 165.045 3.3186 166.185 2.90362L182.7 -3.10748C183.84 -3.52246 184.428 -4.78314 184.013 -5.92329L179.505 -18.3098C179.09 -19.45 177.829 -20.0378 176.689 -19.6228Z" stroke="white" stroke-width="2.19691" stroke-linecap="round" stroke-linejoin="round"/>
<path d="M174.442 -0.101562L175.945 4.02728" stroke="white" stroke-width="2.19691" stroke-linecap="round" stroke-linejoin="round"/>
<path d="M171.816 5.53027L180.074 2.52472" stroke="white" stroke-width="2.19691" stroke-linecap="round" stroke-linejoin="round"/>
</g>
<g clip-path="url(#clip4_2811_188253)">
<path d="M7.93332 110.7C7.50751 110.502 7.0468 110.391 6.5778 110.373C6.1088 110.355 5.6408 110.429 5.20084 110.593C4.76088 110.756 4.35768 111.005 4.01453 111.326C3.67138 111.646 3.39507 112.031 3.20157 112.458L-5.25993 130.604L-4.57804 137.531L1.16584 133.6L9.62734 115.454C9.83067 115.031 9.94814 114.572 9.97296 114.103C9.99777 113.635 9.92945 113.166 9.77192 112.724C9.61439 112.282 9.37079 111.875 9.05521 111.528C8.73962 111.18 8.35831 110.899 7.93332 110.7V110.7Z" stroke="white" stroke-width="2.19691" stroke-linecap="round" stroke-linejoin="round"/>
<path d="M2.96094 112.978L9.38579 115.973" stroke="white" stroke-width="2.19691" stroke-linecap="round" stroke-linejoin="round"/>
<path d="M-5.25977 130.604L1.16834 133.594" stroke="white" stroke-width="2.19691" stroke-linecap="round" stroke-linejoin="round"/>
</g>
<g clip-path="url(#clip5_2811_188253)">
<path d="M67.3116 101.896L64.0833 103.623L63.3296 100.039L68.9001 88.0934C69.1464 87.5654 69.5923 87.1568 70.1398 86.9575C70.6873 86.7582 71.2915 86.7846 71.8195 87.0308C72.3476 87.2771 72.7562 87.723 72.9555 88.2705C73.1547 88.818 73.1284 89.4222 72.8821 89.9503L67.3116 101.896Z" stroke="white" stroke-width="2.19691" stroke-linecap="round" stroke-linejoin="round"/>
<path d="M73.272 99.8451L75.7765 106.726C75.9093 107.091 75.8917 107.494 75.7276 107.846C75.5634 108.198 75.2662 108.47 74.9012 108.603L61.139 113.612C60.774 113.745 60.3712 113.728 60.0192 113.563C59.6671 113.399 59.3947 113.102 59.2619 112.737L54.2529 98.9749C54.12 98.6099 54.1376 98.207 54.3017 97.855C54.4659 97.503 54.7632 97.2306 55.1282 97.0977L62.0093 94.5932" stroke="white" stroke-width="2.19691" stroke-linecap="round" stroke-linejoin="round"/>
</g>
<g clip-path="url(#clip6_2811_188253)">
<path d="M136.948 63.8941C136.919 63.7977 136.872 63.7081 136.808 63.6308C136.744 63.5535 136.664 63.4902 136.575 63.4447C136.485 63.3992 136.387 63.3726 136.287 63.3664C136.187 63.3602 136.086 63.3747 135.992 63.4089L116.726 70.421C116.632 70.4554 116.546 70.5088 116.473 70.5779C116.4 70.6471 116.342 70.7304 116.303 70.8229C116.263 70.9153 116.243 71.0148 116.244 71.1153C116.245 71.2158 116.266 71.315 116.306 71.4069C117.288 73.6 118.959 75.4119 121.066 76.5664C123.173 77.7209 125.6 78.1547 127.977 77.8016L131.282 86.8818C131.329 87.0128 131.413 87.1275 131.524 87.2125C131.635 87.2975 131.767 87.3492 131.906 87.3615C132.045 87.3739 132.184 87.3465 132.308 87.2824C132.432 87.2183 132.535 87.1203 132.605 86.9998L134.527 83.697C134.581 83.6041 134.614 83.5003 134.624 83.3932C134.634 83.286 134.62 83.1781 134.583 83.077L132.114 76.2956C134.163 75.0391 135.744 73.1469 136.617 70.9078C137.489 68.6686 137.606 66.2055 136.948 63.8941V63.8941Z" stroke="white" stroke-width="2.19691" stroke-linecap="round" stroke-linejoin="round"/>
</g>
<g clip-path="url(#clip7_2811_188253)">
<path d="M182.654 54.5781L184.658 60.0832" stroke="white" stroke-width="2.19691" stroke-linecap="round" stroke-linejoin="round"/>
<path d="M200.794 40.1826L207.807 59.4505" stroke="white" stroke-width="2.19691" stroke-linecap="round" stroke-linejoin="round"/>
<path d="M183.155 55.9546L201.295 41.5594" stroke="white" stroke-width="2.19691" stroke-linecap="round" stroke-linejoin="round"/>
<path d="M184.157 58.707L207.306 58.0746" stroke="white" stroke-width="2.19691" stroke-linecap="round" stroke-linejoin="round"/>
<path d="M188.659 58.585L188.673 58.6226C189.171 59.8706 190.042 60.9352 191.166 61.6718C192.29 62.4085 193.613 62.7816 194.957 62.7407C196.3 62.6997 197.598 62.2465 198.676 61.4427C199.753 60.6389 200.556 59.5233 200.978 58.2471" stroke="white" stroke-width="2.19691" stroke-linecap="round" stroke-linejoin="round"/>
</g>
<g clip-path="url(#clip8_2811_188253)">
<path d="M255.691 19.4199L258.912 28.2674L267.759 25.0472C266.905 22.7007 265.154 20.7896 262.891 19.7343C260.628 18.6789 258.038 18.5659 255.691 19.4199V19.4199Z" stroke="white" stroke-width="2.19691" stroke-linecap="round" stroke-linejoin="round"/>
<path d="M253.816 23.4429C252.066 24.0798 250.545 25.2213 249.444 26.723C248.342 28.2247 247.711 30.0193 247.63 31.8797C247.549 33.7401 248.021 35.5828 248.987 37.1748C249.953 38.7668 251.37 40.0366 253.057 40.8235C254.745 41.6105 256.628 41.8794 258.469 41.5961C260.309 41.3128 262.024 40.4901 263.397 39.2321C264.77 37.974 265.739 36.3371 266.182 34.5283C266.625 32.7194 266.521 30.82 265.884 29.0701L257.036 32.2904L253.816 23.4429Z" stroke="white" stroke-width="2.19691" stroke-linecap="round" stroke-linejoin="round"/>
</g>
<g clip-path="url(#clip9_2811_188253)">
<path d="M333.601 3.61133L331.121 -3.20126L324.309 -0.72168" stroke="white" stroke-width="2.19691" stroke-linecap="round" stroke-linejoin="round"/>
<path d="M331.121 -3.20081L326.024 7.72815C325.935 7.92001 325.809 8.09237 325.653 8.23538C325.497 8.3784 325.314 8.48927 325.115 8.56166C324.916 8.63405 324.705 8.66654 324.494 8.65728C324.282 8.64801 324.075 8.59717 323.883 8.50766L319.577 6.49971C319.385 6.4102 319.177 6.35936 318.966 6.35009C318.754 6.34083 318.543 6.37332 318.344 6.44571C318.145 6.5181 317.963 6.62897 317.807 6.77199C317.651 6.915 317.524 7.08736 317.435 7.27922L312.82 17.1757" stroke="white" stroke-width="2.19691" stroke-linecap="round" stroke-linejoin="round"/>
</g>
<g clip-path="url(#clip10_2811_188253)">
<path d="M20.4837 195.519C20.2364 196.049 19.7886 196.46 19.2387 196.66C18.6888 196.86 18.082 196.833 17.5516 196.586C17.0213 196.339 16.6109 195.891 16.4108 195.341C16.2106 194.791 16.2371 194.184 16.4844 193.654L20.2155 185.659L24.2148 187.524L20.4837 195.519Z" stroke="white" stroke-width="2.19691" stroke-linecap="round" stroke-linejoin="round"/>
<path d="M27.4983 175.258L22.2149 186.588" stroke="white" stroke-width="2.19691" stroke-linecap="round" stroke-linejoin="round"/>
<path d="M29.4521 174.546C29.2872 174.9 28.9885 175.173 28.6219 175.307C28.2552 175.44 27.8507 175.422 27.4971 175.257C27.1436 175.092 26.87 174.794 26.7367 174.427C26.6033 174.06 26.6211 173.656 26.786 173.302L28.341 169.971L31.0064 171.213L29.4521 174.546Z" stroke="white" stroke-width="2.19691" stroke-linecap="round" stroke-linejoin="round"/>
<path d="M21.1497 180.435L18.2698 179.089C18.2878 178.374 18.0969 177.669 17.7205 177.061C17.3441 176.453 16.7986 175.969 16.1507 175.666C15.3939 175.316 14.5399 175.237 13.7318 175.442C14.2551 175.851 14.6245 176.424 14.7798 177.07C14.9351 177.715 14.867 178.394 14.5867 178.996C14.3064 179.597 13.8304 180.086 13.2365 180.383C12.6425 180.679 11.9657 180.765 11.3164 180.627C11.563 181.134 11.9236 181.576 12.3698 181.92C12.816 182.264 13.3357 182.499 13.8883 182.609C14.4409 182.718 15.0113 182.698 15.5548 182.55C16.0984 182.402 16.6003 182.131 17.0213 181.756L19.002 182.68" stroke="white" stroke-width="2.19691" stroke-linecap="round" stroke-linejoin="round"/>
<path d="M27.2818 186.541L29.5123 187.58C29.4913 188.425 29.7617 189.251 30.2782 189.919C30.7946 190.588 31.5255 191.058 32.3479 191.251C33.1704 191.445 34.0343 191.349 34.7943 190.98C35.5543 190.611 36.1641 189.991 36.5211 189.226C36.8782 188.46 36.9607 187.595 36.7548 186.775C36.5489 185.956 36.0671 185.233 35.3905 184.727C34.7139 184.221 33.8837 183.963 33.0396 183.997C32.1955 184.032 31.3889 184.355 30.7554 184.914L27.5995 183.443" stroke="white" stroke-width="2.19691" stroke-linecap="round" stroke-linejoin="round"/>
<path d="M32.8528 187.516C32.8835 187.45 32.9331 187.394 32.9952 187.357C33.0574 187.319 33.1294 187.3 33.2021 187.304C33.2748 187.307 33.3449 187.331 33.4036 187.374C33.4622 187.417 33.5068 187.477 33.5317 187.545C33.5566 187.614 33.5606 187.688 33.5433 187.758C33.526 187.829 33.4882 187.893 33.4345 187.942C33.3809 187.991 33.3138 188.023 33.2419 188.034C33.17 188.045 33.0965 188.035 33.0305 188.004C32.9423 187.963 32.8739 187.888 32.8406 187.797C32.8073 187.705 32.8117 187.604 32.8528 187.516" stroke="white" stroke-width="2.19691" stroke-linecap="round" stroke-linejoin="round"/>
</g>
<g clip-path="url(#clip11_2811_188253)">
<path d="M96.8538 152.053C96.7005 151.632 96.3861 151.289 95.9799 151.099C95.5737 150.91 95.1089 150.89 94.6877 151.043L84.3656 154.8L81.5352 152.953C81.3155 152.809 81.0655 152.719 80.8048 152.689C80.5442 152.659 80.2802 152.69 80.0336 152.78L76.0636 154.225C75.6424 154.378 75.2994 154.692 75.11 155.099C74.9206 155.505 74.9003 155.97 75.0536 156.391L80.2555 170.683C80.4088 171.104 80.7231 171.447 81.1293 171.636C81.5355 171.826 82.0003 171.846 82.4215 171.693L99.8897 165.335C100.311 165.182 100.654 164.867 100.843 164.461C101.033 164.055 101.053 163.59 100.9 163.169L96.8538 152.053Z" stroke="white" stroke-width="2.19691" stroke-linecap="round" stroke-linejoin="round"/>
</g>
<g clip-path="url(#clip12_2811_188253)">
<path d="M150.308 125.578L145.101 139.391C145.06 139.5 145.052 139.619 145.076 139.733C145.101 139.847 145.158 139.951 145.24 140.034C145.322 140.117 145.426 140.174 145.54 140.199C145.654 140.225 145.773 140.217 145.882 140.177L149.895 138.717L153.234 147.892L158.441 134.078C158.482 133.969 158.491 133.851 158.466 133.737C158.441 133.623 158.385 133.519 158.303 133.436C158.221 133.353 158.117 133.296 158.003 133.27C157.89 133.245 157.771 133.252 157.662 133.292L153.648 134.753L150.308 125.578Z" stroke="white" stroke-width="2.19691" stroke-linecap="round" stroke-linejoin="round"/>
</g>
<g clip-path="url(#clip13_2811_188253)">
<path d="M212.933 106.454C212.234 106.699 211.57 107.035 210.959 107.453C208.227 109.301 206.182 112.706 205.096 115.811C204.959 116.227 204.966 116.677 205.116 117.088C205.266 117.5 205.549 117.849 205.921 118.08C208.704 119.731 212.467 121.069 215.792 120.721C216.528 120.648 217.251 120.478 217.942 120.216C218.641 119.972 219.306 119.637 219.917 119.22C222.689 117.352 224.714 113.906 225.78 110.852C225.917 110.436 225.91 109.986 225.76 109.575C225.61 109.163 225.327 108.814 224.954 108.583C222.125 106.902 218.365 105.61 215.087 105.95C214.35 106.022 213.626 106.192 212.933 106.454V106.454Z" stroke="white" stroke-width="2.19691" stroke-linecap="round" stroke-linejoin="round"/>
<circle cx="215.345" cy="113.077" r="2.13408" transform="rotate(-20 215.345 113.077)" stroke="white" stroke-width="2.19691" stroke-linecap="round" stroke-linejoin="round"/>
</g>
<g clip-path="url(#clip14_2811_188253)">
<path d="M279.732 98.8787C278.678 100.257 276.517 99.9262 275.923 98.2953L271.153 85.1903C270.56 83.5595 272.002 81.9167 273.696 82.2948L286.333 85.1154C287.898 85.4649 288.574 87.3201 287.599 88.5943L279.732 98.8787Z" stroke="white" stroke-width="2.19691" stroke-linecap="round" stroke-linejoin="round"/>
</g>
<g clip-path="url(#clip15_2811_188253)">
<path d="M347.52 77.1773C353.22 75.1024 356.16 68.799 354.085 63.0983C352.01 57.3975 345.706 54.4582 340.006 56.5331C334.305 58.608 331.366 64.9114 333.441 70.6121C335.515 76.3129 341.819 79.2522 347.52 77.1773Z" stroke="white" stroke-width="2.19691" stroke-linecap="round" stroke-linejoin="round"/>
<path d="M345.641 72.0165L343.763 66.8555" stroke="white" stroke-width="2.19691" stroke-linecap="round" stroke-linejoin="round"/>
<path d="M342.008 62.0357C341.894 62.0775 341.794 62.1524 341.721 62.251C341.649 62.3496 341.608 62.4674 341.602 62.5895C341.597 62.7116 341.628 62.8325 341.691 62.937C341.755 63.0415 341.848 63.1249 341.959 63.1765C342.069 63.2282 342.193 63.2458 342.314 63.2272C342.435 63.2086 342.547 63.1546 342.637 63.072C342.727 62.9895 342.791 62.882 342.82 62.7633C342.849 62.6446 342.842 62.5199 342.801 62.4051C342.773 62.3287 342.731 62.2585 342.676 62.1985C342.621 62.1386 342.555 62.09 342.481 62.0557C342.408 62.0214 342.328 62.002 342.247 61.9985C342.166 61.9951 342.085 62.0077 342.008 62.0357Z" fill="white" stroke="white" stroke-width="2.19691" stroke-linecap="round" stroke-linejoin="round"/>
</g>
<g clip-path="url(#clip16_2811_188253)">
<path d="M397.903 45.4407C397.588 45.4641 397.273 45.3858 397.005 45.2174C396.738 45.049 396.531 44.7992 396.416 44.5047C396.3 44.2102 396.282 43.8866 396.364 43.5811C396.446 43.2757 396.624 43.0046 396.872 42.8076L413.412 29.8554C413.52 29.7706 413.65 29.7173 413.787 29.7015C413.923 29.6856 414.062 29.7079 414.187 29.7657C414.311 29.8235 414.418 29.9147 414.494 30.0292C414.571 30.1437 414.614 30.277 414.619 30.4145L415.337 51.4183C415.346 51.7348 415.253 52.0457 415.072 52.3053C414.89 52.5649 414.631 52.7595 414.331 52.8604C414.03 52.9613 413.706 52.9633 413.405 52.8659C413.103 52.7686 412.841 52.5772 412.657 52.3198L408.124 45.4805C407.668 44.7922 406.864 44.4178 406.044 44.5114L397.903 45.4407Z" stroke="white" stroke-width="2.19691" stroke-linecap="round" stroke-linejoin="round"/>
<path d="M414.187 29.7646L407.381 44.3594" stroke="white" stroke-width="2.19691" stroke-linecap="round" stroke-linejoin="round"/>
</g>
<g clip-path="url(#clip17_2811_188253)">
<path d="M465.066 18.3319L460.653 25.094L468.38 27.4379" stroke="white" stroke-width="2.19691" stroke-linecap="round" stroke-linejoin="round"/>
<path d="M475.634 14.4863L483.362 16.8296L478.948 23.5924" stroke="white" stroke-width="2.19691" stroke-linecap="round" stroke-linejoin="round"/>
<path d="M470.761 12.8202L473.251 29.1021" stroke="white" stroke-width="2.19691" stroke-linecap="round" stroke-linejoin="round"/>
</g>
<g clip-path="url(#clip18_2811_188253)">
<path d="M-0.404348 290.313L-22.2427 280.19" stroke="white" stroke-width="2.19691" stroke-linecap="square"/>
</g>
<g clip-path="url(#clip19_2811_188253)">
<path d="M53.5938 250.788L47.6851 263.459L60.3562 269.368" stroke="white" stroke-width="2.19691" stroke-linecap="square"/>
</g>
<g clip-path="url(#clip20_2811_188253)">
<path d="M115.063 249.456L120.972 236.785L108.301 230.876" stroke="white" stroke-width="2.19691" stroke-linecap="square"/>
</g>
<path d="M171.783 214.2L181.639 218.796L186.234 208.94" stroke="white" stroke-width="2.19691" stroke-linecap="square"/>
<path d="M238.41 198.133L243.006 188.277L252.861 192.873" stroke="white" stroke-width="2.19691" stroke-linecap="square"/>
<g clip-path="url(#clip21_2811_188253)">
<path d="M302.407 181.268L314.224 155.926" stroke="white" stroke-width="2.19691" stroke-linecap="square"/>
<path d="M320.987 174.506L295.645 162.688" stroke="white" stroke-width="2.19691" stroke-linecap="square"/>
</g>
<g clip-path="url(#clip22_2811_188253)">
<path d="M368.797 135.642L375.559 154.221" stroke="white" stroke-width="2.19691" stroke-linecap="square"/>
<path d="M362.888 148.312L381.467 141.55" stroke="white" stroke-width="2.19691" stroke-linecap="square"/>
</g>
<path d="M426.885 125.02L445.465 118.257" stroke="white" stroke-width="2.19691" stroke-linecap="square"/>
<g clip-path="url(#clip23_2811_188253)">
<path d="M501.948 106.792C507.015 104.948 509.628 99.3448 507.784 94.2775C505.939 89.2101 500.336 86.5974 495.269 88.4417C490.202 90.2861 487.589 95.8891 489.433 100.956C491.278 106.024 496.881 108.637 501.948 106.792Z" stroke="white" stroke-width="2.19691" stroke-linecap="square"/>
<path d="M514.252 104.911L507.447 101.738" stroke="white" stroke-width="2.19691" stroke-linecap="square"/>
</g>
<g clip-path="url(#clip24_2811_188253)">
<path d="M570.971 69.6556L555.488 75.291C555.488 75.291 555.909 76.4464 556.428 77.8715L559.245 85.6131L560.185 88.1936L575.668 82.5582L574.728 79.9777L571.911 72.2361L570.971 69.6556Z" stroke="white" stroke-width="2.19691" stroke-linecap="square"/>
<path d="M560.413 64.7309C559.044 65.2291 557.929 66.2507 557.314 67.5708C556.698 68.891 556.632 70.4016 557.13 71.7704L558.07 74.3509L568.392 70.594L567.453 68.0135C566.954 66.6447 565.933 65.5299 564.613 64.9143C563.292 64.2987 561.782 64.2327 560.413 64.7309Z" stroke="white" stroke-width="2.19691" stroke-linecap="square"/>
</g>
<g clip-path="url(#clip25_2811_188253)">
<path d="M636.799 43.3581L640.556 53.6802C640.805 54.3646 641.495 56.2608 641.495 56.2608L620.85 63.7747L620.575 63.0189C620.575 63.0189 620.16 61.8785 619.911 61.1941L616.154 50.872" stroke="white" stroke-width="2.19691" stroke-linecap="square"/>
<path d="M636.798 43.3577C636.549 42.6733 635.859 40.7771 635.859 40.7771L615.215 48.291C615.215 48.291 615.905 50.1871 616.154 50.8715L628.654 53.098L636.798 43.3577Z" stroke="white" stroke-width="2.19691" stroke-linecap="square"/>
</g>
<g clip-path="url(#clip26_2811_188253)">
<path d="M18.2181 332.092L13.4541 333.826L19.812 351.294L24.576 349.56L18.2181 332.092Z" stroke="white" stroke-width="2.19691" stroke-linecap="square"/>
<path d="M4.47889 349.682L-0.285156 351.416L2.0268 357.768L6.79085 356.034L4.47889 349.682Z" stroke="white" stroke-width="2.19691" stroke-linecap="square"/>
<path d="M11.6371 341.681L6.87305 343.415L10.919 354.531L15.683 352.797L11.6371 341.681Z" stroke="white" stroke-width="2.19691" stroke-linecap="square"/>
</g>
<g clip-path="url(#clip27_2811_188253)">
<path d="M68.8448 335.246L68.3752 333.956C67.9435 332.77 67.7497 331.51 67.8047 330.249C67.8598 328.988 68.1627 327.75 68.6961 326.606C69.2295 325.462 69.983 324.435 70.9136 323.582C71.8442 322.729 72.9336 322.068 74.1197 321.637C75.3058 321.205 76.5653 321.011 77.8263 321.066C79.0873 321.121 80.3251 321.424 81.469 321.957C82.613 322.491 83.6406 323.244 84.4934 324.175C85.3461 325.106 86.0072 326.195 86.4389 327.381L86.9085 328.671" stroke="white" stroke-width="2.19691" stroke-linecap="square"/>
<path d="M74.1192 321.637C75.488 321.139 76.6028 320.117 77.2184 318.797C77.834 317.477 77.8999 315.966 77.4017 314.597C76.9035 313.229 75.882 312.114 74.5618 311.498C73.2417 310.883 71.731 310.817 70.3622 311.315C68.9934 311.813 67.8786 312.835 67.263 314.155C66.6474 315.475 66.5814 316.986 67.0796 318.354C67.5778 319.723 68.5994 320.838 69.9196 321.454C71.2397 322.069 72.7504 322.135 74.1192 321.637V321.637Z" stroke="white" stroke-width="2.19691" stroke-linecap="square"/>
</g>
<g clip-path="url(#clip28_2811_188253)">
<path d="M140.81 285.675L127.907 290.371L128.846 292.952L134.482 308.435C135.001 309.86 135.421 311.015 135.421 311.015L148.324 306.319L147.384 303.739L141.749 288.255L140.81 285.675Z" stroke="white" stroke-width="2.19691" stroke-linecap="square"/>
<line x1="138.791" y1="304.93" x2="141.83" y2="303.824" stroke="white" stroke-width="2.19691" stroke-linecap="square"/>
</g>
<g clip-path="url(#clip29_2811_188253)">
<path d="M210.987 273.739L207.23 263.417C207.23 263.417 206.219 263.785 205.854 263.918L192.091 268.927L190.715 269.428L194.472 279.75L210.987 273.739Z" stroke="white" stroke-width="2.19691" stroke-linecap="square"/>
<path d="M215.186 279.223L194.08 286.905L194.471 279.749L210.986 273.738L215.186 279.223Z" stroke="white" stroke-width="2.19691" stroke-linecap="square"/>
<path d="M202.604 280.685L205.357 279.683" stroke="white" stroke-width="2.19691" stroke-linecap="square"/>
</g>
<g clip-path="url(#clip30_2811_188253)">
<path d="M272.677 237.678L252.032 245.192L252.784 247.257L257.292 259.643L258.043 261.708L278.688 254.194L277.936 252.129L273.428 239.743L272.677 237.678Z" stroke="white" stroke-width="2.19691" stroke-linecap="square"/>
<path d="M268.365 257.951L269.868 262.08" stroke="white" stroke-width="2.19691" stroke-linecap="square"/>
<path d="M265.739 263.582L273.997 260.576" stroke="white" stroke-width="2.19691" stroke-linecap="square"/>
</g>
<g clip-path="url(#clip31_2811_188253)">
<path d="M326.35 218.142L331.918 224.141L339.542 222.271L335.942 229.447L340.244 236.465L332.45 234.9L327.485 241.109L326.269 232.968L318.898 229.785L325.941 226.316L326.35 218.142Z" stroke="white" stroke-width="2.19691" stroke-linecap="square"/>
</g>
<g clip-path="url(#clip32_2811_188253)">
<path d="M399.357 191.57L382.451 197.734L389.961 218.369L396.152 209.102L406.852 212.221L399.357 191.57Z" stroke="white" stroke-width="2.19691" stroke-linecap="square"/>
</g>
<g clip-path="url(#clip33_2811_188253)">
<path d="M460.131 171.398L463.572 170.146C464.522 169.8 465.573 170.29 465.919 171.24L469.675 181.562C470.021 182.512 469.531 183.563 468.581 183.909L454.818 188.918C453.869 189.264 452.818 188.773 452.472 187.824L448.715 177.502C448.369 176.552 448.86 175.501 449.809 175.155L453.25 173.903" stroke="white" stroke-width="2.19691" stroke-linecap="square"/>
<path d="M450.518 190.484L452.238 189.857C452.713 189.685 452.958 189.159 452.785 188.684L447.776 174.921C447.603 174.447 447.078 174.201 446.603 174.374L444.883 175C444.408 175.173 444.163 175.699 444.336 176.174L449.345 189.936C449.518 190.411 450.043 190.656 450.518 190.484Z" stroke="white" stroke-width="2.19691" stroke-linecap="square"/>
<path d="M452.625 172.183L459.506 169.678L461.385 174.839L454.503 177.344L452.625 172.183Z" stroke="white" stroke-width="2.19691" stroke-linecap="square"/>
<path d="M451.378 190.171L452.004 191.891C452.696 193.792 454.796 194.772 456.697 194.08C458.598 193.388 459.577 191.288 458.885 189.387L458.259 187.666" stroke="white" stroke-width="2.19691" stroke-linecap="square"/>
</g>
<g clip-path="url(#clip34_2811_188253)">
<path d="M519.46 159.905C519.691 160.537 520.043 161.118 520.498 161.615C520.953 162.111 521.501 162.513 522.111 162.797C522.721 163.082 523.381 163.244 524.054 163.273C524.726 163.302 525.398 163.199 526.03 162.969C526.663 162.738 527.244 162.386 527.74 161.931C528.237 161.476 528.639 160.928 528.923 160.318C529.208 159.708 529.369 159.048 529.398 158.375C529.428 157.703 529.324 157.031 529.094 156.398C528.864 155.766 528.511 155.185 528.057 154.688C527.602 154.192 527.054 153.79 526.444 153.506C525.834 153.221 525.173 153.06 524.501 153.03C523.828 153.001 523.157 153.104 522.524 153.335C521.891 153.565 521.31 153.917 520.814 154.372C520.318 154.827 519.916 155.375 519.631 155.985C519.347 156.595 519.185 157.256 519.156 157.928C519.127 158.601 519.23 159.272 519.46 159.905V159.905Z" stroke="white" stroke-width="2.19691" stroke-linecap="square"/>
<path d="M526.84 150.205L523.904 148.156L518.431 150.148L517.206 153.711L509.637 156.466C509.637 156.466 510.005 157.478 510.138 157.843L514.145 168.853C514.278 169.218 514.49 169.801 514.49 169.801L514.646 170.229L535.29 162.715L534.789 161.339L530.782 150.329C530.649 149.964 530.281 148.953 530.281 148.953L526.84 150.205Z" stroke="white" stroke-width="2.19691" stroke-linecap="square"/>
<path d="M513.849 158.05C513.985 158.001 514.133 157.993 514.274 158.027C514.414 158.062 514.542 158.137 514.64 158.244C514.737 158.351 514.801 158.484 514.824 158.627C514.846 158.77 514.825 158.917 514.763 159.048C514.702 159.179 514.603 159.289 514.48 159.365C514.356 159.44 514.212 159.476 514.068 159.47C513.923 159.464 513.784 159.415 513.667 159.329C513.55 159.243 513.461 159.125 513.412 158.989C513.345 158.806 513.354 158.605 513.436 158.429C513.518 158.253 513.667 158.117 513.849 158.05Z" fill="white" stroke="white" stroke-width="2.19691" stroke-linecap="square"/>
<path d="M513.766 154.963L513.265 153.587" stroke="white" stroke-width="2.19691" stroke-linecap="square"/>
</g>
<g clip-path="url(#clip35_2811_188253)">
<path d="M587.146 127.475L573.383 132.484L574.385 135.237L576.889 142.118C577.443 143.639 577.891 144.871 577.891 144.871L591.654 139.862L590.652 137.109L588.147 130.228L587.146 127.475Z" stroke="white" stroke-width="2.19691" stroke-linecap="square"/>
<path d="M593.154 135.42L597.842 135.453L594.719 126.872L591.15 129.914" stroke="white" stroke-width="2.19691" stroke-linecap="square"/>
</g>
<g clip-path="url(#clip36_2811_188253)">
<path d="M639.635 115.386C640.631 118.123 642.674 120.353 645.315 121.584C647.955 122.815 650.976 122.947 653.714 121.951C656.451 120.954 658.681 118.911 659.912 116.271C661.144 113.631 661.275 110.609 660.279 107.872C659.283 105.134 657.24 102.904 654.599 101.673C651.959 100.442 648.938 100.31 646.2 101.307C643.462 102.303 641.233 104.346 640.002 106.986C638.77 109.627 638.638 112.648 639.635 115.386V115.386Z" stroke="white" stroke-width="2.19691" stroke-linecap="square"/>
</g>
<g clip-path="url(#clip37_2811_188253)">
<path d="M31.4149 411.994C31.6806 412.724 32.2255 413.318 32.9296 413.647C33.6336 413.975 34.4393 414.01 35.1693 413.744C35.8994 413.479 36.4939 412.934 36.8223 412.23C37.1506 411.526 37.1858 410.72 36.9201 409.99C36.6543 409.26 36.1095 408.665 35.4054 408.337C34.7013 408.009 33.8957 407.974 33.1656 408.239C32.4356 408.505 31.841 409.05 31.5127 409.754C31.1844 410.458 31.1492 411.264 31.4149 411.994Z" stroke="white" stroke-width="2.19691" stroke-linecap="square"/>
<path d="M37.2586 404.356C35.4985 403.536 33.4845 403.448 31.6596 404.112C29.8346 404.776 28.3483 406.138 27.5274 407.898" stroke="white" stroke-width="2.19691" stroke-linecap="square"/>
<path d="M39.119 400.373C36.3027 399.06 33.0801 398.919 30.1602 399.982C27.2402 401.045 24.862 403.224 23.5486 406.04" stroke="white" stroke-width="2.19691" stroke-linecap="square"/>
<path d="M40.4585 396.161C36.7053 394.569 32.4881 394.459 28.6571 395.853C24.826 397.248 21.6661 400.043 19.8143 403.675" stroke="white" stroke-width="2.19691" stroke-linecap="square"/>
</g>
<g clip-path="url(#clip38_2811_188253)">
<path d="M101.856 368.753C101.43 368.555 100.97 368.444 100.501 368.426C100.032 368.407 99.5637 368.482 99.1237 368.646C98.6837 368.809 98.2805 369.058 97.9374 369.378C97.5942 369.699 97.3179 370.084 97.1244 370.511L88.6629 388.657L89.3448 395.583L95.0887 391.653L103.55 373.507C103.754 373.084 103.871 372.625 103.896 372.156C103.921 371.687 103.852 371.219 103.695 370.776C103.537 370.334 103.294 369.928 102.978 369.58C102.662 369.233 102.281 368.952 101.856 368.753V368.753Z" stroke="white" stroke-width="2.19691" stroke-linecap="square"/>
<path d="M96.8838 371.03L103.309 374.026" stroke="white" stroke-width="2.19691" stroke-linecap="square"/>
<path d="M88.6631 388.656L95.0912 391.647" stroke="white" stroke-width="2.19691" stroke-linecap="square"/>
</g>
<g clip-path="url(#clip39_2811_188253)">
<path d="M161.235 359.948L158.007 361.675L157.253 358.091L162.824 346.145C163.07 345.617 163.516 345.209 164.064 345.009C164.611 344.81 165.215 344.836 165.743 345.083C166.271 345.329 166.68 345.775 166.879 346.322C167.079 346.87 167.052 347.474 166.806 348.002L161.235 359.948Z" stroke="white" stroke-width="2.19691" stroke-linecap="square"/>
<path d="M167.195 357.897L170.211 366.258L153.793 372.236L147.828 355.58L155.933 352.646" stroke="white" stroke-width="2.19691" stroke-linecap="square"/>
</g>
<g clip-path="url(#clip40_2811_188253)">
<path d="M221.674 334.83L221.525 334.421L221.136 334.225L210.533 328.884L210.264 328.147L230 320.963L230.268 321.7L225.579 332.608L225.407 333.008L225.556 333.417L229.467 344.164L224.738 343.248L221.674 334.83Z" stroke="white" stroke-width="2.19691"/>
</g>
<g clip-path="url(#clip41_2811_188253)">
<path d="M276.577 312.631L278.581 318.136" stroke="white" stroke-width="2.19691" stroke-linecap="square"/>
<path d="M294.717 298.235L301.73 317.503" stroke="white" stroke-width="2.19691" stroke-linecap="square"/>
<path d="M277.458 313.751L294.866 299.87" stroke="white" stroke-width="2.19691" stroke-linecap="square"/>
<path d="M278.531 317.05L300.682 315.923" stroke="white" stroke-width="2.19691" stroke-linecap="square"/>
<path d="M282.769 317.362C282.769 317.362 283.965 318.987 285.089 319.724C286.213 320.46 287.536 320.834 288.88 320.793C290.223 320.752 291.521 320.299 292.598 319.495C293.675 318.691 294.786 316.703 294.786 316.703" stroke="white" stroke-width="2.19691" stroke-linecap="square"/>
</g>
<g clip-path="url(#clip42_2811_188253)">
<path d="M349.614 277.473L352.835 286.32L361.682 283.1C360.828 280.753 359.077 278.842 356.814 277.787C354.55 276.732 351.961 276.619 349.614 277.473Z" stroke="white" stroke-width="2.19691" stroke-linecap="square"/>
<path d="M347.739 281.496C345.989 282.132 344.468 283.274 343.366 284.776C342.265 286.277 341.634 288.072 341.553 289.932C341.472 291.793 341.944 293.636 342.91 295.228C343.876 296.82 345.293 298.089 346.98 298.876C348.668 299.663 350.551 299.932 352.392 299.649C354.232 299.366 355.947 298.543 357.32 297.285C358.693 296.027 359.662 294.39 360.105 292.581C360.547 290.772 360.444 288.873 359.807 287.123L350.959 290.343L347.739 281.496Z" stroke="white" stroke-width="2.19691" stroke-linecap="square"/>
</g>
<g clip-path="url(#clip43_2811_188253)">
<path d="M426.996 261.819L424.629 255.316L418.126 257.683" stroke="white" stroke-width="2.19691" stroke-linecap="square"/>
<path d="M424.362 255.91L418.896 266.543L412.433 264.523L407.16 274.766" stroke="white" stroke-width="2.19691" stroke-linecap="square"/>
</g>
<g clip-path="url(#clip44_2811_188253)">
<path d="M468.789 244.967L471.156 251.47L477.659 249.104" stroke="white" stroke-width="2.19691" stroke-linecap="square"/>
<path d="M471.423 250.876L476.889 240.243L483.352 242.263L488.625 232.02" stroke="white" stroke-width="2.19691" stroke-linecap="square"/>
</g>
<g clip-path="url(#clip45_2811_188253)">
<path d="M533.297 221.474C533.653 222.451 534.382 223.248 535.325 223.687C536.268 224.127 537.347 224.174 538.325 223.818C539.303 223.462 540.099 222.733 540.539 221.79C540.979 220.847 541.026 219.768 540.67 218.79C540.314 217.812 539.584 217.016 538.641 216.576C537.698 216.137 536.619 216.089 535.642 216.445C534.664 216.801 533.868 217.531 533.428 218.474C532.988 219.417 532.941 220.496 533.297 221.474V221.474Z" stroke="white" stroke-width="2.19691" stroke-linecap="square"/>
<path d="M544.69 211.482C545.046 212.46 545.776 213.256 546.719 213.696C547.662 214.136 548.741 214.183 549.719 213.827C550.696 213.471 551.493 212.742 551.932 211.799C552.372 210.856 552.419 209.777 552.063 208.799C551.707 207.821 550.978 207.025 550.035 206.585C549.092 206.145 548.013 206.098 547.035 206.454C546.057 206.81 545.261 207.54 544.821 208.483C544.382 209.426 544.335 210.505 544.69 211.482Z" stroke="white" stroke-width="2.19691" stroke-linecap="square"/>
<path d="M548.983 223.279C549.339 224.257 550.069 225.053 551.012 225.493C551.955 225.933 553.034 225.98 554.012 225.624C554.989 225.268 555.786 224.538 556.225 223.595C556.665 222.652 556.712 221.573 556.356 220.596C556 219.618 555.271 218.822 554.328 218.382C553.385 217.942 552.306 217.895 551.328 218.251C550.35 218.607 549.554 219.337 549.114 220.28C548.675 221.222 548.628 222.302 548.983 223.279Z" stroke="white" stroke-width="2.19691" stroke-linecap="square"/>
<path d="M539.935 217.545L545.427 212.728" stroke="white" stroke-width="2.19691" stroke-linecap="square"/>
<path d="M540.883 220.581L548.773 221.489" stroke="white" stroke-width="2.19691" stroke-linecap="square"/>
</g>
<g clip-path="url(#clip46_2811_188253)">
<path d="M604.095 195.666C603.446 195.86 602.847 196.188 602.334 196.63C601.822 197.071 601.409 197.616 601.122 198.229L600.441 199.689C599.899 200.851 599.841 202.18 600.28 203.385C600.718 204.589 601.617 205.57 602.779 206.112C603.941 206.654 605.27 206.712 606.475 206.273C607.679 205.835 608.66 204.936 609.202 203.774L609.883 202.314C610.167 201.7 610.319 201.034 610.328 200.357C610.337 199.681 610.203 199.011 609.935 198.39" stroke="white" stroke-width="2.19691" stroke-linecap="square"/>
<path d="M605.836 191.932C605.568 191.311 605.434 190.64 605.443 189.964C605.452 189.288 605.604 188.621 605.888 188.008L606.569 186.547C607.111 185.386 608.092 184.487 609.297 184.048C610.501 183.61 611.831 183.668 612.992 184.21C614.154 184.751 615.053 185.732 615.491 186.937C615.93 188.141 615.872 189.471 615.33 190.633L614.649 192.093C614.362 192.705 613.949 193.25 613.437 193.692C612.924 194.133 612.325 194.462 611.677 194.655" stroke="white" stroke-width="2.19691" stroke-linecap="square"/>
<path d="M605.502 200.271L610.268 190.05" stroke="white" stroke-width="2.19691" stroke-linecap="square"/>
</g>
<g clip-path="url(#clip47_2811_188253)">
<path d="M-2.94536 486.734L2.03326 489.707L-1.15698 491.648L-1.03048 496.278L-6.49293 491.964" stroke="white" stroke-width="2.19691" stroke-linecap="square"/>
<path d="M-18.8641 487.961C-18.1334 489.969 -16.6351 491.604 -14.6988 492.507C-12.7626 493.41 -10.547 493.506 -8.53943 492.776C-6.53186 492.045 -4.89679 490.547 -3.9939 488.61C-3.09102 486.674 -2.99428 484.459 -3.72498 482.451C-4.45567 480.443 -5.95394 478.808 -7.89018 477.905C-9.82643 477.003 -12.042 476.906 -14.0496 477.637C-16.0572 478.367 -17.6922 479.865 -18.5951 481.802C-19.498 483.738 -19.5947 485.954 -18.8641 487.961Z" stroke="white" stroke-width="2.19691" stroke-linecap="square"/>
</g>
<g clip-path="url(#clip48_2811_188253)">
<path d="M40.5215 457.354L48.0354 477.998" stroke="white" stroke-width="2.19691" stroke-linecap="square"/>
<path d="M41.0225 458.73L58.9141 452.217L63.172 463.916L63.4224 464.604L45.5308 471.116" stroke="white" stroke-width="2.19691" stroke-linecap="square"/>
</g>
<g clip-path="url(#clip49_2811_188253)">
<path d="M125.254 431.302L123.33 435.427L119.889 436.68L118.637 433.239L120.561 429.114C119.792 429.1 119.011 429.207 118.245 429.485C114.92 430.696 113.205 434.373 114.415 437.698C114.753 438.625 115.296 439.411 115.957 440.061L112.646 447.172C112.453 447.209 112.261 447.249 112.072 447.318C110.171 448.01 109.192 450.11 109.884 452.011C110.576 453.912 112.676 454.891 114.577 454.199C116.478 453.508 117.457 451.407 116.765 449.506C116.698 449.322 116.608 449.155 116.516 448.989L119.833 441.867C120.751 441.954 121.703 441.865 122.628 441.528C125.954 440.317 127.668 436.64 126.458 433.315C126.179 432.549 125.759 431.882 125.254 431.302Z" stroke="white" stroke-width="2.19691" stroke-linecap="square"/>
</g>
<g clip-path="url(#clip50_2811_188253)">
<path d="M178.662 412.011L179.074 412.204L179.502 412.048L190.243 408.138L195.491 422.557L174.008 430.376L167.903 413.603L175.862 410.706L178.662 412.011Z" stroke="white" stroke-width="2.19691"/>
</g>
<g clip-path="url(#clip51_2811_188253)">
<path d="M251.416 390.46L245.469 392.625L242.222 383.704L239.974 399.115L245.921 396.95L249.168 405.871L251.416 390.46Z" stroke="white" stroke-width="2.10954" stroke-linecap="square"/>
</g>
<g clip-path="url(#clip52_2811_188253)">
<path d="M298.519 375.561C298.519 375.561 298.984 368.029 307.326 364.993C315.668 361.956 320.866 367.427 320.866 367.427C320.866 367.427 320.401 374.959 312.058 377.995C303.716 381.031 298.519 375.561 298.519 375.561Z" stroke="white" stroke-width="2.19691" stroke-miterlimit="10"/>
<path d="M308.804 369.056C308.158 369.291 307.631 369.774 307.34 370.398C307.049 371.021 307.018 371.735 307.254 372.381C307.489 373.028 307.971 373.554 308.595 373.845C309.219 374.136 309.932 374.167 310.579 373.932C311.225 373.697 311.752 373.214 312.043 372.59C312.334 371.967 312.365 371.253 312.129 370.607C311.894 369.96 311.411 369.433 310.788 369.143C310.164 368.852 309.451 368.821 308.804 369.056V369.056Z" stroke="white" stroke-width="2.19691" stroke-miterlimit="10"/>
</g>
<g clip-path="url(#clip53_2811_188253)">
<path d="M370.738 359.421L364.216 341.503L381.493 345.36L370.738 359.421Z" stroke="white" stroke-width="2.19691" stroke-miterlimit="10"/>
</g>
<g clip-path="url(#clip54_2811_188253)">
<path d="M439.564 330.069L437.06 323.188" stroke="white" stroke-width="2.19691" stroke-miterlimit="10"/>
<path d="M436.12 320.607L435.494 318.887L436.12 320.607ZM433.929 314.586C431.191 315.582 428.961 317.625 427.73 320.266C426.499 322.906 426.367 325.927 427.363 328.665C428.36 331.402 430.403 333.632 433.043 334.863C435.684 336.095 438.705 336.226 441.442 335.23C444.18 334.234 446.41 332.191 447.641 329.55C448.872 326.91 449.004 323.889 448.008 321.151C447.011 318.413 444.968 316.184 442.328 314.953C439.687 313.721 436.666 313.589 433.929 314.586V314.586Z" stroke="white" stroke-width="2.19691" stroke-miterlimit="10"/>
</g>
<g clip-path="url(#clip55_2811_188253)">
<path d="M500.698 303.869L507.713 288.826M490.887 302.539L500.698 303.869L508.024 310.53L508.068 288.065L490.887 302.539ZM500.698 303.869L507.713 288.826L500.698 303.869Z" stroke="white" stroke-width="2.19691" stroke-miterlimit="10"/>
</g>
<g clip-path="url(#clip56_2811_188253)">
<path d="M559.368 275.932L555.357 282.08L562.381 284.21" stroke="white" stroke-width="2.19691" stroke-linecap="square"/>
<path d="M568.975 272.437L576 274.567L571.988 280.715" stroke="white" stroke-width="2.19691" stroke-linecap="square"/>
<path d="M564.545 270.922L566.808 285.723" stroke="white" stroke-width="2.19691" stroke-linecap="square"/>
</g>
<g clip-path="url(#clip57_2811_188253)">
<path d="M29.8597 560.636C29.7546 560.619 29.647 560.631 29.548 560.67C29.4491 560.709 29.3625 560.774 29.2973 560.858L21.9065 571.344C21.287 572.132 20.4595 572.732 19.5174 573.074C18.5753 573.417 17.5561 573.49 16.5748 573.285L4.173 570.003C4.06899 569.98 3.96088 569.986 3.85993 570.02C3.75899 570.053 3.6689 570.114 3.59905 570.194C3.5292 570.274 3.48215 570.372 3.4628 570.476C3.44344 570.581 3.4525 570.689 3.48901 570.789L6.93957 580.269C7.2634 581.159 7.9274 581.883 8.78551 582.283C9.64362 582.684 10.6255 582.726 11.5153 582.403L31.6433 575.077C32.5331 574.753 33.2577 574.089 33.6578 573.231C34.058 572.373 34.1008 571.391 33.777 570.501L30.3265 561.021C30.2904 560.92 30.228 560.832 30.1459 560.764C30.0637 560.696 29.9649 560.652 29.8597 560.636Z" fill="white"/>
<path d="M28.4862 555.964C28.1624 555.074 27.4984 554.349 26.6402 553.949C25.7821 553.549 24.8002 553.506 23.9105 553.83L3.78242 561.156C2.8927 561.48 2.16806 562.144 1.76792 563.002C1.36778 563.86 1.32491 564.842 1.64874 565.732C1.65896 565.76 1.67623 565.785 1.69891 565.805C1.72158 565.824 1.74891 565.838 1.7783 565.844L17.3109 569.795C17.6377 569.863 17.9772 569.839 18.291 569.725C18.6048 569.611 18.8804 569.411 19.0866 569.148L28.4525 556.135C28.4724 556.112 28.486 556.084 28.4919 556.054C28.4978 556.024 28.4958 555.993 28.4862 555.964Z" fill="white"/>
</g>
<g clip-path="url(#clip58_2811_188253)">
<path d="M96.1696 545.814L92.2665 543.993C91.8507 543.799 91.4007 543.689 90.9422 543.668C90.4837 543.648 90.0258 543.719 89.5945 543.876C89.1632 544.032 88.7672 544.273 88.4289 544.583C88.0907 544.893 87.817 545.267 87.6234 545.683L87.2523 546.479C83.4998 545.116 79.8756 543.424 76.4223 541.42L76.7934 540.625C77.1835 539.785 77.2247 538.825 76.908 537.954C76.5913 537.084 75.9425 536.375 75.1039 535.983L71.1962 534.167C70.3527 533.797 69.3989 533.766 68.5333 534.081C67.6676 534.396 66.9568 535.033 66.5485 535.859L65.5565 537.999C65.0806 539.029 64.9736 540.192 65.2536 541.291C65.5336 542.391 66.1834 543.361 67.0941 544.039C74.3127 549.366 82.5241 553.196 91.245 555.303C92.3503 555.559 93.5097 555.43 94.5319 554.938C95.5541 554.446 96.3778 553.62 96.8671 552.596L97.8649 550.454C98.0593 550.039 98.1697 549.589 98.19 549.131C98.2103 548.672 98.14 548.215 97.9831 547.783C97.8262 547.352 97.5858 546.957 97.2757 546.618C96.9656 546.28 96.5918 546.007 96.1758 545.813L96.1696 545.814Z" fill="white"/>
</g>
<g clip-path="url(#clip59_2811_188253)">
<path d="M159.015 516.345C158.049 513.691 156.318 511.383 154.041 509.713C151.763 508.043 149.041 507.086 146.22 506.963C143.398 506.84 140.603 507.556 138.189 509.021C135.774 510.486 133.848 512.634 132.655 515.194C131.461 517.754 131.053 520.61 131.483 523.401C131.913 526.193 133.16 528.794 135.068 530.876C136.977 532.959 139.459 534.428 142.203 535.1C144.946 535.771 147.827 535.614 150.481 534.648L150.62 534.597C154.14 533.312 157.005 530.683 158.589 527.287C160.172 523.892 160.344 520.007 159.066 516.485L159.041 516.414L159.015 516.345ZM156.779 517.159C157.141 518.154 157.366 519.194 157.449 520.249C157.456 520.334 157.445 520.42 157.416 520.5C157.387 520.58 157.341 520.653 157.281 520.714C157.221 520.775 157.149 520.822 157.07 520.852C156.99 520.883 156.905 520.896 156.82 520.891C156.021 520.844 155.253 520.566 154.608 520.091L150.773 517.272C150.379 516.982 149.918 516.794 149.434 516.725C148.949 516.655 148.454 516.706 147.994 516.874L147.51 517.05C146.694 517.347 145.794 517.308 145.008 516.941C144.221 516.574 143.613 515.91 143.316 515.094C143.019 514.279 143.058 513.379 143.425 512.592C143.792 511.805 144.456 511.197 145.272 510.9L148.371 509.772C148.487 509.73 148.613 509.724 148.732 509.757C150.568 510.257 152.256 511.19 153.657 512.478C155.057 513.766 156.128 515.371 156.779 517.159ZM133.864 523.163C133.843 523.027 133.871 522.889 133.941 522.771C134.012 522.653 134.121 522.563 134.25 522.516L139.1 520.751C139.613 520.562 140.159 520.477 140.706 520.501C141.253 520.525 141.789 520.657 142.284 520.89L143.99 521.687C144.953 522.136 145.708 522.936 146.1 523.923C146.492 524.91 146.492 526.01 146.101 526.998L145.203 529.26C144.935 529.938 144.924 530.691 145.174 531.376L145.511 532.301C145.544 532.393 145.555 532.493 145.54 532.591C145.526 532.689 145.487 532.781 145.428 532.86C145.369 532.939 145.291 533.002 145.201 533.044C145.111 533.085 145.013 533.104 144.914 533.098C142.594 532.965 140.363 532.156 138.497 530.77C136.631 529.384 135.212 527.482 134.414 525.299C134.164 524.606 133.979 523.891 133.864 523.163Z" fill="white"/>
</g>
<g clip-path="url(#clip60_2811_188253)">
<path d="M216.077 492.224L215.447 492.453L214.163 488.925C213.494 487.087 212.122 485.591 210.35 484.764C208.577 483.937 206.549 483.849 204.711 484.518C202.873 485.187 201.376 486.558 200.549 488.331C199.723 490.104 199.634 492.132 200.303 493.97L201.587 497.498L200.957 497.727C200.289 497.97 199.744 498.469 199.444 499.114C199.143 499.758 199.111 500.496 199.354 501.164L203.482 512.504C203.725 513.172 204.224 513.717 204.868 514.017C205.513 514.318 206.251 514.35 206.919 514.107L222.039 508.604C222.707 508.36 223.251 507.862 223.552 507.217C223.852 506.572 223.885 505.835 223.641 505.167L219.514 493.827C219.271 493.158 218.772 492.614 218.127 492.314C217.483 492.013 216.745 491.981 216.077 492.224ZM211.956 504.425C211.458 504.607 210.917 504.636 210.402 504.51C209.887 504.384 209.42 504.108 209.062 503.717C208.704 503.326 208.469 502.838 208.389 502.313C208.308 501.789 208.385 501.253 208.609 500.772C208.833 500.291 209.195 499.888 209.648 499.613C210.101 499.338 210.626 499.203 211.156 499.226C211.686 499.249 212.197 499.429 212.625 499.743C213.053 500.056 213.378 500.49 213.559 500.988C213.802 501.657 213.77 502.394 213.47 503.039C213.169 503.683 212.625 504.182 211.956 504.425ZM205.367 496.122L204.083 492.594C203.779 491.759 203.819 490.837 204.195 490.031C204.571 489.225 205.251 488.602 206.086 488.298C206.922 487.994 207.844 488.034 208.65 488.41C209.455 488.785 210.079 489.466 210.383 490.301L211.667 493.829L205.367 496.122Z" fill="white"/>
</g>
<g clip-path="url(#clip61_2811_188253)">
<path d="M278.475 488.062C278.647 487.997 278.792 487.877 278.889 487.721C279.215 487.185 286.661 474.767 284.395 468.54C283.285 465.49 281.008 463.005 278.066 461.633C275.124 460.262 271.757 460.115 268.707 461.225C265.656 462.335 263.172 464.612 261.8 467.554C260.428 470.496 260.281 473.862 261.391 476.913C263.658 483.139 277.344 487.866 277.938 488.067C278.113 488.125 278.301 488.123 278.475 488.062ZM271.219 468.126C271.977 467.85 272.8 467.805 273.584 467.997C274.368 468.189 275.077 468.608 275.622 469.203C276.167 469.798 276.524 470.542 276.647 471.339C276.769 472.137 276.653 472.953 276.312 473.684C275.971 474.415 275.421 475.029 274.731 475.448C274.041 475.866 273.242 476.071 272.436 476.036C271.63 476.001 270.852 475.727 270.202 475.25C269.551 474.773 269.056 474.114 268.78 473.355C268.41 472.338 268.459 471.216 268.916 470.236C269.374 469.255 270.202 468.496 271.219 468.126Z" fill="white"/>
</g>
<g clip-path="url(#clip62_2811_188253)">
<path d="M348.253 444.61L346.666 444.619C346.438 444.624 346.211 444.579 346.001 444.487C345.791 444.396 345.604 444.26 345.451 444.09C345.295 443.926 345.174 443.732 345.096 443.519C345.019 443.306 344.986 443.079 345.001 442.853L345.23 441.23C345.286 440.651 345.162 440.069 344.873 439.565C344.585 439.06 344.147 438.657 343.621 438.411C343.094 438.166 342.504 438.089 341.932 438.193C341.36 438.297 340.834 438.575 340.427 438.99L339.303 440.131C339.137 440.285 338.942 440.404 338.73 440.481C338.517 440.558 338.291 440.592 338.066 440.581C337.838 440.57 337.615 440.511 337.411 440.41C337.207 440.308 337.026 440.165 336.879 439.991L335.862 438.758C335.491 438.311 334.99 437.99 334.429 437.838C333.868 437.686 333.273 437.712 332.727 437.911C332.181 438.109 331.709 438.472 331.377 438.949C331.044 439.426 330.867 439.994 330.87 440.575L330.84 442.227C330.84 442.455 330.793 442.68 330.701 442.889C330.61 443.098 330.477 443.287 330.31 443.442C330.144 443.596 329.95 443.715 329.737 443.792C329.525 443.869 329.299 443.903 329.073 443.892L327.466 443.707C326.888 443.651 326.306 443.776 325.801 444.064C325.296 444.352 324.894 444.79 324.648 445.317C324.402 445.844 324.326 446.434 324.43 447.006C324.533 447.578 324.811 448.103 325.226 448.511L326.367 449.635C326.524 449.799 326.645 449.993 326.722 450.206C326.8 450.419 326.832 450.646 326.818 450.872C326.811 451.101 326.754 451.325 326.652 451.53C326.55 451.735 326.405 451.915 326.227 452.059L325.006 453.071C324.559 453.443 324.237 453.944 324.086 454.505C323.934 455.066 323.959 455.66 324.158 456.207C324.357 456.753 324.72 457.225 325.197 457.557C325.674 457.889 326.242 458.066 326.823 458.064L328.41 458.054C328.638 458.05 328.865 458.095 329.075 458.186C329.285 458.278 329.472 458.413 329.625 458.584C329.781 458.748 329.902 458.942 329.98 459.155C330.057 459.368 330.09 459.595 330.075 459.821L329.923 461.416C329.848 462.003 329.96 462.6 330.244 463.12C330.528 463.64 330.969 464.057 331.503 464.311C332.038 464.566 332.64 464.645 333.223 464.537C333.805 464.429 334.339 464.14 334.747 463.711L335.875 462.581C336.038 462.422 336.232 462.3 336.445 462.222C336.659 462.144 336.886 462.113 337.113 462.131C337.341 462.141 337.564 462.198 337.769 462.3C337.973 462.401 338.154 462.545 338.299 462.721L339.312 463.943C339.684 464.39 340.184 464.711 340.745 464.863C341.307 465.015 341.901 464.989 342.447 464.791C342.994 464.592 343.465 464.229 343.798 463.752C344.13 463.275 344.307 462.707 344.304 462.126L344.295 460.539C344.293 460.311 344.339 460.085 344.43 459.875C344.521 459.666 344.656 459.478 344.824 459.324C344.987 459.165 345.181 459.043 345.394 458.965C345.608 458.887 345.835 458.856 346.061 458.874L347.652 459.014C348.25 459.101 348.86 458.993 349.392 458.706C349.924 458.419 350.349 457.968 350.605 457.421C350.86 456.873 350.932 456.258 350.81 455.666C350.688 455.074 350.379 454.537 349.928 454.135L348.786 453.01C348.63 452.847 348.509 452.652 348.431 452.439C348.354 452.226 348.321 452 348.336 451.773C348.343 451.545 348.4 451.32 348.502 451.116C348.604 450.911 348.748 450.73 348.926 450.587L350.148 449.574C350.595 449.202 350.916 448.702 351.068 448.141C351.22 447.579 351.194 446.985 350.996 446.439C350.797 445.892 350.434 445.421 349.957 445.088C349.48 444.756 348.912 444.579 348.331 444.581L348.253 444.61ZM339.492 456.671C338.432 457.028 337.292 457.078 336.205 456.815C335.118 456.552 334.127 455.987 333.347 455.184C332.841 454.633 332.448 453.987 332.191 453.284C331.934 452.58 331.819 451.833 331.851 451.085C331.884 450.337 332.064 449.603 332.381 448.924C332.697 448.246 333.145 447.636 333.698 447.131C334.821 446.128 336.291 445.603 337.795 445.669C339.3 445.734 340.719 446.385 341.751 447.481C342.258 448.033 342.65 448.678 342.907 449.382C343.164 450.085 343.279 450.833 343.247 451.581C343.214 452.329 343.034 453.063 342.718 453.742C342.401 454.42 341.953 455.029 341.401 455.535C340.851 456.042 340.2 456.429 339.492 456.671Z" fill="white"/>
</g>
<g clip-path="url(#clip63_2811_188253)">
<path d="M415.74 430.004C415.717 429.948 415.679 429.899 415.631 429.862C415.583 429.824 415.526 429.801 415.465 429.793C415.403 429.78 415.339 429.785 415.279 429.807C415.22 429.829 415.167 429.866 415.128 429.916C413.422 432.773 409.237 435.471 404.862 437.064C400.487 438.656 395.534 439.284 392.403 438.187C392.341 438.174 392.276 438.179 392.217 438.201C392.157 438.223 392.105 438.26 392.065 438.31C392.024 438.355 391.995 438.41 391.982 438.469C391.969 438.528 391.972 438.59 391.99 438.648L392.773 440.798C393.778 443.561 399.905 443.865 406.468 441.476C413.03 439.088 417.528 434.917 416.523 432.154L415.74 430.004Z" fill="white"/>
<path d="M390.74 435.211C391.745 437.973 397.872 438.277 404.434 435.888C410.997 433.5 415.495 429.329 414.49 426.566L413.707 424.416C413.684 424.36 413.646 424.311 413.598 424.274C413.55 424.237 413.492 424.213 413.432 424.205C413.37 424.193 413.306 424.197 413.246 424.219C413.187 424.241 413.134 424.278 413.095 424.328C411.388 427.185 407.203 429.884 402.828 431.476C398.453 433.068 393.501 433.696 390.37 432.599C390.307 432.587 390.243 432.592 390.184 432.613C390.124 432.635 390.072 432.672 390.032 432.722C389.991 432.767 389.962 432.822 389.949 432.881C389.936 432.941 389.939 433.002 389.957 433.061L390.74 435.211Z" fill="white"/>
<path d="M400.793 425.889C396.418 427.481 391.466 428.109 388.334 427.012C388.272 426.999 388.208 427.004 388.148 427.026C388.089 427.048 388.036 427.085 387.997 427.135C387.962 427.169 387.935 427.21 387.918 427.256C387.9 427.301 387.892 427.35 387.895 427.398L388.691 429.586C389.696 432.348 395.823 432.652 402.386 430.264C408.948 427.875 413.446 423.704 412.441 420.942L411.645 418.754C411.621 418.698 411.584 418.649 411.535 418.612C411.487 418.574 411.43 418.551 411.37 418.543C411.307 418.53 411.243 418.535 411.184 418.557C411.124 418.579 411.072 418.616 411.032 418.666C409.353 421.598 405.168 424.296 400.793 425.889Z" fill="white"/>
<path d="M400.339 424.639C406.897 422.252 411.399 418.078 410.394 415.317C409.389 412.555 403.258 412.252 396.699 414.639C390.141 417.026 385.639 421.2 386.644 423.961C387.649 426.722 393.781 427.026 400.339 424.639Z" fill="white"/>
</g>
<g clip-path="url(#clip64_2811_188253)">
<path d="M458.554 409.011L455.572 410.096C454.749 410.396 454.324 411.306 454.624 412.13L457.337 419.584C457.637 420.408 458.547 420.832 459.371 420.533L462.353 419.447C463.176 419.148 463.601 418.237 463.301 417.414L460.588 409.959C460.288 409.136 459.377 408.711 458.554 409.011Z" fill="white"/>
<path d="M462.73 392.294L459.748 393.379C458.924 393.679 458.5 394.589 458.8 395.413L466.397 416.286C466.697 417.11 467.607 417.534 468.431 417.235L471.412 416.149C472.236 415.85 472.66 414.939 472.361 414.116L464.763 393.242C464.464 392.419 463.553 391.994 462.73 392.294Z" fill="white"/>
<path d="M473.961 394.96L470.979 396.045C470.156 396.345 469.731 397.255 470.031 398.079L475.458 412.989C475.757 413.812 476.668 414.237 477.491 413.937L480.473 412.852C481.297 412.552 481.721 411.641 481.422 410.818L475.995 395.908C475.695 395.085 474.785 394.66 473.961 394.96Z" fill="white"/>
</g>
<g clip-path="url(#clip65_2811_188253)">
<path d="M526.063 384.84C526.146 384.857 526.222 384.895 526.285 384.952C526.347 385.009 526.392 385.082 526.416 385.163C526.443 385.243 526.445 385.33 526.422 385.411C526.4 385.493 526.353 385.566 526.288 385.62C524.645 387.164 523.489 389.155 522.964 391.348C522.439 393.541 522.568 395.84 523.335 397.961C523.419 398.19 523.59 398.377 523.811 398.48C524.032 398.583 524.285 398.594 524.515 398.511L544.41 391.27C544.639 391.186 544.826 391.015 544.929 390.794C545.033 390.572 545.044 390.319 544.96 390.09C544.182 387.968 542.798 386.122 540.979 384.781C539.16 383.44 536.988 382.664 534.731 382.548C534.645 382.538 534.564 382.507 534.494 382.457C534.424 382.407 534.369 382.34 534.333 382.262C534.303 382.184 534.293 382.099 534.304 382.017C534.315 381.934 534.346 381.855 534.396 381.788C534.895 381.197 535.316 380.543 535.647 379.844C536.355 378.279 536.585 376.54 536.309 374.845C536.034 373.15 535.264 371.574 534.096 370.314C532.929 369.055 531.415 368.168 529.746 367.764C528.077 367.361 526.325 367.459 524.712 368.047C523.098 368.634 521.693 369.684 520.674 371.066C519.654 372.449 519.065 374.101 518.98 375.816C518.896 377.531 519.319 379.233 520.197 380.709C521.075 382.185 522.37 383.369 523.918 384.113C524.597 384.451 525.318 384.696 526.063 384.84ZM522.936 378.024C522.816 377.699 522.732 377.361 522.687 377.018C522.673 376.872 522.69 376.724 522.738 376.585C522.785 376.446 522.862 376.319 522.962 376.212C523.062 376.104 523.186 376.021 523.325 375.971C523.463 375.92 523.612 375.904 523.758 375.923C525.777 376.311 527.863 376.147 529.796 375.449C530.304 375.258 530.798 375.033 531.274 374.774C531.403 374.704 531.546 374.667 531.692 374.665C531.838 374.663 531.983 374.696 532.113 374.763C532.243 374.824 532.357 374.917 532.443 375.032C532.529 375.147 532.586 375.282 532.609 375.425C532.831 376.664 532.58 377.942 531.906 379.005C531.231 380.068 530.182 380.84 528.966 381.167C527.75 381.494 526.456 381.352 525.339 380.77C524.222 380.188 523.365 379.208 522.936 378.024Z" fill="white"/>
<ellipse cx="528.101" cy="377.413" rx="6.26727" ry="5.45858" transform="rotate(-20 528.101 377.413)" fill="white"/>
</g>
<g clip-path="url(#clip66_2811_188253)">
<path d="M594.282 342.724L583.1 346.794C582.21 347.117 581.485 347.781 581.085 348.64C580.685 349.498 580.642 350.48 580.966 351.369L588.292 371.497C588.616 372.387 589.28 373.112 590.138 373.512C590.996 373.912 591.978 373.955 592.868 373.631L604.05 369.561C604.94 369.237 605.664 368.573 606.065 367.715C606.465 366.857 606.508 365.875 606.184 364.985L598.858 344.857C598.534 343.968 597.87 343.243 597.012 342.843C596.154 342.443 595.172 342.4 594.282 342.724V342.724ZM597.836 369.885C597.615 369.966 597.375 369.979 597.146 369.923C596.918 369.867 596.711 369.744 596.552 369.571C596.393 369.397 596.289 369.181 596.253 368.948C596.217 368.715 596.251 368.477 596.351 368.264C596.45 368.051 596.611 367.872 596.812 367.75C597.013 367.628 597.246 367.568 597.481 367.578C597.716 367.588 597.943 367.668 598.133 367.807C598.323 367.946 598.467 368.139 598.547 368.36C598.655 368.657 598.641 368.984 598.508 369.27C598.374 369.556 598.133 369.777 597.836 369.885ZM602.726 362.445C602.834 362.741 602.82 363.069 602.687 363.355C602.553 363.641 602.312 363.862 602.015 363.97L590.833 368.04C590.536 368.148 590.209 368.134 589.923 368C589.637 367.867 589.416 367.625 589.308 367.329L583.418 351.148C583.31 350.851 583.325 350.524 583.458 350.238C583.591 349.952 583.833 349.731 584.13 349.623L595.312 345.553C595.608 345.445 595.936 345.459 596.222 345.592C596.508 345.726 596.729 345.967 596.837 346.264L602.726 362.445Z" fill="white"/>
</g>
<g clip-path="url(#clip67_2811_188253)">
<path d="M649.173 341.398C649.47 341.29 649.711 341.069 649.844 340.783C649.978 340.497 649.992 340.17 649.884 339.873L646.503 330.585C646.431 330.386 646.441 330.167 646.53 329.975C646.619 329.784 646.781 329.636 646.98 329.563L662.248 324.006C662.347 323.97 662.451 323.954 662.556 323.959C662.66 323.963 662.763 323.988 662.858 324.033C662.953 324.077 663.038 324.139 663.109 324.216C663.179 324.294 663.234 324.384 663.27 324.482L666.651 333.771C666.759 334.067 666.98 334.309 667.266 334.442C667.552 334.576 667.879 334.59 668.175 334.482C668.472 334.374 668.713 334.153 668.846 333.867C668.98 333.581 668.994 333.254 668.886 332.957L665.505 323.669C665.215 322.879 664.624 322.237 663.861 321.881C663.099 321.525 662.226 321.486 661.435 321.77L646.166 327.328C645.377 327.619 644.734 328.21 644.378 328.972C644.023 329.735 643.983 330.607 644.268 331.398L647.649 340.687C647.757 340.984 647.978 341.225 648.264 341.358C648.55 341.492 648.877 341.506 649.173 341.398Z" fill="white"/>
</g>
<g clip-path="url(#clip68_2811_188253)">
<path d="M228.003 548.514C225.349 549.48 223.041 551.212 221.371 553.489C219.701 555.767 218.744 558.489 218.62 561.31C218.497 564.132 219.213 566.927 220.679 569.341C222.144 571.756 224.292 573.682 226.852 574.875C229.411 576.069 232.268 576.476 235.059 576.047C237.85 575.617 240.452 574.369 242.534 572.461C244.616 570.553 246.086 568.071 246.757 565.327C247.429 562.584 247.271 559.703 246.305 557.049C245.01 553.49 242.354 550.592 238.922 548.991C235.489 547.391 231.562 547.219 228.003 548.514V548.514ZM240.826 565.654C240.766 565.799 240.678 565.932 240.567 566.043C240.456 566.154 240.324 566.243 240.179 566.302C240.033 566.362 239.878 566.393 239.72 566.392C239.563 566.392 239.408 566.36 239.263 566.299L231.824 563.257C231.678 563.186 231.549 563.086 231.443 562.964C231.337 562.841 231.258 562.698 231.209 562.544L228.971 556.393C228.863 556.097 228.877 555.77 229.011 555.483C229.144 555.197 229.386 554.976 229.682 554.868C229.979 554.76 230.306 554.775 230.592 554.908C230.878 555.041 231.099 555.283 231.207 555.579L233.267 561.238L240.174 564.106C240.465 564.225 240.698 564.455 240.82 564.745C240.942 565.035 240.944 565.362 240.826 565.654Z" fill="white"/>
</g>
<g clip-path="url(#clip69_2811_188253)">
<path d="M303.057 547.79L298.048 549.613C297.982 549.639 297.928 549.689 297.895 549.752C297.862 549.815 297.853 549.887 297.869 549.957C297.901 550.063 297.939 550.168 297.983 550.27C298.253 551.011 298.806 551.615 299.521 551.949C300.236 552.282 301.055 552.318 301.796 552.048C302.537 551.778 303.141 551.225 303.475 550.51C303.808 549.794 303.844 548.976 303.574 548.235C303.542 548.128 303.504 548.024 303.46 547.922C303.443 547.886 303.418 547.855 303.388 547.829C303.358 547.803 303.324 547.784 303.286 547.771C303.249 547.759 303.209 547.754 303.17 547.758C303.131 547.761 303.092 547.772 303.057 547.79Z" fill="white"/>
<path d="M310.42 542.933C308.208 540.855 306.514 538.288 305.475 535.437L305.166 534.587C304.591 532.908 303.613 531.395 302.317 530.182C301.021 528.969 299.447 528.093 297.733 527.63C296.756 527.409 295.744 527.385 294.757 527.561L294.293 526.286C294.131 525.841 293.799 525.479 293.37 525.279C292.941 525.079 292.45 525.057 292.005 525.219C291.561 525.381 291.198 525.713 290.998 526.142C290.798 526.571 290.777 527.062 290.939 527.507L291.407 528.793C290.326 529.434 289.412 530.322 288.741 531.384C287.903 532.801 287.397 534.389 287.259 536.029C287.121 537.669 287.356 539.318 287.945 540.855L288.255 541.705C289.292 544.557 289.645 547.612 289.285 550.625C289.271 550.723 289.282 550.824 289.316 550.918C289.35 551.011 289.406 551.095 289.481 551.162C289.565 551.226 289.665 551.268 289.77 551.283C289.875 551.298 289.982 551.285 290.081 551.247L310.21 543.921C310.305 543.884 310.39 543.825 310.457 543.747C310.524 543.67 310.57 543.577 310.593 543.477C310.611 543.379 310.605 543.278 310.574 543.183C310.544 543.088 310.491 543.002 310.42 542.933Z" fill="white"/>
</g>
<g clip-path="url(#clip70_2811_188253)">
<path d="M368.046 508.934L351.267 515.041C351.119 515.095 350.998 515.205 350.931 515.348C350.865 515.491 350.858 515.655 350.912 515.803L356.001 529.786C356.217 530.379 356.66 530.862 357.232 531.129C357.804 531.396 358.459 531.425 359.052 531.209L372.475 526.323C373.069 526.107 373.552 525.664 373.819 525.092C374.085 524.52 374.114 523.865 373.898 523.272L368.805 509.278C368.749 509.133 368.638 509.015 368.496 508.951C368.354 508.886 368.193 508.88 368.046 508.934ZM362.381 525.563C362.462 525.786 362.451 526.031 362.351 526.246C362.251 526.461 362.07 526.627 361.848 526.708C361.625 526.789 361.38 526.778 361.165 526.678C360.95 526.578 360.784 526.397 360.703 526.174L357.19 516.521C357.109 516.298 357.12 516.053 357.22 515.838C357.32 515.623 357.501 515.457 357.723 515.376C357.946 515.295 358.191 515.306 358.406 515.406C358.621 515.506 358.787 515.687 358.868 515.91L362.381 525.563ZM367.974 523.528C368.055 523.75 368.044 523.996 367.944 524.21C367.844 524.425 367.663 524.591 367.441 524.672C367.218 524.753 366.972 524.742 366.758 524.642C366.543 524.542 366.377 524.361 366.296 524.138L362.783 514.485C362.702 514.262 362.712 514.017 362.813 513.802C362.913 513.588 363.094 513.422 363.316 513.341C363.539 513.26 363.784 513.27 363.999 513.37C364.214 513.471 364.38 513.652 364.461 513.874L367.974 523.528Z" fill="white"/>
<path d="M367.946 503.714C366.249 503.566 364.54 503.729 362.901 504.194C362.171 503.097 361.093 502.278 359.841 501.867C358.589 501.456 357.235 501.478 355.996 501.929C354.758 502.379 353.707 503.233 353.012 504.353C352.317 505.472 352.018 506.793 352.163 508.103C350.666 508.789 349.291 509.717 348.096 510.85C347.779 511.15 347.55 511.532 347.435 511.954C347.321 512.375 347.324 512.82 347.446 513.24C347.554 513.536 347.775 513.778 348.061 513.912C348.347 514.045 348.675 514.059 348.971 513.951L369.106 506.623C369.403 506.515 369.644 506.293 369.778 506.007C369.911 505.721 369.925 505.394 369.817 505.097C369.665 504.716 369.409 504.384 369.078 504.14C368.747 503.895 368.355 503.748 367.946 503.714ZM356.808 504.157C357.407 503.933 358.057 503.881 358.684 504.006C359.312 504.132 359.892 504.429 360.359 504.866C358.379 505.454 356.437 506.161 354.542 506.983C354.612 506.345 354.862 505.74 355.263 505.24C355.664 504.739 356.2 504.364 356.808 504.157Z" fill="white"/>
</g>
<g clip-path="url(#clip71_2811_188253)">
<path d="M437.593 484.832C437.53 484.661 437.429 484.507 437.298 484.382C437.167 484.256 437.008 484.162 436.835 484.107L421.073 479.079C420.823 478.999 420.554 479.005 420.307 479.095C420.06 479.185 419.85 479.354 419.709 479.575L410.867 493.559C410.77 493.712 410.709 493.886 410.689 494.067C410.669 494.247 410.691 494.43 410.753 494.601L416.248 509.699C416.356 509.995 416.577 510.237 416.863 510.37C417.149 510.504 417.476 510.518 417.773 510.41L426.72 507.154C426.868 507.1 426.989 506.989 427.056 506.846C427.122 506.703 427.129 506.539 427.075 506.391L425.244 501.358C424.974 500.617 425.01 499.798 425.343 499.083C425.677 498.368 426.281 497.815 427.022 497.545C427.764 497.275 428.582 497.311 429.297 497.644C430.012 497.978 430.566 498.582 430.835 499.323L432.667 504.356C432.721 504.504 432.832 504.625 432.975 504.691C433.118 504.758 433.282 504.765 433.43 504.711L442.377 501.455C442.673 501.347 442.915 501.126 443.048 500.84C443.182 500.554 443.196 500.226 443.088 499.93L437.593 484.832Z" fill="white"/>
</g>
<g clip-path="url(#clip72_2811_188253)">
<path d="M495.836 454.831L492.76 455.95C492.686 455.977 492.605 455.974 492.533 455.94C492.461 455.907 492.406 455.847 492.379 455.773L491.667 453.816C491.559 453.519 491.338 453.278 491.052 453.144C490.766 453.011 490.438 452.996 490.142 453.104C489.845 453.212 489.604 453.434 489.47 453.72C489.337 454.006 489.323 454.333 489.43 454.63L491.364 459.941C491.445 460.164 491.434 460.409 491.334 460.624C491.234 460.838 491.053 461.004 490.83 461.085C490.608 461.166 490.362 461.155 490.148 461.055C489.933 460.955 489.767 460.774 489.686 460.552L488.771 458.036C488.717 457.887 488.606 457.767 488.463 457.7C488.32 457.633 488.156 457.626 488.008 457.68L481.019 460.224C480.945 460.251 480.863 460.247 480.792 460.214C480.72 460.181 480.665 460.12 480.638 460.046L479.926 458.089C479.818 457.793 479.596 457.551 479.31 457.418C479.024 457.284 478.697 457.27 478.4 457.378C478.104 457.486 477.862 457.707 477.729 457.993C477.595 458.279 477.581 458.607 477.689 458.903L479.622 464.215C479.703 464.437 479.693 464.683 479.593 464.897C479.493 465.112 479.311 465.278 479.089 465.359C478.866 465.44 478.621 465.429 478.406 465.329C478.192 465.229 478.026 465.048 477.945 464.825L477.029 462.309C476.975 462.161 476.865 462.04 476.722 461.973C476.579 461.907 476.415 461.9 476.267 461.954L474.589 462.564C473.996 462.78 473.513 463.223 473.246 463.795C472.98 464.367 472.951 465.021 473.167 465.615L480.086 484.624C480.302 485.218 480.744 485.701 481.316 485.967C481.889 486.234 482.543 486.263 483.136 486.047L504.383 478.314C504.976 478.098 505.459 477.655 505.726 477.083C505.992 476.511 506.021 475.857 505.805 475.263L498.886 456.254C498.67 455.66 498.228 455.177 497.655 454.911C497.083 454.644 496.429 454.615 495.836 454.831ZM503.01 476.281L482.881 483.607C482.733 483.661 482.569 483.654 482.426 483.587C482.283 483.52 482.173 483.4 482.119 483.251L477.235 469.833C477.181 469.684 477.188 469.521 477.255 469.378C477.321 469.235 477.442 469.124 477.59 469.07L497.719 461.744C497.867 461.69 498.03 461.697 498.173 461.764C498.316 461.831 498.427 461.951 498.481 462.1L503.365 475.518C503.419 475.667 503.412 475.83 503.345 475.973C503.279 476.116 503.158 476.227 503.01 476.281Z" fill="white"/>
<path fill-rule="evenodd" clip-rule="evenodd" d="M479.01 466.244L494.813 460.493C496.975 459.706 499.365 460.82 500.152 462.982L503.761 472.897C504.547 475.058 503.433 477.448 501.271 478.235L485.468 483.987C483.307 484.774 480.917 483.659 480.13 481.498L476.521 471.583C475.734 469.421 476.849 467.031 479.01 466.244ZM480.028 469.04C479.41 469.265 479.092 469.948 479.317 470.565L482.926 480.48C483.15 481.098 483.833 481.416 484.451 481.191L500.254 475.44C500.871 475.215 501.19 474.532 500.965 473.914L497.356 463.999C497.131 463.382 496.449 463.063 495.831 463.288L480.028 469.04Z" fill="white"/>
</g>
<g clip-path="url(#clip73_2811_188253)">
<path d="M558.184 428.338L537.789 435.761C536.935 436.072 536.239 436.71 535.855 437.534C535.471 438.357 535.43 439.3 535.74 440.154L540.82 454.109C541.13 454.963 541.768 455.658 542.592 456.043C543.415 456.427 544.358 456.468 545.212 456.157L552.361 453.555L562.936 456.757C563.137 456.818 563.352 456.823 563.556 456.77C563.76 456.717 563.945 456.609 564.091 456.458C564.237 456.302 564.338 456.109 564.382 455.9C564.426 455.691 564.412 455.474 564.341 455.273L562.387 449.906L565.608 448.734C566.462 448.423 567.157 447.785 567.541 446.962C567.925 446.138 567.967 445.195 567.656 444.341L562.577 430.386C562.266 429.532 561.628 428.837 560.805 428.453C559.981 428.068 559.038 428.027 558.184 428.338Z" fill="white"/>
</g>
<g clip-path="url(#clip74_2811_188253)">
<path d="M620.818 433.037C622.813 432.311 623.841 430.106 623.115 428.111C622.389 426.117 620.184 425.089 618.189 425.814C616.195 426.54 615.167 428.746 615.893 430.74C616.618 432.735 618.824 433.763 620.818 433.037Z" fill="white"/>
<path d="M602.592 423.36C603.09 423.659 603.686 423.751 604.251 423.616C604.816 423.481 605.306 423.13 605.615 422.638C607.652 419.315 610.754 416.781 614.416 415.448C618.078 414.115 622.084 414.062 625.78 415.298C626.333 415.476 626.934 415.43 627.453 415.171C627.973 414.911 628.37 414.458 628.56 413.908C628.738 413.355 628.692 412.754 628.432 412.235C628.172 411.715 627.719 411.318 627.17 411.128C622.537 409.575 617.514 409.64 612.922 411.311C608.331 412.982 604.441 416.161 601.891 420.329C601.587 420.826 601.491 421.421 601.622 421.988C601.753 422.554 602.101 423.047 602.592 423.36Z" fill="white"/>
<path d="M609.111 424.32C608.947 424.81 608.959 425.342 609.145 425.824C609.331 426.306 609.679 426.708 610.129 426.961C610.58 427.214 611.104 427.302 611.613 427.211C612.121 427.119 612.582 426.852 612.915 426.458C613.84 424.797 615.333 423.525 617.119 422.875C618.906 422.224 620.866 422.239 622.643 422.917C623.132 423.092 623.666 423.089 624.153 422.911C624.455 422.801 624.729 422.627 624.957 422.402C625.185 422.176 625.361 421.903 625.474 421.603C625.665 421.057 625.636 420.457 625.392 419.932C625.148 419.407 624.708 418.998 624.167 418.792C621.41 417.776 618.381 417.774 615.622 418.786C612.864 419.799 610.556 421.761 609.111 424.32Z" fill="white"/>
</g>
<g clip-path="url(#clip75_2811_188253)">
<path d="M371.669 583.087L390.102 591.529C390.682 591.787 391.34 591.809 391.937 591.591C392.248 591.489 392.535 591.325 392.781 591.11C393.027 590.895 393.228 590.633 393.372 590.339L398.538 579.24C398.685 578.937 398.768 578.607 398.782 578.27C398.796 577.933 398.741 577.597 398.619 577.283C398.497 576.969 398.312 576.683 398.075 576.444C397.838 576.204 397.554 576.016 397.241 575.892L378.95 567.554L378.868 567.506C377.861 567.084 376.738 567.031 375.697 567.356L368.213 570.08C367.602 570.302 367.105 570.758 366.83 571.347C366.555 571.936 366.526 572.61 366.748 573.221L369.497 580.774C369.926 581.776 370.695 582.595 371.669 583.087ZM373.614 575.963C373.5 575.621 373.489 575.252 373.583 574.903C373.677 574.554 373.872 574.24 374.143 574.002C374.414 573.763 374.75 573.609 375.108 573.56C375.466 573.511 375.83 573.569 376.156 573.726C376.481 573.883 376.753 574.132 376.938 574.443C377.122 574.754 377.211 575.112 377.193 575.473C377.175 575.834 377.051 576.182 376.836 576.472C376.622 576.763 376.326 576.984 375.987 577.108C375.756 577.192 375.511 577.229 375.265 577.217C375.02 577.204 374.78 577.143 374.559 577.036C374.338 576.93 374.14 576.78 373.978 576.596C373.816 576.411 373.692 576.196 373.614 575.963Z" fill="white"/>
</g>
<g clip-path="url(#clip76_2811_188253)">
<path d="M459.85 554.394C459.269 554.405 458.717 554.645 458.314 555.063C457.911 555.481 457.69 556.041 457.7 556.621C457.736 558.186 457.362 559.733 456.614 561.107C455.866 562.482 454.771 563.637 453.438 564.457C452.105 565.277 450.581 565.733 449.016 565.781C447.452 565.828 445.903 565.465 444.523 564.727C444.46 564.698 444.403 564.657 444.357 564.606C444.31 564.555 444.274 564.495 444.25 564.43C444.226 564.365 444.216 564.296 444.219 564.227C444.222 564.158 444.239 564.09 444.268 564.027L446.519 559.199C446.61 559.001 446.641 558.78 446.608 558.564C446.575 558.349 446.48 558.147 446.334 557.985C446.188 557.825 445.998 557.712 445.789 557.66C445.579 557.608 445.358 557.619 445.155 557.692L435.997 561.025C435.724 561.124 435.502 561.328 435.379 561.591C435.256 561.854 435.243 562.156 435.342 562.428L438.683 571.607C438.758 571.81 438.891 571.986 439.066 572.113C439.241 572.24 439.45 572.313 439.666 572.322C439.882 572.338 440.097 572.286 440.282 572.173C440.467 572.059 440.611 571.891 440.695 571.691L442.003 568.884C442.083 568.803 442.181 568.743 442.29 568.71C442.36 568.685 442.434 568.675 442.508 568.68C442.582 568.685 442.654 568.705 442.72 568.739C444.774 569.781 447.064 570.272 449.364 570.166C451.665 570.06 453.899 569.36 455.849 568.134C457.799 566.908 459.398 565.198 460.491 563.17C461.583 561.143 462.132 558.867 462.084 556.564C462.082 556.274 462.022 555.988 461.908 555.722C461.793 555.455 461.628 555.214 461.42 555.012C461.212 554.811 460.966 554.652 460.697 554.546C460.427 554.44 460.139 554.388 459.85 554.394Z" fill="white"/>
<path d="M457.61 540.364C457.535 540.161 457.402 539.985 457.227 539.858C457.052 539.73 456.844 539.658 456.628 539.649C456.414 539.645 456.203 539.702 456.021 539.814C455.838 539.925 455.692 540.087 455.599 540.28L454.29 543.087C454.219 543.214 454.107 543.312 453.972 543.366C453.902 543.39 453.827 543.4 453.754 543.395C453.68 543.39 453.607 543.37 453.541 543.336C451.486 542.308 449.199 541.828 446.904 541.944C444.608 542.06 442.381 542.767 440.44 543.996C438.498 545.226 436.907 546.937 435.82 548.963C434.734 550.988 434.19 553.26 434.241 555.558C434.235 555.852 434.289 556.145 434.399 556.418C434.509 556.691 434.673 556.939 434.881 557.147C435.089 557.356 435.337 557.52 435.61 557.63C435.883 557.74 436.175 557.795 436.47 557.789C436.764 557.784 437.054 557.72 437.323 557.6C437.592 557.48 437.834 557.307 438.034 557.091C438.235 556.876 438.39 556.622 438.49 556.345C438.59 556.068 438.633 555.774 438.617 555.48C438.586 553.923 438.96 552.384 439.702 551.015C440.445 549.646 441.531 548.494 442.854 547.671C444.177 546.849 445.691 546.385 447.247 546.325C448.804 546.264 450.349 546.61 451.731 547.328C451.857 547.394 451.953 547.504 452.002 547.637C452.05 547.77 452.047 547.917 451.994 548.048L449.821 552.708C449.732 552.903 449.703 553.12 449.736 553.331C449.769 553.543 449.864 553.74 450.009 553.899C450.153 554.057 450.341 554.169 450.549 554.222C450.757 554.275 450.975 554.265 451.178 554.195L460.274 550.884C460.547 550.785 460.769 550.581 460.892 550.318C461.015 550.055 461.028 549.753 460.928 549.48L457.61 540.364Z" fill="white"/>
</g>
<g clip-path="url(#clip77_2811_188253)">
<path d="M528.816 537.546L509.907 520.376C509.587 520.084 509.192 519.886 508.767 519.802C508.341 519.718 507.901 519.752 507.493 519.9C507.086 520.049 506.727 520.306 506.455 520.643C506.183 520.981 506.008 521.387 505.95 521.816L502.502 547.124C502.442 547.537 502.492 547.959 502.646 548.348C502.801 548.736 503.055 549.076 503.383 549.335C503.704 549.583 504.082 549.744 504.483 549.804C504.884 549.865 505.293 549.821 505.673 549.679L528.03 541.542C528.414 541.402 528.756 541.165 529.023 540.853C529.289 540.542 529.47 540.168 529.55 539.766C529.629 539.364 529.603 538.949 529.474 538.56C529.346 538.171 529.119 537.822 528.816 537.546ZM509.63 529.25C509.523 528.953 509.537 528.626 509.67 528.34C509.804 528.054 510.045 527.833 510.341 527.725C510.638 527.617 510.965 527.631 511.251 527.765C511.537 527.898 511.758 528.14 511.866 528.436L514.307 535.143C514.415 535.439 514.401 535.767 514.268 536.053C514.134 536.339 513.893 536.56 513.596 536.668C513.3 536.776 512.973 536.761 512.687 536.628C512.401 536.495 512.18 536.253 512.072 535.957L509.63 529.25ZM515.483 541.678C515.042 541.835 514.557 541.817 514.129 541.626C513.701 541.435 513.363 541.087 513.186 540.653C513.098 540.435 513.055 540.201 513.059 539.966C513.063 539.73 513.114 539.498 513.209 539.283C513.304 539.068 513.441 538.874 513.613 538.713C513.784 538.552 513.986 538.426 514.207 538.344C514.648 538.187 515.133 538.205 515.561 538.396C515.989 538.587 516.326 538.936 516.504 539.369C516.592 539.588 516.635 539.821 516.631 540.056C516.627 540.292 516.576 540.524 516.481 540.739C516.386 540.954 516.248 541.148 516.077 541.309C515.906 541.471 515.704 541.596 515.483 541.678Z" fill="white"/>
</g>
<g clip-path="url(#clip78_2811_188253)">
<path d="M592.784 513.161L588.185 509.272C588.142 509.237 588.092 509.214 588.038 509.205C587.984 509.196 587.928 509.201 587.877 509.22C587.825 509.238 587.779 509.27 587.744 509.312C587.709 509.354 587.685 509.404 587.674 509.458C587.029 512.171 585.525 514.603 583.386 516.393C583.351 516.423 583.322 516.46 583.303 516.502C583.283 516.544 583.273 516.589 583.273 516.636C583.266 516.682 583.271 516.728 583.287 516.772C583.303 516.815 583.329 516.854 583.364 516.885L587.183 519.996C587.369 520.147 587.593 520.243 587.83 520.272C588.068 520.301 588.309 520.262 588.525 520.159C588.741 520.057 588.923 519.895 589.051 519.693C589.179 519.49 589.246 519.256 589.246 519.017L589.242 515.941L592.25 515.384C592.478 515.333 592.688 515.219 592.855 515.055C593.022 514.892 593.141 514.685 593.198 514.459C593.254 514.232 593.247 513.994 593.176 513.771C593.106 513.548 592.974 513.349 592.797 513.196L592.784 513.161Z" fill="white"/>
<path d="M567.369 516.794C567.326 516.769 567.277 516.755 567.227 516.752C567.177 516.749 567.127 516.758 567.081 516.777C567.031 516.795 566.986 516.826 566.951 516.867C566.916 516.908 566.893 516.958 566.884 517.011L565.805 522.979C565.767 523.21 565.795 523.447 565.884 523.663C565.973 523.879 566.12 524.067 566.31 524.204C566.499 524.341 566.723 524.423 566.956 524.441C567.189 524.458 567.422 524.411 567.63 524.304L570.293 522.797L572.267 525.156C572.421 525.338 572.625 525.473 572.853 525.545C573.081 525.616 573.325 525.621 573.556 525.56C573.8 525.508 574.023 525.385 574.197 525.207C574.372 525.029 574.489 524.803 574.535 524.558L575.457 519.708C575.464 519.662 575.459 519.615 575.444 519.572C575.428 519.528 575.401 519.49 575.367 519.459C575.304 519.391 575.216 519.35 575.124 519.346C572.332 519.349 569.613 518.455 567.369 516.794Z" fill="white"/>
<path d="M585.464 502.643C584.717 500.59 583.378 498.806 581.618 497.514C579.857 496.222 577.752 495.481 575.57 495.384C573.389 495.288 571.227 495.84 569.359 496.971C567.491 498.103 566 499.763 565.075 501.741C564.149 503.719 563.831 505.927 564.16 508.087C564.49 510.246 565.451 512.259 566.924 513.871C568.397 515.484 570.314 516.624 572.435 517.148C574.555 517.671 576.783 517.554 578.837 516.812C580.203 516.317 581.457 515.557 582.529 514.577C583.601 513.597 584.47 512.415 585.085 511.1C585.7 509.784 586.051 508.36 586.116 506.909C586.181 505.458 585.959 504.008 585.464 502.643ZM577.607 511.106C577.458 511.354 577.228 511.544 576.956 511.643C576.684 511.742 576.386 511.744 576.112 511.65C574.209 510.999 570.073 509.346 569.27 507.139C568.156 504.078 571.479 501.579 573.905 504.109C573.947 504.154 574.002 504.186 574.062 504.2C574.122 504.215 574.185 504.211 574.243 504.19C574.301 504.169 574.352 504.131 574.389 504.081C574.426 504.032 574.447 503.972 574.45 503.91C574.669 500.377 578.821 500.156 579.949 503.253C580.752 505.46 578.646 509.384 577.607 511.106Z" fill="white"/>
<circle cx="574.753" cy="505.515" r="7.96784" transform="rotate(-20 574.753 505.515)" fill="white"/>
</g>
<g clip-path="url(#clip79_2811_188253)">
<path d="M648.89 470.552C648.561 470.469 648.216 470.475 647.891 470.571C647.566 470.667 647.272 470.849 647.042 471.098C645.791 472.229 644.351 473.132 642.788 473.767C640.933 474.291 639.017 474.572 637.089 474.601C632.937 474.872 631.542 475.086 628.799 476.504C628.413 476.704 628.114 477.038 627.957 477.442C627.8 477.847 627.795 478.295 627.945 478.702L634.058 495.498C634.144 495.734 634.279 495.95 634.454 496.131C634.63 496.311 634.841 496.453 635.075 496.546C635.309 496.639 635.56 496.681 635.811 496.671C636.062 496.66 636.309 496.596 636.534 496.484C638.95 495.276 640.214 495.095 644.095 494.845C646.138 494.813 648.168 494.509 650.131 493.941C652.062 493.156 653.829 492.018 655.343 490.585C655.99 490.025 656.53 489.393 656.152 488.355L650.08 471.671C649.985 471.404 649.827 471.162 649.62 470.967C649.413 470.773 649.163 470.63 648.89 470.552Z" fill="white"/>
<path d="M623.536 477.027C623.091 477.189 622.729 477.521 622.528 477.95C622.328 478.379 622.307 478.87 622.469 479.315L631.016 502.798C631.178 503.243 631.51 503.605 631.939 503.805C632.368 504.005 632.859 504.027 633.304 503.865C633.749 503.703 634.111 503.371 634.311 502.942C634.511 502.513 634.533 502.022 634.371 501.577L625.824 478.094C625.662 477.649 625.33 477.287 624.901 477.087C624.472 476.887 623.981 476.865 623.536 477.027V477.027Z" fill="white"/>
</g>
</g>
</g>
<defs>
<linearGradient id="paint0_linear_2811_188253" x1="-1.0437e-05" y1="564.578" x2="592.016" y2="-59.2325" gradientUnits="userSpaceOnUse">
<stop stop-color="#AC50EF"/>
<stop offset="0.46875" stop-color="#7059FB"/>
<stop offset="1" stop-color="#2ECFF6"/>
</linearGradient>
<clipPath id="clip0_2811_188253">
<rect width="644" height="562" fill="white"/>
</clipPath>
<clipPath id="clip1_2811_188253">
<rect width="26.3629" height="26.3629" fill="white" transform="translate(27.2988 32.4131) rotate(-20)"/>
</clipPath>
<clipPath id="clip2_2811_188253">
<rect width="26.3629" height="26.3629" fill="white" transform="translate(91.2959 9.12012) rotate(-20)"/>
</clipPath>
<clipPath id="clip3_2811_188253">
<rect width="26.3629" height="26.3629" fill="white" transform="translate(155.293 -14.1729) rotate(-20)"/>
</clipPath>
<clipPath id="clip4_2811_188253">
<rect width="26.3629" height="26.3629" fill="white" transform="translate(-14.9082 115.574) rotate(-20)"/>
</clipPath>
<clipPath id="clip5_2811_188253">
<rect width="26.3629" height="26.3629" fill="white" transform="translate(49.0889 92.2812) rotate(-20)"/>
</clipPath>
<clipPath id="clip6_2811_188253">
<rect width="26.3629" height="26.3629" fill="white" transform="translate(113.086 68.9883) rotate(-20)"/>
</clipPath>
<clipPath id="clip7_2811_188253">
<rect width="26.3629" height="26.3629" fill="white" transform="translate(177.083 45.6953) rotate(-20)"/>
</clipPath>
<clipPath id="clip8_2811_188253">
<rect width="26.3629" height="26.3629" fill="white" transform="translate(241.079 22.4023) rotate(-20)"/>
</clipPath>
<clipPath id="clip9_2811_188253">
<rect width="26.3629" height="26.3629" fill="white" transform="translate(305.076 -0.890625) rotate(-20)"/>
</clipPath>
<clipPath id="clip10_2811_188253">
<rect width="26.3629" height="26.3629" fill="white" transform="translate(6.88281 175.442) rotate(-20)"/>
</clipPath>
<clipPath id="clip11_2811_188253">
<rect width="26.3629" height="26.3629" fill="white" transform="translate(70.8799 152.149) rotate(-20)"/>
</clipPath>
<clipPath id="clip12_2811_188253">
<rect width="26.3629" height="26.3629" fill="white" transform="translate(134.877 128.856) rotate(-20)"/>
</clipPath>
<clipPath id="clip13_2811_188253">
<rect width="26.3629" height="26.3629" fill="white" transform="translate(198.874 105.563) rotate(-20)"/>
</clipPath>
<clipPath id="clip14_2811_188253">
<rect width="26.3629" height="26.3629" fill="white" transform="translate(262.87 82.2705) rotate(-20)"/>
</clipPath>
<clipPath id="clip15_2811_188253">
<rect width="26.3629" height="26.3629" fill="white" transform="translate(326.867 58.9775) rotate(-20)"/>
</clipPath>
<clipPath id="clip16_2811_188253">
<rect width="26.3629" height="26.3629" fill="white" transform="translate(390.864 35.6846) rotate(-20)"/>
</clipPath>
<clipPath id="clip17_2811_188253">
<rect width="26.3629" height="26.3629" fill="white" transform="translate(454.861 12.3916) rotate(-20)"/>
</clipPath>
<clipPath id="clip18_2811_188253">
<rect width="26.3629" height="26.3629" fill="white" transform="translate(-28.5625 277.184) rotate(-20)"/>
</clipPath>
<clipPath id="clip19_2811_188253">
<rect width="26.3629" height="26.3629" fill="white" transform="translate(35.4346 253.891) rotate(-20)"/>
</clipPath>
<clipPath id="clip20_2811_188253">
<rect width="26.3629" height="26.3629" fill="white" transform="translate(99.4316 230.598) rotate(-20)"/>
</clipPath>
<clipPath id="clip21_2811_188253">
<rect width="26.3629" height="26.3629" fill="white" transform="translate(291.422 160.719) rotate(-20)"/>
</clipPath>
<clipPath id="clip22_2811_188253">
<rect width="26.3629" height="26.3629" fill="white" transform="translate(355.419 137.426) rotate(-20)"/>
</clipPath>
<clipPath id="clip23_2811_188253">
<rect width="26.3629" height="26.3629" fill="white" transform="translate(483.413 90.8398) rotate(-20)"/>
</clipPath>
<clipPath id="clip24_2811_188253">
<rect width="26.3629" height="26.3629" fill="white" transform="translate(547.41 67.5469) rotate(-20)"/>
</clipPath>
<clipPath id="clip25_2811_188253">
<rect width="26.3629" height="26.3629" fill="white" transform="translate(611.407 44.2539) rotate(-20)"/>
</clipPath>
<clipPath id="clip26_2811_188253">
<rect width="26.3629" height="26.3629" fill="white" transform="translate(-6.77246 337.052) rotate(-20)"/>
</clipPath>
<clipPath id="clip27_2811_188253">
<rect width="26.3629" height="26.3629" fill="white" transform="translate(57.2246 313.759) rotate(-20)"/>
</clipPath>
<clipPath id="clip28_2811_188253">
<rect width="26.3629" height="26.3629" fill="white" transform="translate(121.222 290.466) rotate(-20)"/>
</clipPath>
<clipPath id="clip29_2811_188253">
<rect width="26.3629" height="26.3629" fill="white" transform="translate(185.219 267.173) rotate(-20)"/>
</clipPath>
<clipPath id="clip30_2811_188253">
<rect width="26.3629" height="26.3629" fill="white" transform="translate(249.216 243.88) rotate(-20)"/>
</clipPath>
<clipPath id="clip31_2811_188253">
<rect width="26.3629" height="26.3629" fill="white" transform="translate(313.212 220.587) rotate(-20)"/>
</clipPath>
<clipPath id="clip32_2811_188253">
<rect width="26.3629" height="26.3629" fill="white" transform="translate(377.209 197.294) rotate(-20)"/>
</clipPath>
<clipPath id="clip33_2811_188253">
<rect width="26.3629" height="26.3629" fill="white" transform="translate(441.206 174.001) rotate(-20)"/>
</clipPath>
<clipPath id="clip34_2811_188253">
<rect width="26.3629" height="26.3629" fill="white" transform="translate(505.203 150.708) rotate(-20)"/>
</clipPath>
<clipPath id="clip35_2811_188253">
<rect width="26.3629" height="26.3629" fill="white" transform="translate(569.2 127.415) rotate(-20)"/>
</clipPath>
<clipPath id="clip36_2811_188253">
<rect width="26.3629" height="26.3629" fill="white" transform="translate(633.197 104.122) rotate(-20)"/>
</clipPath>
<clipPath id="clip37_2811_188253">
<rect width="26.3629" height="26.3629" fill="white" transform="translate(15.0176 396.92) rotate(-20)"/>
</clipPath>
<clipPath id="clip38_2811_188253">
<rect width="26.3629" height="26.3629" fill="white" transform="translate(79.0146 373.627) rotate(-20)"/>
</clipPath>
<clipPath id="clip39_2811_188253">
<rect width="26.3629" height="26.3629" fill="white" transform="translate(143.012 350.334) rotate(-20)"/>
</clipPath>
<clipPath id="clip40_2811_188253">
<rect width="26.3629" height="26.3629" fill="white" transform="translate(207.009 327.041) rotate(-20)"/>
</clipPath>
<clipPath id="clip41_2811_188253">
<rect width="26.3629" height="26.3629" fill="white" transform="translate(271.006 303.748) rotate(-20)"/>
</clipPath>
<clipPath id="clip42_2811_188253">
<rect width="26.3629" height="26.3629" fill="white" transform="translate(335.002 280.455) rotate(-20)"/>
</clipPath>
<clipPath id="clip43_2811_188253">
<rect width="26.3629" height="26.3629" fill="white" transform="translate(398.999 257.162) rotate(-20)"/>
</clipPath>
<clipPath id="clip44_2811_188253">
<rect width="26.3629" height="26.3629" fill="white" transform="translate(462.996 233.869) rotate(-20)"/>
</clipPath>
<clipPath id="clip45_2811_188253">
<rect width="26.3629" height="26.3629" fill="white" transform="translate(526.993 210.576) rotate(-20)"/>
</clipPath>
<clipPath id="clip46_2811_188253">
<rect width="26.3629" height="26.3629" fill="white" transform="translate(590.99 187.283) rotate(-20)"/>
</clipPath>
<clipPath id="clip47_2811_188253">
<rect width="26.3629" height="26.3629" fill="white" transform="translate(-27.1885 480.081) rotate(-20)"/>
</clipPath>
<clipPath id="clip48_2811_188253">
<rect width="26.3629" height="26.3629" fill="white" transform="translate(36.8086 456.788) rotate(-20)"/>
</clipPath>
<clipPath id="clip49_2811_188253">
<rect width="26.3629" height="26.3629" fill="white" transform="translate(100.806 433.495) rotate(-20)"/>
</clipPath>
<clipPath id="clip50_2811_188253">
<rect width="26.3629" height="26.3629" fill="white" transform="translate(164.803 410.202) rotate(-20)"/>
</clipPath>
<clipPath id="clip51_2811_188253">
<rect width="26.3629" height="26.3629" fill="white" transform="translate(228.8 386.909) rotate(-20)"/>
</clipPath>
<clipPath id="clip52_2811_188253">
<rect width="26.3629" height="26.3629" fill="white" transform="translate(292.797 363.616) rotate(-20)"/>
</clipPath>
<clipPath id="clip53_2811_188253">
<rect width="26.3629" height="26.3629" fill="white" transform="translate(356.793 340.323) rotate(-20)"/>
</clipPath>
<clipPath id="clip54_2811_188253">
<rect width="26.3629" height="26.3629" fill="white" transform="translate(420.79 317.03) rotate(-20)"/>
</clipPath>
<clipPath id="clip55_2811_188253">
<rect width="26.3629" height="26.3629" fill="white" transform="translate(484.787 293.737) rotate(-20)"/>
</clipPath>
<clipPath id="clip56_2811_188253">
<rect width="26.3629" height="26.3629" fill="white" transform="translate(548.784 270.444) rotate(-20)"/>
</clipPath>
<clipPath id="clip57_2811_188253">
<rect width="28.5598" height="28.5598" fill="white" transform="translate(-0.700195 559.28) rotate(-20)"/>
</clipPath>
<clipPath id="clip58_2811_188253">
<rect width="28.5598" height="28.5598" fill="white" transform="translate(63.2969 535.987) rotate(-20)"/>
</clipPath>
<clipPath id="clip59_2811_188253">
<rect width="28.5598" height="28.5598" fill="white" transform="translate(127.294 512.694) rotate(-20)"/>
</clipPath>
<clipPath id="clip60_2811_188253">
<rect width="28.5598" height="28.5598" fill="white" transform="translate(191.291 489.401) rotate(-20)"/>
</clipPath>
<clipPath id="clip61_2811_188253">
<rect width="28.5598" height="28.5598" fill="white" transform="translate(255.288 466.108) rotate(-20)"/>
</clipPath>
<clipPath id="clip62_2811_188253">
<rect width="28.5598" height="28.5598" fill="white" transform="translate(319.285 442.815) rotate(-20)"/>
</clipPath>
<clipPath id="clip63_2811_188253">
<rect width="28.5598" height="28.5598" fill="white" transform="translate(383.281 419.522) rotate(-20)"/>
</clipPath>
<clipPath id="clip64_2811_188253">
<rect width="28.5598" height="28.5598" fill="white" transform="translate(447.278 396.229) rotate(-20)"/>
</clipPath>
<clipPath id="clip65_2811_188253">
<rect width="28.5598" height="28.5598" fill="white" transform="translate(511.275 372.937) rotate(-20)"/>
</clipPath>
<clipPath id="clip66_2811_188253">
<rect width="28.5598" height="28.5598" fill="white" transform="translate(575.272 349.644) rotate(-20)"/>
</clipPath>
<clipPath id="clip67_2811_188253">
<rect width="28.5598" height="28.5598" fill="white" transform="translate(639.27 326.351) rotate(-20)"/>
</clipPath>
<clipPath id="clip68_2811_188253">
<rect width="28.5598" height="28.5598" fill="white" transform="translate(214.584 553.398) rotate(-20)"/>
</clipPath>
<clipPath id="clip69_2811_188253">
<rect width="28.5598" height="28.5598" fill="white" transform="translate(278.581 530.105) rotate(-20)"/>
</clipPath>
<clipPath id="clip70_2811_188253">
<rect width="28.5598" height="28.5598" fill="white" transform="translate(342.578 506.812) rotate(-20)"/>
</clipPath>
<clipPath id="clip71_2811_188253">
<rect width="28.5598" height="28.5598" fill="white" transform="translate(406.574 483.52) rotate(-20)"/>
</clipPath>
<clipPath id="clip72_2811_188253">
<rect width="28.5598" height="28.5598" fill="white" transform="translate(470.571 460.227) rotate(-20)"/>
</clipPath>
<clipPath id="clip73_2811_188253">
<rect width="28.5598" height="28.5598" fill="white" transform="translate(534.568 436.934) rotate(-20)"/>
</clipPath>
<clipPath id="clip74_2811_188253">
<rect width="28.5598" height="28.5598" fill="white" transform="translate(598.565 413.641) rotate(-20)"/>
</clipPath>
<clipPath id="clip75_2811_188253">
<rect width="28.5598" height="28.5598" fill="white" transform="translate(365.871 570.81) rotate(-20)"/>
</clipPath>
<clipPath id="clip76_2811_188253">
<rect width="28.5598" height="28.5598" fill="white" transform="translate(429.867 547.517) rotate(-20)"/>
</clipPath>
<clipPath id="clip77_2811_188253">
<rect width="28.5598" height="28.5598" fill="white" transform="translate(493.864 524.224) rotate(-20)"/>
</clipPath>
<clipPath id="clip78_2811_188253">
<rect width="28.5598" height="28.5598" fill="white" transform="translate(557.861 500.931) rotate(-20)"/>
</clipPath>
<clipPath id="clip79_2811_188253">
<rect width="28.5598" height="28.5598" fill="white" transform="translate(621.858 477.638) rotate(-20)"/>
</clipPath>
</defs>
</svg>
