<svg width="32" height="32" viewBox="0 0 32 32" fill="none" xmlns="http://www.w3.org/2000/svg">
<g clip-path="url(#clip0_2714_76780)">
<rect width="32" height="32" rx="8" fill="#07091B"/>
<g style="mix-blend-mode:lighten" filter="url(#filter0_f_2714_76780)">
<path fill-rule="evenodd" clip-rule="evenodd" d="M22.5251 25.4935C23.7188 24.5404 24.4378 22.8375 24.4378 20.5256C24.4378 15.3061 20.7734 8.95925 16.2532 6.34951C13.8738 4.97576 11.7316 4.91136 10.2361 5.91979L10.2356 5.91905L10.2036 5.94195C10.1667 5.96736 10.1302 5.99343 10.0942 6.02015L8.64939 7.0528L8.88263 7.43108C8.36109 8.3736 8.06866 9.60038 8.06866 11.0749C8.06866 16.2943 11.733 22.6412 16.2532 25.2509C17.8227 26.1571 19.289 26.4935 20.5346 26.3282L20.7884 26.7398L22.5295 25.5006L22.5251 25.4935Z" fill="url(#paint0_linear_2714_76780)"/>
</g>
<path fill-rule="evenodd" clip-rule="evenodd" d="M22.5251 25.4935C23.7188 24.5404 24.4378 22.8375 24.4378 20.5256C24.4378 15.3061 20.7734 8.95925 16.2532 6.34951C13.8738 4.97576 11.7316 4.91136 10.2361 5.91979L10.2356 5.91905L10.2036 5.94195C10.1667 5.96736 10.1302 5.99343 10.0942 6.02015L8.64939 7.0528L8.88263 7.43108C8.36109 8.3736 8.06866 9.60038 8.06866 11.0749C8.06866 16.2943 11.733 22.6412 16.2532 25.2509C17.8227 26.1571 19.289 26.4935 20.5346 26.3282L20.7884 26.7398L22.5295 25.5006L22.5251 25.4935Z" fill="url(#paint1_linear_2714_76780)"/>
<g style="mix-blend-mode:overlay" opacity="0.2">
<path fill-rule="evenodd" clip-rule="evenodd" d="M22.5251 25.4935C23.7188 24.5404 24.4378 22.8375 24.4378 20.5256C24.4378 15.3061 20.7734 8.95925 16.2532 6.34951C13.8738 4.97576 11.7316 4.91136 10.2361 5.91979L10.2356 5.91905L10.2036 5.94195C10.1667 5.96736 10.1302 5.99343 10.0942 6.02015L8.64939 7.0528L8.88263 7.43108C8.36109 8.3736 8.06866 9.60038 8.06866 11.0749C8.06866 16.2943 11.733 22.6412 16.2532 25.2509C17.8227 26.1571 19.289 26.4935 20.5346 26.3282L20.7884 26.7398L22.5295 25.5006L22.5251 25.4935Z" fill="#07091B"/>
</g>
<circle r="9.4507" transform="matrix(0.866025 0.5 -2.20305e-08 1 14.7468 16.8736)" fill="url(#paint2_linear_2714_76780)"/>
<g style="mix-blend-mode:overlay" filter="url(#filter1_i_2714_76780)">
<ellipse rx="7.38746" ry="7.38746" transform="matrix(0.866025 0.5 -2.20305e-08 1 14.7468 17.2144)" fill="#07091B" fill-opacity="0.2"/>
</g>
<path d="M14.4215 13.2197L15.1459 13.638L15.1459 14.6759C15.535 14.9521 15.8502 15.2942 16.0917 15.7021C16.3377 16.1075 16.4718 16.5541 16.4942 17.0421L15.7563 16.6161C15.7384 16.4508 15.7004 16.2998 15.6423 16.163C15.5842 16.0261 15.5104 15.9009 15.4209 15.7873C15.3315 15.6686 15.2287 15.5627 15.1124 15.4698C15.0006 15.3742 14.8754 15.2865 14.7368 15.2064C14.6473 15.1548 14.5489 15.1057 14.4416 15.0593C14.3343 15.0128 14.2382 14.9908 14.1532 14.9934C14.0638 14.9934 13.99 15.0257 13.9318 15.0902C13.8737 15.1496 13.8446 15.249 13.8446 15.3884C13.8446 15.5692 13.8804 15.7344 13.952 15.8841C14.0235 16.0339 14.1152 16.1746 14.227 16.3063C14.3432 16.4354 14.4707 16.558 14.6093 16.6742C14.7524 16.7878 14.8933 16.9001 15.0319 17.0111C15.2555 17.1867 15.4634 17.3609 15.6557 17.5339C15.848 17.7069 16.0135 17.8902 16.1521 18.0838C16.2952 18.28 16.407 18.4892 16.4875 18.7112C16.568 18.9332 16.6082 19.1785 16.6082 19.447C16.6082 19.7207 16.568 19.935 16.4875 20.0899C16.407 20.2396 16.2974 20.3416 16.1588 20.3958C16.0246 20.4475 15.8659 20.4565 15.6825 20.4229C15.5037 20.3868 15.3136 20.3184 15.1124 20.2177L15.1124 21.2323L14.3947 20.8179L14.3947 19.7801C14.1845 19.6277 13.99 19.4586 13.8111 19.2727C13.6367 19.0843 13.4824 18.8816 13.3483 18.6647C13.2186 18.4504 13.1135 18.2271 13.033 17.9948C12.9525 17.7572 12.9033 17.512 12.8854 17.2589L13.6635 17.7082C13.6904 17.8889 13.744 18.0593 13.8245 18.2194C13.905 18.3743 14.0011 18.5176 14.1129 18.6492C14.2247 18.7809 14.3455 18.8997 14.4752 19.0055C14.6048 19.1062 14.7323 19.1927 14.8575 19.265C14.9782 19.3347 15.0967 19.3928 15.213 19.4393C15.3293 19.4806 15.4321 19.4986 15.5216 19.4935C15.6155 19.4857 15.6915 19.4496 15.7496 19.385C15.8078 19.3153 15.8368 19.2056 15.8368 19.0559C15.8368 18.8803 15.7921 18.7202 15.7027 18.5757C15.6177 18.4285 15.5081 18.2904 15.374 18.1613C15.2443 18.0296 15.1012 17.9057 14.9447 17.7895C14.7927 17.6759 14.6496 17.5623 14.5154 17.4487C14.3008 17.2731 14.104 17.095 13.9251 16.9143C13.7463 16.7284 13.5897 16.5348 13.4556 16.3334C13.3259 16.1346 13.2231 15.9254 13.147 15.706C13.0755 15.4891 13.0397 15.2568 13.0397 15.0089C13.0397 14.7611 13.0777 14.5661 13.1537 14.4241C13.2342 14.2847 13.3371 14.1892 13.4623 14.1376C13.592 14.0833 13.7395 14.0704 13.905 14.0988C14.0705 14.1221 14.2426 14.1724 14.4215 14.2499L14.4215 13.2197Z" fill="white"/>
<ellipse rx="7.38746" ry="7.38746" transform="matrix(0.866025 0.5 -2.20305e-08 1 14.7468 17.2144)" stroke="white" stroke-width="0.147552"/>
</g>
<defs>
<filter id="filter0_f_2714_76780" x="2.16659" y="-0.67039" width="28.1732" height="33.3123" filterUnits="userSpaceOnUse" color-interpolation-filters="sRGB">
<feFlood flood-opacity="0" result="BackgroundImageFix"/>
<feBlend mode="normal" in="SourceGraphic" in2="BackgroundImageFix" result="shape"/>
<feGaussianBlur stdDeviation="2.95104" result="effect1_foregroundBlur_2714_76780"/>
</filter>
<filter id="filter1_i_2714_76780" x="8.34906" y="8.95312" width="12.7955" height="17.7029" filterUnits="userSpaceOnUse" color-interpolation-filters="sRGB">
<feFlood flood-opacity="0" result="BackgroundImageFix"/>
<feBlend mode="normal" in="SourceGraphic" in2="BackgroundImageFix" result="shape"/>
<feColorMatrix in="SourceAlpha" type="matrix" values="0 0 0 0 0 0 0 0 0 0 0 0 0 0 0 0 0 0 127 0" result="hardAlpha"/>
<feOffset dy="1.18042"/>
<feGaussianBlur stdDeviation="0.590208"/>
<feComposite in2="hardAlpha" operator="arithmetic" k2="-1" k3="1"/>
<feColorMatrix type="matrix" values="0 0 0 0 0 0 0 0 0 0 0 0 0 0 0 0 0 0 0.25 0"/>
<feBlend mode="normal" in2="shape" result="effect1_innerShadow_2714_76780"/>
</filter>
<linearGradient id="paint0_linear_2714_76780" x1="8.06866" y1="26.7398" x2="29.3041" y2="11.8435" gradientUnits="userSpaceOnUse">
<stop stop-color="#AC50EF"/>
<stop offset="0.46875" stop-color="#7059FB"/>
<stop offset="1" stop-color="#2ECFF6"/>
</linearGradient>
<linearGradient id="paint1_linear_2714_76780" x1="8.06866" y1="26.7398" x2="29.3041" y2="11.8435" gradientUnits="userSpaceOnUse">
<stop stop-color="#AC50EF"/>
<stop offset="0.46875" stop-color="#7059FB"/>
<stop offset="1" stop-color="#2ECFF6"/>
</linearGradient>
<linearGradient id="paint2_linear_2714_76780" x1="-7.43501e-07" y1="18.9014" x2="15.172" y2="2.27438" gradientUnits="userSpaceOnUse">
<stop stop-color="#AC50EF"/>
<stop offset="0.46875" stop-color="#7059FB"/>
<stop offset="1" stop-color="#2ECFF6"/>
</linearGradient>
<clipPath id="clip0_2714_76780">
<rect width="32" height="32" rx="8" fill="white"/>
</clipPath>
</defs>
</svg>
