<svg width="28" height="26" viewBox="0 0 28 26" fill="none" xmlns="http://www.w3.org/2000/svg">
<path d="M19.9551 21.9485C19.9551 22.7441 19.639 23.5072 19.0764 24.0698C18.5138 24.6324 17.7507 24.9485 16.9551 24.9485C16.1594 24.9485 15.3964 24.6324 14.8338 24.0698C14.2711 23.5072 13.9551 22.7441 13.9551 21.9485V13.9485" stroke="white" stroke-width="1.5" stroke-linecap="round" stroke-linejoin="round"/>
<path d="M1.99258 13.9484C1.85404 13.9491 1.7169 13.9207 1.59007 13.8649C1.46324 13.8092 1.34956 13.7273 1.25643 13.6248C1.16329 13.5222 1.09278 13.4012 1.04948 13.2696C1.00617 13.138 0.991046 12.9988 1.00508 12.8609C1.2899 9.6228 2.77752 6.60887 5.17465 4.41334C7.57177 2.21781 10.7045 1 13.9551 1C17.2057 1 20.3384 2.21781 22.7355 4.41334C25.1326 6.60887 26.6203 9.6228 26.9051 12.8609C26.9191 12.9988 26.904 13.138 26.8607 13.2696C26.8174 13.4012 26.7469 13.5222 26.6537 13.6248C26.5606 13.7273 26.4469 13.8092 26.3201 13.8649C26.1933 13.9207 26.0561 13.9491 25.9176 13.9484H1.99258Z" stroke="white" stroke-width="1.5" stroke-linecap="round" stroke-linejoin="round"/>
</svg>
