<svg width="26" height="28" viewBox="0 0 26 28" fill="none" xmlns="http://www.w3.org/2000/svg">
<path d="M25.1875 13.0004H21.1875C20.6571 13.0004 20.1484 13.2111 19.7733 13.5862C19.3982 13.9613 19.1875 14.47 19.1875 15.0004V20.0004C19.1875 20.5308 19.3982 21.0396 19.7733 21.4146C20.1484 21.7897 20.6571 22.0004 21.1875 22.0004H23.1875C23.7179 22.0004 24.2266 21.7897 24.6017 21.4146C24.9768 21.0396 25.1875 20.5308 25.1875 20.0004V13.0004ZM25.1875 13.0004C25.1876 11.4161 24.8739 9.84746 24.2646 8.385C23.6553 6.92254 22.7624 5.5952 21.6375 4.47958C20.5126 3.36396 19.1779 2.48214 17.7104 1.885C16.2429 1.28786 14.6718 0.987214 13.0875 1.00042C11.5043 0.988872 9.93445 1.29074 8.46842 1.88863C7.0024 2.48651 5.66919 3.36859 4.5456 4.48405C3.42201 5.5995 2.53026 6.92628 1.92174 8.38791C1.31322 9.84955 0.999958 11.4172 1 13.0004V20.0004C1 20.5308 1.21071 21.0396 1.58579 21.4146C1.96086 21.7897 2.46957 22.0004 3 22.0004H5C5.53043 22.0004 6.03914 21.7897 6.41421 21.4146C6.78929 21.0396 7 20.5308 7 20.0004V15.0004C7 14.47 6.78929 13.9613 6.41421 13.5862C6.03914 13.2111 5.53043 13.0004 5 13.0004H1" stroke="white" stroke-width="1.5" stroke-linecap="round" stroke-linejoin="round"/>
<path d="M25.1875 20.0005V23.0005C25.1875 24.0614 24.7661 25.0788 24.0159 25.8289C23.2658 26.5791 22.2484 27.0005 21.1875 27.0005H14" stroke="white" stroke-width="1.5" stroke-linecap="round" stroke-linejoin="round"/>
</svg>
