<svg width="28" height="24" viewBox="0 0 28 24" fill="none" xmlns="http://www.w3.org/2000/svg">
<path d="M19.9091 22.2725V19.9089C19.9091 18.6552 19.411 17.4528 18.5245 16.5662C17.638 15.6797 16.4356 15.1816 15.1818 15.1816H5.72727C4.47352 15.1816 3.27112 15.6797 2.38459 16.5662C1.49805 17.4528 1 18.6552 1 19.9089V22.2725" stroke="white" stroke-width="1.5" stroke-linecap="round" stroke-linejoin="round"/>
<path d="M10.4546 10.4545C13.0654 10.4545 15.1818 8.33807 15.1818 5.72727C15.1818 3.11647 13.0654 1 10.4546 1C7.84377 1 5.72729 3.11647 5.72729 5.72727C5.72729 8.33807 7.84377 10.4545 10.4546 10.4545Z" stroke="white" stroke-width="1.5" stroke-linecap="round" stroke-linejoin="round"/>
<path d="M27 22.2727V19.9091C26.9993 18.8617 26.6506 17.8442 26.0089 17.0164C25.3672 16.1886 24.4687 15.5973 23.4546 15.3354" stroke="white" stroke-width="1.5" stroke-linecap="round" stroke-linejoin="round"/>
<path d="M18.7273 1.15332C19.7441 1.41368 20.6454 2.00506 21.289 2.83423C21.9327 3.66341 22.282 4.68321 22.282 5.73287C22.282 6.78252 21.9327 7.80232 21.289 8.6315C20.6454 9.46067 19.7441 10.0521 18.7273 10.3124" stroke="white" stroke-width="1.5" stroke-linecap="round" stroke-linejoin="round"/>
</svg>
