<svg width="26" height="26" viewBox="0 0 26 26" fill="none" xmlns="http://www.w3.org/2000/svg">
<path d="M13 25C19.6274 25 25 19.6274 25 13C25 6.37258 19.6274 1 13 1C6.37258 1 1 6.37258 1 13C1 19.6274 6.37258 25 13 25Z" stroke="white" stroke-width="1.5" stroke-miterlimit="10"/>
<path d="M1.6875 9H24.3125" stroke="white" stroke-width="1.5" stroke-linecap="round" stroke-linejoin="round"/>
<path d="M1.6875 17H24.3125" stroke="white" stroke-width="1.5" stroke-linecap="round" stroke-linejoin="round"/>
<path d="M13 24.6752C15.7614 24.6752 18 19.4481 18 13.0002C18 6.55227 15.7614 1.3252 13 1.3252C10.2386 1.3252 8 6.55227 8 13.0002C8 19.4481 10.2386 24.6752 13 24.6752Z" stroke="white" stroke-width="1.5" stroke-miterlimit="10"/>
</svg>
