<svg width="45" height="45" viewBox="0 0 45 45" fill="none" xmlns="http://www.w3.org/2000/svg">
<g clip-path="url(#clip0_2771_167958)">
<rect width="45" height="45" fill="white"/>
<ellipse cx="22.5672" cy="22.5011" rx="32.4324" ry="32.4989" fill="url(#paint0_linear_2771_167958)"/>
<path d="M32.2542 14.6891C35.2186 19.0477 36.6826 23.964 36.1353 29.6238C36.133 29.6477 36.1206 29.6697 36.1009 29.6841C33.856 31.3325 31.681 32.3329 29.5365 32.9964C29.5198 33.0014 29.5019 33.0011 29.4854 32.9956C29.4689 32.99 29.4545 32.9793 29.4443 32.9652C28.9489 32.2758 28.4987 31.5491 28.1043 30.7859C28.0817 30.741 28.1024 30.6868 28.149 30.6691C28.8639 30.3997 29.5437 30.0769 30.1976 29.6946C30.2491 29.6645 30.2524 29.5906 30.2049 29.5552C30.0661 29.4522 29.9286 29.3439 29.797 29.2356C29.7724 29.2156 29.7393 29.2117 29.7114 29.2251C25.4661 31.1855 20.8155 31.1855 16.52 29.2251C16.4921 29.2127 16.459 29.2169 16.435 29.2366C16.3038 29.3449 16.166 29.4522 16.0285 29.5552C15.9809 29.5906 15.9848 29.6645 16.0367 29.6946C16.6906 30.0697 17.3704 30.3997 18.0844 30.6704C18.1306 30.6881 18.1526 30.741 18.1297 30.7859C17.7438 31.5501 17.2936 32.2768 16.789 32.9662C16.767 32.9941 16.7309 33.0069 16.6968 32.9964C14.5625 32.3329 12.3875 31.3325 10.1426 29.6841C10.1239 29.6697 10.1105 29.6467 10.1085 29.6228C9.65113 24.7272 10.5833 19.7702 13.986 14.6882C13.9942 14.6747 14.0067 14.6642 14.0211 14.658C15.6955 13.8896 17.4892 13.3242 19.364 13.0014C19.3981 12.9961 19.4322 13.0119 19.4499 13.0421C19.6816 13.4522 19.9464 13.9781 20.1255 14.408C22.1017 14.1061 24.1087 14.1061 26.1262 14.408C26.3053 13.9873 26.5609 13.4522 26.7916 13.0421C26.7998 13.0271 26.8125 13.0151 26.828 13.0078C26.8434 13.0005 26.8608 12.9982 26.8776 13.0014C28.7533 13.3252 30.5471 13.8905 32.2201 14.658C32.2348 14.6642 32.247 14.6747 32.2542 14.6891ZM21.1302 23.9975C21.1508 22.5502 20.0957 21.3526 18.7711 21.3526C17.4574 21.3526 16.4124 22.5397 16.4124 23.9975C16.4124 25.4549 17.478 26.642 18.7711 26.642C20.0852 26.642 21.1302 25.4549 21.1302 23.9975ZM29.8518 23.9975C29.8725 22.5502 28.8173 21.3526 27.4931 21.3526C26.179 21.3526 25.134 22.5397 25.134 23.9975C25.134 25.4549 26.1997 26.642 27.4931 26.642C28.8173 26.642 29.8518 25.4549 29.8518 23.9975Z" fill="white"/>
</g>
<defs>
<linearGradient id="paint0_linear_2771_167958" x1="-9.86524" y1="37.6673" x2="73.822" y2="-9.85045" gradientUnits="userSpaceOnUse">
<stop stop-color="#AC50EF"/>
<stop offset="0.46875" stop-color="#7059FB"/>
<stop offset="1" stop-color="#2ECFF6"/>
</linearGradient>
<clipPath id="clip0_2771_167958">
<rect width="45" height="45" fill="white"/>
</clipPath>
</defs>
</svg>
