<svg width="45" height="45" viewBox="0 0 45 45" fill="none" xmlns="http://www.w3.org/2000/svg">
<g clip-path="url(#clip0_2771_167957)">
<rect width="45" height="45" fill="white"/>
<ellipse cx="22.5672" cy="22.5011" rx="32.4324" ry="32.4989" fill="url(#paint0_linear_2771_167957)"/>
<path d="M26.4787 33.0996C26.5823 33.0696 26.6726 33.0066 26.7355 32.9207C26.7983 32.8348 26.8301 32.7308 26.8256 32.6253C26.7941 31.1692 26.8839 29.7155 26.7723 28.2618C26.7386 27.6048 26.5092 26.9718 26.1123 26.4406C26.0662 26.3789 25.9765 26.3338 26.0032 26.239C26.0282 26.2216 26.0575 26.2109 26.0881 26.2082C26.1609 26.1939 26.2361 26.1868 26.3113 26.1773C27.5616 26.0453 28.7655 25.6401 29.8339 24.9916C30.6658 24.47 31.3229 23.7213 31.7238 22.8383C32.209 21.7132 32.4502 20.502 32.4322 19.2811C32.4803 17.9536 32.0337 16.6542 31.1755 15.6243C31.1116 15.5531 31.0667 15.4676 31.0447 15.3754C31.0227 15.2831 31.0243 15.187 31.0494 15.0955C31.3589 14.0347 31.3027 12.9038 30.8893 11.8774C30.8457 11.7607 30.7642 11.6612 30.6573 11.5939C30.5504 11.5267 30.424 11.4955 30.2973 11.5051C30.0135 11.5278 29.7334 11.5827 29.4627 11.6688C28.6806 11.9122 27.9356 12.2576 27.2478 12.6956C27.0834 12.8077 26.8949 12.8815 26.6967 12.9111C26.4986 12.9407 26.2962 12.9254 26.1051 12.8663C25.3818 12.6931 24.6435 12.5867 23.8998 12.5486C22.5716 12.4716 21.2392 12.5915 19.9478 12.9043C19.814 12.946 19.672 12.9564 19.5333 12.9345C19.3947 12.9127 19.2632 12.8593 19.1496 12.7786C18.4285 12.323 17.6507 11.9596 16.8351 11.6972C16.5233 11.5877 16.1959 11.5269 15.8647 11.517C15.7523 11.4974 15.6365 11.5194 15.5397 11.5785C15.4429 11.6376 15.372 11.7298 15.3407 11.8371C14.9865 12.8687 14.8264 13.9169 15.1612 14.9793C15.2084 15.1062 15.2178 15.2435 15.1881 15.3754C15.1585 15.5072 15.0911 15.6281 14.9938 15.7239C14.6064 16.1437 14.3116 16.6369 14.1277 17.1729C13.8077 18.2593 13.7251 19.3994 13.8851 20.519C13.9904 21.4466 14.2683 22.3475 14.705 23.1774C15.314 24.3323 16.316 25.0485 17.5071 25.5489C18.2923 25.8648 19.1186 26.0724 19.9623 26.1655C20.2971 26.2105 20.2995 26.2082 20.1079 26.4643C19.8422 26.7908 19.6624 27.1759 19.5839 27.586C19.5722 27.7424 19.5037 27.8896 19.3906 28.001C19.2776 28.1123 19.1276 28.1804 18.9676 28.1931C18.873 28.2097 18.7833 28.2405 18.6911 28.2571C17.9075 28.3946 17.1408 28.4326 16.43 27.9654C15.9853 27.637 15.6152 27.2219 15.3431 26.7465C14.9446 26.1388 14.3453 25.6827 13.6449 25.454C13.3542 25.3391 13.0331 25.3199 12.7303 25.3995C12.674 25.4118 12.622 25.4383 12.5794 25.4762C12.5367 25.5141 12.5049 25.5622 12.4871 25.6158C12.4692 25.6694 12.4659 25.7266 12.4775 25.7818C12.4891 25.837 12.5152 25.8883 12.5532 25.9307C12.6615 26.0825 12.7991 26.2122 12.9583 26.3125C13.7565 26.7868 14.2247 27.5125 14.5474 28.3353C14.9719 29.4238 15.809 29.974 16.9468 30.14C17.6969 30.2827 18.4674 30.2891 19.2199 30.159C19.3267 30.1353 19.4407 30.1211 19.431 30.2847C19.3849 31.0483 19.5184 31.8095 19.482 32.5755C19.4737 32.691 19.5069 32.8057 19.576 32.8997C19.6452 32.9937 19.7458 33.061 19.8604 33.0901C22.0308 33.6324 24.3058 33.6324 26.4762 33.0901L26.4787 33.0996Z" fill="#FEFEFE"/>
</g>
<defs>
<linearGradient id="paint0_linear_2771_167957" x1="-9.86524" y1="37.6673" x2="73.822" y2="-9.85045" gradientUnits="userSpaceOnUse">
<stop stop-color="#AC50EF"/>
<stop offset="0.46875" stop-color="#7059FB"/>
<stop offset="1" stop-color="#2ECFF6"/>
</linearGradient>
<clipPath id="clip0_2771_167957">
<rect width="45" height="45" fill="white"/>
</clipPath>
</defs>
</svg>
