<svg width="95" height="137" viewBox="0 0 95 137" fill="none" xmlns="http://www.w3.org/2000/svg">
<path d="M28.6355 21.0488C27.727 21.313 26.8367 21.6192 25.9646 21.9675C20.1876 24.0049 15.0462 27.5003 11.0477 32.109C7.89391 36.0868 5.70858 40.7327 4.6623 45.6848C3.61603 50.6369 3.73691 55.7617 5.0154 60.66C7.5591 69.1622 17.5885 73.9717 27.2182 77.3042C27.2182 77.3042 18.9147 63.1278 21.1859 50.6986C23.6024 37.3868 36.648 25.7683 37.1204 25.6242L28.6355 21.0488Z" fill="#07091B" stroke="white" stroke-width="0.5" stroke-linecap="round" stroke-linejoin="round"/>
<path d="M35.5459 136.05L27.4546 131.632L27.4909 114.033L36.5459 117.55L35.5459 136.05Z" fill="#07091B" stroke="white" stroke-width="0.5" stroke-linecap="round" stroke-linejoin="round"/>
<path d="M61.5403 91.7868C62.7032 88.7246 62.8485 84.5815 60.1776 82.6181C59.764 82.3231 59.3329 82.0524 58.8872 81.8075L50.5296 77.3042C50.9806 77.5401 51.4119 77.8112 51.8196 78.1148C52.5357 78.7356 53.097 79.5125 53.4595 80.3844C53.822 81.2564 53.9757 82.1997 53.9089 83.1405C53.9414 85.0728 53.4788 86.9818 52.5644 88.6886C51.2403 90.91 49.28 92.6908 46.9322 93.8043C43.8799 95.1803 40.6206 96.0505 37.2842 96.3802C35.1588 96.6771 33.0046 96.7134 30.8704 96.4883C29.9899 96.3822 29.1164 96.2259 28.2541 96.02H27.9454L26.9278 95.7137C26.7642 95.7137 26.5825 95.6057 26.419 95.5516C25.9296 95.3737 25.4503 95.1692 24.9835 94.9392C24.8207 94.8772 24.6677 94.7922 24.5293 94.687C25.5584 95.1581 26.5436 95.7187 27.4729 96.3622C30.9651 98.586 34.8479 100.138 38.9192 100.938C42.0476 101.346 45.2234 101.231 48.313 100.595C51.2017 100.117 53.9821 99.1347 56.5256 97.6952C58.1516 96.7367 59.5369 95.4248 60.5773 93.8584C60.9746 93.2053 61.2976 92.5106 61.5403 91.7868V91.7868Z" fill="#07091B" stroke="white" stroke-width="0.5" stroke-linecap="round" stroke-linejoin="round"/>
<path d="M50.0183 38.7573L54.7976 41.3392C54.7977 41.3392 54.7978 41.3392 54.7979 41.3393C56.3157 42.1604 57.6059 43.3386 58.5557 44.7697C59.5635 46.4362 60.1983 48.2937 60.4215 50.2167L52.5748 45.9779C52.4173 43.6656 51.7078 41.4221 50.503 39.4334L50.4973 39.424L50.4912 39.4149C50.341 39.1899 50.1833 38.9706 50.0183 38.7573Z" fill="#07091B" stroke="white"/>
<path d="M46.1323 36.0898L55.0355 40.8994C56.6283 41.761 57.9822 42.9984 58.9781 44.502C60.189 46.5009 60.8821 48.7659 60.9951 51.0949L52.0919 46.2853C51.9789 43.9564 51.2863 41.6914 50.0754 39.6925C49.0744 38.1931 47.7212 36.9569 46.1323 36.0898V36.0898Z" fill="#07091B" stroke="white" stroke-width="0.5" stroke-linecap="round" stroke-linejoin="round"/>
<path d="M65.6101 64.2986L66.7364 64.6408C67.0271 64.7489 67.3178 64.839 67.6085 64.9651C67.8992 65.0912 68.3172 65.2533 68.6625 65.3974L69.8797 65.9738L65.7734 63.7582C63.4839 62.4078 61.0903 61.2393 58.6148 60.2636C56.1526 59.4627 53.6033 58.9548 51.0202 58.7505C48.4401 58.4983 45.8237 58.2101 43.2437 58.138C40.6636 58.066 37.6293 57.9039 35.0129 57.6517C33.7229 57.5436 32.4873 57.3815 31.27 57.1653L30.1073 56.9131C29.2352 56.751 28.2901 56.5709 27.5088 56.3547L35.7941 60.822L36.2483 60.9301C36.9387 61.1102 38.1742 61.2363 38.8828 61.3804L40.064 61.6326C41.2632 61.8488 42.517 62.0109 43.7888 62.119C46.4234 62.3712 49.0034 62.5333 51.5108 62.6053C55.1446 62.8035 58.5968 63.1277 61.9945 63.56C62.9117 63.6856 63.8215 63.86 64.7199 64.0824L65.6101 64.2986Z" fill="#07091B" stroke="white" stroke-width="0.5" stroke-linecap="round" stroke-linejoin="round"/>
<path d="M52.0273 22.9215L45.5837 19.4472C49.5034 19.5666 53.3554 20.5509 56.8559 22.338L59.184 23.5933C56.8477 23.0617 54.4419 22.8334 52.0273 22.9215Z" fill="#07091B" stroke="white"/>
<path d="M57.0883 21.8952L56.2889 21.4809C54.8617 20.7986 53.3709 20.2556 51.8375 19.8597C49.1531 19.1962 46.3908 18.8932 43.625 18.959L51.9103 23.4263C54.6761 23.362 57.4381 23.6649 60.1228 24.3269C61.6553 24.7259 63.1457 25.2687 64.5742 25.9481L65.3736 26.3624L57.0883 21.8952Z" fill="#07091B" stroke="white" stroke-width="0.5" stroke-linecap="round" stroke-linejoin="round"/>
<path d="M57.0883 21.8953L65.3736 26.3626C61.2179 24.2446 56.5788 23.2328 51.9103 23.4264L43.625 18.9591C48.2939 18.7614 52.934 19.7733 57.0883 21.8953V21.8953Z" fill="#07091B" stroke="white" stroke-width="0.5" stroke-linecap="round" stroke-linejoin="round"/>
<path d="M14.0292 110.243L14.0292 110.243L14.0252 110.241C10.3498 108.297 7.27804 105.399 5.13908 101.857C2.73143 97.5563 1.49757 92.7124 1.55202 87.8037L8.848 91.7377C8.70465 97.0011 9.98372 102.209 12.555 106.819L12.5593 106.827L12.5639 106.835C13.5679 108.493 14.7663 110.017 16.1284 111.377L14.0292 110.243Z" fill="#07091B" stroke="white"/>
<path d="M22.0581 115.15L13.7914 110.683C10.0338 108.696 6.89308 105.732 4.70681 102.108C2.1197 97.4902 0.862633 92.2559 1.07295 86.9773L9.3578 91.4446C9.15772 96.7221 10.4141 101.954 12.9917 106.576C15.1851 110.193 18.324 113.156 22.0763 115.15" fill="#07091B"/>
<path d="M22.0581 115.15L13.7914 110.683C10.0338 108.696 6.89308 105.732 4.70681 102.108C2.1197 97.4902 0.862633 92.2559 1.07295 86.9773L9.3578 91.4446C9.15772 96.7221 10.4141 101.954 12.9917 106.576C15.1851 110.193 18.324 113.156 22.0763 115.15" stroke="white" stroke-width="0.5" stroke-linecap="round" stroke-linejoin="round"/>
<path d="M22.0581 115.15L13.7914 110.683C10.0338 108.696 6.89308 105.732 4.70681 102.108C2.1197 97.4902 0.862633 92.2559 1.07295 86.9773L9.3578 91.4446C9.15772 96.7221 10.4141 101.954 12.9917 106.576C15.1801 110.191 18.3125 113.153 22.0581 115.15V115.15Z" fill="#07091B" stroke="white" stroke-width="0.5" stroke-linecap="round" stroke-linejoin="round"/>
<path d="M9.28519 91.4446L1 86.9773L18.17 84.5815L26.4552 89.0488L9.28519 91.4446Z" fill="#07091B" stroke="white" stroke-width="0.5" stroke-linecap="round" stroke-linejoin="round"/>
<path d="M36.5457 8.04956L28.0723 3.1796L43.6615 1L51.9467 5.46728L36.5457 8.04956Z" fill="#07091B" stroke="white" stroke-width="0.5" stroke-linecap="round" stroke-linejoin="round"/>
<path d="M36.3211 25.4981L28.0359 21.0308L28.0722 3.17969L36.3574 7.64697L36.3211 25.4981Z" fill="#07091B" stroke="white" stroke-width="0.5" stroke-linecap="round" stroke-linejoin="round"/>
<path d="M51.9466 5.46729V23.3364C59.5777 23.2283 65.6341 25.3839 70.1158 29.8032C74.6763 34.1984 77.1289 40.6111 77.5286 48.8432L63.9016 50.6445L60.9221 51.0588C60.9282 49.1473 60.4281 47.2678 59.4715 45.6082C58.515 43.9486 57.1355 42.567 55.4713 41.6019C51.8374 39.5844 47.4948 39.8005 43.4248 40.377C41.3243 40.6566 39.2637 41.1764 37.2838 41.9261C32.4326 43.9256 28.1992 49.1314 29.5619 54.6615C29.8909 55.8691 30.5061 56.9813 31.3562 57.9056C32.2063 58.8299 33.2667 59.5395 34.4493 59.9754C39.7366 62.2991 45.8963 62.191 51.5651 62.5152C55.1989 62.7134 58.6507 63.0376 62.0483 63.4699C65.2413 63.8387 68.3129 64.9029 71.0425 66.5862C73.5399 68.3009 75.5537 70.6199 76.8929 73.3232C78.4926 76.8691 79.2329 80.737 79.055 84.6175C79.2363 89.4044 78.2645 94.1652 76.2205 98.5057C74.4827 102.226 72.0116 105.564 68.9528 108.323C66.4599 110.403 63.7129 112.164 60.7766 113.565C57.7761 114.994 54.6343 116.111 51.4014 116.897V133.938L35.5457 136.05L35.7938 118.518C31.6099 118.387 27.485 117.502 23.6205 115.906C19.1933 113.948 15.4774 110.691 12.9731 106.576C10.3956 101.954 9.13918 96.7221 9.33926 91.4445L26.5096 89.0487C26.6377 91.3316 27.4192 93.531 28.7626 95.3894C29.9439 96.9912 31.512 98.2733 33.3231 99.1181C35.1611 99.9773 37.1334 100.519 39.1553 100.721C41.2657 100.937 43.3947 100.901 45.4964 100.613C47.4231 100.344 49.3335 99.9709 51.2195 99.4964C53.0878 99.0273 54.8717 98.2738 56.5071 97.2628C58.0909 96.2714 59.4315 94.9421 60.4315 93.3719C61.5169 91.6074 62.0543 89.565 61.976 87.4996C62.035 86.5746 61.8787 85.6485 61.5196 84.7928C61.1605 83.937 60.6079 83.1745 59.9045 82.564C58.5653 81.6025 57.0358 80.9333 55.4167 80.6005C52.87 80.2447 50.3029 80.0521 47.7312 80.0241C45.1309 80.0032 42.5341 79.8287 39.9547 79.5017C36.5748 79.1568 33.2151 78.6397 29.8888 77.9526C26.5138 77.3372 23.3035 76.0371 20.4591 74.1338C17.4902 72.242 15.1763 69.4952 13.8275 66.262C12.3765 62.5475 11.7565 58.5648 12.0105 54.5894C12.1118 50.8686 12.9253 47.2008 14.4086 43.7815C15.7433 40.7031 17.5854 37.8663 19.8593 35.3873C22.0663 33.0165 24.6207 30.9884 27.4362 29.3709C30.2236 27.7692 33.186 26.488 36.2662 25.5521V7.68291L51.9466 5.46729Z" fill="#07091B" stroke="white" stroke-width="0.5" stroke-linecap="round" stroke-linejoin="round"/>
</svg>
