<svg width="95" height="137" viewBox="0 0 95 137" fill="none" xmlns="http://www.w3.org/2000/svg">
<g clip-path="url(#clip0_2741_137415)">
<path d="M68.0608 69.9146C68.4513 69.9146 68.8417 69.9146 69.216 69.9146H69.8182L70.9245 70.0289L71.4615 70.1106C71.9009 70.1106 72.3562 70.2739 72.7955 70.3719H73.0235C73.5441 70.5025 74.0648 70.6659 74.6506 70.8455L75.0736 71.0088L76.1311 71.4661C76.4239 71.6131 76.7169 71.7438 77.0097 71.9071L69.5902 67.8568L68.9558 67.5301L68.7115 67.4158L67.654 66.9585L67.231 66.7952C66.7243 66.6104 66.2084 66.4524 65.6853 66.3216V66.3216H65.4736C65.0343 66.2236 64.5953 66.1256 64.1397 66.0602L63.6026 65.9786L62.4963 65.8643H61.9104C61.5199 65.8643 61.1294 65.8643 60.7389 65.8643H60.2019C59.6324 65.8643 59.0632 65.9459 58.4775 66.0276L21.266 71.2538C20.6151 71.3518 19.9807 71.4825 19.3461 71.6295L18.809 71.7764C18.3426 71.9071 17.871 72.0541 17.3937 72.2174L16.9055 72.3807C16.3197 72.593 15.7502 72.838 15.1807 73.0993C15.018 73.0993 14.8552 73.2627 14.6925 73.3443C14.2369 73.573 13.7812 73.8016 13.3419 74.0629L12.6912 74.4876C12.4146 74.6672 12.1217 74.8305 11.8451 75.0265C11.7877 75.066 11.7336 75.1097 11.6826 75.1572C10.9094 75.6986 10.1702 76.2877 9.46962 76.921L9.32304 77.019L8.99771 77.362C8.49331 77.8356 7.98906 78.3419 7.51721 78.8645C7.41958 78.9625 7.30578 79.0605 7.20816 79.1748L6.98014 79.4688C6.47575 80.0568 5.98778 80.6774 5.51593 81.3143L5.33678 81.5593C4.78357 82.3432 4.29556 83.1925 3.8237 83.9928L3.67712 84.2541C3.53068 84.5154 3.40052 84.793 3.27035 85.0707C3.14019 85.3483 3.04264 85.5116 2.94502 85.7403C2.70095 86.2466 2.48959 86.7529 2.29434 87.2755C2.29434 87.4225 2.18027 87.5531 2.11519 87.7001C2.05011 87.8471 2.11519 87.7001 2.11519 87.7001C1.96875 88.0921 1.85489 88.5004 1.74099 88.8924C1.6271 89.2843 1.52958 89.4803 1.44823 89.7906C1.36687 90.1009 1.23641 90.6889 1.13878 91.1462C1.04116 91.6035 0.992535 91.7178 0.927451 92.0118C0.862368 92.3058 0.781205 93.008 0.716122 93.5143C0.651038 94.0206 0.634672 94.0206 0.618401 94.2819C0.618401 95.0495 0.504395 95.8171 0.504395 96.5847V125.394L7.92398 129.445V100.635C7.92133 99.866 7.95946 99.0973 8.03798 98.3323C8.03798 98.071 8.03768 97.826 8.13531 97.5647C8.13531 97.0584 8.26568 96.5684 8.34703 96.0621L8.54208 95.1965C8.65597 94.7392 8.73725 94.2819 8.86741 93.841C8.99758 93.4 9.06293 93.2367 9.14429 92.9427C9.22564 92.6487 9.40462 92.0934 9.55106 91.6851C9.55106 91.5382 9.681 91.4075 9.72981 91.2605C9.92506 90.7379 10.1368 90.2316 10.3646 89.7253L10.7062 89.0557C10.8852 88.6964 11.0643 88.3371 11.2596 87.9778C11.7314 87.1448 12.2194 86.3446 12.7564 85.5443C12.8375 85.4448 12.9134 85.3413 12.984 85.234C13.4558 84.5971 13.9279 83.9764 14.4486 83.3885L14.9853 82.7842C15.4571 82.2616 15.9618 81.7553 16.4661 81.2817C16.6289 81.1347 16.7754 80.9714 16.9381 80.8407C17.6353 80.2035 18.3744 79.6142 19.1507 79.0768L20.1597 78.4072L20.8103 77.9826C21.2496 77.7213 21.7053 77.4926 22.1609 77.264C22.3236 77.264 22.4701 77.0843 22.6328 77.019C23.2186 76.7414 23.8204 76.4964 24.4224 76.2677L24.9106 76.1044C25.377 75.9411 25.8491 75.7941 26.3264 75.6635L26.863 75.5165C27.4976 75.3695 28.1324 75.2388 28.7833 75.1408L65.8478 69.9146C66.4336 69.9146 67.0031 69.7839 67.5726 69.7513L68.0608 69.9146Z" fill="#07091B" stroke="white" stroke-width="0.5" stroke-linecap="round" stroke-linejoin="round"/>
<path d="M65.7992 70.0779C77.2864 68.4447 86.6092 77.2476 86.5767 89.6763V118.486L7.875 129.592V100.782C7.875 88.3207 17.2308 76.921 28.7343 75.2878L65.7992 70.0779Z" fill="#07091B" stroke="white" stroke-width="0.5" stroke-linecap="round" stroke-linejoin="round"/>
<path d="M26.0169 35.585C26.0169 35.0623 26.1473 34.5397 26.2449 33.9518C26.3425 33.3638 26.3748 33.3475 26.4399 33.0535C26.505 32.7595 26.6351 32.1389 26.7653 31.6816C26.8954 31.2243 26.9608 31.061 27.0584 30.7507C27.156 30.4404 27.3188 29.8851 27.4652 29.4768C27.4652 29.3298 27.5951 29.1828 27.6439 29.0358C27.8555 28.5132 28.0672 27.9906 28.3113 27.4026C28.4089 27.174 28.5227 26.9453 28.6366 26.7167C28.7505 26.488 29.0106 25.9817 29.2222 25.6224C29.6876 24.7629 30.1984 23.9288 30.7519 23.1236C30.7519 23.0256 30.9145 22.9277 30.9795 22.8133C31.4514 22.1601 31.9557 21.5231 32.4763 20.9188L33.0134 20.2982C33.5015 19.7756 34.0058 19.253 34.5427 18.763L35.0147 18.3057C35.7318 17.6667 36.4873 17.0722 37.2765 16.5255L38.3177 15.8232L38.9846 15.3986C39.4402 15.1373 39.896 14.8923 40.3678 14.6637L40.8397 14.4024C41.4418 14.1247 42.0436 13.8797 42.6619 13.6511L43.1826 13.4714C43.6545 13.3081 44.1266 13.1611 44.6147 13.0305L45.1676 12.8835C45.8185 12.7365 46.4692 12.5895 47.1201 12.5078C47.7069 12.4137 48.2996 12.3592 48.8937 12.3445H50.6348H51.2366L52.3596 12.4588L52.9126 12.5405C53.3726 12.6095 53.8289 12.7021 54.2794 12.8182H54.5233C55.044 12.9706 55.5864 13.1339 56.1504 13.3081L56.5898 13.4878C56.9477 13.6348 57.3222 13.7817 57.6639 13.9614C57.97 14.0919 58.2684 14.2391 58.5585 14.4024L51.1393 10.352L50.5045 10.009L50.2443 9.91106C49.8953 9.7336 49.5365 9.57549 49.1702 9.43743L48.7308 9.25778C48.221 9.08357 47.6787 8.92025 47.1038 8.76782H46.8924C46.4419 8.65179 45.9856 8.55912 45.5255 8.49017L44.9726 8.40851L43.8496 8.29419H43.2478H41.5067C40.9179 8.3081 40.331 8.36267 39.7497 8.45751C39.0876 8.54961 38.4302 8.67498 37.7806 8.83315L37.2277 8.98013C36.7395 9.11079 36.2675 9.25778 35.7956 9.4211L35.2753 9.60075C34.6771 9.81483 34.0905 10.0601 33.5179 10.3357V10.3357L33.0297 10.597C32.5578 10.8256 32.1021 11.0706 31.6465 11.3319L30.9795 11.7566C30.6867 11.9526 30.3937 12.1159 30.1171 12.3119L29.9384 12.4588C29.1529 13.0107 28.3977 13.6049 27.6765 14.239L27.5303 14.3534C27.4164 14.4677 27.3185 14.5983 27.2046 14.6963C26.6677 15.1863 26.1634 15.7089 25.6915 16.2315L25.3662 16.5582L25.1382 16.8522C24.6175 17.4564 24.1132 18.0934 23.6414 18.7467C23.5813 18.8322 23.5163 18.914 23.4463 18.9916C23.4463 18.9916 23.4463 18.9916 23.4463 18.9916C22.8928 19.7968 22.382 20.6309 21.9166 21.4904C21.9166 21.5884 21.8029 21.6701 21.7541 21.7518C21.7053 21.8334 21.4775 22.307 21.3473 22.5847C21.2172 22.8623 21.1033 23.042 21.0057 23.2706C20.7617 23.7933 20.5499 24.3159 20.3384 24.9038C20.3384 25.0508 20.2247 25.1978 20.1596 25.3448C20.0945 25.4918 20.1596 25.3448 20.1596 25.3448C20.0132 25.7368 19.8993 26.1451 19.7691 26.5534C19.639 26.9617 19.5573 27.174 19.476 27.4843C19.3946 27.7946 19.2645 28.3989 19.1506 28.8562C19.0367 29.3135 19.0044 29.4441 18.9556 29.7544C18.9068 30.0647 18.7927 30.7833 18.7276 31.306C18.7276 31.551 18.6461 31.8123 18.6299 32.0736C18.5513 32.855 18.5136 33.64 18.5162 34.4254C18.5162 42.5914 22.4372 49.2712 28.3923 52.5212L35.7956 56.5716C29.8568 53.3052 25.9196 46.7724 25.9358 38.4757C25.9332 37.6903 25.9709 36.9053 26.0494 36.1239C25.9355 36.0912 25.9843 35.8299 26.0169 35.585Z" fill="#07091B" stroke="white" stroke-width="0.5" stroke-linecap="round" stroke-linejoin="round"/>
<path d="M65.3088 45.6378C71.622 33.9908 68.7028 20.1599 58.7887 14.7455C48.8746 9.3311 35.7198 14.3835 29.4066 26.0304C23.0934 37.6774 26.0123 51.5086 35.9264 56.9231C45.8406 62.3375 58.9956 57.2847 65.3088 45.6378Z" fill="#07091B" stroke="white" stroke-width="0.5" stroke-linecap="round" stroke-linejoin="round"/>
</g>
<defs>
<clipPath id="clip0_2741_137415">
<rect width="87" height="122" fill="white" transform="translate(0 8)"/>
</clipPath>
</defs>
</svg>
