<svg width="22" height="28" viewBox="0 0 22 28" fill="none" xmlns="http://www.w3.org/2000/svg">
<path d="M6.00024 27.0015H16.0002" stroke="white" stroke-width="1.5" stroke-linecap="round" stroke-linejoin="round"/>
<path d="M4.83785 18.8763C3.64734 17.9507 2.68313 16.7662 2.01825 15.4126C1.35338 14.059 1.00529 12.5719 1.00035 11.0638C0.975351 5.63884 5.33785 1.12635 10.7629 1.00135C12.8624 0.951573 14.9244 1.5641 16.6563 2.75205C18.3882 3.94001 19.7021 5.64308 20.4117 7.61974C21.1213 9.5964 21.1906 11.7463 20.6097 13.7645C20.0288 15.7828 18.8272 17.5669 17.1754 18.8638C16.8105 19.1459 16.5149 19.5077 16.3112 19.9215C16.1076 20.3353 16.0012 20.7901 16.0004 21.2513V22.0013C16.0004 22.2666 15.895 22.5209 15.7075 22.7085C15.5199 22.896 15.2656 23.0013 15.0004 23.0013H7.00035C6.73513 23.0013 6.48078 22.896 6.29324 22.7085C6.10571 22.5209 6.00035 22.2666 6.00035 22.0013V21.2513C5.99722 20.7936 5.8911 20.3425 5.68986 19.9313C5.48862 19.5202 5.19742 19.1596 4.83785 18.8763V18.8763Z" stroke="white" stroke-width="1.5" stroke-linecap="round" stroke-linejoin="round"/>
</svg>
