<svg width="18" height="26" viewBox="0 0 18 26" fill="none" xmlns="http://www.w3.org/2000/svg">
<path d="M9 13L1.4 7.3C1.27651 7.20619 1.17623 7.08527 1.10687 6.94656C1.03752 6.80786 1.00096 6.65507 1 6.5V2C1 1.73478 1.10536 1.48043 1.29289 1.29289C1.48043 1.10536 1.73478 1 2 1H16C16.2652 1 16.5196 1.10536 16.7071 1.29289C16.8946 1.48043 17 1.73478 17 2V6.45C16.999 6.60507 16.9625 6.75786 16.8931 6.89656C16.8238 7.03527 16.7235 7.15619 16.6 7.25L9 13Z" stroke="#B5B6BB" stroke-linecap="round" stroke-linejoin="round"/>
<path d="M9 13L1.4 18.7C1.27651 18.7938 1.17623 18.9147 1.10687 19.0534C1.03752 19.1921 1.00096 19.3449 1 19.5V24C1 24.2652 1.10536 24.5196 1.29289 24.7071C1.48043 24.8946 1.73478 25 2 25H16C16.2652 25 16.5196 24.8946 16.7071 24.7071C16.8946 24.5196 17 24.2652 17 24V19.55C16.999 19.3949 16.9625 19.2421 16.8931 19.1034C16.8238 18.9647 16.7235 18.8438 16.6 18.75L9 13Z" stroke="#B5B6BB" stroke-linecap="round" stroke-linejoin="round"/>
</svg>
