<svg width="22" height="29" viewBox="0 0 22 29" fill="none" xmlns="http://www.w3.org/2000/svg">
<path d="M11 5.5C11 4.83696 11.2634 4.20107 11.7322 3.73223C12.2011 3.26339 12.837 3 13.5 3C14.163 3 14.7989 3.26339 15.2678 3.73223C15.7366 4.20107 16 4.83696 16 5.5V13" stroke="white" stroke-width="1.5" stroke-linecap="round" stroke-linejoin="round"/>
<path d="M6 7.5V3.5C6 2.83696 6.26339 2.20107 6.73223 1.73223C7.20107 1.26339 7.83696 1 8.5 1C9.16304 1 9.79893 1.26339 10.2678 1.73223C10.7366 2.20107 11 2.83696 11 3.5V12" stroke="white" stroke-width="1.5" stroke-linecap="round" stroke-linejoin="round"/>
<path d="M11 20.5C11 19.1739 11.5268 17.9021 12.4645 16.9645C13.4021 16.0268 14.6739 15.5 16 15.5V13C16 12.337 16.2634 11.7011 16.7322 11.2322C17.2011 10.7634 17.837 10.5 18.5 10.5C19.163 10.5 19.7989 10.7634 20.2678 11.2322C20.7366 11.7011 21 12.337 21 13V18C21 20.6522 19.9464 23.1957 18.0711 25.0711C16.1957 26.9464 13.6522 28 11 28C8.34784 28 5.8043 26.9464 3.92893 25.0711C2.05357 23.1957 1 20.6522 1 18V7.5C1 6.83696 1.26339 6.20107 1.73223 5.73223C2.20107 5.26339 2.83696 5 3.5 5C4.16304 5 4.79893 5.26339 5.26777 5.73223C5.73661 6.20107 6 6.83696 6 7.5V13" stroke="white" stroke-width="1.5" stroke-linecap="round" stroke-linejoin="round"/>
</svg>
