<svg width="95" height="137" viewBox="0 0 95 137" fill="none" xmlns="http://www.w3.org/2000/svg">
<path d="M81.1786 94.8477C81.3131 94.4254 81.4308 94.0032 81.5485 93.5809C81.5485 93.4289 81.5486 93.2938 81.6326 93.1418C81.7167 92.9898 81.7673 92.4493 81.8178 92.0947V91.6555C81.8718 91.1563 81.9 90.6545 81.9019 90.1523C81.9733 88.0897 81.4849 86.0464 80.4894 84.241C80.1567 83.6703 79.6737 83.2028 79.0937 82.8898L71.4431 78.7012C72.0163 79.0234 72.4972 79.4888 72.8389 80.0523C73.8208 81.8624 74.3027 83.9035 74.2346 85.9637C74.2326 86.4659 74.2045 86.9677 74.1504 87.4669V87.906C74.1065 88.258 74.0446 88.6075 73.9653 88.9532C73.9454 89.101 73.9176 89.2476 73.8815 89.3923C73.7806 89.8146 73.6462 90.2368 73.5117 90.659C73.3318 91.1436 73.1239 91.6173 72.8893 92.0778C72.664 92.5188 72.3813 92.9277 72.0486 93.2938V93.2938C71.7401 93.6206 71.3897 93.9046 71.0064 94.1383C70.9169 94.2039 70.8208 94.2605 70.7203 94.3072C70.3914 94.4919 70.0487 94.6501 69.6948 94.7801L69.2408 94.949C68.691 95.1174 68.1288 95.2417 67.5594 95.3206C67.0867 95.3946 66.6084 95.4285 66.13 95.4219H65.7602C65.4328 95.3958 65.107 95.3507 64.7848 95.2868H64.4991C64.3501 95.2463 64.204 95.1955 64.0619 95.1348C63.8996 95.0806 63.742 95.0128 63.5911 94.9321L71.2584 99.1207H71.3931L71.7293 99.239C71.8713 99.2997 72.0174 99.3504 72.1664 99.391H72.2506H72.4522C72.7744 99.4548 73.1001 99.5 73.4275 99.5261H73.7974C74.2758 99.5327 74.7536 99.4988 75.2263 99.4248C75.7957 99.3458 76.358 99.2216 76.9077 99.0532L77.3449 98.8843L77.9336 98.6647C78.0903 98.5904 78.242 98.5058 78.3876 98.4114L78.6733 98.2425L78.8585 98.1411C79.0537 98.0084 79.2393 97.8616 79.4135 97.702L79.716 97.398C79.8539 97.248 79.983 97.0901 80.1027 96.9251C80.2246 96.7397 80.3368 96.548 80.4389 96.3508V96.3508C80.6748 95.8992 80.8773 95.4306 81.0444 94.949V94.949C81.052 94.9193 81.0692 94.893 81.0936 94.8746C81.1181 94.8562 81.1481 94.8467 81.1786 94.8477V94.8477Z" fill="#07091B" stroke="white" stroke-width="0.5" stroke-linecap="round" stroke-linejoin="round"/>
<path d="M86.4924 71.4723L78.8251 67.2837L78.3206 67.0135L78.0685 66.9121C77.3649 66.5829 76.6402 66.3008 75.8994 66.0676L75.3781 65.9325L74.5879 65.7636L73.8145 65.6116L72.6376 65.4934H71.8638C71.4098 65.4934 70.9393 65.4934 70.4685 65.4934H69.7789C69.0301 65.5272 68.2839 65.6004 67.5429 65.713C66.8535 65.8143 66.1642 65.9325 65.5084 66.0845L64.8861 66.2366L63.524 66.625L62.8685 66.8446C62.4313 66.9966 62.0109 67.1655 61.5906 67.3513L61.0356 67.5708L60.8172 67.6722C60.3128 67.9086 59.8081 68.1789 59.3205 68.466C58.8329 68.7531 58.2613 69.1078 57.7569 69.4456C57.0895 69.9088 56.4496 70.4107 55.8403 70.9488L55.6888 71.0839C55.557 71.205 55.4335 71.3347 55.3189 71.4723C54.949 71.8101 54.5957 72.1648 54.2594 72.5195L54.0074 72.7897L53.2845 73.6511L52.6285 74.5463L52.4438 74.8503C52.1075 75.3401 51.8216 75.8299 51.5357 76.3365L51.2833 76.725V76.8601C50.8394 77.6886 50.4518 78.5463 50.1232 79.4274C50.0852 79.51 50.0515 79.5946 50.0222 79.6807C49.8709 80.0861 49.7364 80.4914 49.6019 80.8968C48.7583 83.7293 48.339 86.6722 48.3576 89.6287C48.3175 92.3696 48.7323 95.098 49.585 97.7019C50.3278 100.026 51.5939 102.147 53.2845 103.9C53.7693 104.402 54.292 104.865 54.8481 105.285C55.386 105.695 55.9474 106.073 56.5295 106.417L64.1969 110.606C62.9582 109.938 61.8249 109.09 60.834 108.089C59.144 106.332 57.8735 104.213 57.1182 101.891C56.2795 99.2837 55.8703 96.5567 55.9072 93.8173C55.8885 90.8608 56.3079 87.9179 57.1514 85.0854C57.3027 84.5787 57.4878 84.1058 57.6727 83.616C58.0014 82.7349 58.3889 81.8772 58.8328 81.0488C58.9237 80.8686 59.025 80.6938 59.1358 80.5252C59.4216 80.0185 59.7075 79.5287 60.0438 79.0389C60.3801 78.5491 60.5819 78.2282 60.8845 77.8397C61.1872 77.4513 61.5232 77.0797 61.8595 76.7081L62.9021 75.661L63.4403 75.1374C64.0496 74.5994 64.6895 74.0975 65.3569 73.6342C65.8978 73.2544 66.4591 72.9048 67.0383 72.587C67.5932 72.2661 68.1649 71.9621 68.7198 71.6919L69.2748 71.4723C69.6951 71.2866 70.1155 71.1177 70.5527 70.9656L71.2082 70.7461L72.5703 70.3576L73.1754 70.2056C73.8479 70.0536 74.5372 69.9354 75.2266 69.834C75.9622 69.7223 76.7031 69.6491 77.4462 69.6145H78.1359C78.6235 69.6145 79.094 69.6145 79.548 69.6145H80.3214L81.4987 69.7327L82.2721 69.8847C82.7261 69.986 83.1633 70.0705 83.5836 70.1887C84.32 70.4189 85.0388 70.7011 85.7355 71.0332L86.5093 71.4048L86.4924 71.4723Z" fill="#07091B" stroke="white" stroke-width="0.5" stroke-linecap="round" stroke-linejoin="round"/>
<path d="M93.2851 80.0017C94.1909 82.722 94.6228 85.5787 94.5626 88.4465C94.5715 91.312 94.135 94.1613 93.2683 96.8913C92.4379 99.5 91.1756 101.949 89.5352 104.137C87.8812 106.303 85.826 108.126 83.4823 109.508C80.9001 111.016 78.0399 111.981 75.0752 112.345C72.3109 112.815 69.4764 112.648 66.786 111.856C64.5084 111.153 62.44 109.894 60.7664 108.191C59.0764 106.434 57.8059 104.314 57.0505 101.992C56.2119 99.3851 55.803 96.6581 55.8399 93.9188C55.8213 90.9623 56.2406 88.0194 57.0842 85.1868C57.8759 82.5623 59.1412 80.1063 60.8169 77.9412C62.4973 75.8134 64.5692 74.0301 66.9202 72.6885C69.4554 71.2398 72.2491 70.3045 75.1426 69.9355C77.9407 69.4511 80.8106 69.5895 83.5496 70.3408C85.8243 70.9885 87.896 72.2094 89.5688 73.8877C91.2422 75.6247 92.5116 77.7128 93.2851 80.0017V80.0017ZM80.523 96.3509C81.4875 94.4298 81.9775 92.3038 81.952 90.1524C82.0234 88.0897 81.5354 86.0464 80.5398 84.241C79.6151 82.6703 77.8329 82.0622 75.1931 82.4338C74.1145 82.5382 73.0762 82.8991 72.164 83.4864C71.2517 84.0738 70.4916 84.8709 69.9468 85.8117C68.8323 87.7338 68.2517 89.9211 68.2654 92.1454C68.1836 94.2007 68.7101 96.2343 69.7785 97.9892C70.7874 99.5092 72.5868 100.1 75.1257 99.6781C76.2309 99.6156 77.3023 99.2731 78.2402 98.6824C79.1781 98.0918 79.9518 97.2722 80.4894 96.3002" fill="#07091B"/>
<path d="M80.523 96.3509C81.4875 94.4298 81.9775 92.3038 81.952 90.1524C82.0234 88.0897 81.5354 86.0464 80.5398 84.241C79.6151 82.6703 77.8329 82.0622 75.1931 82.4338C74.1145 82.5382 73.0762 82.8991 72.164 83.4864C71.2517 84.0738 70.4916 84.8709 69.9468 85.8117C68.8323 87.7338 68.2517 89.9211 68.2654 92.1454C68.1836 94.2007 68.7101 96.2343 69.7785 97.9892C70.7874 99.5092 72.5868 100.1 75.1257 99.6781C76.2309 99.6156 77.3023 99.2731 78.2402 98.6824C79.1781 98.0918 79.9518 97.2722 80.4894 96.3002M93.2851 80.0017C94.1909 82.722 94.6228 85.5787 94.5626 88.4465C94.5715 91.312 94.135 94.1613 93.2683 96.8913C92.4379 99.5 91.1756 101.949 89.5352 104.137C87.8812 106.303 85.826 108.126 83.4823 109.508C80.9001 111.016 78.0399 111.981 75.0752 112.345C72.3109 112.815 69.4764 112.648 66.786 111.856C64.5084 111.153 62.44 109.894 60.7664 108.191C59.0764 106.434 57.8059 104.314 57.0505 101.992C56.2119 99.3851 55.803 96.6581 55.8399 93.9188C55.8213 90.9623 56.2406 88.0194 57.0842 85.1868C57.8759 82.5623 59.1412 80.1063 60.8169 77.9412C62.4973 75.8134 64.5692 74.0301 66.9202 72.6885C69.4554 71.2398 72.2491 70.3045 75.1426 69.9355C77.9407 69.4511 80.8106 69.5895 83.5496 70.3408C85.8243 70.9885 87.896 72.2094 89.5688 73.8877C91.2422 75.6247 92.5116 77.7128 93.2851 80.0017V80.0017Z" stroke="white" stroke-width="0.5" stroke-linecap="round" stroke-linejoin="round"/>
<path d="M68.77 24.8233L61.1028 20.6347L76.7736 18.4221L84.4408 22.6107L68.77 24.8233Z" fill="#07091B" stroke="white" stroke-width="0.5" stroke-linecap="round" stroke-linejoin="round"/>
<path d="M61.1027 20.6348L9.76904 114.389L17.4363 118.578L68.7699 24.8234L61.1027 20.6348Z" fill="#07091B" stroke="white" stroke-width="0.5" stroke-linecap="round" stroke-linejoin="round"/>
<path d="M68.7699 24.8234L84.4407 22.6108L33.208 116.348L17.4363 118.578L68.7699 24.8234Z" fill="#07091B" stroke="white" stroke-width="0.5" stroke-linecap="round" stroke-linejoin="round"/>
<path d="M33.3594 53.6032C33.4939 53.2148 33.6115 52.8263 33.7124 52.421C33.7204 52.2747 33.7204 52.1281 33.7124 51.9818C33.7918 51.6362 33.8537 51.2867 33.8975 50.9347V50.4956C33.9231 49.9948 33.9231 49.4931 33.8975 48.9924C33.9602 46.9703 33.4779 44.9688 32.5018 43.1992C32.1636 42.6228 31.6751 42.1498 31.0893 41.8312L23.7249 37.6594C24.3025 37.9832 24.7843 38.4553 25.1206 39.0275C26.1047 40.7939 26.5871 42.7977 26.5159 44.8206C26.5415 45.3214 26.5415 45.8231 26.5159 46.3238V46.7629C26.5159 47.1176 26.4153 47.4723 26.348 47.8101L26.247 48.2492C26.1461 48.6546 26.0285 49.043 25.894 49.4315V49.6004C25.7269 50.082 25.5244 50.5506 25.2885 51.0022C25.0634 51.4485 24.7808 51.8631 24.4478 52.2352V52.2352C24.1254 52.5585 23.7706 52.8472 23.3887 53.0965C23.3085 53.1534 23.2239 53.2042 23.1362 53.2486C22.8078 53.4388 22.465 53.6026 22.1108 53.7384L21.6736 53.8904C21.1594 54.0634 20.6304 54.1878 20.0932 54.2619C19.5978 54.3355 19.0972 54.3694 18.5965 54.3633H18.2098C17.8705 54.3454 17.5333 54.3002 17.2012 54.2282H16.9151C16.7606 54.1877 16.6089 54.1369 16.4611 54.0761C16.3097 54.0761 16.1247 53.9579 15.9734 53.8735L23.6407 58.0621H23.7922L24.1284 58.1972C24.2762 58.258 24.4279 58.3087 24.5824 58.3492H24.6666H24.8681C25.2003 58.4213 25.5378 58.4665 25.8772 58.4843H26.2639C26.759 58.4904 27.2536 58.4565 27.7433 58.383C28.2849 58.3029 28.8194 58.1786 29.341 58.0114L29.7613 57.8594C29.9498 57.8021 30.1348 57.7344 30.3159 57.6568L30.8036 57.3696C30.8913 57.3253 30.9758 57.2744 31.0561 57.2176H31.2071C31.4089 57.0825 31.594 56.9305 31.7789 56.7785L32.1151 56.4407C32.2531 56.2907 32.3822 56.1328 32.5018 55.9678L32.8549 55.3767V55.2753C33.0782 54.8316 33.2749 54.3747 33.4435 53.9073V53.9073L33.3594 53.6032Z" fill="#07091B" stroke="white" stroke-width="0.5" stroke-linecap="round" stroke-linejoin="round"/>
<path d="M16.2763 69.4287L8.59214 65.2401C7.38862 64.5859 6.28927 63.7548 5.33029 62.7742C3.63733 61.0227 2.37129 58.9011 1.63126 56.5757C0.770456 53.9679 0.355069 51.2325 0.403446 48.4856C0.381735 45.5404 0.824432 42.6104 1.715 39.8043C2.5339 37.2149 3.79129 34.7867 5.43127 32.6262C7.09501 30.5016 9.14979 28.7184 11.4841 27.3735C14.0774 25.9058 16.935 24.9701 19.8912 24.6205C22.6299 24.1587 25.4361 24.3028 28.1136 25.0428C29.1325 25.3481 30.1182 25.7555 31.056 26.2588L38.723 30.4474C37.7852 29.9441 36.7994 29.5367 35.7805 29.2314C33.1029 28.4943 30.2989 28.3445 27.5586 28.7923C24.603 29.1553 21.7469 30.0963 19.1515 31.5622C16.8171 32.907 14.762 34.6903 13.0982 36.8148C11.4584 38.978 10.1963 41.4052 9.36553 43.9929C8.48879 46.8018 8.05199 49.7305 8.0708 52.6742C8.02559 55.4196 8.43465 58.1536 9.28137 60.7643C10.0274 63.0908 11.2996 65.2123 12.9976 66.9628C13.9617 67.9448 15.0669 68.776 16.2763 69.4287V69.4287Z" fill="#07091B"/>
<path d="M31.0056 26.2586L30.4842 25.9884C29.7051 25.6052 28.8953 25.2888 28.0631 25.0426L27.5081 24.8906C24.9953 24.292 22.3891 24.2001 19.8407 24.6203C17.4687 24.9316 15.1566 25.5977 12.9809 26.5964C12.4764 26.8329 11.9718 27.1031 11.501 27.3734C11.0302 27.6436 10.4587 28.0152 9.97105 28.353C9.23405 28.8687 8.53192 29.4329 7.86928 30.0419C7.2729 30.5677 6.71124 31.1318 6.18786 31.7309L5.38082 32.7105L4.79216 33.5212C4.27403 34.2564 3.80216 35.0236 3.37962 35.8182C2.84017 36.8304 2.37406 37.8803 1.98432 38.9597C1.86663 39.2637 1.76543 39.5846 1.66454 39.8886C0.773976 42.6947 0.331689 45.6247 0.3534 48.5698C0.305023 51.3168 0.72 54.0522 1.5808 56.66C2.32083 58.9853 3.58687 61.1069 5.27983 62.8585C6.23881 63.8391 7.33817 64.6702 8.54168 65.3244L16.209 69.513C15.0055 68.8588 13.9062 68.0277 12.9472 67.0471C11.2491 65.2965 9.97696 63.175 9.23091 60.8486C8.38419 58.2378 7.97513 55.5039 8.02034 52.7585C8.00153 49.8148 8.43834 46.8861 9.31507 44.0772C9.43277 43.7732 9.53357 43.4523 9.65127 43.1483C10.034 42.0661 10.5007 41.0157 11.047 40.0068C11.4673 39.2468 11.9551 38.4361 12.4595 37.7098L13.0478 36.8991L13.8548 35.9195C14.3782 35.3205 14.9398 34.7563 15.5362 34.2305C16.1989 33.6215 16.901 33.0573 17.638 32.5416C18.1256 32.2038 18.6303 31.8829 19.1683 31.562C19.7064 31.2411 20.1434 31.0215 20.6478 30.7851C22.8255 29.7882 25.1368 29.1167 27.5081 28.7921C30.0581 28.3858 32.6626 28.4833 35.1755 29.0792L35.73 29.2312C36.5622 29.4774 37.3725 29.7938 38.1516 30.177L38.6725 30.4473L31.0056 26.2586Z" fill="#07091B" stroke="white" stroke-width="0.5" stroke-linecap="round" stroke-linejoin="round"/>
<path d="M16.2763 69.4287L8.59214 65.2401C7.38862 64.5859 6.28927 63.7548 5.33029 62.7742C3.63733 61.0227 2.37129 58.9011 1.63126 56.5757C0.770456 53.9679 0.355069 51.2325 0.403446 48.4856C0.381735 45.5404 0.824432 42.6104 1.715 39.8043C2.5339 37.2149 3.79129 34.7867 5.43127 32.6262C7.09501 30.5016 9.14979 28.7184 11.4841 27.3735C14.0774 25.9058 16.935 24.9701 19.8912 24.6205C22.6299 24.1587 25.4361 24.3028 28.1136 25.0428C29.1325 25.3481 30.1182 25.7555 31.056 26.2588L38.723 30.4474C37.7852 29.9441 36.7994 29.5367 35.7805 29.2314C33.1029 28.4943 30.2989 28.3445 27.5586 28.7923C24.603 29.1553 21.7469 30.0963 19.1515 31.5622C16.8171 32.907 14.762 34.6903 13.0982 36.8148C11.4584 38.978 10.1963 41.4052 9.36553 43.9929C8.48879 46.8018 8.05199 49.7305 8.0708 52.6742C8.02559 55.4196 8.43465 58.1536 9.28137 60.7643C10.0274 63.0908 11.2996 65.2123 12.9976 66.9628C13.9617 67.9448 15.0669 68.776 16.2763 69.4287V69.4287Z" stroke="white" stroke-width="0.5" stroke-linecap="round" stroke-linejoin="round"/>
<path d="M27.4238 71.0841C24.6225 71.5778 21.7456 71.416 19.0167 70.6112C16.7217 69.9239 14.635 68.6696 12.9471 66.963C11.249 65.2124 9.97684 63.0909 9.23079 60.7645C8.38407 58.1537 7.97501 55.4198 8.02022 52.6744C8.00141 49.7307 8.43822 46.802 9.31495 43.9931C10.1457 41.4054 11.4079 38.9782 13.0476 36.815C14.7114 34.6905 16.7666 32.9072 19.1009 31.5623C21.6963 30.0965 24.5524 29.1555 27.508 28.7924C30.2483 28.3447 33.0523 28.4945 35.7299 29.2316C38.0034 29.882 40.0749 31.1026 41.7495 32.7784C43.4329 34.5351 44.6825 36.6639 45.3981 38.9938C46.2625 41.653 46.6778 44.439 46.6259 47.2359C46.6451 50.0983 46.225 52.9466 45.3812 55.6807C44.5797 58.2915 43.334 60.743 41.699 62.9264C40.0553 65.0954 38.0049 66.92 35.663 68.2973C33.1348 69.7812 30.3307 70.7296 27.4238 71.0841V71.0841ZM22.0434 44.7363C21.0076 46.6345 20.4805 48.7704 20.5134 50.9348C20.4266 52.9884 20.9472 55.0219 22.0097 56.7786C23.0354 58.2986 24.8513 58.8729 27.4743 58.4675C28.566 58.4039 29.623 58.0599 30.5445 57.4685C31.4659 56.8771 32.2212 56.058 32.7374 55.0896C33.6966 53.1733 34.1808 51.0527 34.1495 48.908C34.2122 46.8859 33.7303 44.8844 32.7542 43.1149C31.8126 41.5441 30.0637 40.9192 27.508 41.2908C26.3924 41.3652 25.3116 41.7117 24.3594 42.3003C23.4072 42.8889 22.6123 43.7019 22.0434 44.6687" fill="#07091B"/>
<path d="M22.0434 44.7363C21.0076 46.6345 20.4805 48.7704 20.5134 50.9348C20.4266 52.9884 20.9472 55.0219 22.0097 56.7786C23.0354 58.2986 24.8513 58.8729 27.4743 58.4675C28.566 58.4039 29.623 58.0599 30.5445 57.4685C31.4659 56.8771 32.2212 56.058 32.7374 55.0896C33.6966 53.1733 34.1808 51.0527 34.1495 48.908C34.2122 46.8859 33.7303 44.8844 32.7542 43.1149C31.8126 41.5441 30.0637 40.9192 27.508 41.2908C26.3924 41.3652 25.3116 41.7117 24.3594 42.3003C23.4072 42.8889 22.6123 43.7019 22.0434 44.6687M27.4238 71.0841C24.6225 71.5778 21.7456 71.416 19.0167 70.6112C16.7217 69.9239 14.635 68.6696 12.9471 66.963C11.249 65.2124 9.97684 63.0909 9.23079 60.7645C8.38407 58.1537 7.97501 55.4198 8.02022 52.6744C8.00141 49.7307 8.43822 46.802 9.31495 43.9931C10.1457 41.4054 11.4079 38.9782 13.0476 36.815C14.7114 34.6905 16.7666 32.9072 19.1009 31.5623C21.6963 30.0965 24.5524 29.1555 27.508 28.7924C30.2483 28.3447 33.0523 28.4945 35.7299 29.2316C38.0034 29.882 40.0749 31.1026 41.7495 32.7784C43.4329 34.5351 44.6825 36.6639 45.3981 38.9938C46.2625 41.653 46.6778 44.439 46.6259 47.2359C46.6451 50.0983 46.225 52.9466 45.3812 55.6807C44.5797 58.2915 43.334 60.743 41.699 62.9264C40.0553 65.0954 38.0049 66.92 35.663 68.2973C33.1348 69.7812 30.3307 70.7296 27.4238 71.0841V71.0841Z" stroke="white" stroke-width="0.5" stroke-linecap="round" stroke-linejoin="round"/>
</svg>
