<svg width="27" height="22" viewBox="0 0 27 22" fill="none" xmlns="http://www.w3.org/2000/svg">
<path d="M19 21.25V19C19 17.8065 18.5259 16.6619 17.682 15.818C16.8381 14.9741 15.6935 14.5 14.5 14.5H5.5C4.30653 14.5 3.16193 14.9741 2.31802 15.818C1.47411 16.6619 1 17.8065 1 19V21.25" stroke="white" stroke-width="1.5" stroke-linecap="round" stroke-linejoin="round"/>
<path d="M10 10C12.4853 10 14.5 7.98528 14.5 5.5C14.5 3.01472 12.4853 1 10 1C7.51472 1 5.5 3.01472 5.5 5.5C5.5 7.98528 7.51472 10 10 10Z" stroke="white" stroke-width="1.5" stroke-linecap="round" stroke-linejoin="round"/>
<path d="M25.75 21.2497V18.9997C25.7493 18.0027 25.4174 17.0341 24.8065 16.2461C24.1957 15.4581 23.3404 14.8953 22.375 14.646" stroke="white" stroke-width="1.5" stroke-linecap="round" stroke-linejoin="round"/>
<path d="M17.875 1.146C18.843 1.39383 19.7009 1.95678 20.3136 2.7461C20.9263 3.53541 21.2588 4.50618 21.2588 5.50537C21.2588 6.50456 20.9263 7.47534 20.3136 8.26465C19.7009 9.05396 18.843 9.61691 17.875 9.86475" stroke="white" stroke-width="1.5" stroke-linecap="round" stroke-linejoin="round"/>
</svg>
