<svg width="500" height="500" viewBox="0 0 500 500" fill="none" xmlns="http://www.w3.org/2000/svg">
<g opacity="0.6">
<path d="M265.653 244.719L238.992 135.838C238.528 133.942 236.949 133.111 235.469 133.965L113.983 204.36C113.211 204.909 112.623 205.679 112.294 206.569C111.965 207.459 111.911 208.428 112.138 209.349L138.799 318.23C139.263 320.126 140.842 320.957 142.333 320.103L263.82 249.708C264.589 249.157 265.175 248.387 265.502 247.497C265.829 246.607 265.882 245.639 265.653 244.719V244.719Z" fill="#07091B" stroke="white" stroke-width="0.5" stroke-linecap="round" stroke-linejoin="round"/>
<path d="M141.14 318.695V322.022C141.171 322.357 141.289 322.678 141.483 322.953C141.677 323.227 141.94 323.445 142.245 323.585L227.528 373.013C228.359 373.44 229.279 373.662 230.212 373.662C231.145 373.662 232.065 373.44 232.896 373.013L353.543 302.629C353.845 302.489 354.106 302.272 354.3 302C354.493 301.728 354.613 301.41 354.647 301.077V297.695L141.14 318.695Z" fill="#07091B" stroke="white" stroke-width="0.5" stroke-linecap="round" stroke-linejoin="round"/>
<path d="M353.532 296.176L268.249 246.748C267.42 246.327 266.505 246.107 265.576 246.107C264.647 246.107 263.732 246.327 262.903 246.748L142.245 317.143C140.776 317.997 140.776 319.36 142.245 320.258L227.529 369.687C228.36 370.113 229.279 370.336 230.212 370.336C231.145 370.336 232.065 370.113 232.896 369.687L353.543 299.292C355.034 298.438 355.012 297.041 353.532 296.176Z" fill="#07091B" stroke="white" stroke-width="0.5" stroke-linecap="round" stroke-linejoin="round"/>
<path d="M164.311 320.979L158.668 324.305C158.359 324.461 158.019 324.542 157.674 324.542C157.328 324.542 156.988 324.461 156.68 324.305L151.931 321.555C151.825 321.507 151.735 321.429 151.672 321.33C151.61 321.232 151.576 321.118 151.576 321.001C151.576 320.884 151.61 320.77 151.672 320.672C151.735 320.573 151.825 320.495 151.931 320.447L157.574 317.176C157.882 317.02 158.223 316.939 158.568 316.939C158.914 316.939 159.254 317.02 159.562 317.176L164.311 319.926C164.403 319.979 164.479 320.056 164.532 320.149C164.585 320.241 164.612 320.346 164.612 320.452C164.612 320.559 164.585 320.663 164.532 320.756C164.479 320.848 164.403 320.925 164.311 320.979V320.979ZM173.434 314.537L168.685 311.787C168.376 311.631 168.036 311.55 167.691 311.55C167.346 311.55 167.005 311.631 166.697 311.787L161.053 315.058C160.501 315.38 160.501 315.901 161.053 316.167L165.802 318.917C166.109 319.071 166.447 319.151 166.791 319.151C167.134 319.151 167.472 319.071 167.779 318.917L173.434 315.646C173.531 315.594 173.612 315.516 173.668 315.421C173.725 315.327 173.755 315.218 173.755 315.108C173.755 314.998 173.725 314.889 173.668 314.795C173.612 314.7 173.531 314.622 173.434 314.57V314.537ZM182.545 309.259L177.796 306.51C177.488 306.354 177.148 306.272 176.802 306.272C176.457 306.272 176.117 306.354 175.808 306.51L170.165 309.78C169.613 310.091 169.613 310.612 170.165 310.889L174.914 313.639C175.222 313.795 175.562 313.876 175.908 313.876C176.253 313.876 176.593 313.795 176.902 313.639L182.545 310.368C183.098 310.135 183.098 309.57 182.545 309.259ZM191.668 303.97L186.886 301.265C186.577 301.109 186.237 301.028 185.892 301.028C185.546 301.028 185.206 301.109 184.898 301.265L179.254 304.591C179.148 304.64 179.059 304.718 178.996 304.816C178.933 304.915 178.9 305.029 178.9 305.146C178.9 305.263 178.933 305.377 178.996 305.475C179.059 305.573 179.148 305.652 179.254 305.7L184.003 308.45C184.31 308.604 184.648 308.684 184.991 308.684C185.335 308.684 185.673 308.604 185.98 308.45L191.635 305.179C191.781 305.164 191.917 305.095 192.017 304.987C192.117 304.878 192.174 304.737 192.179 304.589C192.183 304.442 192.133 304.297 192.039 304.184C191.945 304.07 191.813 303.994 191.668 303.97V303.97ZM200.779 298.693L196.03 295.932C195.722 295.776 195.381 295.695 195.036 295.695C194.691 295.695 194.351 295.776 194.042 295.932L188.399 299.258C188.289 299.303 188.195 299.38 188.129 299.479C188.063 299.577 188.028 299.694 188.028 299.813C188.028 299.932 188.063 300.048 188.129 300.147C188.195 300.245 188.289 300.322 188.399 300.367L193.148 303.128C193.456 303.284 193.796 303.365 194.142 303.365C194.487 303.365 194.827 303.284 195.136 303.128L200.779 299.802C200.889 299.757 200.983 299.68 201.049 299.581C201.115 299.482 201.15 299.366 201.15 299.247C201.15 299.128 201.115 299.012 201.049 298.913C200.983 298.814 200.889 298.738 200.779 298.693V298.693ZM209.902 293.404L205.153 290.654C204.844 290.498 204.504 290.417 204.159 290.417C203.813 290.417 203.473 290.498 203.165 290.654L197.521 293.925C197.415 293.974 197.326 294.052 197.263 294.15C197.2 294.248 197.167 294.363 197.167 294.48C197.167 294.596 197.2 294.711 197.263 294.809C197.326 294.907 197.415 294.985 197.521 295.034L202.27 297.784C202.577 297.938 202.915 298.018 203.259 298.018C203.602 298.018 203.94 297.938 204.247 297.784L209.902 294.513C210.008 294.464 210.097 294.386 210.16 294.288C210.223 294.189 210.256 294.075 210.256 293.958C210.256 293.842 210.223 293.727 210.16 293.629C210.097 293.531 210.008 293.453 209.902 293.404V293.404ZM219.013 288.115L214.264 285.365C213.956 285.21 213.615 285.128 213.27 285.128C212.925 285.128 212.585 285.21 212.276 285.365L206.633 288.636C206.08 288.958 206.08 289.479 206.633 289.745L211.382 292.495C211.69 292.651 212.031 292.732 212.376 292.732C212.721 292.732 213.061 292.651 213.37 292.495L219.013 289.224C219.566 288.958 219.566 288.437 219.013 288.115V288.115ZM228.136 282.838L223.387 280.088C223.079 279.932 222.738 279.851 222.393 279.851C222.047 279.851 221.707 279.932 221.399 280.088L215.755 283.414C215.203 283.725 215.203 284.246 215.755 284.523L220.504 287.273C220.811 287.427 221.149 287.507 221.493 287.507C221.836 287.507 222.174 287.427 222.481 287.273L228.136 284.002C228.259 283.963 228.367 283.886 228.444 283.781C228.521 283.676 228.562 283.55 228.562 283.42C228.562 283.29 228.521 283.163 228.444 283.058C228.367 282.954 228.259 282.876 228.136 282.838V282.838ZM237.247 277.549L232.498 274.799C232.19 274.643 231.849 274.562 231.504 274.562C231.159 274.562 230.819 274.643 230.51 274.799L224.867 278.07C224.761 278.118 224.671 278.197 224.609 278.295C224.546 278.393 224.512 278.507 224.512 278.624C224.512 278.741 224.546 278.855 224.609 278.954C224.671 279.052 224.761 279.13 224.867 279.179L229.616 281.928C229.924 282.084 230.265 282.166 230.61 282.166C230.955 282.166 231.295 282.084 231.604 281.928L237.247 278.602C237.339 278.548 237.415 278.471 237.468 278.379C237.521 278.287 237.549 278.182 237.549 278.075C237.549 277.969 237.521 277.864 237.468 277.772C237.415 277.679 237.339 277.602 237.247 277.549V277.549ZM249.308 270.564L244.559 267.814C244.25 267.658 243.91 267.577 243.565 267.577C243.219 267.577 242.879 267.658 242.57 267.814L233.989 272.792C233.879 272.837 233.786 272.914 233.719 273.013C233.653 273.111 233.618 273.228 233.618 273.347C233.618 273.466 233.653 273.582 233.719 273.681C233.786 273.779 233.879 273.856 233.989 273.901L238.738 276.662C239.045 276.816 239.384 276.896 239.727 276.896C240.07 276.896 240.408 276.816 240.715 276.662L249.308 271.683C249.416 271.636 249.509 271.558 249.575 271.459C249.64 271.359 249.674 271.243 249.674 271.123C249.674 271.004 249.64 270.888 249.575 270.788C249.509 270.689 249.416 270.611 249.308 270.564V270.564ZM283.545 279.7L278.807 276.95C278.498 276.794 278.158 276.713 277.813 276.713C277.468 276.713 277.127 276.794 276.819 276.95L271.164 280.221C271.058 280.269 270.969 280.348 270.906 280.446C270.843 280.544 270.81 280.658 270.81 280.775C270.81 280.892 270.843 281.006 270.906 281.105C270.969 281.203 271.058 281.281 271.164 281.33L275.913 284.079C276.222 284.235 276.562 284.317 276.907 284.317C277.252 284.317 277.593 284.235 277.901 284.079L283.545 280.753C283.636 280.699 283.712 280.622 283.765 280.53C283.818 280.438 283.846 280.333 283.846 280.226C283.846 280.12 283.818 280.015 283.765 279.923C283.712 279.83 283.636 279.753 283.545 279.7V279.7ZM292.667 274.411L287.918 271.661C287.61 271.505 287.27 271.424 286.924 271.424C286.579 271.424 286.238 271.505 285.93 271.661L280.287 274.932C280.181 274.981 280.091 275.059 280.028 275.157C279.966 275.255 279.932 275.37 279.932 275.486C279.932 275.603 279.966 275.718 280.028 275.816C280.091 275.914 280.181 275.992 280.287 276.041L285.036 278.791C285.344 278.947 285.684 279.028 286.03 279.028C286.375 279.028 286.715 278.947 287.023 278.791L292.667 275.52C293.219 275.254 293.219 274.732 292.667 274.411V274.411ZM301.746 269.111L296.996 266.361C296.69 266.207 296.351 266.127 296.008 266.127C295.665 266.127 295.326 266.207 295.019 266.361L289.365 269.632C289.259 269.681 289.17 269.759 289.107 269.857C289.044 269.955 289.011 270.07 289.011 270.187C289.011 270.303 289.044 270.418 289.107 270.516C289.17 270.614 289.259 270.692 289.365 270.741L294.114 273.491C294.422 273.647 294.763 273.728 295.108 273.728C295.453 273.728 295.793 273.647 296.102 273.491L301.746 270.22C302.331 269.965 302.331 269.444 301.746 269.111ZM291.806 284.512L287.057 281.751C286.748 281.595 286.408 281.514 286.063 281.514C285.718 281.514 285.377 281.595 285.069 281.751L279.425 285.077C279.315 285.122 279.221 285.199 279.155 285.298C279.089 285.396 279.054 285.513 279.054 285.632C279.054 285.751 279.089 285.867 279.155 285.966C279.221 286.064 279.315 286.141 279.425 286.186L284.174 288.947C284.483 289.103 284.823 289.184 285.168 289.184C285.513 289.184 285.854 289.103 286.162 288.947L291.806 285.676C292.435 285.365 292.435 284.844 291.883 284.534L291.806 284.512ZM300.928 279.223L296.179 276.473C295.871 276.317 295.531 276.236 295.185 276.236C294.84 276.236 294.499 276.317 294.191 276.473L288.537 279.744C288.431 279.793 288.341 279.871 288.278 279.969C288.216 280.067 288.182 280.182 288.182 280.298C288.182 280.415 288.216 280.53 288.278 280.628C288.341 280.726 288.431 280.804 288.537 280.853L293.286 283.603C293.594 283.759 293.934 283.84 294.28 283.84C294.625 283.84 294.965 283.759 295.273 283.603L300.928 280.332C301.032 280.288 301.122 280.217 301.188 280.125C301.253 280.033 301.292 279.925 301.3 279.812C301.308 279.7 301.285 279.587 301.233 279.487C301.181 279.387 301.102 279.303 301.006 279.245L300.928 279.223ZM310.04 273.934L305.291 271.184C304.982 271.028 304.642 270.947 304.297 270.947C303.952 270.947 303.611 271.028 303.303 271.184L297.659 274.455C297.107 274.777 297.107 275.298 297.659 275.564L302.408 278.325C302.717 278.481 303.057 278.562 303.402 278.562C303.747 278.562 304.088 278.481 304.396 278.325L310.04 274.999C310.669 274.799 310.669 274.278 310.117 273.956L310.04 273.934ZM175.665 322.875L170.916 320.125C170.607 319.969 170.267 319.888 169.922 319.888C169.576 319.888 169.236 319.969 168.928 320.125L160.346 325.103C160.241 325.152 160.151 325.23 160.088 325.328C160.025 325.427 159.992 325.541 159.992 325.658C159.992 325.775 160.025 325.889 160.088 325.987C160.151 326.085 160.241 326.164 160.346 326.212L165.095 328.962C165.404 329.118 165.744 329.199 166.089 329.199C166.434 329.199 166.775 329.118 167.083 328.962L175.665 323.984C176.294 323.74 176.294 323.219 175.742 322.897L175.665 322.875ZM184.787 317.597L180.038 314.847C179.73 314.691 179.389 314.61 179.044 314.61C178.699 314.61 178.359 314.691 178.05 314.847L172.407 318.174C171.854 318.484 171.854 319.005 172.407 319.282L177.156 322.032C177.462 322.186 177.801 322.267 178.144 322.267C178.487 322.267 178.826 322.186 179.133 322.032L184.787 318.761C184.907 318.726 185.012 318.655 185.09 318.558C185.168 318.461 185.214 318.342 185.223 318.217C185.231 318.093 185.201 317.969 185.137 317.862C185.073 317.755 184.978 317.67 184.864 317.619L184.787 317.597ZM193.899 312.308L189.15 309.559C188.841 309.403 188.501 309.321 188.156 309.321C187.81 309.321 187.47 309.403 187.162 309.559L181.518 312.829C181.412 312.878 181.323 312.956 181.26 313.054C181.197 313.153 181.164 313.267 181.164 313.384C181.164 313.501 181.197 313.615 181.26 313.713C181.323 313.812 181.412 313.89 181.518 313.938L186.267 316.688C186.575 316.844 186.916 316.925 187.261 316.925C187.606 316.925 187.947 316.844 188.255 316.688L193.899 313.362C193.985 313.312 194.059 313.243 194.112 313.158C194.165 313.074 194.197 312.978 194.205 312.878C194.212 312.778 194.196 312.678 194.156 312.587C194.116 312.495 194.054 312.415 193.976 312.353L193.899 312.308ZM203.021 307.031L198.272 304.27C197.964 304.114 197.623 304.033 197.278 304.033C196.933 304.033 196.593 304.114 196.284 304.27L190.641 307.596C190.531 307.641 190.437 307.718 190.371 307.817C190.305 307.915 190.27 308.032 190.27 308.151C190.27 308.269 190.305 308.386 190.371 308.484C190.437 308.583 190.531 308.66 190.641 308.705L195.39 311.466C195.696 311.62 196.035 311.7 196.378 311.7C196.721 311.7 197.06 311.62 197.367 311.466L203.021 308.139C203.128 308.099 203.222 308.029 203.29 307.937C203.359 307.845 203.4 307.736 203.408 307.621C203.416 307.507 203.391 307.392 203.336 307.291C203.281 307.191 203.199 307.108 203.098 307.053L203.021 307.031ZM212.133 301.742L207.384 298.992C207.075 298.836 206.735 298.755 206.39 298.755C206.044 298.755 205.704 298.836 205.396 298.992L199.752 302.263C199.646 302.312 199.557 302.39 199.494 302.488C199.431 302.586 199.398 302.701 199.398 302.817C199.398 302.934 199.431 303.048 199.494 303.147C199.557 303.245 199.646 303.323 199.752 303.372L204.501 306.121C204.809 306.277 205.15 306.359 205.495 306.359C205.84 306.359 206.181 306.277 206.489 306.121L212.133 302.851C212.237 302.807 212.326 302.736 212.392 302.644C212.458 302.552 212.497 302.444 212.505 302.331C212.513 302.219 212.49 302.106 212.437 302.006C212.385 301.906 212.307 301.822 212.21 301.764L212.133 301.742ZM221.255 296.453L216.506 293.703C216.198 293.547 215.857 293.466 215.512 293.466C215.167 293.466 214.827 293.547 214.518 293.703L208.875 296.974C208.322 297.296 208.322 297.817 208.875 298.083L213.624 300.833C213.93 300.987 214.269 301.067 214.612 301.067C214.955 301.067 215.294 300.987 215.601 300.833L221.255 297.562C221.359 297.518 221.449 297.447 221.514 297.355C221.58 297.263 221.619 297.155 221.627 297.042C221.635 296.93 221.612 296.817 221.56 296.717C221.508 296.617 221.429 296.533 221.332 296.475L221.255 296.453ZM230.367 291.175L225.618 288.426C225.309 288.27 224.969 288.188 224.624 288.188C224.278 288.188 223.938 288.27 223.63 288.426L217.986 291.697C217.434 292.007 217.434 292.528 217.986 292.805L222.735 295.555C223.043 295.711 223.384 295.792 223.729 295.792C224.074 295.792 224.415 295.711 224.723 295.555L230.367 292.229C230.458 292.181 230.535 292.11 230.592 292.024C230.649 291.937 230.682 291.838 230.69 291.735C230.698 291.632 230.679 291.528 230.636 291.434C230.593 291.34 230.527 291.259 230.444 291.198L230.367 291.175ZM239.489 285.887L234.74 283.137C234.432 282.981 234.091 282.9 233.746 282.9C233.401 282.9 233.061 282.981 232.752 283.137L227.109 286.408C227.003 286.456 226.913 286.534 226.851 286.633C226.788 286.731 226.754 286.845 226.754 286.962C226.754 287.079 226.788 287.193 226.851 287.291C226.913 287.39 227.003 287.468 227.109 287.516L231.858 290.266C232.165 290.42 232.503 290.501 232.846 290.501C233.189 290.501 233.528 290.42 233.835 290.266L239.489 286.995C239.593 286.952 239.683 286.88 239.748 286.789C239.814 286.697 239.853 286.589 239.861 286.476C239.869 286.363 239.846 286.251 239.794 286.15C239.742 286.05 239.663 285.967 239.566 285.909L239.489 285.887ZM248.601 280.609L243.852 277.848C243.543 277.692 243.203 277.611 242.858 277.611C242.512 277.611 242.172 277.692 241.864 277.848L236.22 281.174C236.11 281.219 236.017 281.296 235.95 281.395C235.884 281.494 235.849 281.61 235.849 281.729C235.849 281.848 235.884 281.964 235.95 282.063C236.017 282.161 236.11 282.238 236.22 282.283L240.969 285.044C241.277 285.2 241.618 285.281 241.963 285.281C242.309 285.281 242.649 285.2 242.957 285.044L248.601 281.718C248.711 281.684 248.809 281.619 248.884 281.53C248.958 281.441 249.005 281.333 249.019 281.218C249.033 281.103 249.013 280.986 248.963 280.882C248.912 280.778 248.832 280.691 248.733 280.631L248.601 280.609ZM257.723 275.32L252.974 272.57C252.666 272.414 252.325 272.333 251.98 272.333C251.635 272.333 251.295 272.414 250.986 272.57L245.343 275.841C245.237 275.89 245.147 275.968 245.085 276.066C245.022 276.165 244.988 276.279 244.988 276.396C244.988 276.512 245.022 276.627 245.085 276.725C245.147 276.823 245.237 276.901 245.343 276.95L250.092 279.7C250.399 279.854 250.737 279.934 251.08 279.934C251.423 279.934 251.762 279.854 252.069 279.7L257.723 276.429C257.827 276.385 257.917 276.314 257.983 276.222C258.048 276.13 258.087 276.022 258.095 275.909C258.103 275.797 258.08 275.684 258.028 275.584C257.976 275.484 257.897 275.4 257.801 275.342L257.723 275.32ZM180.8 329.405L176.051 326.656C175.743 326.5 175.403 326.419 175.057 326.419C174.712 326.419 174.371 326.5 174.063 326.656L168.42 329.927C168.314 329.975 168.224 330.053 168.161 330.152C168.099 330.25 168.065 330.364 168.065 330.481C168.065 330.598 168.099 330.712 168.161 330.81C168.224 330.909 168.314 330.987 168.42 331.035L173.169 333.785C173.477 333.941 173.817 334.022 174.163 334.022C174.508 334.022 174.848 333.941 175.157 333.785L180.8 330.514C180.904 330.471 180.994 330.399 181.06 330.307C181.125 330.216 181.164 330.108 181.172 329.995C181.18 329.882 181.157 329.769 181.105 329.669C181.053 329.569 180.974 329.485 180.878 329.428L180.8 329.405ZM189.923 324.117L185.174 321.367C184.865 321.211 184.525 321.13 184.18 321.13C183.835 321.13 183.494 321.211 183.186 321.367L177.542 324.693C176.99 325.015 176.99 325.536 177.542 325.802L182.291 328.563C182.6 328.719 182.94 328.8 183.285 328.8C183.63 328.8 183.971 328.719 184.279 328.563L189.923 325.237C190.552 324.981 190.552 324.46 190 324.139L189.923 324.117ZM199.034 318.839L194.285 316.089C193.977 315.933 193.637 315.852 193.291 315.852C192.946 315.852 192.605 315.933 192.297 316.089L186.654 319.36C186.548 319.409 186.458 319.487 186.395 319.585C186.333 319.683 186.299 319.798 186.299 319.914C186.299 320.031 186.333 320.146 186.395 320.244C186.458 320.342 186.548 320.42 186.654 320.469L191.403 323.219C191.711 323.375 192.051 323.456 192.397 323.456C192.742 323.456 193.082 323.375 193.391 323.219L199.034 319.948C199.138 319.904 199.228 319.833 199.294 319.741C199.359 319.649 199.398 319.541 199.406 319.428C199.414 319.316 199.391 319.203 199.339 319.103C199.287 319.003 199.208 318.919 199.112 318.861L199.034 318.839ZM208.157 313.55L203.408 310.8C203.099 310.644 202.759 310.563 202.414 310.563C202.069 310.563 201.728 310.644 201.42 310.8L195.776 314.071C195.671 314.12 195.581 314.198 195.518 314.296C195.455 314.395 195.422 314.509 195.422 314.626C195.422 314.742 195.455 314.857 195.518 314.955C195.581 315.053 195.671 315.131 195.776 315.18L200.525 317.93C200.834 318.086 201.174 318.167 201.519 318.167C201.864 318.167 202.205 318.086 202.513 317.93L208.157 314.659C208.261 314.615 208.35 314.544 208.416 314.452C208.482 314.36 208.521 314.252 208.529 314.14C208.537 314.027 208.514 313.914 208.461 313.814C208.409 313.714 208.331 313.63 208.234 313.572L208.157 313.55ZM197.333 338.985L192.584 336.235C192.276 336.079 191.936 335.998 191.59 335.998C191.245 335.998 190.905 336.079 190.597 336.235L184.953 339.506C184.401 339.828 184.401 340.349 184.953 340.615L189.702 343.365C190.01 343.521 190.351 343.602 190.696 343.602C191.041 343.602 191.382 343.521 191.69 343.365L197.333 340.094C197.93 339.85 197.93 339.329 197.411 338.963L197.333 338.985ZM206.456 333.707L201.707 330.958C201.399 330.802 201.058 330.721 200.713 330.721C200.368 330.721 200.027 330.802 199.719 330.958L194.075 334.229C193.523 334.539 193.523 335.06 194.075 335.337L198.824 338.087C199.133 338.243 199.473 338.324 199.818 338.324C200.164 338.324 200.504 338.243 200.812 338.087L206.456 334.816C207.085 334.528 207.086 334.04 206.533 333.73L206.456 333.707ZM215.567 328.419L210.818 325.669C210.51 325.513 210.17 325.432 209.824 325.432C209.479 325.432 209.139 325.513 208.831 325.669L203.187 328.995C203.081 329.044 202.992 329.122 202.929 329.22C202.866 329.319 202.833 329.433 202.833 329.55C202.833 329.666 202.866 329.781 202.929 329.879C202.992 329.977 203.081 330.055 203.187 330.104L207.936 332.854C208.244 333.01 208.585 333.091 208.93 333.091C209.275 333.091 209.616 333.01 209.924 332.854L215.567 329.583C215.685 329.543 215.787 329.468 215.86 329.368C215.934 329.268 215.975 329.148 215.979 329.023C215.982 328.899 215.948 328.777 215.88 328.673C215.813 328.569 215.715 328.488 215.601 328.441L215.567 328.419ZM224.69 323.141L219.941 320.38C219.633 320.224 219.292 320.143 218.947 320.143C218.602 320.143 218.261 320.224 217.953 320.38L212.309 323.706C212.2 323.751 212.106 323.828 212.04 323.927C211.974 324.026 211.938 324.142 211.938 324.261C211.938 324.38 211.974 324.496 212.04 324.595C212.106 324.694 212.2 324.77 212.309 324.815L217.058 327.576C217.367 327.732 217.707 327.813 218.052 327.813C218.398 327.813 218.738 327.732 219.047 327.576L224.69 324.25C224.797 324.21 224.891 324.139 224.959 324.048C225.028 323.956 225.068 323.846 225.077 323.731C225.085 323.617 225.06 323.502 225.005 323.402C224.95 323.301 224.868 323.218 224.767 323.163L224.69 323.141ZM282.275 289.756L277.526 287.006C277.217 286.851 276.877 286.769 276.531 286.769C276.186 286.769 275.846 286.851 275.538 287.006L266.956 291.985C266.404 292.295 266.404 292.816 266.956 293.094L271.705 295.843C272.014 295.999 272.354 296.08 272.699 296.08C273.044 296.08 273.385 295.999 273.693 295.843L282.275 290.865C282.379 290.821 282.468 290.75 282.534 290.658C282.6 290.566 282.638 290.458 282.647 290.346C282.655 290.233 282.631 290.12 282.579 290.02C282.527 289.92 282.448 289.836 282.352 289.778L282.275 289.756ZM217.268 308.272L212.519 305.512C212.211 305.356 211.871 305.274 211.525 305.274C211.18 305.274 210.839 305.356 210.531 305.512L204.888 308.838C204.778 308.883 204.684 308.96 204.618 309.058C204.552 309.157 204.516 309.273 204.516 309.392C204.516 309.511 204.552 309.628 204.618 309.726C204.684 309.825 204.778 309.902 204.888 309.947L209.637 312.708C209.945 312.864 210.285 312.945 210.631 312.945C210.976 312.945 211.316 312.864 211.625 312.708L217.268 309.437C217.898 309.126 217.898 308.605 217.346 308.295L217.268 308.272ZM226.391 302.984L221.642 300.234C221.333 300.078 220.993 299.997 220.648 299.997C220.303 299.997 219.962 300.078 219.654 300.234L214.01 303.56C213.905 303.609 213.815 303.687 213.752 303.785C213.689 303.884 213.656 303.998 213.656 304.115C213.656 304.231 213.689 304.346 213.752 304.444C213.815 304.542 213.905 304.62 214.01 304.669L218.759 307.419C219.068 307.575 219.408 307.656 219.753 307.656C220.098 307.656 220.439 307.575 220.747 307.419L226.391 304.148C226.51 304.113 226.616 304.042 226.694 303.945C226.771 303.847 226.818 303.728 226.826 303.604C226.835 303.479 226.805 303.355 226.741 303.248C226.677 303.141 226.582 303.057 226.468 303.006L226.391 302.984ZM235.502 297.695L230.753 294.945C230.445 294.789 230.105 294.708 229.759 294.708C229.414 294.708 229.074 294.789 228.765 294.945L223.122 298.216C222.57 298.538 222.57 299.059 223.122 299.325L227.871 302.086C228.179 302.242 228.519 302.323 228.865 302.323C229.21 302.323 229.55 302.242 229.859 302.086L235.502 298.759C236.132 298.56 236.132 298.039 235.58 297.717L235.502 297.695ZM244.625 292.417L239.876 289.667C239.567 289.512 239.227 289.43 238.882 289.43C238.537 289.43 238.196 289.512 237.888 289.667L232.244 292.938C231.692 293.249 231.692 293.77 232.244 294.047L236.993 296.797C237.302 296.953 237.642 297.034 237.987 297.034C238.332 297.034 238.673 296.953 238.981 296.797L244.625 293.526C244.741 293.489 244.843 293.418 244.918 293.321C244.993 293.225 245.038 293.109 245.046 292.987C245.054 292.865 245.026 292.743 244.965 292.638C244.903 292.532 244.812 292.448 244.702 292.395L244.625 292.417ZM253.736 287.128L248.987 284.379C248.679 284.223 248.339 284.141 247.993 284.141C247.648 284.141 247.308 284.223 246.999 284.379L241.356 287.65C241.25 287.698 241.16 287.776 241.097 287.875C241.035 287.973 241.001 288.087 241.001 288.204C241.001 288.321 241.035 288.435 241.097 288.533C241.16 288.632 241.25 288.71 241.356 288.758L246.105 291.508C246.413 291.664 246.753 291.745 247.099 291.745C247.444 291.745 247.784 291.664 248.093 291.508L253.736 288.237C253.84 288.194 253.93 288.122 253.996 288.03C254.061 287.939 254.1 287.83 254.108 287.718C254.116 287.605 254.093 287.492 254.041 287.392C253.989 287.292 253.91 287.208 253.814 287.151L253.736 287.128ZM265.797 280.143L261.047 277.394C260.739 277.238 260.399 277.156 260.054 277.156C259.708 277.156 259.368 277.238 259.06 277.394L250.478 282.372C250.369 282.417 250.275 282.494 250.208 282.592C250.142 282.691 250.107 282.807 250.107 282.926C250.107 283.045 250.142 283.161 250.208 283.26C250.275 283.359 250.369 283.436 250.478 283.481L255.227 286.241C255.535 286.397 255.876 286.479 256.221 286.479C256.567 286.479 256.907 286.397 257.215 286.241L265.797 281.263C265.895 281.217 265.98 281.146 266.041 281.057C266.103 280.967 266.14 280.862 266.148 280.754C266.156 280.645 266.135 280.536 266.086 280.439C266.038 280.341 265.965 280.258 265.874 280.199L265.797 280.143ZM192.231 332.488L187.482 329.727C187.174 329.571 186.833 329.49 186.488 329.49C186.143 329.49 185.802 329.571 185.494 329.727L176.913 334.705C176.807 334.754 176.717 334.832 176.655 334.93C176.592 335.029 176.558 335.143 176.558 335.26C176.558 335.376 176.592 335.491 176.655 335.589C176.717 335.687 176.807 335.765 176.913 335.814L181.662 338.564C181.97 338.72 182.31 338.801 182.656 338.801C183.001 338.801 183.341 338.72 183.65 338.564L192.231 333.585C192.335 333.544 192.426 333.474 192.492 333.383C192.558 333.292 192.598 333.184 192.606 333.072C192.614 332.96 192.59 332.847 192.538 332.748C192.485 332.649 192.405 332.566 192.308 332.51L192.231 332.488ZM201.354 327.199L196.605 324.449C196.296 324.293 195.956 324.212 195.61 324.212C195.265 324.212 194.925 324.293 194.617 324.449L188.973 327.72C188.867 327.769 188.778 327.847 188.715 327.945C188.652 328.043 188.619 328.158 188.619 328.275C188.619 328.391 188.652 328.506 188.715 328.604C188.778 328.702 188.867 328.78 188.973 328.829L193.722 331.579C194.03 331.735 194.371 331.816 194.716 331.816C195.061 331.816 195.402 331.735 195.71 331.579L201.354 328.308C201.457 328.264 201.547 328.193 201.613 328.101C201.678 328.009 201.718 327.901 201.726 327.788C201.734 327.676 201.71 327.563 201.658 327.463C201.606 327.363 201.527 327.279 201.431 327.221L201.354 327.199ZM210.465 321.91L205.716 319.161C205.408 319.005 205.067 318.923 204.722 318.923C204.377 318.923 204.036 319.005 203.728 319.161L198.084 322.431C197.979 322.48 197.889 322.558 197.826 322.656C197.763 322.755 197.73 322.869 197.73 322.986C197.73 323.103 197.763 323.217 197.826 323.315C197.889 323.413 197.979 323.491 198.084 323.54L202.833 326.29C203.142 326.446 203.482 326.527 203.828 326.527C204.173 326.527 204.513 326.446 204.821 326.29L210.465 323.019C210.569 322.976 210.659 322.904 210.724 322.812C210.79 322.721 210.829 322.612 210.837 322.5C210.845 322.387 210.822 322.274 210.77 322.174C210.718 322.074 210.639 321.99 210.542 321.932L210.465 321.91ZM219.588 316.633L214.839 313.872C214.53 313.716 214.19 313.635 213.844 313.635C213.499 313.635 213.159 313.716 212.851 313.872L207.207 317.198C206.655 317.508 206.655 318.03 207.207 318.307L211.956 321.056C212.263 321.211 212.601 321.291 212.944 321.291C213.288 321.291 213.626 321.211 213.933 321.056L219.588 317.786C219.704 317.748 219.806 317.677 219.881 317.581C219.956 317.485 220 317.368 220.009 317.247C220.017 317.125 219.989 317.003 219.927 316.898C219.866 316.792 219.775 316.707 219.665 316.655L219.588 316.633ZM228.699 311.344L223.95 308.594C223.642 308.438 223.301 308.357 222.956 308.357C222.611 308.357 222.27 308.438 221.962 308.594L216.318 311.865C216.213 311.914 216.123 311.992 216.06 312.09C215.997 312.188 215.964 312.302 215.964 312.419C215.964 312.536 215.997 312.65 216.06 312.749C216.123 312.847 216.213 312.925 216.318 312.974L221.067 315.723C221.376 315.879 221.716 315.961 222.062 315.961C222.407 315.961 222.747 315.879 223.055 315.723L228.699 312.397C228.79 312.349 228.868 312.278 228.924 312.192C228.981 312.106 229.014 312.006 229.022 311.903C229.03 311.8 229.012 311.697 228.969 311.603C228.925 311.509 228.859 311.427 228.776 311.366L228.699 311.344ZM270.424 296.719L265.675 293.969C265.367 293.814 265.026 293.732 264.681 293.732C264.336 293.732 263.995 293.814 263.687 293.969L221.465 318.44C221.359 318.488 221.27 318.567 221.207 318.665C221.144 318.763 221.111 318.877 221.111 318.994C221.111 319.111 221.144 319.225 221.207 319.324C221.27 319.422 221.359 319.5 221.465 319.549L226.214 322.298C226.523 322.454 226.863 322.535 227.208 322.535C227.553 322.535 227.894 322.454 228.202 322.298L270.501 297.939C270.64 297.912 270.765 297.837 270.855 297.728C270.944 297.619 270.993 297.482 270.993 297.34C270.993 297.198 270.944 297.061 270.855 296.952C270.765 296.843 270.64 296.768 270.501 296.741L270.424 296.719ZM237.822 306.055L233.073 303.305C232.764 303.149 232.424 303.068 232.078 303.068C231.733 303.068 231.393 303.149 231.085 303.305L225.441 306.576C224.889 306.898 224.889 307.419 225.441 307.685L230.19 310.446C230.497 310.6 230.835 310.68 231.178 310.68C231.522 310.68 231.86 310.6 232.167 310.446L237.822 307.119C237.915 307.072 237.995 307.001 238.053 306.914C238.111 306.826 238.146 306.725 238.154 306.62C238.161 306.515 238.142 306.41 238.098 306.315C238.053 306.22 237.984 306.138 237.899 306.077L237.822 306.055ZM246.933 300.777L242.184 298.028C241.876 297.872 241.535 297.79 241.19 297.79C240.845 297.79 240.504 297.872 240.196 298.028L234.552 301.298C234.447 301.347 234.357 301.425 234.294 301.523C234.232 301.622 234.198 301.736 234.198 301.853C234.198 301.97 234.232 302.084 234.294 302.182C234.357 302.28 234.447 302.358 234.552 302.407L239.301 305.157C239.61 305.313 239.95 305.394 240.296 305.394C240.641 305.394 240.981 305.313 241.289 305.157L246.933 301.886C247.037 301.843 247.127 301.771 247.192 301.679C247.258 301.588 247.297 301.479 247.305 301.367C247.313 301.254 247.29 301.141 247.238 301.041C247.186 300.941 247.107 300.857 247.01 300.799L246.933 300.777ZM256.055 295.488L251.307 292.739C250.998 292.583 250.658 292.502 250.312 292.502C249.967 292.502 249.627 292.583 249.319 292.739L243.675 296.01C243.569 296.058 243.48 296.136 243.417 296.235C243.354 296.333 243.321 296.447 243.321 296.564C243.321 296.681 243.354 296.795 243.417 296.893C243.48 296.992 243.569 297.07 243.675 297.118L248.424 299.868C248.731 300.022 249.069 300.103 249.412 300.103C249.756 300.103 250.094 300.022 250.401 299.868L256.055 296.597C256.159 296.554 256.249 296.482 256.315 296.39C256.381 296.299 256.42 296.191 256.428 296.078C256.436 295.965 256.412 295.852 256.36 295.752C256.308 295.652 256.229 295.569 256.133 295.511L256.055 295.488ZM265.167 290.211L260.418 287.45C260.11 287.294 259.769 287.213 259.424 287.213C259.079 287.213 258.738 287.294 258.43 287.45L252.786 290.776C252.677 290.821 252.583 290.898 252.517 290.997C252.451 291.095 252.415 291.212 252.415 291.331C252.415 291.45 252.451 291.566 252.517 291.665C252.583 291.763 252.677 291.84 252.786 291.885L257.569 294.613C257.877 294.769 258.217 294.85 258.563 294.85C258.908 294.85 259.248 294.769 259.557 294.613L265.2 291.286C265.796 291.065 265.797 290.543 265.3 290.233L265.167 290.211ZM274.289 284.922L269.541 282.172C269.232 282.016 268.892 281.935 268.547 281.935C268.201 281.935 267.861 282.016 267.553 282.172L261.909 285.443C261.803 285.492 261.714 285.57 261.651 285.668C261.588 285.766 261.555 285.881 261.555 285.997C261.555 286.114 261.588 286.229 261.651 286.327C261.714 286.425 261.803 286.503 261.909 286.552L266.658 289.302C266.965 289.456 267.303 289.536 267.646 289.536C267.99 289.536 268.328 289.456 268.635 289.302L274.289 286.031C274.393 285.987 274.483 285.916 274.549 285.824C274.615 285.732 274.654 285.624 274.662 285.511C274.67 285.399 274.646 285.286 274.594 285.186C274.542 285.086 274.463 285.002 274.367 284.944L274.289 284.922ZM258.519 265.208L253.769 262.459C253.461 262.303 253.121 262.221 252.775 262.221C252.43 262.221 252.09 262.303 251.781 262.459L246.138 265.785C246.032 265.833 245.943 265.912 245.88 266.01C245.817 266.108 245.783 266.222 245.783 266.339C245.783 266.456 245.817 266.57 245.88 266.669C245.943 266.767 246.032 266.845 246.138 266.894L250.887 269.643C251.195 269.799 251.536 269.88 251.881 269.88C252.226 269.88 252.567 269.799 252.875 269.643L258.519 266.372C259.148 266.073 259.148 265.552 258.596 265.23L258.519 265.208ZM267.63 259.931L262.881 257.17C262.573 257.014 262.232 256.932 261.887 256.932C261.542 256.932 261.201 257.014 260.893 257.17L255.249 260.496C254.697 260.806 254.697 261.328 255.249 261.605L259.998 264.354C260.307 264.51 260.647 264.592 260.992 264.592C261.338 264.592 261.678 264.51 261.986 264.354L267.63 261.028C268.26 260.784 268.259 260.241 267.707 259.953L267.63 259.931ZM276.753 254.642L272.004 251.892C271.695 251.736 271.355 251.655 271.009 251.655C270.664 251.655 270.324 251.736 270.015 251.892L264.372 255.163C264.266 255.212 264.177 255.29 264.114 255.388C264.051 255.486 264.017 255.6 264.017 255.717C264.017 255.834 264.051 255.948 264.114 256.047C264.177 256.145 264.266 256.223 264.372 256.272L269.121 259.021C269.429 259.177 269.77 259.259 270.115 259.259C270.46 259.259 270.801 259.177 271.109 259.021L276.753 255.751C276.849 255.704 276.93 255.633 276.99 255.544C277.05 255.456 277.086 255.353 277.094 255.246C277.102 255.139 277.082 255.033 277.035 254.936C276.989 254.84 276.918 254.757 276.83 254.697L276.753 254.642ZM285.069 259.465L280.32 256.715C280.012 256.559 279.671 256.478 279.326 256.478C278.98 256.478 278.64 256.559 278.332 256.715L272.677 260.041C272.571 260.09 272.482 260.168 272.419 260.266C272.356 260.365 272.323 260.479 272.323 260.596C272.323 260.713 272.356 260.827 272.419 260.925C272.482 261.023 272.571 261.102 272.677 261.15L277.426 263.9C277.734 264.056 278.075 264.137 278.42 264.137C278.765 264.137 279.106 264.056 279.414 263.9L285.069 260.629C285.19 260.598 285.299 260.53 285.38 260.435C285.461 260.34 285.511 260.222 285.524 260.097C285.536 259.972 285.509 259.847 285.447 259.737C285.386 259.628 285.292 259.541 285.179 259.487L285.069 259.465Z" fill="#07091B" stroke="white" stroke-width="0.5" stroke-linecap="round" stroke-linejoin="round"/>
<path d="M307.267 319.671L265.377 343.953C264.848 344.221 264.263 344.36 263.67 344.36C263.078 344.36 262.493 344.221 261.964 343.953L234.221 327.876C234.016 327.805 233.837 327.673 233.711 327.496C233.585 327.319 233.517 327.106 233.517 326.889C233.517 326.671 233.585 326.459 233.711 326.282C233.837 326.105 234.016 325.972 234.221 325.902L276.112 301.62C276.641 301.352 277.225 301.212 277.818 301.212C278.411 301.212 278.995 301.352 279.524 301.62L307.267 317.686C307.451 317.778 307.606 317.92 307.714 318.095C307.822 318.27 307.879 318.472 307.879 318.678C307.879 318.884 307.822 319.087 307.714 319.262C307.606 319.437 307.451 319.579 307.267 319.671V319.671Z" fill="#07091B" stroke="white" stroke-width="0.5" stroke-linecap="round" stroke-linejoin="round"/>
<path d="M293.219 263.933L288.581 261.239C288.324 261.114 288.043 261.048 287.758 261.048C287.473 261.048 287.191 261.114 286.935 261.239L278.961 265.796C278.745 265.905 278.507 265.962 278.265 265.962C278.024 265.962 277.786 265.905 277.57 265.796L271.319 262.17C270.938 261.974 270.515 261.871 270.087 261.871C269.659 261.871 269.237 261.974 268.856 262.17L254.498 270.464C253.813 270.852 253.813 271.495 254.498 271.894L266.967 279.123C267.35 279.32 267.774 279.422 268.204 279.422C268.634 279.422 269.058 279.32 269.441 279.123L293.175 265.364C293.326 265.318 293.459 265.226 293.556 265.101C293.652 264.975 293.706 264.823 293.711 264.664C293.716 264.506 293.671 264.35 293.583 264.219C293.494 264.088 293.367 263.988 293.219 263.933V263.933Z" fill="#07091B" stroke="white" stroke-width="0.5" stroke-linecap="round" stroke-linejoin="round"/>
<path d="M164.896 178.514L166.178 183.726L187.648 171.274L186.135 166.207L236.132 137.224L260.429 236.436L139.197 306.698L114.877 207.508L164.896 178.514Z" stroke="white" stroke-width="0.5" stroke-miterlimit="10"/>
</g>
<path opacity="0.1" d="M128.263 207.627C127.576 208.026 127.19 208.795 127.282 209.585L138.909 310.097C139.075 311.529 140.655 312.321 141.901 311.596L261.794 241.883C262.481 241.483 262.867 240.714 262.775 239.924L251.16 139.401C250.994 137.968 249.414 137.177 248.168 137.901L128.263 207.627Z" fill="white"/>
<path opacity="0.2" d="M149.374 207.56V309.052C149.374 309.823 150.21 310.304 150.876 309.916L274.808 237.82C275.424 237.462 275.803 236.804 275.803 236.092V134.024L149.374 207.56Z" fill="white" fill-opacity="0.2"/>
<path d="M150.372 199.535C149.754 199.893 149.374 200.553 149.374 201.267V208.945L275.803 135.832V128.733C275.803 127.963 274.969 127.482 274.302 127.868L150.372 199.535Z" fill="#686E8E"/>
<g style="mix-blend-mode:lighten" filter="url(#filter0_f_2732_137622)">
<ellipse cx="230.468" cy="225.846" rx="72.9994" ry="18.5" transform="rotate(-40.4535 230.468 225.846)" fill="url(#paint0_linear_2732_137622)"/>
</g>
<g opacity="0.6">
<path d="M323.554 215.485V244.319" stroke="white" stroke-width="0.5" stroke-linecap="round" stroke-linejoin="round"/>
<path d="M323.554 244.318L337.811 252.56L317.04 264.552L302.783 256.31L323.554 244.318Z" fill="#07091B" stroke="white" stroke-width="0.5" stroke-linecap="round" stroke-linejoin="round"/>
<path d="M323.554 215.472L337.811 223.714L317.04 235.705L302.783 227.463L323.554 215.472Z" fill="#07091B" stroke="white" stroke-width="0.5" stroke-linecap="round" stroke-linejoin="round"/>
<path d="M317.04 264.552V235.706L337.811 223.714V252.56L317.04 264.552Z" fill="#07091B" stroke="white" stroke-width="0.5" stroke-linecap="round" stroke-linejoin="round"/>
<path d="M302.783 256.31V227.464L317.04 235.706V264.552L302.783 256.31Z" fill="#07091B" stroke="white" stroke-width="0.5" stroke-linecap="round" stroke-linejoin="round"/>
<path d="M347.729 214.18V257.616" stroke="white" stroke-width="0.5" stroke-linecap="round" stroke-linejoin="round"/>
<path d="M347.729 257.616L361.986 265.845L341.228 277.836L326.958 269.595L347.729 257.616Z" fill="#07091B" stroke="white" stroke-width="0.5" stroke-linecap="round" stroke-linejoin="round"/>
<path d="M347.729 214.18L361.986 222.422L341.228 234.413L326.958 226.171L347.729 214.18Z" fill="#07091B" stroke="white" stroke-width="0.5" stroke-linecap="round" stroke-linejoin="round"/>
<path d="M341.228 277.836V234.413L361.986 222.421V265.845L341.228 277.836Z" fill="#07091B" stroke="white" stroke-width="0.5" stroke-linecap="round" stroke-linejoin="round"/>
<path d="M326.958 269.595V226.171L341.228 234.413V277.837L326.958 269.595Z" fill="#07091B" stroke="white" stroke-width="0.5" stroke-linecap="round" stroke-linejoin="round"/>
<path d="M373.952 200.268V271.527" stroke="white" stroke-width="0.5" stroke-linecap="round" stroke-linejoin="round"/>
<path d="M373.952 271.527L388.209 279.756L367.451 291.748L353.181 283.519L373.952 271.527Z" fill="#07091B" stroke="white" stroke-width="0.5" stroke-linecap="round" stroke-linejoin="round"/>
<path d="M373.952 200.268L388.209 208.497L367.451 220.489L353.181 212.26L373.952 200.268Z" fill="#07091B" stroke="white" stroke-width="0.5" stroke-linecap="round" stroke-linejoin="round"/>
<path d="M367.451 291.748V220.489L388.209 208.498V279.756L367.451 291.748Z" fill="#07091B" stroke="white" stroke-width="0.5" stroke-linecap="round" stroke-linejoin="round"/>
<path d="M353.181 283.519V212.26L367.451 220.489V291.748L353.181 283.519Z" fill="#07091B" stroke="white" stroke-width="0.5" stroke-linecap="round" stroke-linejoin="round"/>
<path d="M323.554 215.485V244.319" stroke="white" stroke-width="0.5" stroke-linecap="round" stroke-linejoin="round"/>
<path d="M323.554 244.318L337.811 252.56L317.04 264.552L302.783 256.31L323.554 244.318Z" fill="#07091B" stroke="white" stroke-width="0.5" stroke-linecap="round" stroke-linejoin="round"/>
<path d="M323.554 215.472L337.811 223.714L317.04 235.705L302.783 227.463L323.554 215.472Z" fill="#07091B" stroke="white" stroke-width="0.5" stroke-linecap="round" stroke-linejoin="round"/>
<path d="M317.04 264.552V235.706L337.811 223.714V252.56L317.04 264.552Z" fill="#07091B" stroke="white" stroke-width="0.5" stroke-linecap="round" stroke-linejoin="round"/>
<path d="M302.783 256.31V227.464L317.04 235.706V264.552L302.783 256.31Z" fill="#07091B" stroke="white" stroke-width="0.5" stroke-linecap="round" stroke-linejoin="round"/>
<path d="M347.729 214.18V257.616" stroke="white" stroke-width="0.5" stroke-linecap="round" stroke-linejoin="round"/>
<path d="M347.729 257.616L361.986 265.845L341.228 277.836L326.958 269.595L347.729 257.616Z" fill="#07091B" stroke="white" stroke-width="0.5" stroke-linecap="round" stroke-linejoin="round"/>
<path d="M347.729 214.18L361.986 222.422L341.228 234.413L326.958 226.171L347.729 214.18Z" fill="#07091B" stroke="white" stroke-width="0.5" stroke-linecap="round" stroke-linejoin="round"/>
<path d="M341.228 277.836V234.413L361.986 222.421V265.845L341.228 277.836Z" fill="#07091B" stroke="white" stroke-width="0.5" stroke-linecap="round" stroke-linejoin="round"/>
<path d="M326.958 269.595V226.171L341.228 234.413V277.837L326.958 269.595Z" fill="#07091B" stroke="white" stroke-width="0.5" stroke-linecap="round" stroke-linejoin="round"/>
<path d="M373.952 200.268V271.527" stroke="white" stroke-width="0.5" stroke-linecap="round" stroke-linejoin="round"/>
<path d="M373.952 271.527L388.209 279.756L367.451 291.748L353.181 283.519L373.952 271.527Z" fill="#07091B" stroke="white" stroke-width="0.5" stroke-linecap="round" stroke-linejoin="round"/>
<path d="M373.952 200.268L388.209 208.497L367.451 220.489L353.181 212.26L373.952 200.268Z" fill="#07091B" stroke="white" stroke-width="0.5" stroke-linecap="round" stroke-linejoin="round"/>
<path d="M367.451 291.748V220.489L388.209 208.498V279.756L367.451 291.748Z" fill="#07091B" stroke="white" stroke-width="0.5" stroke-linecap="round" stroke-linejoin="round"/>
<path d="M353.181 283.519V212.26L367.451 220.489V291.748L353.181 283.519Z" fill="#07091B" stroke="white" stroke-width="0.5" stroke-linecap="round" stroke-linejoin="round"/>
</g>
<g style="mix-blend-mode:lighten" filter="url(#filter1_f_2732_137622)">
<ellipse cx="216.113" cy="221.782" rx="79.9847" ry="22.0492" transform="rotate(127.678 216.113 221.782)" fill="url(#paint1_linear_2732_137622)"/>
</g>
<path d="M288.743 155.706L272.874 144.917L281.961 149.128L297.83 159.917L288.743 155.706Z" fill="#2ECFF6"/>
<path d="M241.442 236.999L225.56 226.21L272.874 144.917L288.743 155.706L241.442 236.999Z" fill="url(#paint2_linear_2732_137622)"/>
<g style="mix-blend-mode:overlay" opacity="0.2">
<path d="M241.442 236.999L225.56 226.21L272.874 144.917L288.743 155.706L241.442 236.999Z" fill="#07091B"/>
</g>
<path d="M241.058 257.463L225.176 246.687L195.062 218.045L210.945 228.834L241.058 257.463Z" fill="#3C51D6"/>
<path d="M164.77 281.535L148.888 270.747L196.125 198.221L211.994 209.009L164.77 281.535Z" fill="url(#paint3_linear_2732_137622)"/>
<g style="mix-blend-mode:overlay" opacity="0.2">
<path d="M164.77 281.535L148.888 270.747L196.125 198.221L211.994 209.009L164.77 281.535Z" fill="#07091B"/>
</g>
<path d="M288.744 155.707L297.83 159.917L241.058 257.463L210.945 228.834L173.242 286.732L164.77 281.536L211.994 209.01L241.442 236.999L288.744 155.707Z" fill="url(#paint4_linear_2732_137622)"/>
<defs>
<filter id="filter0_f_2732_137622" x="73.6265" y="76.4209" width="313.683" height="298.85" filterUnits="userSpaceOnUse" color-interpolation-filters="sRGB">
<feFlood flood-opacity="0" result="BackgroundImageFix"/>
<feBlend mode="normal" in="SourceGraphic" in2="BackgroundImageFix" result="shape"/>
<feGaussianBlur stdDeviation="50" result="effect1_foregroundBlur_2732_137622"/>
</filter>
<filter id="filter1_f_2732_137622" x="64.1895" y="57.0449" width="303.847" height="329.474" filterUnits="userSpaceOnUse" color-interpolation-filters="sRGB">
<feFlood flood-opacity="0" result="BackgroundImageFix"/>
<feBlend mode="normal" in="SourceGraphic" in2="BackgroundImageFix" result="shape"/>
<feGaussianBlur stdDeviation="50" result="effect1_foregroundBlur_2732_137622"/>
</filter>
<linearGradient id="paint0_linear_2732_137622" x1="261.532" y1="210.101" x2="251.691" y2="256.889" gradientUnits="userSpaceOnUse">
<stop stop-color="#AC50EF"/>
<stop offset="0.46875" stop-color="#7059FB"/>
<stop offset="1" stop-color="#2ECFF6"/>
</linearGradient>
<linearGradient id="paint1_linear_2732_137622" x1="146.838" y1="221.563" x2="178.187" y2="156.102" gradientUnits="userSpaceOnUse">
<stop stop-color="#AC50EF"/>
<stop offset="0.46875" stop-color="#7059FB"/>
<stop offset="1" stop-color="#2ECFF6"/>
</linearGradient>
<linearGradient id="paint2_linear_2732_137622" x1="202.25" y1="280.75" x2="324.569" y2="195.185" gradientUnits="userSpaceOnUse">
<stop stop-color="#AC50EF"/>
<stop offset="0.46875" stop-color="#7059FB"/>
<stop offset="1" stop-color="#2ECFF6"/>
</linearGradient>
<linearGradient id="paint3_linear_2732_137622" x1="148.888" y1="281.535" x2="275.562" y2="170.776" gradientUnits="userSpaceOnUse">
<stop stop-color="#AC50EF"/>
<stop offset="0.46875" stop-color="#7059FB"/>
<stop offset="1" stop-color="#2ECFF6"/>
</linearGradient>
<linearGradient id="paint4_linear_2732_137622" x1="164.77" y1="286.732" x2="302.051" y2="158.234" gradientUnits="userSpaceOnUse">
<stop stop-color="#AC50EF"/>
<stop offset="0.46875" stop-color="#7059FB"/>
<stop offset="1" stop-color="#2ECFF6"/>
</linearGradient>
</defs>
</svg>
