<svg width="500" height="500" viewBox="0 0 500 500" fill="none" xmlns="http://www.w3.org/2000/svg">
<g opacity="0.6">
<path fill-rule="evenodd" clip-rule="evenodd" d="M226.051 216.308C210.996 207.616 186.586 207.616 171.531 216.308L116.752 247.934C114.269 249.368 112.383 251.016 111.096 252.776L108.033 251.008V258.831C108.033 261.992 110.253 265.836 112.991 267.417L239.628 340.531C239.935 340.708 240.235 340.849 240.526 340.956L290.872 370.023C297.423 373.805 307.869 373.967 314.754 370.51V370.593L388.741 327.877C391.479 326.296 393.698 322.452 393.698 319.291V311.468L390.659 313.222C389.315 311.238 387.254 309.378 384.478 307.775L226.051 216.308Z" fill="#07091B"/>
<path d="M171.531 216.308L171.411 216.101L171.411 216.101L171.531 216.308ZM226.051 216.308L226.171 216.101L226.171 216.101L226.051 216.308ZM116.752 247.934L116.871 248.141L116.871 248.141L116.752 247.934ZM111.096 252.776L111.289 252.917L111.162 253.089L110.977 252.982L111.096 252.776ZM108.033 251.007H107.795V250.594L108.153 250.801L108.033 251.007ZM112.991 267.417L113.11 267.21L113.11 267.21L112.991 267.417ZM239.628 340.531L239.509 340.738L239.509 340.738L239.628 340.531ZM240.526 340.956L240.608 340.732L240.627 340.739L240.645 340.749L240.526 340.956ZM290.872 370.023L290.991 369.817L290.991 369.817L290.872 370.023ZM314.754 370.51L314.647 370.297L314.993 370.123V370.51H314.754ZM314.754 370.593L314.874 370.8L314.516 371.006V370.593H314.754ZM388.741 327.877L388.86 328.083L388.86 328.083L388.741 327.877ZM393.698 311.468L393.579 311.261L393.937 311.054V311.468H393.698ZM390.659 313.222L390.779 313.429L390.586 313.54L390.462 313.356L390.659 313.222ZM384.478 307.775L384.359 307.982L384.359 307.982L384.478 307.775ZM171.411 216.101C178.984 211.729 188.894 209.55 198.791 209.55C208.688 209.55 218.598 211.729 226.171 216.101L225.932 216.514C218.449 212.194 208.627 210.027 198.791 210.027C188.955 210.027 179.133 212.194 171.65 216.514L171.411 216.101ZM116.633 247.728L171.411 216.101L171.65 216.514L116.871 248.141L116.633 247.728ZM110.904 252.635C112.214 250.843 114.127 249.174 116.633 247.728L116.871 248.141C114.411 249.562 112.553 251.189 111.289 252.917L110.904 252.635ZM110.977 252.982L107.914 251.214L108.153 250.801L111.215 252.569L110.977 252.982ZM108.272 251.007V258.831H107.795V251.007H108.272ZM108.272 258.831C108.272 260.36 108.81 262.07 109.692 263.597C110.574 265.124 111.786 266.446 113.11 267.21L112.871 267.623C111.458 266.807 110.191 265.416 109.279 263.836C108.366 262.255 107.795 260.463 107.795 258.831H108.272ZM113.11 267.21L239.748 340.325L239.509 340.738L112.871 267.623L113.11 267.21ZM239.748 340.325C240.043 340.495 240.331 340.63 240.608 340.732L240.444 341.18C240.139 341.068 239.826 340.921 239.509 340.738L239.748 340.325ZM290.753 370.23L240.406 341.162L240.645 340.749L290.991 369.817L290.753 370.23ZM314.861 370.723C311.377 372.473 307.005 373.301 302.683 373.22C298.363 373.138 294.071 372.146 290.753 370.23L290.991 369.817C294.224 371.683 298.431 372.662 302.692 372.743C306.953 372.823 311.246 372.005 314.647 370.297L314.861 370.723ZM314.516 370.593V370.51H314.993V370.593H314.516ZM388.86 328.083L314.874 370.8L314.635 370.386L388.622 327.67L388.86 328.083ZM393.937 319.291C393.937 320.923 393.365 322.715 392.453 324.296C391.54 325.876 390.274 327.267 388.86 328.083L388.622 327.67C389.946 326.906 391.158 325.584 392.04 324.057C392.921 322.53 393.46 320.82 393.46 319.291H393.937ZM393.937 311.468V319.291H393.46V311.468H393.937ZM390.54 313.015L393.579 311.261L393.817 311.674L390.779 313.429L390.54 313.015ZM384.597 307.569C387.397 309.186 389.488 311.068 390.857 313.088L390.462 313.356C389.142 311.408 387.111 309.571 384.359 307.982L384.597 307.569ZM226.171 216.101L384.597 307.569L384.359 307.982L225.932 216.514L226.171 216.101Z" fill="white"/>
<path d="M211.13 200.869C203.603 196.523 191.398 196.523 183.87 200.869L115.265 240.479C105.73 245.984 105.73 254.909 115.265 260.414L290.922 361.83C297.697 365.742 308.681 365.742 315.456 361.83L387.242 320.385C395.773 315.459 395.773 307.473 387.242 302.547L211.13 200.869Z" fill="#07091B" stroke="white" stroke-width="0.477002"/>
<mask id="path-4-inside-1_2732_137621" fill="white">
<path fill-rule="evenodd" clip-rule="evenodd" d="M171.71 214.381L189.162 204.305C193.679 201.697 201.002 201.697 205.518 204.305L381.672 306.008C385.87 308.431 385.87 312.361 381.672 314.784L309.258 356.593C304.742 359.2 297.419 359.2 292.902 356.592L123.686 258.896C115.657 254.26 115.657 246.743 123.686 242.108L134.777 235.704L139.715 238.555C141.723 239.714 144.977 239.714 146.985 238.555L176.648 221.429C178.655 220.27 178.655 218.391 176.648 217.232L171.71 214.381Z"/>
</mask>
<path fill-rule="evenodd" clip-rule="evenodd" d="M171.71 214.381L189.162 204.305C193.679 201.697 201.002 201.697 205.518 204.305L381.672 306.008C385.87 308.431 385.87 312.361 381.672 314.784L309.258 356.593C304.742 359.2 297.419 359.2 292.902 356.592L123.686 258.896C115.657 254.26 115.657 246.743 123.686 242.108L134.777 235.704L139.715 238.555C141.723 239.714 144.977 239.714 146.985 238.555L176.648 221.429C178.655 220.27 178.655 218.391 176.648 217.232L171.71 214.381Z" fill="#07091B"/>
<path d="M171.71 214.381L171.297 214.619L170.884 214.381L171.297 214.142L171.71 214.381ZM292.902 356.592L292.489 356.831L292.902 356.592ZM123.686 258.896L124.099 258.657L123.686 258.896ZM123.686 242.108L124.099 242.346L123.686 242.108ZM134.777 235.704L134.364 235.466L134.777 235.227L135.19 235.466L134.777 235.704ZM146.985 238.555L146.572 238.317L146.985 238.555ZM176.648 221.429L177.061 221.667L176.648 221.429ZM189.575 204.544L172.123 214.619L171.297 214.142L188.749 204.067L189.575 204.544ZM205.105 204.544C200.817 202.068 193.864 202.068 189.575 204.544L188.749 204.067C193.494 201.327 201.187 201.327 205.931 204.067L205.105 204.544ZM381.259 306.246L205.105 204.544L205.931 204.067L382.085 305.769L381.259 306.246ZM381.259 314.546C385.229 312.254 385.229 308.538 381.259 306.246L382.085 305.769C386.511 308.324 386.511 312.468 382.085 315.023L381.259 314.546ZM308.845 356.354L381.259 314.546L382.085 315.023L309.671 356.831L308.845 356.354ZM293.315 356.354C297.604 358.83 304.557 358.83 308.845 356.354L309.671 356.831C304.927 359.57 297.234 359.57 292.489 356.831L293.315 356.354ZM124.099 258.657L293.315 356.354L292.489 356.831L123.273 259.134L124.099 258.657ZM124.099 242.346C116.298 246.85 116.298 254.153 124.099 258.657L123.273 259.134C115.015 254.367 115.015 246.637 123.273 241.869L124.099 242.346ZM135.19 235.943L124.099 242.346L123.273 241.869L134.364 235.466L135.19 235.943ZM135.19 235.466L140.128 238.317L139.302 238.794L134.364 235.943L135.19 235.466ZM140.128 238.317C141.908 239.344 144.792 239.344 146.572 238.317L147.398 238.794C145.162 240.084 141.538 240.084 139.302 238.794L140.128 238.317ZM146.572 238.317L176.235 221.19L177.061 221.667L147.398 238.794L146.572 238.317ZM176.235 221.19C178.014 220.163 178.014 218.498 176.235 217.47L177.061 216.993C179.297 218.284 179.297 220.377 177.061 221.667L176.235 221.19ZM176.235 217.47L171.297 214.619L172.123 214.142L177.061 216.993L176.235 217.47Z" fill="white" mask="url(#path-4-inside-1_2732_137621)"/>
<rect width="26.7587" height="4.7388" rx="2.3694" transform="matrix(-0.866025 -0.5 -2.20305e-08 1 160.074 291.388)" fill="#07091B" stroke="white" stroke-width="0.477002"/>
<rect width="26.7587" height="4.7388" rx="2.3694" transform="matrix(-0.866025 -0.5 -2.20305e-08 1 187.74 307.486)" fill="#07091B" stroke="white" stroke-width="0.477002"/>
</g>
<g style="mix-blend-mode:lighten" filter="url(#filter0_f_2732_137621)">
<circle cx="242.077" cy="275.458" r="41" fill="url(#paint0_linear_2732_137621)"/>
</g>
<path d="M246.113 263.022L245.35 275.104L228.787 275.035L229.55 262.956L246.113 263.022Z" fill="url(#paint1_linear_2732_137621)"/>
<path d="M193.851 241.331L193.088 253.414L189.506 241.284L190.269 229.205L193.851 241.331Z" fill="url(#paint2_linear_2732_137621)"/>
<path d="M215.798 238.303L215.034 250.385L193.088 253.413L193.851 241.331L215.798 238.303Z" fill="url(#paint3_linear_2732_137621)"/>
<g style="mix-blend-mode:lighten" opacity="0.2">
<path d="M215.798 238.303L215.034 250.385L193.088 253.413L193.851 241.331L215.798 238.303Z" fill="#07091B"/>
</g>
<path d="M229.55 262.956L228.787 275.035L228.109 258.304L228.873 246.222L229.55 262.956Z" fill="url(#paint4_linear_2732_137621)"/>
<path d="M228.872 246.222L228.109 258.304L197.25 286.967L198.013 274.884L228.872 246.222Z" fill="url(#paint5_linear_2732_137621)"/>
<g style="mix-blend-mode:overlay" opacity="0.2">
<path d="M228.872 246.222L228.109 258.304L197.25 286.967L198.013 274.884L228.872 246.222Z" fill="#07091B"/>
</g>
<path d="M190.269 229.204L244.434 221.734L246.113 263.022L229.55 262.956L228.872 246.222L198.013 274.884L223.865 290.541L213.687 299.996L174.763 276.42L215.798 238.303L193.851 241.331L190.269 229.204Z" fill="url(#paint6_linear_2732_137621)"/>
<path d="M213.687 299.996L212.923 312.075L174 288.498L174.763 276.42L213.687 299.996Z" fill="url(#paint7_linear_2732_137621)"/>
<g style="mix-blend-mode:overlay" opacity="0.2">
<path d="M213.687 299.996L212.923 312.075L174 288.498L174.763 276.42L213.687 299.996Z" fill="#07091B"/>
</g>
<path d="M223.865 290.542L223.102 302.624L212.923 312.075L213.687 299.996L223.865 290.542Z" fill="url(#paint8_linear_2732_137621)"/>
<g style="mix-blend-mode:overlay" opacity="0.4">
<path d="M223.865 290.542L223.102 302.624L212.923 312.075L213.687 299.996L223.865 290.542Z" fill="#07091B"/>
</g>
<path d="M283.933 255.567L283.17 267.645L257.325 251.991L258.088 239.909L283.933 255.567Z" fill="url(#paint9_linear_2732_137621)"/>
<g style="mix-blend-mode:overlay" opacity="0.2">
<path d="M283.933 255.567L283.17 267.645L257.325 251.991L258.088 239.909L283.933 255.567Z" fill="#07091B"/>
</g>
<path d="M307.186 254.031L306.423 266.109L265.389 304.226L266.152 292.148L307.186 254.031Z" fill="url(#paint10_linear_2732_137621)"/>
<g style="mix-blend-mode:overlay" opacity="0.2">
<path d="M307.186 254.031L306.423 266.109L265.389 304.226L266.152 292.148L307.186 254.031Z" fill="#07091B"/>
</g>
<path d="M237.515 308.716L236.752 320.799L235.077 279.507L235.84 267.428L237.515 308.716Z" fill="url(#paint11_linear_2732_137621)"/>
<g style="mix-blend-mode:overlay" opacity="0.4">
<path d="M237.515 308.716L236.752 320.799L235.077 279.507L235.84 267.428L237.515 308.716Z" fill="#07091B"/>
</g>
<path d="M268.263 230.458L307.186 254.031L266.152 292.148L288.103 289.12L291.68 301.246L237.515 308.717L235.84 267.429L252.403 267.498L253.077 284.229L283.933 255.567L258.088 239.909L268.263 230.458Z" fill="url(#paint12_linear_2732_137621)"/>
<path d="M291.68 301.246L290.917 313.328L236.752 320.799L237.515 308.717L291.68 301.246Z" fill="url(#paint13_linear_2732_137621)"/>
<g style="mix-blend-mode:overlay" opacity="0.2">
<path d="M291.68 301.246L290.917 313.328L236.752 320.799L237.515 308.717L291.68 301.246Z" fill="#07091B"/>
</g>
<defs>
<filter id="filter0_f_2732_137621" x="101.077" y="134.458" width="282" height="282" filterUnits="userSpaceOnUse" color-interpolation-filters="sRGB">
<feFlood flood-opacity="0" result="BackgroundImageFix"/>
<feBlend mode="normal" in="SourceGraphic" in2="BackgroundImageFix" result="shape"/>
<feGaussianBlur stdDeviation="50" result="effect1_foregroundBlur_2732_137621"/>
</filter>
<linearGradient id="paint0_linear_2732_137621" x1="259.523" y1="240.564" x2="206.311" y2="304.681" gradientUnits="userSpaceOnUse">
<stop stop-color="#AC50EF"/>
<stop offset="0.46875" stop-color="#7059FB"/>
<stop offset="1" stop-color="#2ECFF6"/>
</linearGradient>
<linearGradient id="paint1_linear_2732_137621" x1="231.625" y1="299.484" x2="228.883" y2="259.725" gradientUnits="userSpaceOnUse">
<stop stop-color="#AC50EF"/>
<stop offset="0.46875" stop-color="#7059FB"/>
<stop offset="1" stop-color="#2ECFF6"/>
</linearGradient>
<linearGradient id="paint2_linear_2732_137621" x1="190.875" y1="273.984" x2="205.618" y2="269.68" gradientUnits="userSpaceOnUse">
<stop stop-color="#AC50EF"/>
<stop offset="0.46875" stop-color="#7059FB"/>
<stop offset="1" stop-color="#2ECFF6"/>
</linearGradient>
<linearGradient id="paint3_linear_2732_137621" x1="172.125" y1="260.109" x2="202.656" y2="226.094" gradientUnits="userSpaceOnUse">
<stop stop-color="#AC50EF"/>
<stop offset="0.46875" stop-color="#7059FB"/>
<stop offset="1" stop-color="#2ECFF6"/>
</linearGradient>
<linearGradient id="paint4_linear_2732_137621" x1="228.83" y1="293.484" x2="233.299" y2="293.034" gradientUnits="userSpaceOnUse">
<stop stop-color="#AC50EF"/>
<stop offset="0.46875" stop-color="#7059FB"/>
<stop offset="1" stop-color="#2ECFF6"/>
</linearGradient>
<linearGradient id="paint5_linear_2732_137621" x1="197.25" y1="286.967" x2="237.74" y2="258.001" gradientUnits="userSpaceOnUse">
<stop stop-color="#AC50EF"/>
<stop offset="0.46875" stop-color="#7059FB"/>
<stop offset="1" stop-color="#2ECFF6"/>
</linearGradient>
<linearGradient id="paint6_linear_2732_137621" x1="174.763" y1="299.996" x2="240.076" y2="235.512" gradientUnits="userSpaceOnUse">
<stop stop-color="#AC50EF"/>
<stop offset="0.46875" stop-color="#7059FB"/>
<stop offset="1" stop-color="#2ECFF6"/>
</linearGradient>
<linearGradient id="paint7_linear_2732_137621" x1="193.843" y1="284.484" x2="214.298" y2="355.046" gradientUnits="userSpaceOnUse">
<stop stop-color="#AC50EF"/>
<stop offset="0.46875" stop-color="#7059FB"/>
<stop offset="1" stop-color="#2ECFF6"/>
</linearGradient>
<linearGradient id="paint8_linear_2732_137621" x1="218.394" y1="279.234" x2="190.455" y2="325.158" gradientUnits="userSpaceOnUse">
<stop stop-color="#AC50EF"/>
<stop offset="0.46875" stop-color="#7059FB"/>
<stop offset="1" stop-color="#2ECFF6"/>
</linearGradient>
<linearGradient id="paint9_linear_2732_137621" x1="265.5" y1="285.984" x2="287.002" y2="241.781" gradientUnits="userSpaceOnUse">
<stop stop-color="#AC50EF"/>
<stop offset="0.46875" stop-color="#7059FB"/>
<stop offset="1" stop-color="#2ECFF6"/>
</linearGradient>
<linearGradient id="paint10_linear_2732_137621" x1="265.389" y1="304.226" x2="316.303" y2="265.15" gradientUnits="userSpaceOnUse">
<stop stop-color="#AC50EF"/>
<stop offset="0.46875" stop-color="#7059FB"/>
<stop offset="1" stop-color="#2ECFF6"/>
</linearGradient>
<linearGradient id="paint11_linear_2732_137621" x1="241.125" y1="296.234" x2="249.153" y2="293.739" gradientUnits="userSpaceOnUse">
<stop stop-color="#AC50EF"/>
<stop offset="0.46875" stop-color="#7059FB"/>
<stop offset="1" stop-color="#2ECFF6"/>
</linearGradient>
<linearGradient id="paint12_linear_2732_137621" x1="235.84" y1="308.717" x2="297.823" y2="248.33" gradientUnits="userSpaceOnUse">
<stop stop-color="#AC50EF"/>
<stop offset="0.46875" stop-color="#7059FB"/>
<stop offset="1" stop-color="#2ECFF6"/>
</linearGradient>
<linearGradient id="paint13_linear_2732_137621" x1="259.875" y1="305.484" x2="317.93" y2="305.632" gradientUnits="userSpaceOnUse">
<stop stop-color="#AC50EF"/>
<stop offset="0.46875" stop-color="#7059FB"/>
<stop offset="1" stop-color="#2ECFF6"/>
</linearGradient>
</defs>
</svg>
