<svg width="159" height="267" viewBox="0 0 159 267" fill="none" xmlns="http://www.w3.org/2000/svg">
<g clip-path="url(#clip0_2791_172162)">
<path d="M158.646 142.662C158.646 142.541 158.646 142.419 158.586 142.308C158.536 142.033 158.472 141.76 158.394 141.491C158.394 141.36 158.323 141.239 158.282 141.108C158.191 140.815 158.08 140.533 157.969 140.26L157.848 139.958C157.676 139.584 157.494 139.211 157.292 138.858L157.15 138.636C156.978 138.353 156.806 138.081 156.604 137.808C156.53 137.696 156.449 137.588 156.361 137.486C156.189 137.253 156.008 137.042 155.816 136.83C155.623 136.618 155.644 136.628 155.553 136.537L155.411 136.376L154.946 135.972L154.643 135.7C154.339 135.458 154.018 135.239 153.682 135.044L43.3143 71.4771H43.2536L43.011 71.356L42.7683 71.2249L42.5054 71.124L42.2628 71.0331L42.01 70.9625C41.9338 70.9378 41.8561 70.9176 41.7775 70.902H41.5349H41.3124H40.8674C40.79 70.8971 40.7123 70.8971 40.6349 70.902H40.4529L40.2103 70.9726H40.0686C39.9436 71.0217 39.8222 71.079 39.7048 71.1442L1.94141 93.0494L2.29538 92.8779H2.44694L2.68958 92.8073H2.86163H3.10428H3.54909H3.76137H4.01414L4.23654 92.8678L4.49943 92.9485L4.73195 93.0393L4.99484 93.1402L5.23749 93.2613L5.55098 93.4227L115.909 156.989C116.245 157.187 116.566 157.41 116.869 157.655C116.98 157.736 117.071 157.837 117.172 157.918C117.274 157.998 117.587 158.291 117.779 158.493L118.042 158.775C118.234 158.987 118.416 159.209 118.598 159.441L118.841 159.764C119.033 160.026 119.215 160.309 119.387 160.591L119.518 160.803C119.72 161.167 119.913 161.54 120.074 161.913C120.125 162.014 120.155 162.105 120.195 162.206C120.315 162.486 120.42 162.772 120.509 163.064L120.63 163.447C120.701 163.719 120.762 163.992 120.812 164.254C120.863 164.516 120.863 164.496 120.883 164.617C120.938 164.988 120.968 165.362 120.974 165.737L120.762 239.182C120.762 251.431 116.353 260.068 109.327 264.145L147.09 242.239C154.167 238.203 158.495 229.526 158.535 217.277L158.737 143.832C158.74 143.44 158.709 143.049 158.646 142.662V142.662Z" fill="#07091B" stroke="white" stroke-width="0.5" stroke-linecap="round" stroke-linejoin="round"/>
<path d="M115.908 156.939C117.384 157.894 118.612 159.185 119.491 160.706C120.369 162.227 120.874 163.934 120.963 165.687L120.751 239.132C120.68 263.781 103.027 273.821 81.5319 261.44L39.2089 237.053C17.7035 224.663 0.171627 194.352 0.242401 169.693L0.444565 96.2479C0.444565 93.0292 2.72957 91.7377 5.49989 93.3521L115.908 156.939Z" fill="#07091B" stroke="white" stroke-width="0.5" stroke-linecap="round" stroke-linejoin="round"/>
<path d="M20.3412 39.9158L20.5233 86.7231C20.5233 88.3476 21.595 89.972 23.7384 91.203C26.1334 92.41 28.7821 93.0304 31.4651 93.0129C34.1481 92.9953 36.7884 92.3403 39.1673 91.1021C41.3108 89.851 42.3622 88.2063 42.352 86.5818L42.1802 39.7948C42.1802 31.632 44.445 25.6083 48.4792 23.2674C52.5133 20.9266 58.9033 21.8952 66.001 25.9514L78.073 32.8428C96.9799 43.6491 113.016 71.1341 113.096 92.8679L113.268 139.675C113.268 141.3 114.35 142.924 116.493 144.155C119.602 145.764 123.141 146.35 126.604 145.83C128.488 145.613 130.31 145.023 131.963 144.094C132.497 143.791 132.995 143.429 133.449 143.015C133.961 142.594 134.377 142.07 134.669 141.477C134.962 140.884 135.125 140.235 135.148 139.574L134.976 92.7871C134.915 78.5704 130.143 62.5879 121.508 47.8062C112.874 33.0244 101.287 20.9871 88.942 13.9242L76.8801 7.02265C70.7105 3.34481 63.8081 1.06133 56.6588 0.33301C49.9866 -0.309003 43.2784 1.11797 37.4485 4.41942C31.7013 7.84586 27.1535 12.9586 24.4259 19.0599C21.5468 25.6284 20.1522 32.7489 20.3412 39.9158Z" fill="#07091B" stroke="white" stroke-width="0.5" stroke-linecap="round" stroke-linejoin="round"/>
<path d="M46.0547 172.235C46.0547 165.98 50.4326 163.427 55.8721 166.535C61.3116 169.642 65.7603 177.24 65.7806 183.506C65.7806 187.633 63.8899 190.135 61.0286 190.478L61.0891 208.307L50.9784 202.515L50.918 184.686C48.0061 181.064 46.0749 176.362 46.0547 172.235Z" fill="#07091B" stroke="white" stroke-width="0.5" stroke-linecap="round" stroke-linejoin="round"/>
</g>
<defs>
<clipPath id="clip0_2791_172162">
<rect width="159" height="267" fill="white"/>
</clipPath>
</defs>
</svg>
