<svg width="428" height="725" viewBox="0 0 428 725" fill="none" xmlns="http://www.w3.org/2000/svg">
<path fill-rule="evenodd" clip-rule="evenodd" d="M121.569 21.2136C117.201 18.6918 110.119 18.6918 105.752 21.2136L99.4043 24.8782L106.815 29.1565C106.204 31.0333 105.874 33.2169 105.874 35.6795L105.874 507.933C105.874 519.72 114.15 534.054 124.358 539.948L412.156 706.108V717.212L422.057 711.496C424.787 709.92 427 706.087 427 702.934L427 653.942L426.935 653.98V221.497C426.935 208.323 417.686 192.302 406.276 185.715L161.449 44.3639L161.558 44.301L121.569 21.2136Z" fill="#07091B"/>
<path d="M105.752 21.2136L105.894 21.4608L105.894 21.4608L105.752 21.2136ZM121.569 21.2136L121.426 21.4608L121.426 21.4608L121.569 21.2136ZM99.4043 24.8782L99.2616 24.6311L98.8335 24.8782L99.2616 25.1254L99.4043 24.8782ZM106.815 29.1565L107.086 29.2448L107.157 29.025L106.957 28.9094L106.815 29.1565ZM105.874 35.6795L106.16 35.6795V35.6795H105.874ZM105.874 507.933L105.589 507.933V507.933H105.874ZM124.358 539.948L124.501 539.701L124.501 539.701L124.358 539.948ZM412.156 706.108H412.441V705.943L412.299 705.861L412.156 706.108ZM412.156 717.212H411.871V717.707L412.299 717.46L412.156 717.212ZM422.057 711.496L421.914 711.249L421.914 711.249L422.057 711.496ZM427 702.934L427.285 702.934L427.285 702.934L427 702.934ZM427 653.942L427.285 653.942L427.285 653.448L426.857 653.695L427 653.942ZM426.935 653.98H426.65V654.474L427.078 654.227L426.935 653.98ZM406.276 185.715L406.419 185.468L406.419 185.468L406.276 185.715ZM161.449 44.3639L161.306 44.1167L160.878 44.3639L161.306 44.611L161.449 44.3639ZM161.558 44.301L161.7 44.5482L162.128 44.301L161.7 44.0539L161.558 44.301ZM105.894 21.4608C108.025 20.2308 110.835 19.6076 113.66 19.6076C116.486 19.6077 119.296 20.2308 121.426 21.4608L121.712 20.9665C119.474 19.6746 116.56 19.0369 113.66 19.0369C110.761 19.0369 107.846 19.6746 105.609 20.9665L105.894 21.4608ZM99.547 25.1254L105.894 21.4608L105.609 20.9665L99.2616 24.6311L99.547 25.1254ZM106.957 28.9094L99.547 24.6311L99.2616 25.1254L106.672 29.4037L106.957 28.9094ZM106.16 35.6795C106.16 33.2418 106.486 31.0887 107.086 29.2448L106.543 29.0682C105.922 30.9779 105.589 33.1919 105.589 35.6795H106.16ZM106.16 507.933L106.16 35.6795L105.589 35.6795L105.589 507.933L106.16 507.933ZM124.501 539.701C119.451 536.785 114.862 531.77 111.535 526.008C108.209 520.246 106.16 513.765 106.16 507.933H105.589C105.589 513.888 107.678 520.468 111.041 526.293C114.404 532.119 119.058 537.217 124.216 540.195L124.501 539.701ZM412.299 705.861L124.501 539.701L124.216 540.195L412.013 706.355L412.299 705.861ZM412.441 717.212V706.108H411.871V717.212H412.441ZM421.914 711.249L412.013 716.965L412.299 717.46L422.2 711.743L421.914 711.249ZM426.715 702.934C426.715 704.449 426.181 706.146 425.305 707.664C424.429 709.181 423.226 710.492 421.914 711.249L422.2 711.743C423.618 710.924 424.887 709.53 425.799 707.949C426.712 706.368 427.285 704.572 427.285 702.934H426.715ZM426.715 653.942L426.715 702.934L427.285 702.934L427.285 653.942L426.715 653.942ZM427.078 654.227L427.143 654.19L426.857 653.695L426.792 653.733L427.078 654.227ZM426.65 221.497V653.98H427.22V221.497H426.65ZM406.134 185.962C411.785 189.225 416.917 194.835 420.637 201.279C424.357 207.722 426.65 214.972 426.65 221.497H427.22C427.22 214.848 424.888 207.5 421.131 200.993C417.375 194.486 412.177 188.793 406.419 185.468L406.134 185.962ZM161.306 44.611L406.134 185.962L406.419 185.468L161.591 44.1167L161.306 44.611ZM161.415 44.0539L161.306 44.1167L161.591 44.611L161.7 44.5482L161.415 44.0539ZM121.426 21.4608L161.415 44.5482L161.7 44.0539L121.712 20.9665L121.426 21.4608Z" fill="white"/>
<path d="M94.8127 36.0904C94.8127 25.6894 102.115 21.4736 111.122 26.6741L395.215 190.695C406.624 197.282 415.873 213.302 415.873 226.477L415.873 707.406C415.873 716.767 409.302 720.561 401.195 715.88L113.297 549.662C103.088 543.769 94.8127 529.435 94.8127 517.647L94.8127 36.0904Z" fill="#07091B" stroke="white" stroke-width="0.570769"/>
<mask id="path-4-inside-1_2732_138052" fill="white">
<path d="M101.191 42.2249C101.191 35.9843 105.573 33.4548 110.977 36.5751L390.592 198.011C400.2 203.558 407.989 217.048 407.989 228.143L407.989 695.18C407.989 701.421 403.607 703.95 398.203 700.83L114.239 536.883C107.033 532.723 101.191 522.605 101.191 514.284L101.191 42.2249Z"/>
</mask>
<path d="M101.191 42.2249C101.191 35.9843 105.573 33.4548 110.977 36.5751L390.592 198.011C400.2 203.558 407.989 217.048 407.989 228.143L407.989 695.18C407.989 701.421 403.607 703.95 398.203 700.83L114.239 536.883C107.033 532.723 101.191 522.605 101.191 514.284L101.191 42.2249Z" fill="#07091B"/>
<path d="M390.592 198.011L390.592 197.44L390.592 198.011ZM110.977 36.5751L110.977 37.1458L110.977 36.5751ZM110.977 37.1458L390.592 198.581L390.592 197.44L110.977 36.0043L110.977 37.1458ZM407.494 227.857L407.494 694.895L408.483 695.466L408.483 228.428L407.494 227.857ZM398.203 700.259L114.239 536.313L114.239 537.454L398.203 701.401L398.203 700.259ZM101.686 514.57L101.686 42.5103L100.697 41.9395L100.697 513.999L101.686 514.57ZM114.239 536.313C107.306 532.31 101.686 522.575 101.686 514.57L100.697 513.999C100.697 522.635 106.76 533.136 114.239 537.454L114.239 536.313ZM407.494 694.895C407.494 700.82 403.334 703.222 398.203 700.259L398.203 701.401C403.88 704.679 408.483 702.021 408.483 695.466L407.494 694.895ZM390.592 198.581C399.927 203.971 407.494 217.078 407.494 227.857L408.483 228.428C408.483 217.019 400.473 203.145 390.592 197.44L390.592 198.581ZM110.977 36.0043C105.3 32.7264 100.697 35.3837 100.697 41.9395L101.686 42.5103C101.686 36.5849 105.846 34.1832 110.977 37.1458L110.977 36.0043Z" fill="white" mask="url(#path-4-inside-1_2732_138052)"/>
<rect x="0.24715" y="0.142692" width="4.77562" height="23.5065" rx="2.38781" transform="matrix(0.866025 -0.5 2.20305e-08 1 419.578 243.234)" fill="#07091B" stroke="white" stroke-width="0.570769"/>
<rect x="0.24715" y="0.142692" width="4.77562" height="29.3198" rx="2.38781" transform="matrix(0.866025 -0.5 2.20305e-08 1 419.578 280.08)" fill="#07091B" stroke="white" stroke-width="0.570769"/>
<rect opacity="0.1" width="394.987" height="478.814" rx="4.56615" transform="matrix(0.866025 0.5 -2.20305e-08 1 29.9312 17.2808)" fill="#696F8E"/>
<rect opacity="0.9" width="345.641" height="387.44" rx="4" transform="matrix(0.866025 0.5 -2.20305e-08 1 0 58.5176)" fill="#1D2032"/>
<path d="M-5.02973e-08 41.7225C-2.25189e-08 40.4616 0.885223 39.9505 1.9772 40.581L297.357 211.118C298.449 211.749 299.334 213.282 299.334 214.543L299.334 250.417L-8.40619e-07 77.5965L-5.02973e-08 41.7225Z" fill="#686E8E"/>
<g filter="url(#filter0_f_2732_138052)">
<path fill-rule="evenodd" clip-rule="evenodd" d="M31.0326 139.874L37.5817 136.093C38.7429 135.422 40.6256 135.422 41.7868 136.093L71.3423 153.157L71.2796 153.193L99.503 169.487C101.825 170.828 103.708 174.089 103.708 176.771V189.907L103.718 189.901L103.718 236.025C103.718 237.366 102.777 238.996 101.616 239.666L95.6994 243.082L95.6994 200.092L33.998 164.468C31.6756 163.128 29.793 159.867 29.793 157.185L29.793 152.922C29.793 147.789 31.2074 143.854 33.6107 141.362L31.0326 139.874Z" fill="url(#paint0_linear_2732_138052)"/>
</g>
<path fill-rule="evenodd" clip-rule="evenodd" d="M31.0326 139.874L37.5817 136.093C38.7429 135.422 40.6256 135.422 41.7868 136.093L71.3423 153.157L71.2796 153.193L99.503 169.487C101.825 170.828 103.708 174.089 103.708 176.771V189.907L103.718 189.901L103.718 236.025C103.718 237.366 102.777 238.996 101.616 239.666L95.6994 243.082L95.6994 200.092L33.998 164.468C31.6756 163.128 29.793 159.867 29.793 157.185L29.793 152.922C29.793 147.789 31.2074 143.854 33.6107 141.362L31.0326 139.874Z" fill="url(#paint1_linear_2732_138052)"/>
<g style="mix-blend-mode:overlay" opacity="0.2">
<path fill-rule="evenodd" clip-rule="evenodd" d="M31.0326 139.874L37.5817 136.093C38.7429 135.422 40.6256 135.422 41.7868 136.093L71.3423 153.157L71.2796 153.193L99.503 169.487C101.825 170.828 103.708 174.089 103.708 176.771V189.907L103.718 189.901L103.718 236.025C103.718 237.366 102.777 238.996 101.616 239.666L95.6994 243.082L95.6994 200.092L33.998 164.468C31.6756 163.128 29.793 159.867 29.793 157.185L29.793 152.922C29.793 147.789 31.2074 143.854 33.6107 141.362L31.0326 139.874Z" fill="#07091B"/>
</g>
<g filter="url(#filter1_i_2732_138052)">
<rect width="77.5104" height="68.7976" rx="4.85561" transform="matrix(0.866025 0.5 -2.20305e-08 1 29.8354 137.658)" fill="url(#paint2_linear_2732_138052)"/>
</g>
<path d="M75.195 194.693C75.6885 191.169 73.1769 187.671 69.7426 184.323L70.8566 179.806L68.1366 177.453L67.052 181.851C66.337 181.232 65.6026 180.614 64.8728 180L65.9651 175.574L63.2467 173.222L62.1319 177.736C61.54 177.239 60.9589 176.749 60.395 176.262L60.3981 176.248L56.6469 173L55.9233 175.937C55.9233 175.937 57.9415 177.636 57.8988 177.645C59.0005 178.598 59.1996 179.555 59.1663 180.203L57.8973 185.349C57.9732 185.415 58.0716 185.504 58.1801 185.617C58.0894 185.538 57.9926 185.454 57.8927 185.368L56.1139 192.576C55.9791 192.885 55.6375 193.267 54.8674 192.602C54.8945 192.664 52.8904 190.891 52.8904 190.891L51.54 193.707L55.0797 196.769C55.7382 197.34 56.3835 197.912 57.0188 198.467L55.8931 203.036L58.61 205.387L59.7248 200.867C60.467 201.528 61.1875 202.159 61.8925 202.768L60.7815 207.266L63.5015 209.619L64.6272 205.06C69.2654 208.751 72.7531 210.356 74.2212 206.36C75.4042 203.142 74.1623 200.176 71.722 197.3C73.4992 197.852 74.8379 197.275 75.195 194.693V194.693ZM68.9803 201.168C68.1397 204.583 62.4526 199.191 60.6088 197.598L62.1024 191.546C63.9462 193.142 69.8588 197.608 68.9803 201.168V201.168ZM69.8216 191.535C69.0547 194.64 64.3212 190.104 62.7857 188.776L64.1399 183.287C65.6754 184.615 70.6203 188.295 69.8216 191.535V191.535Z" fill="white"/>
<rect x="0.261613" y="0.453127" width="71.8961" height="71.8961" rx="6.94794" transform="matrix(0.866025 0.5 -2.20305e-08 1 34.9662 222.26)" stroke="white" stroke-width="0.604169"/>
<path d="M67.005 279.16L76.3023 284.528C76.5005 284.642 76.5941 284.696 76.6084 284.405C76.6843 283.356 76.6843 282.258 76.6084 281.121C76.6084 280.908 76.517 280.768 76.3177 280.653L57.8145 269.97C57.5855 269.838 57.5238 269.89 57.5238 270.138L57.5238 273.281C57.5238 273.686 57.5238 273.686 57.8905 273.898L67.005 279.16V279.16ZM75.5701 276.548C75.5965 276.483 75.5965 276.396 75.5701 276.302C75.4148 275.822 75.231 275.343 75.0173 274.87C74.6958 274.087 74.3171 273.318 73.8855 272.574C73.6818 272.157 73.4461 271.753 73.1819 271.373C71.8584 269.308 70.285 267.479 68.5938 266.04C67.7405 265.326 66.8685 264.717 65.9942 264.221L57.7826 259.48C57.5536 259.348 57.5227 259.436 57.5227 259.666L57.5227 265.934C57.5227 266.198 57.5227 266.27 57.8134 266.437L75.46 276.626C75.46 276.626 75.613 276.678 75.6438 276.591L75.569 276.548L75.5701 276.548ZM75.5701 287.778C75.3102 287.595 75.0482 287.444 74.7883 287.327L57.8299 277.536C57.6009 277.404 57.5238 277.359 57.5238 277.713L57.5238 283.841C57.5238 284.123 57.5238 284.194 57.8299 284.371L65.6595 288.891C66.0339 289.141 66.4082 289.326 66.7749 289.448C67.9112 290.01 69.0287 290.37 70.0945 290.516C70.4821 290.585 70.8565 290.599 71.2099 290.56L71.3167 290.622C73.1522 290.579 74.643 289.708 75.5833 288.125C75.5833 288.125 75.6901 287.92 75.5701 287.781L75.5701 287.778ZM54.4508 285.597L54.4508 285.492L54.4508 281.378L54.4508 279.983L54.4508 275.833C54.4508 275.603 54.4508 275.569 54.2064 275.427L50.8878 273.511C50.7039 273.405 50.6279 273.361 50.6279 273.079L50.6279 269.724L54.1755 271.772C54.3737 271.887 54.4508 271.931 54.4508 271.631L54.4508 268.311C54.4508 268.099 54.4508 268.047 54.2064 267.906L50.8878 265.99C50.7039 265.884 50.6279 265.84 50.6279 265.558L50.6279 262.45C50.6279 262.256 50.6279 262.204 50.8724 262.345L54.1601 264.243C54.3891 264.375 54.4508 264.411 54.4508 264.075L54.4508 254.558C54.4508 254.275 54.4508 254.204 54.7569 254.381L66.2254 261.002C67.0578 261.521 67.8847 262.104 68.7028 262.75C70.3885 264.084 72.0082 265.714 73.4891 267.562C74.4712 268.797 75.3752 270.124 76.1801 271.517C76.7856 272.593 77.3318 273.694 77.8162 274.81C78.2974 275.936 78.6971 277.073 79.0109 278.202C79.0494 278.471 79.2542 278.755 79.4678 278.837L82.205 280.417C82.5563 280.62 82.5563 280.62 82.5717 281.018L82.5717 283.914C82.5717 284.196 82.4803 284.215 82.2347 284.073L80.124 282.854C79.9104 282.731 79.8488 282.695 79.8642 283.022C79.9479 284.146 79.9479 285.225 79.8642 286.253C79.8642 286.553 79.8642 286.588 80.156 286.757L82.5706 288.151C82.6774 288.371 82.5706 288.469 82.5706 288.629C82.586 288.842 82.586 289.05 82.5706 289.246L82.5706 291.383C82.5706 291.683 82.4946 291.728 82.2645 291.595L79.3742 289.926C79.1727 289.766 78.9767 289.801 78.9305 290.006C78.2423 291.674 77.1413 292.891 75.7187 293.555C75.199 293.795 74.6529 293.988 74.0826 294.128C73.4704 294.182 72.8747 294.261 72.2471 294.234C71.0921 294.168 69.8809 293.911 68.6378 293.474C67.4575 293.037 66.2607 292.456 65.0594 291.744L54.4464 285.616L54.4464 285.599L54.4508 285.597Z" fill="white"/>
<rect x="0.261613" y="0.453127" width="71.8961" height="71.8961" rx="6.94794" transform="matrix(0.866025 0.5 -2.20305e-08 1 34.9662 308.826)" stroke="white" stroke-width="0.604169"/>
<path fill-rule="evenodd" clip-rule="evenodd" d="M83.068 373.433C83.068 384.111 75.5719 388.438 66.3248 383.1C57.0777 377.761 49.5815 364.777 49.5815 354.1C49.5815 343.422 57.0777 339.094 66.3248 344.433C75.5719 349.772 83.068 362.755 83.068 373.433ZM61.5802 368.721L58.3308 366.845C57.648 366.45 57.3108 366.256 57.1051 365.985C56.883 365.691 56.7473 365.337 56.7308 365.023C56.7185 364.736 56.8871 364.491 57.2244 364.002L65.2475 352.305C65.5889 351.808 65.7617 351.561 65.9797 351.559C66.2141 351.557 66.4938 351.718 66.7283 351.991C66.9463 352.245 67.119 352.692 67.4604 353.582L69.1098 357.859L69.1182 357.881C69.4869 358.838 69.6739 359.323 69.7556 359.766C69.846 360.25 69.846 360.706 69.7556 361.086C69.6733 361.438 69.4882 361.711 69.1139 362.25L64.8995 368.419L64.8886 368.435C64.5175 368.971 64.3294 369.242 64.0687 369.378C63.7849 369.528 63.4435 369.559 63.0692 369.471C62.7278 369.383 62.3453 369.162 61.5802 368.721ZM69.786 373.458L74.442 376.146C75.1289 376.543 75.4745 376.743 75.6802 376.705C75.9023 376.667 76.0421 376.467 76.0546 376.17C76.0664 375.906 75.9014 375.482 75.5781 374.651C75.567 374.623 75.5558 374.594 75.5445 374.565L73.2122 368.612L73.1857 368.544C72.858 367.715 72.6925 367.297 72.4801 367.049C72.2458 366.776 71.97 366.617 71.7356 366.619C71.5217 366.624 71.349 366.861 71.0076 367.343L68.6837 370.609L68.6757 370.62C68.3355 371.102 68.1655 371.342 68.1778 371.627C68.1942 371.941 68.3299 372.299 68.552 372.594C68.7536 372.862 69.0991 373.062 69.786 373.458Z" fill="white"/>
<rect x="0.261613" y="0.453127" width="71.8961" height="71.8961" rx="6.94794" transform="matrix(0.866025 0.5 -2.20305e-08 1 111.357 179.798)" stroke="white" stroke-width="0.604169"/>
<path d="M142.933 215.87L142.722 216.575L142.722 240.544L142.933 240.908L152.569 239.894L142.933 215.87Z" fill="white"/>
<path d="M142.933 215.87L133.298 228.768L142.933 240.908L142.933 229.274L142.933 215.87Z" fill="white"/>
<path d="M142.933 243.015L142.814 243.113L142.814 251.652L142.933 252.12L152.574 242.008L142.933 243.015Z" fill="white"/>
<path d="M142.933 252.119L142.933 243.014L133.297 230.877L142.933 252.119Z" fill="white"/>
<path d="M142.933 240.908L152.568 239.894L142.933 229.274L142.933 240.908Z" fill="white"/>
<path d="M133.297 228.768L142.933 240.908L142.933 229.274L133.297 228.768Z" fill="white"/>
<rect x="0.261613" y="0.453127" width="71.8961" height="71.8961" rx="6.94794" transform="matrix(0.866025 0.5 -2.20305e-08 1 111.357 266.364)" stroke="white" stroke-width="0.604169"/>
<path d="M152.509 337.092L140.942 330.414L143.104 323.242L146.423 324.055L147.128 321.674L143.808 320.919L147.329 309.131L147.329 308.957C147.329 308.55 147.077 308.115 146.725 307.911L142.249 305.327C141.897 305.124 141.595 305.24 141.495 305.588L137.371 319.526L134.052 318.771L133.297 321.065L136.617 321.819L133.649 331.779L151.302 341.97C151.654 342.174 151.956 342.057 152.056 341.767L153.062 338.341L153.062 338.167C153.112 337.731 152.861 337.296 152.509 337.092V337.092Z" fill="white"/>
<rect x="0.261613" y="0.453127" width="71.8961" height="71.8961" rx="6.94794" transform="matrix(0.866025 0.5 -2.20305e-08 1 111.357 352.93)" stroke="white" stroke-width="0.604169"/>
<path d="M143.193 397.625C146.272 399.402 148.767 399.141 148.767 397.041C148.767 394.942 146.272 391.799 143.193 390.022C140.114 388.244 137.619 388.505 137.619 390.605C137.619 392.704 140.114 395.847 143.193 397.625Z" fill="white"/>
<path d="M143.193 426.269C146.272 428.046 148.767 427.785 148.767 425.686C148.767 423.586 146.272 420.443 143.193 418.666C140.114 416.888 137.619 417.149 137.619 419.249C137.619 421.348 140.114 424.491 143.193 426.269Z" fill="white"/>
<path d="M135.425 398.402C136.964 396.164 136.954 392.772 135.403 390.826C133.851 388.88 131.345 389.116 129.806 391.353C128.267 393.591 128.277 396.983 129.828 398.929C131.38 400.875 133.886 400.639 135.425 398.402Z" fill="white"/>
<path d="M156.578 424.935C158.117 422.697 158.108 419.307 156.557 417.362C155.007 415.417 152.502 415.654 150.963 417.891C149.423 420.129 149.433 423.52 150.983 425.465C152.534 427.41 155.039 427.172 156.578 424.935Z" fill="white"/>
<path d="M135.403 416.468C136.955 416.313 136.965 412.933 135.426 408.918C133.886 404.903 131.381 401.774 129.829 401.928C128.277 402.083 128.267 405.463 129.807 409.478C131.346 413.493 133.852 416.623 135.403 416.468Z" fill="white"/>
<path d="M156.559 414.363C158.109 414.208 158.118 410.828 156.579 406.813C155.04 402.798 152.535 399.669 150.984 399.823C149.434 399.978 149.425 403.358 150.964 407.373C152.503 411.388 155.008 414.517 156.559 414.363Z" fill="white"/>
<rect x="0.261613" y="0.453127" width="71.8961" height="71.8961" rx="6.94794" transform="matrix(0.866025 0.5 -2.20305e-08 1 187.748 223.902)" stroke="white" stroke-width="0.604169"/>
<path fill-rule="evenodd" clip-rule="evenodd" d="M222.3 281.647C222.122 281.559 221.2 281.089 219.145 279.902C217.509 278.958 216.348 278.233 215.941 277.976C209.622 274.014 204.905 270.05 204.905 268.564C204.905 267.078 209.622 268.561 215.941 271.891L215.941 276.74C216.354 277.012 217.538 277.774 219.173 278.718C221.135 279.851 222.118 280.326 222.294 280.409L222.294 275.563C228.6 279.52 233.307 283.478 233.307 284.961C233.307 286.444 228.602 284.968 222.294 281.642L222.3 281.647ZM222.3 275.065L222.3 270.726L231.101 275.807L231.101 269.19L207.141 255.357L207.141 261.974L215.94 267.053L215.94 271.39C208.788 267.632 203.41 266.125 203.41 268.041C203.41 269.956 208.788 274.658 215.94 279.159L215.94 293.062L222.299 296.734L222.299 282.825C229.434 286.574 234.803 288.078 234.803 286.164C234.803 284.25 229.439 279.556 222.299 275.062L222.3 275.065Z" fill="white"/>
<rect x="0.261613" y="0.453127" width="71.8961" height="71.8961" rx="6.94794" transform="matrix(0.866025 0.5 -2.20305e-08 1 187.748 310.468)" stroke="white" stroke-width="0.604169"/>
<path d="M207.635 365.954C207.83 365.844 208.099 365.869 208.385 366.034L234.275 380.982C234.748 381.255 234.985 382.043 234.65 382.231L229.536 385.112C229.34 385.222 229.071 385.197 228.785 385.032L202.895 370.084C202.422 369.811 202.186 369.023 202.52 368.835L207.635 365.954Z" fill="white"/>
<path d="M207.635 344.204C207.839 344.099 208.108 344.124 208.385 344.284L234.275 359.232C234.748 359.505 234.985 360.293 234.65 360.481L229.536 363.362C229.34 363.472 229.071 363.447 228.786 363.282L202.896 348.334C202.423 348.061 202.186 347.273 202.52 347.085L207.635 344.204Z" fill="white"/>
<path d="M229.536 367.669C229.34 367.333 229.071 367.047 228.785 366.883L202.895 351.935C202.422 351.662 202.186 352.177 202.52 352.751L207.635 361.537C207.83 361.874 208.099 362.159 208.385 362.324L234.275 377.272C234.748 377.545 234.985 377.03 234.65 376.456L229.536 367.669Z" fill="white"/>
<rect x="0.261613" y="0.453127" width="71.8961" height="71.8961" rx="6.94794" transform="matrix(0.866025 0.5 -2.20305e-08 1 187.748 397.035)" stroke="white" stroke-width="0.604169"/>
<path d="M212.197 444.708L219.106 440.719L226.019 452.692L230.04 450.371L219.106 431.433L208.176 437.744L212.197 444.708ZM201.317 441.704L205.337 439.382L209.358 446.346L205.337 448.667L201.317 441.704ZM212.197 451.264L219.106 463.231L226.019 459.24L230.042 466.203L230.04 466.204L219.106 472.517L208.176 453.585L208.17 453.576L212.197 451.264ZM228.855 457.606L232.876 455.284L236.896 462.248L232.876 464.569L228.855 457.606Z" fill="white"/>
<path d="M223.288 454.387L223.29 454.388L219.106 447.142L216.015 448.927L216.014 448.927L215.659 449.132L214.926 449.555L214.921 449.558L214.926 449.569L219.106 456.808L223.29 454.393L223.292 454.392L223.288 454.387" fill="white"/>
<g opacity="0.1" filter="url(#filter2_i_2732_138052)">
<rect width="88.29" height="36.0261" rx="4.85561" transform="matrix(0.866025 0.5 -2.20305e-08 1 101.191 438.643)" fill="white"/>
</g>
<defs>
<filter id="filter0_f_2732_138052" x="9.79297" y="115.59" width="113.925" height="147.492" filterUnits="userSpaceOnUse" color-interpolation-filters="sRGB">
<feFlood flood-opacity="0" result="BackgroundImageFix"/>
<feBlend mode="normal" in="SourceGraphic" in2="BackgroundImageFix" result="shape"/>
<feGaussianBlur stdDeviation="10" result="effect1_foregroundBlur_2732_138052"/>
</filter>
<filter id="filter1_i_2732_138052" x="29.8354" y="139.512" width="67.126" height="106.274" filterUnits="userSpaceOnUse" color-interpolation-filters="sRGB">
<feFlood flood-opacity="0" result="BackgroundImageFix"/>
<feBlend mode="normal" in="SourceGraphic" in2="BackgroundImageFix" result="shape"/>
<feColorMatrix in="SourceAlpha" type="matrix" values="0 0 0 0 0 0 0 0 0 0 0 0 0 0 0 0 0 0 127 0" result="hardAlpha"/>
<feOffset dy="2.4278"/>
<feGaussianBlur stdDeviation="3.64171"/>
<feComposite in2="hardAlpha" operator="arithmetic" k2="-1" k3="1"/>
<feColorMatrix type="matrix" values="0 0 0 0 1 0 0 0 0 1 0 0 0 0 1 0 0 0 0.14 0"/>
<feBlend mode="normal" in2="shape" result="effect1_innerShadow_2732_138052"/>
</filter>
<filter id="filter2_i_2732_138052" x="101.191" y="440.496" width="76.4614" height="78.8922" filterUnits="userSpaceOnUse" color-interpolation-filters="sRGB">
<feFlood flood-opacity="0" result="BackgroundImageFix"/>
<feBlend mode="normal" in="SourceGraphic" in2="BackgroundImageFix" result="shape"/>
<feColorMatrix in="SourceAlpha" type="matrix" values="0 0 0 0 0 0 0 0 0 0 0 0 0 0 0 0 0 0 127 0" result="hardAlpha"/>
<feOffset dy="2.4278"/>
<feGaussianBlur stdDeviation="3.64171"/>
<feComposite in2="hardAlpha" operator="arithmetic" k2="-1" k3="1"/>
<feColorMatrix type="matrix" values="0 0 0 0 1 0 0 0 0 1 0 0 0 0 1 0 0 0 0.14 0"/>
<feBlend mode="normal" in2="shape" result="effect1_innerShadow_2732_138052"/>
</filter>
<linearGradient id="paint0_linear_2732_138052" x1="29.793" y1="243.082" x2="131.871" y2="178.377" gradientUnits="userSpaceOnUse">
<stop stop-color="#AC50EF"/>
<stop offset="0.46875" stop-color="#7059FB"/>
<stop offset="1" stop-color="#2ECFF6"/>
</linearGradient>
<linearGradient id="paint1_linear_2732_138052" x1="29.793" y1="243.082" x2="131.871" y2="178.377" gradientUnits="userSpaceOnUse">
<stop stop-color="#AC50EF"/>
<stop offset="0.46875" stop-color="#7059FB"/>
<stop offset="1" stop-color="#2ECFF6"/>
</linearGradient>
<linearGradient id="paint2_linear_2732_138052" x1="-1.2534e-06" y1="68.7976" x2="72.1885" y2="-6.16563" gradientUnits="userSpaceOnUse">
<stop stop-color="#AC50EF"/>
<stop offset="0.46875" stop-color="#7059FB"/>
<stop offset="1" stop-color="#2ECFF6"/>
</linearGradient>
</defs>
</svg>
