<svg width="503" height="463" viewBox="0 0 503 463" fill="none" xmlns="http://www.w3.org/2000/svg">
<path d="M493.257 354.197L461.94 372.285C467.201 369.008 470.455 362.268 470.455 352.825V300.015C470.455 280.616 456.823 256.997 440.038 247.308L362.645 202.589C354.458 197.837 346.946 197.304 341.48 200.275L372.859 182.125C378.365 178.95 385.98 179.401 394.352 184.174L471.765 228.912C488.55 238.602 502.161 262.2 502.161 281.62V334.409C502.161 344.201 498.764 351.002 493.257 354.197Z" fill="#07091B" stroke="white" stroke-width="0.5" stroke-linejoin="round"/>
<path d="M470.455 300.015V352.824C470.455 362.268 467.201 369.007 461.94 372.285L461.531 372.51C456.024 375.706 448.451 375.255 440.038 370.462L362.645 325.743L332.228 334.429V220.165C332.228 210.455 335.647 203.654 341.132 200.459L341.48 200.274C346.946 197.304 354.396 197.836 362.645 202.589L440.038 247.307C456.823 257.017 470.455 280.615 470.455 300.015Z" fill="#07091B" stroke="white" stroke-width="0.5" stroke-linejoin="round"/>
<path d="M172.55 265.561V336.828C172.55 361.778 155.049 392.137 133.454 404.612L124.325 409.877L102.628 462.154L80.9311 434.971L71.802 440.235C70.9218 440.747 70.0417 441.218 69.182 441.649C59.4183 446.544 50.6576 446.729 44.1485 442.96L43.6368 442.652C36.8615 438.555 32.7063 429.808 32.7063 417.64V346.292C32.7063 321.321 50.2073 290.983 71.802 278.508L133.454 242.885C144.057 236.739 153.657 236.084 160.678 239.914L161.108 240.14C168.19 244.237 172.55 252.984 172.55 265.561Z" fill="#07091B" stroke="white" stroke-width="0.5" stroke-linejoin="round"/>
<path d="M12.4421 424.544C5.35988 420.447 1 411.679 1 399.204V327.958C1 303.007 18.4805 272.649 40.0752 260.174L101.728 224.592C112.535 218.446 122.319 217.77 129.381 221.867C139.82 227.876 150.253 233.905 160.678 239.955C153.657 236.125 144.057 236.821 133.454 242.925L71.8021 278.549C50.2073 291.024 32.7064 321.362 32.7064 346.333V417.579C32.7064 429.747 36.8002 438.391 43.6368 442.591L12.4421 424.544Z" fill="#07091B" stroke="white" stroke-width="0.5" stroke-linejoin="round"/>
<path d="M297.963 273.878V307.862C297.963 320.358 289.203 335.537 278.415 341.785L228.594 370.464L209.026 398.712V325.295C209.026 312.799 217.786 297.62 228.594 291.351L278.415 262.57C283.696 259.518 288.507 259.17 292.027 261.095C295.548 263.021 297.963 267.61 297.963 273.878Z" fill="#07091B" stroke="white" stroke-width="0.5" stroke-linejoin="round"/>
<path d="M272.091 249.562L292.048 261.095C288.527 259.169 283.717 259.518 278.436 262.57L228.615 291.351C217.807 297.619 209.046 312.799 209.046 325.294V398.712L188.577 386.913V313.475C188.577 300.999 197.338 285.82 208.146 279.572L257.967 250.791C263.371 247.657 268.201 247.37 271.804 249.419L272.091 249.562Z" fill="#07091B" stroke="white" stroke-width="0.5" stroke-linejoin="round"/>
<g filter="url(#filter0_f_2732_138146)">
<path fill-rule="evenodd" clip-rule="evenodd" d="M258.313 229.088L258.312 229.089L256.745 229.989L252.583 232.404L252.579 232.398C252.567 232.404 252.555 232.41 252.543 232.416C247.037 235.612 239.463 235.141 231.05 230.368L153.657 185.67L123.24 194.335V80.0506C123.24 70.3613 126.659 63.6628 132.165 60.3647C132.267 60.2913 132.377 60.2295 132.492 60.1803C132.76 60.034 133.032 59.8961 133.309 59.7668L163.974 42.0303C169.48 38.8552 177.094 39.3058 185.487 44.0788L262.88 88.8176C279.664 98.5069 293.296 122.105 293.296 141.504V194.314C293.194 204.106 289.776 210.907 284.372 214.082C275.841 219.014 266.977 224.109 258.313 229.088Z" fill="url(#paint0_linear_2732_138146)"/>
</g>
<path fill-rule="evenodd" clip-rule="evenodd" d="M258.313 229.088L258.312 229.089L256.745 229.989L252.583 232.404L252.579 232.398C252.567 232.404 252.555 232.41 252.543 232.416C247.037 235.612 239.463 235.141 231.05 230.368L153.657 185.67L123.24 194.335V80.0506C123.24 70.3613 126.659 63.6628 132.165 60.3647C132.267 60.2913 132.377 60.2295 132.492 60.1803C132.76 60.034 133.032 59.8961 133.309 59.7668L163.974 42.0303C169.48 38.8552 177.094 39.3058 185.487 44.0788L262.88 88.8176C279.664 98.5069 293.296 122.105 293.296 141.504V194.314C293.194 204.106 289.776 210.907 284.372 214.082C275.841 219.014 266.977 224.109 258.313 229.088Z" fill="url(#paint1_linear_2732_138146)"/>
<g style="mix-blend-mode:overlay" opacity="0.2">
<path fill-rule="evenodd" clip-rule="evenodd" d="M258.313 229.088L258.312 229.089L256.745 229.989L252.583 232.404L252.579 232.398C252.567 232.404 252.555 232.41 252.543 232.416C247.037 235.612 239.463 235.141 231.05 230.368L153.657 185.67L123.24 194.335V80.0506C123.24 70.3613 126.659 63.6628 132.165 60.3647C132.267 60.2913 132.377 60.2295 132.492 60.1803C132.76 60.034 133.032 59.8961 133.309 59.7668L163.974 42.0303C169.48 38.8552 177.094 39.3058 185.487 44.0788L262.88 88.8176C279.664 98.5069 293.296 122.105 293.296 141.504V194.314C293.194 204.106 289.776 210.907 284.372 214.082C275.841 219.014 266.977 224.109 258.313 229.088Z" fill="#07091B"/>
</g>
<path d="M261.467 159.92V212.71C261.467 222.173 258.233 228.913 252.952 232.17C252.823 232.264 252.686 232.346 252.543 232.416C247.037 235.612 239.463 235.14 231.05 230.367L153.657 185.67L123.24 194.335V80.0501C123.24 70.3608 126.659 63.6623 132.165 60.3642C132.267 60.2908 132.377 60.229 132.492 60.1798C137.958 57.1891 145.408 57.7422 153.657 62.4741C179.394 77.4144 205.225 92.3273 231.153 107.213C247.835 116.902 261.467 140.603 261.467 159.92Z" fill="url(#paint2_linear_2732_138146)"/>
<defs>
<filter id="filter0_f_2732_138146" x="83.2405" y="0" width="250.056" height="274.455" filterUnits="userSpaceOnUse" color-interpolation-filters="sRGB">
<feFlood flood-opacity="0" result="BackgroundImageFix"/>
<feBlend mode="normal" in="SourceGraphic" in2="BackgroundImageFix" result="shape"/>
<feGaussianBlur stdDeviation="20" result="effect1_foregroundBlur_2732_138146"/>
</filter>
<linearGradient id="paint0_linear_2732_138146" x1="123.24" y1="234.455" x2="322.77" y2="73.6234" gradientUnits="userSpaceOnUse">
<stop stop-color="#AC50EF"/>
<stop offset="0.46875" stop-color="#7059FB"/>
<stop offset="1" stop-color="#2ECFF6"/>
</linearGradient>
<linearGradient id="paint1_linear_2732_138146" x1="123.24" y1="234.455" x2="322.77" y2="73.6234" gradientUnits="userSpaceOnUse">
<stop stop-color="#AC50EF"/>
<stop offset="0.46875" stop-color="#7059FB"/>
<stop offset="1" stop-color="#2ECFF6"/>
</linearGradient>
<linearGradient id="paint2_linear_2732_138146" x1="123.24" y1="234.455" x2="298.886" y2="107.395" gradientUnits="userSpaceOnUse">
<stop stop-color="#AC50EF"/>
<stop offset="0.46875" stop-color="#7059FB"/>
<stop offset="1" stop-color="#2ECFF6"/>
</linearGradient>
</defs>
</svg>
