<svg width="107" height="167" viewBox="0 0 107 167" fill="none" xmlns="http://www.w3.org/2000/svg">
<path fill-rule="evenodd" clip-rule="evenodd" d="M94.7141 133.83C101.722 128.235 105.943 118.237 105.943 104.665C105.943 74.0224 84.4304 36.7616 57.8934 21.4404C43.9246 13.3755 31.348 12.9973 22.5685 18.9174L22.5655 18.9127L22.3573 19.0616C22.1544 19.2017 21.9535 19.3453 21.7547 19.4923L13.253 25.5687L14.6225 27.7898C11.5606 33.3232 9.84375 40.5254 9.84375 49.1818C9.84375 79.8242 31.3563 117.085 57.8934 132.406C67.1077 137.726 75.7162 139.701 83.0287 138.73L84.5187 141.147L94.7399 133.871L94.7141 133.83Z" fill="#07091B"/>
<path d="M94.7141 133.83L94.5581 133.635L94.3837 133.774L94.5024 133.963L94.7141 133.83ZM57.8934 21.4404L58.0184 21.2239L57.8934 21.4404ZM22.5685 18.9174L22.3568 19.0504L22.4941 19.2691L22.7083 19.1247L22.5685 18.9174ZM22.5655 18.9127L22.7773 18.7798L22.6361 18.555L22.4202 18.7094L22.5655 18.9127ZM22.3573 19.0616L22.4994 19.2673L22.5027 19.265L22.3573 19.0616ZM21.7547 19.4923L21.9001 19.6957L21.9033 19.6933L21.7547 19.4923ZM13.253 25.5687L13.1077 25.3654L12.9177 25.5012L13.0402 25.7L13.253 25.5687ZM14.6225 27.7898L14.8413 27.9108L14.912 27.783L14.8353 27.6586L14.6225 27.7898ZM57.8934 132.406L57.7684 132.623L57.7684 132.623L57.8934 132.406ZM83.0287 138.73L83.2415 138.599L83.1564 138.461L82.9958 138.483L83.0287 138.73ZM84.5187 141.147L84.3059 141.278L84.446 141.505L84.6636 141.351L84.5187 141.147ZM94.7399 133.871L94.8849 134.075L95.0771 133.938L94.9517 133.738L94.7399 133.871ZM105.693 104.665C105.693 118.19 101.488 128.102 94.5581 133.635L94.8701 134.025C101.957 128.367 106.193 118.284 106.193 104.665H105.693ZM57.7684 21.6569C70.9899 29.2904 82.9739 42.3994 91.6531 57.4321C100.332 72.4648 105.693 89.3978 105.693 104.665H106.193C106.193 89.2894 100.797 72.2707 92.0861 57.1821C83.3747 42.0935 71.3338 28.9116 58.0184 21.2239L57.7684 21.6569ZM22.7083 19.1247C31.3799 13.2774 43.8475 13.6197 57.7684 21.6569L58.0184 21.2239C44.0017 13.1313 31.3161 12.7173 22.4287 18.7102L22.7083 19.1247ZM22.7802 18.7845L22.7773 18.7798L22.3538 19.0457L22.3568 19.0504L22.7802 18.7845ZM22.4202 18.7094L22.2119 18.8582L22.5027 19.265L22.7109 19.1161L22.4202 18.7094ZM21.9033 19.6933C22.1 19.5479 22.2986 19.4059 22.4994 19.2673L22.2152 18.8559C22.0101 18.9976 21.807 19.1427 21.6061 19.2912L21.9033 19.6933ZM21.6093 19.2889L13.1077 25.3654L13.3984 25.7721L21.9001 19.6957L21.6093 19.2889ZM13.0402 25.7L14.4097 27.921L14.8353 27.6586L13.4658 25.4375L13.0402 25.7ZM10.0938 49.1818C10.0938 40.5571 11.8044 33.3988 14.8413 27.9108L14.4038 27.6687C11.3167 33.2475 9.59375 40.4937 9.59375 49.1818H10.0938ZM58.0184 132.19C44.7968 124.556 32.8128 111.447 24.1337 96.4145C15.4545 81.3817 10.0938 64.4488 10.0938 49.1818H9.59375C9.59375 64.5572 14.9893 81.5759 23.7006 96.6645C32.412 111.753 44.4529 124.935 57.7684 132.623L58.0184 132.19ZM82.9958 138.483C75.7527 139.444 67.1997 137.491 58.0184 132.19L57.7684 132.623C67.0156 137.962 75.6797 139.958 83.0616 138.978L82.9958 138.483ZM82.8159 138.862L84.3059 141.278L84.7315 141.016L83.2415 138.599L82.8159 138.862ZM84.6636 141.351L94.8849 134.075L94.595 133.668L84.3737 140.943L84.6636 141.351ZM94.9517 133.738L94.9259 133.697L94.5024 133.963L94.5282 134.004L94.9517 133.738Z" fill="white"/>
<circle r="55.4829" transform="matrix(0.866025 0.5 -2.20305e-08 1 49.0496 83.2244)" fill="#07091B" stroke="white" stroke-width="0.5"/>
<g style="mix-blend-mode:overlay" filter="url(#filter0_i_2757_197183)">
<circle r="43.3701" transform="matrix(0.866025 0.5 -2.20305e-08 1 49.0498 85.2243)" fill="#07091B" fill-opacity="0.2"/>
</g>
<path d="M42.8684 80.1343L49.0494 76.5658L55.2335 87.2769L58.8301 85.2005L49.0494 68.2594L39.272 73.9049L42.8684 80.1343ZM33.1357 77.4469L36.7324 75.3704L40.3288 81.5996L36.7322 83.6761L33.1357 77.4469ZM42.8684 85.9991L49.0494 96.7047L55.2334 93.1345L58.8318 99.3628L58.8301 99.364L49.0494 105.011L39.2717 88.0759L39.2666 88.067L42.8684 85.9991ZM57.7706 91.6722L61.3672 89.5956L64.9637 95.8248L61.367 97.9014L57.7706 91.6722Z" fill="white"/>
<path d="M52.7912 88.7931L52.7928 88.7941L49.0501 82.3118L46.2842 83.9085L46.284 83.9084L45.9663 84.0921L45.3109 84.4706L45.3057 84.4734L45.3109 84.4827L49.0501 90.9592L52.7928 88.7986L52.7946 88.7972L52.7912 88.7931" fill="white"/>
<circle r="43.3701" transform="matrix(0.866025 0.5 -2.20305e-08 1 49.0498 85.2243)" stroke="white" stroke-width="0.5"/>
<defs>
<filter id="filter0_i_2757_197183" x="11.4902" y="36.7245" width="75.1191" height="101" filterUnits="userSpaceOnUse" color-interpolation-filters="sRGB">
<feFlood flood-opacity="0" result="BackgroundImageFix"/>
<feBlend mode="normal" in="SourceGraphic" in2="BackgroundImageFix" result="shape"/>
<feColorMatrix in="SourceAlpha" type="matrix" values="0 0 0 0 0 0 0 0 0 0 0 0 0 0 0 0 0 0 127 0" result="hardAlpha"/>
<feOffset dy="4"/>
<feGaussianBlur stdDeviation="2"/>
<feComposite in2="hardAlpha" operator="arithmetic" k2="-1" k3="1"/>
<feColorMatrix type="matrix" values="0 0 0 0 0 0 0 0 0 0 0 0 0 0 0 0 0 0 0.25 0"/>
<feBlend mode="normal" in2="shape" result="effect1_innerShadow_2757_197183"/>
</filter>
</defs>
</svg>
