<svg width="428" height="725" viewBox="0 0 428 725" fill="none" xmlns="http://www.w3.org/2000/svg">
<path fill-rule="evenodd" clip-rule="evenodd" d="M121.569 21.2136C117.201 18.6918 110.119 18.6918 105.752 21.2136L99.4043 24.8782L106.815 29.1565C106.204 31.0333 105.874 33.2169 105.874 35.6795L105.874 507.933C105.874 519.72 114.15 534.054 124.358 539.948L412.156 706.108V717.212L422.057 711.496C424.787 709.92 427 706.087 427 702.934L427 653.942L426.935 653.98V221.497C426.935 208.323 417.686 192.302 406.276 185.715L161.449 44.3639L161.558 44.301L121.569 21.2136Z" fill="#07091B"/>
<path d="M105.752 21.2136L105.894 21.4608L105.894 21.4608L105.752 21.2136ZM121.569 21.2136L121.426 21.4608L121.426 21.4608L121.569 21.2136ZM99.4043 24.8782L99.2616 24.6311L98.8335 24.8782L99.2616 25.1254L99.4043 24.8782ZM106.815 29.1565L107.086 29.2448L107.157 29.025L106.957 28.9094L106.815 29.1565ZM105.874 35.6795L106.16 35.6795V35.6795H105.874ZM105.874 507.933L105.589 507.933V507.933H105.874ZM124.358 539.948L124.501 539.701L124.501 539.701L124.358 539.948ZM412.156 706.108H412.441V705.943L412.299 705.861L412.156 706.108ZM412.156 717.212H411.871V717.707L412.299 717.46L412.156 717.212ZM422.057 711.496L421.914 711.249L421.914 711.249L422.057 711.496ZM427 702.934L427.285 702.934L427.285 702.934L427 702.934ZM427 653.942L427.285 653.942L427.285 653.448L426.857 653.695L427 653.942ZM426.935 653.98H426.65V654.474L427.078 654.227L426.935 653.98ZM406.276 185.715L406.419 185.468L406.419 185.468L406.276 185.715ZM161.449 44.3639L161.306 44.1167L160.878 44.3639L161.306 44.611L161.449 44.3639ZM161.558 44.301L161.7 44.5482L162.128 44.301L161.7 44.0539L161.558 44.301ZM105.894 21.4608C108.025 20.2308 110.835 19.6076 113.66 19.6076C116.486 19.6077 119.296 20.2308 121.426 21.4608L121.712 20.9665C119.474 19.6746 116.56 19.0369 113.66 19.0369C110.761 19.0369 107.846 19.6746 105.609 20.9665L105.894 21.4608ZM99.547 25.1254L105.894 21.4608L105.609 20.9665L99.2616 24.6311L99.547 25.1254ZM106.957 28.9094L99.547 24.6311L99.2616 25.1254L106.672 29.4037L106.957 28.9094ZM106.16 35.6795C106.16 33.2418 106.486 31.0887 107.086 29.2448L106.543 29.0682C105.922 30.9779 105.589 33.1919 105.589 35.6795H106.16ZM106.16 507.933L106.16 35.6795L105.589 35.6795L105.589 507.933L106.16 507.933ZM124.501 539.701C119.451 536.785 114.862 531.77 111.535 526.008C108.209 520.246 106.16 513.765 106.16 507.933H105.589C105.589 513.888 107.678 520.468 111.041 526.293C114.404 532.119 119.058 537.217 124.216 540.195L124.501 539.701ZM412.299 705.861L124.501 539.701L124.216 540.195L412.013 706.355L412.299 705.861ZM412.441 717.212V706.108H411.871V717.212H412.441ZM421.914 711.249L412.013 716.965L412.299 717.46L422.2 711.743L421.914 711.249ZM426.715 702.934C426.715 704.449 426.181 706.146 425.305 707.664C424.429 709.181 423.226 710.492 421.914 711.249L422.2 711.743C423.618 710.924 424.887 709.53 425.799 707.949C426.712 706.368 427.285 704.572 427.285 702.934H426.715ZM426.715 653.942L426.715 702.934L427.285 702.934L427.285 653.942L426.715 653.942ZM427.078 654.227L427.143 654.19L426.857 653.695L426.792 653.733L427.078 654.227ZM426.65 221.497V653.98H427.22V221.497H426.65ZM406.134 185.962C411.785 189.225 416.917 194.835 420.637 201.279C424.357 207.722 426.65 214.972 426.65 221.497H427.22C427.22 214.848 424.888 207.5 421.131 200.993C417.375 194.486 412.177 188.793 406.419 185.468L406.134 185.962ZM161.306 44.611L406.134 185.962L406.419 185.468L161.591 44.1167L161.306 44.611ZM161.415 44.0539L161.306 44.1167L161.591 44.611L161.7 44.5482L161.415 44.0539ZM121.426 21.4608L161.415 44.5482L161.7 44.0539L121.712 20.9665L121.426 21.4608Z" fill="white"/>
<path d="M94.8127 36.0904C94.8127 25.6894 102.115 21.4736 111.122 26.6741L395.215 190.695C406.624 197.282 415.873 213.302 415.873 226.477L415.873 707.406C415.873 716.767 409.302 720.561 401.195 715.88L113.297 549.662C103.088 543.769 94.8127 529.435 94.8127 517.647L94.8127 36.0904Z" fill="#07091B" stroke="white" stroke-width="0.570769"/>
<mask id="path-4-inside-1_2732_138053" fill="white">
<path d="M101.191 42.2249C101.191 35.9843 105.573 33.4548 110.977 36.5751L390.592 198.011C400.2 203.558 407.989 217.048 407.989 228.143L407.989 695.18C407.989 701.421 403.607 703.95 398.203 700.83L114.239 536.883C107.033 532.723 101.191 522.605 101.191 514.284L101.191 42.2249Z"/>
</mask>
<path d="M101.191 42.2249C101.191 35.9843 105.573 33.4548 110.977 36.5751L390.592 198.011C400.2 203.558 407.989 217.048 407.989 228.143L407.989 695.18C407.989 701.421 403.607 703.95 398.203 700.83L114.239 536.883C107.033 532.723 101.191 522.605 101.191 514.284L101.191 42.2249Z" fill="#07091B"/>
<path d="M390.592 198.011L390.592 197.44L390.592 198.011ZM110.977 36.5751L110.977 37.1458L110.977 36.5751ZM101.191 42.2249L100.697 41.9395L101.191 42.2249ZM110.977 37.1458L390.592 198.581L390.592 197.44L110.977 36.0043L110.977 37.1458ZM407.494 227.857L407.494 694.895L408.483 695.466L408.483 228.428L407.494 227.857ZM398.203 700.259L114.239 536.313L114.239 537.454L398.203 701.401L398.203 700.259ZM101.686 514.57L101.686 42.5103L100.697 41.9395L100.697 513.999L101.686 514.57ZM114.239 536.313C107.306 532.31 101.686 522.575 101.686 514.57L100.697 513.999C100.697 522.635 106.76 533.136 114.239 537.454L114.239 536.313ZM407.494 694.895C407.494 700.82 403.334 703.222 398.203 700.259L398.203 701.401C403.88 704.679 408.483 702.021 408.483 695.466L407.494 694.895ZM390.592 198.581C399.927 203.971 407.494 217.078 407.494 227.857L408.483 228.428C408.483 217.019 400.473 203.145 390.592 197.44L390.592 198.581ZM110.977 36.0043C105.3 32.7264 100.697 35.3837 100.697 41.9395L101.686 42.5103C101.686 36.5849 105.846 34.1832 110.977 37.1458L110.977 36.0043Z" fill="white" mask="url(#path-4-inside-1_2732_138053)"/>
<rect x="0.24715" y="0.142692" width="4.77562" height="23.5065" rx="2.38781" transform="matrix(0.866025 -0.5 2.20305e-08 1 419.578 243.234)" fill="#07091B" stroke="white" stroke-width="0.570769"/>
<rect x="0.24715" y="0.142692" width="4.77562" height="29.3198" rx="2.38781" transform="matrix(0.866025 -0.5 2.20305e-08 1 419.578 280.08)" fill="#07091B" stroke="white" stroke-width="0.570769"/>
<rect opacity="0.1" width="394.987" height="478.814" rx="4.56615" transform="matrix(0.866025 0.5 -2.20305e-08 1 29.9312 17.2808)" fill="#696F8E"/>
<rect opacity="0.1" width="345.641" height="372.933" rx="4" transform="matrix(0.866025 0.5 -2.20305e-08 1 0 58.5176)" fill="white"/>
<g style="mix-blend-mode:lighten" filter="url(#filter0_f_2732_138053)">
<path fill-rule="evenodd" clip-rule="evenodd" d="M199.88 394.867C211.014 385.978 217.719 370.095 217.719 348.533C217.719 299.853 183.543 240.658 141.384 216.318C119.193 203.505 99.2126 202.904 85.2649 212.31L85.2603 212.302L84.9407 212.531C84.6107 212.758 84.2841 212.992 83.961 213.231L70.4659 222.876L72.6414 226.405C67.777 235.195 65.0496 246.637 65.0496 260.389C65.0496 309.07 99.2258 368.265 141.384 392.605C156.023 401.057 169.699 404.195 181.316 402.652L183.683 406.491L199.921 394.933L199.88 394.867Z" fill="url(#paint0_linear_2732_138053)"/>
</g>
<path fill-rule="evenodd" clip-rule="evenodd" d="M199.88 394.867C211.014 385.978 217.719 370.095 217.719 348.533C217.719 299.853 183.543 240.658 141.384 216.318C119.193 203.505 99.2126 202.904 85.2649 212.31L85.2603 212.302L84.9407 212.531C84.6107 212.758 84.2841 212.992 83.961 213.231L70.4659 222.876L72.6414 226.405C67.777 235.195 65.0496 246.637 65.0496 260.389C65.0496 309.07 99.2258 368.265 141.384 392.605C156.023 401.057 169.699 404.195 181.316 402.652L183.683 406.491L199.921 394.933L199.88 394.867Z" fill="url(#paint1_linear_2732_138053)"/>
<g style="mix-blend-mode:overlay" opacity="0.2">
<path fill-rule="evenodd" clip-rule="evenodd" d="M199.88 394.867C211.014 385.978 217.719 370.095 217.719 348.533C217.719 299.853 183.543 240.658 141.384 216.318C119.193 203.505 99.2126 202.904 85.2649 212.31L85.2603 212.302L84.9407 212.531C84.6107 212.758 84.2841 212.992 83.961 213.231L70.4659 222.876L72.6414 226.405C67.777 235.195 65.0496 246.637 65.0496 260.389C65.0496 309.07 99.2258 368.265 141.384 392.605C156.023 401.057 169.699 404.195 181.316 402.652L183.683 406.491L199.921 394.933L199.88 394.867Z" fill="#07091B"/>
</g>
<circle r="88.1437" transform="matrix(0.866025 0.5 -2.20305e-08 1 127.335 314.473)" fill="url(#paint2_linear_2732_138053)"/>
<g style="mix-blend-mode:overlay" filter="url(#filter1_i_2732_138053)">
<circle r="68.9005" transform="matrix(0.866025 0.5 -2.20305e-08 1 127.335 317.651)" fill="#07091B" fill-opacity="0.2"/>
</g>
<path d="M149.08 323.657C149.989 317.161 145.36 310.714 139.029 304.541L141.083 296.215L136.069 291.877L134.069 299.984C132.751 298.843 131.398 297.704 130.052 296.573L132.066 288.414L127.055 284.078L125 292.399C123.909 291.482 122.838 290.58 121.798 289.682L121.804 289.655L114.889 283.669L113.555 289.083C113.555 289.083 117.275 292.215 117.197 292.231C119.228 293.989 119.595 295.752 119.533 296.947L117.194 306.432C117.334 306.554 117.515 306.718 117.715 306.926C117.548 306.782 117.37 306.626 117.185 306.468L113.907 319.754C113.658 320.323 113.028 321.028 111.609 319.803C111.659 319.916 107.964 316.648 107.964 316.648L105.475 321.838L112 327.484C113.214 328.536 114.404 329.59 115.575 330.613L113.5 339.035L118.508 343.369L120.563 335.038C121.931 336.256 123.259 337.419 124.559 338.542L122.511 346.833L127.525 351.171L129.6 342.767C138.149 349.571 144.579 352.529 147.285 345.163C149.465 339.232 147.176 333.763 142.678 328.462C145.954 329.481 148.421 328.417 149.08 323.657V323.657ZM137.624 335.593C136.074 341.888 125.591 331.948 122.192 329.012L124.946 317.856C128.344 320.798 139.243 329.03 137.624 335.593V335.593ZM139.175 317.835C137.761 323.558 129.035 315.198 126.205 312.749L128.701 302.631C131.532 305.08 140.647 311.863 139.175 317.835V317.835Z" fill="white"/>
<circle r="68.9005" transform="matrix(0.866025 0.5 -2.20305e-08 1 127.335 317.651)" stroke="white" stroke-width="0.5"/>
<path d="M-5.02973e-08 41.7225C-2.25189e-08 40.4616 0.885223 39.9505 1.9772 40.581L297.357 211.118C298.449 211.749 299.334 213.282 299.334 214.543L299.334 250.417L-8.40619e-07 77.5965L-5.02973e-08 41.7225Z" fill="#686E8E"/>
<path d="M60.6828 412.27L59.8722 409.228L54.8683 406.339L54.0421 408.436L52.0779 407.302L56.2556 396.988L58.5004 398.284L62.6625 413.413L60.6828 412.27ZM59.311 407.032L57.378 399.688L55.4295 404.791L59.311 407.032ZM64.0258 401.474L68.0632 403.805C68.6971 404.171 69.2635 404.582 69.7623 405.038C70.2715 405.488 70.7028 405.989 71.0562 406.541C71.4199 407.099 71.6953 407.708 71.8823 408.368C72.0798 409.022 72.1785 409.733 72.1785 410.501C72.1785 411.209 72.0746 411.779 71.8668 412.211C71.6693 412.649 71.3835 412.946 71.0094 413.102C70.6457 413.264 70.2092 413.294 69.7 413.192C69.1907 413.09 68.6244 412.859 68.0008 412.499L65.834 411.248L65.834 415.244L64.0258 414.2L64.0258 401.474ZM67.9073 410.609C68.6036 411.011 69.1803 411.146 69.6376 411.014C70.1053 410.876 70.3495 410.387 70.3703 409.547C70.3703 408.647 70.1676 407.882 69.7623 407.252C69.3674 406.628 68.7854 406.094 68.0164 405.65L65.834 404.39L65.834 409.412L67.9073 410.609ZM80.5459 411.012L82.588 412.191L78.6129 417.852L78.6129 422.622L76.8046 421.578L76.8046 416.826L72.7828 406.53L74.8717 407.736L77.7244 415.323L80.5459 411.012Z" fill="white"/>
<path d="M184.87 465.814C184.87 466.51 184.75 467.029 184.511 467.371C184.283 467.707 183.976 467.908 183.592 467.974C183.217 468.046 182.791 468.01 182.313 467.866C181.835 467.71 181.347 467.488 180.848 467.2C180.339 466.906 179.84 466.552 179.352 466.138C178.873 465.73 178.442 465.271 178.058 464.761C177.684 464.245 177.382 463.687 177.154 463.087C176.925 462.487 176.811 461.845 176.811 461.161C176.811 460.429 176.951 459.874 177.231 459.496C177.522 459.124 177.98 458.98 178.603 459.064C178.333 458.752 178.104 458.434 177.917 458.11C177.741 457.792 177.595 457.48 177.481 457.174C177.377 456.862 177.299 456.559 177.247 456.265C177.206 455.977 177.185 455.713 177.185 455.473C177.185 454.861 177.283 454.396 177.481 454.078C177.689 453.766 177.964 453.571 178.307 453.493C178.65 453.415 179.04 453.442 179.476 453.574C179.923 453.7 180.386 453.901 180.864 454.177C181.331 454.447 181.783 454.774 182.22 455.158C182.667 455.536 183.056 455.959 183.389 456.427C183.732 456.901 184.002 457.411 184.2 457.957C184.407 458.509 184.511 459.091 184.511 459.703C184.511 459.943 184.485 460.18 184.433 460.414C184.381 460.648 184.298 460.852 184.184 461.026C184.08 461.206 183.935 461.35 183.747 461.458C183.56 461.566 183.337 461.617 183.077 461.611C183.701 462.247 184.153 462.922 184.433 463.636C184.724 464.356 184.87 465.082 184.87 465.814ZM180.848 456.004C180.599 455.86 180.36 455.758 180.131 455.698C179.902 455.626 179.7 455.611 179.523 455.653C179.357 455.701 179.222 455.815 179.118 455.995C179.024 456.169 178.977 456.418 178.977 456.742C178.977 457.39 179.154 457.972 179.507 458.488C179.871 458.998 180.318 459.406 180.848 459.712C181.097 459.856 181.336 459.958 181.565 460.018C181.794 460.078 181.991 460.084 182.157 460.036C182.324 459.976 182.454 459.859 182.547 459.685C182.651 459.517 182.703 459.277 182.703 458.965C182.703 458.629 182.651 458.311 182.547 458.011C182.454 457.717 182.324 457.444 182.157 457.192C181.991 456.94 181.794 456.718 181.565 456.526C181.336 456.322 181.097 456.148 180.848 456.004ZM180.832 461.377C180.552 461.215 180.276 461.092 180.006 461.008C179.746 460.93 179.513 460.909 179.305 460.945C179.097 460.981 178.931 461.089 178.806 461.269C178.681 461.449 178.619 461.719 178.619 462.079C178.619 462.475 178.692 462.847 178.837 463.195C178.983 463.531 179.164 463.84 179.383 464.122C179.601 464.392 179.84 464.632 180.1 464.842C180.36 465.052 180.609 465.226 180.848 465.364C181.087 465.502 181.336 465.616 181.596 465.706C181.856 465.796 182.09 465.829 182.298 465.805C182.516 465.775 182.693 465.673 182.828 465.499C182.973 465.319 183.046 465.031 183.046 464.635C183.046 464.275 182.984 463.933 182.859 463.609C182.734 463.285 182.568 462.985 182.36 462.709C182.152 462.433 181.913 462.181 181.643 461.953C181.383 461.731 181.113 461.539 180.832 461.377ZM187.786 468.56C188.119 468.752 188.389 469.028 188.597 469.388C188.815 469.754 188.924 470.141 188.924 470.549C188.924 470.969 188.815 471.23 188.597 471.332C188.389 471.44 188.119 471.398 187.786 471.206C187.454 471.014 187.178 470.741 186.96 470.387C186.752 470.039 186.648 469.655 186.648 469.235C186.648 468.827 186.752 468.563 186.96 468.443C187.178 468.329 187.454 468.368 187.786 468.56ZM194.248 474.793L192.44 473.749L192.44 463.957L190.195 462.661L190.195 461.239C190.808 461.569 191.349 461.767 191.816 461.833C192.284 461.887 192.653 461.71 192.923 461.302L194.248 462.067L194.248 474.793ZM199.265 472.937C199.515 472.829 199.79 472.712 200.091 472.586C200.403 472.466 200.694 472.322 200.964 472.154C201.245 471.98 201.474 471.752 201.65 471.47C201.837 471.194 201.931 470.834 201.931 470.39C201.931 469.742 201.765 469.124 201.432 468.536C201.099 467.948 200.621 467.474 199.998 467.114C199.499 466.826 199.078 466.715 198.735 466.781C198.392 466.847 198.179 467.078 198.096 467.474L196.319 466.448C196.361 465.92 196.49 465.503 196.709 465.197C196.937 464.897 197.223 464.708 197.566 464.63C197.909 464.552 198.283 464.57 198.688 464.684C199.104 464.792 199.577 464.999 200.107 465.305C200.606 465.593 201.073 465.941 201.51 466.349C201.946 466.757 202.326 467.21 202.648 467.708C202.98 468.212 203.24 468.758 203.427 469.346C203.625 469.928 203.723 470.537 203.723 471.173C203.723 471.677 203.666 472.106 203.552 472.46C203.438 472.814 203.282 473.114 203.084 473.36C202.887 473.606 202.658 473.81 202.398 473.972C202.149 474.14 201.884 474.281 201.603 474.395C201.229 474.551 200.897 474.683 200.606 474.791C200.325 474.893 200.071 474.986 199.842 475.07C199.613 475.154 199.405 475.232 199.218 475.304C199.031 475.364 198.855 475.43 198.688 475.502L203.723 478.409L203.723 480.263L196.225 475.934L196.225 474.224L199.265 472.937ZM207.742 475.582C207.337 475.348 206.978 475.063 206.666 474.727C206.365 474.397 206.105 474.037 205.887 473.647C205.679 473.263 205.523 472.861 205.419 472.441C205.315 472.021 205.263 471.601 205.263 471.181C205.263 470.317 205.471 469.729 205.887 469.417C206.313 469.099 206.931 469.174 207.742 469.642C208.532 470.098 209.134 470.728 209.55 471.532C209.976 472.33 210.189 473.161 210.189 474.025C210.189 474.445 210.132 474.802 210.018 475.096C209.914 475.396 209.758 475.618 209.55 475.762C209.342 475.906 209.088 475.969 208.786 475.951C208.485 475.933 208.137 475.81 207.742 475.582ZM206.542 481.891L213.463 473.161L215.24 474.187L208.319 482.917L206.542 481.891ZM207.742 471.208C207.347 470.98 207.072 470.965 206.916 471.163C206.76 471.349 206.682 471.628 206.682 472C206.682 472.384 206.76 472.759 206.916 473.125C207.072 473.491 207.347 473.788 207.742 474.016C208.116 474.232 208.376 474.244 208.521 474.052C208.667 473.848 208.74 473.56 208.74 473.188C208.74 472.816 208.667 472.45 208.521 472.09C208.376 471.718 208.116 471.424 207.742 471.208ZM214.133 486.472C213.728 486.238 213.369 485.953 213.058 485.617C212.756 485.287 212.496 484.927 212.278 484.537C212.07 484.153 211.914 483.751 211.81 483.331C211.707 482.911 211.655 482.491 211.655 482.071C211.655 481.207 211.862 480.619 212.278 480.307C212.704 479.989 213.323 480.064 214.133 480.532C214.923 480.988 215.531 481.621 215.957 482.431C216.383 483.229 216.596 484.06 216.596 484.924C216.596 485.344 216.539 485.701 216.425 485.995C216.321 486.295 216.165 486.517 215.957 486.661C215.749 486.805 215.489 486.865 215.178 486.841C214.876 486.823 214.528 486.7 214.133 486.472ZM214.118 482.089C213.743 481.873 213.473 481.855 213.307 482.035C213.151 482.221 213.073 482.506 213.073 482.89C213.073 483.274 213.151 483.649 213.307 484.015C213.473 484.387 213.743 484.681 214.118 484.897C214.502 485.119 214.767 485.134 214.913 484.942C215.058 484.738 215.131 484.45 215.131 484.078C215.131 483.886 215.115 483.697 215.084 483.511C215.053 483.325 214.996 483.148 214.913 482.98C214.84 482.806 214.736 482.644 214.601 482.494C214.476 482.338 214.315 482.203 214.118 482.089Z" fill="white"/>
<defs>
<filter id="filter0_f_2732_138053" x="45.0496" y="185.892" width="192.669" height="240.599" filterUnits="userSpaceOnUse" color-interpolation-filters="sRGB">
<feFlood flood-opacity="0" result="BackgroundImageFix"/>
<feBlend mode="normal" in="SourceGraphic" in2="BackgroundImageFix" result="shape"/>
<feGaussianBlur stdDeviation="10" result="effect1_foregroundBlur_2732_138053"/>
</filter>
<filter id="filter1_i_2732_138053" x="67.665" y="240.601" width="119.339" height="158.1" filterUnits="userSpaceOnUse" color-interpolation-filters="sRGB">
<feFlood flood-opacity="0" result="BackgroundImageFix"/>
<feBlend mode="normal" in="SourceGraphic" in2="BackgroundImageFix" result="shape"/>
<feColorMatrix in="SourceAlpha" type="matrix" values="0 0 0 0 0 0 0 0 0 0 0 0 0 0 0 0 0 0 127 0" result="hardAlpha"/>
<feOffset dy="4"/>
<feGaussianBlur stdDeviation="2"/>
<feComposite in2="hardAlpha" operator="arithmetic" k2="-1" k3="1"/>
<feColorMatrix type="matrix" values="0 0 0 0 0 0 0 0 0 0 0 0 0 0 0 0 0 0 0.25 0"/>
<feBlend mode="normal" in2="shape" result="effect1_innerShadow_2732_138053"/>
</filter>
<linearGradient id="paint0_linear_2732_138053" x1="65.0496" y1="406.491" x2="263.105" y2="267.558" gradientUnits="userSpaceOnUse">
<stop stop-color="#AC50EF"/>
<stop offset="0.46875" stop-color="#7059FB"/>
<stop offset="1" stop-color="#2ECFF6"/>
</linearGradient>
<linearGradient id="paint1_linear_2732_138053" x1="65.0496" y1="406.491" x2="263.105" y2="267.558" gradientUnits="userSpaceOnUse">
<stop stop-color="#AC50EF"/>
<stop offset="0.46875" stop-color="#7059FB"/>
<stop offset="1" stop-color="#2ECFF6"/>
</linearGradient>
<linearGradient id="paint2_linear_2732_138053" x1="1.08759e-05" y1="181" x2="151.22" y2="28.6699" gradientUnits="userSpaceOnUse">
<stop stop-color="#AC50EF"/>
<stop offset="0.46875" stop-color="#7059FB"/>
<stop offset="1" stop-color="#2ECFF6"/>
</linearGradient>
</defs>
</svg>
