<svg width="600" height="214" viewBox="0 0 600 214" fill="none" xmlns="http://www.w3.org/2000/svg">
<path d="M128.373 26.9241L128.05 92.028L47.5508 162.041L47.8736 96.937L128.373 26.9241Z" fill="#07091B" stroke="white" stroke-width="0.5" stroke-linecap="round" stroke-linejoin="round"/>
<path d="M168.412 2.10583L168.089 67.2097L167.621 162.62L167.944 97.5164L168.412 2.10583Z" fill="#07091B" stroke="white" stroke-width="0.5" stroke-linecap="round" stroke-linejoin="round"/>
<path d="M1.31902 117.437L1 182.54L127.67 183.157L127.989 118.054L1.31902 117.437Z" fill="#07091B" stroke="white" stroke-width="0.5" stroke-linecap="round" stroke-linejoin="round"/>
<path d="M167.893 118.26L167.574 183.364L195.671 183.501L195.99 118.397L167.893 118.26Z" fill="#07091B" stroke="white" stroke-width="0.5" stroke-linecap="round" stroke-linejoin="round"/>
<path d="M127.848 145.743L127.529 210.846L167.44 211.041L167.759 145.938L127.848 145.743Z" fill="#07091B" stroke="white" stroke-width="0.5" stroke-linecap="round" stroke-linejoin="round"/>
<path d="M167.945 97.5164L196.042 97.6613L195.945 118.408L167.848 118.263L167.719 145.93L127.808 145.737L127.937 118.07L1.28125 117.458L1.36202 100.574L116.721 1.84827L168.364 2.10579L167.945 97.5164ZM128.034 97.3233L128.373 26.9242L47.8734 96.937L128.034 97.3233Z" fill="#07091B" stroke="white" stroke-width="0.5" stroke-linecap="round" stroke-linejoin="round"/>
<path d="M531.912 26.9241L531.589 92.028L451.09 162.041L451.413 96.937L531.912 26.9241Z" fill="#07091B" stroke="white" stroke-width="0.5" stroke-linecap="round" stroke-linejoin="round"/>
<path d="M571.951 2.10583L571.628 67.2097L571.16 162.62L571.483 97.5164L571.951 2.10583Z" fill="#07091B" stroke="white" stroke-width="0.5" stroke-linecap="round" stroke-linejoin="round"/>
<path d="M404.858 117.437L404.539 182.54L531.209 183.157L531.528 118.054L404.858 117.437Z" fill="#07091B" stroke="white" stroke-width="0.5" stroke-linecap="round" stroke-linejoin="round"/>
<path d="M571.432 118.26L571.113 183.364L599.21 183.501L599.529 118.397L571.432 118.26Z" fill="#07091B" stroke="white" stroke-width="0.5" stroke-linecap="round" stroke-linejoin="round"/>
<path d="M531.387 145.743L531.068 210.846L570.979 211.041L571.298 145.938L531.387 145.743Z" fill="#07091B" stroke="white" stroke-width="0.5" stroke-linecap="round" stroke-linejoin="round"/>
<path d="M571.484 97.5164L599.581 97.6613L599.484 118.408L571.387 118.263L571.258 145.93L531.347 145.737L531.476 118.07L404.82 117.458L404.901 100.574L520.26 1.84827L571.903 2.10579L571.484 97.5164ZM531.573 97.3233L531.912 26.9242L451.412 96.937L531.573 97.3233Z" fill="#07091B" stroke="white" stroke-width="0.5" stroke-linecap="round" stroke-linejoin="round"/>
<path d="M359.578 71.1669C359.662 63.7842 358.709 56.426 356.747 49.3075C354.941 42.7089 351.579 36.6378 346.942 31.6019C346.362 30.9891 345.794 30.3932 345.237 29.8143C345.032 29.61 344.793 29.4228 344.589 29.2355C344.384 29.0482 343.753 28.4694 343.31 28.0949L342.474 27.448C342.065 27.1245 341.673 26.801 341.246 26.4946L340.308 25.8306L339.047 24.9794L338.006 24.3324L336.711 23.5493L335.602 22.9535L334.255 22.2214L333.044 21.6596L331.646 20.9956C331.237 20.8084 330.793 20.6381 330.367 20.4679C329.941 20.2976 329.532 20.0933 329.088 19.9231L328.747 19.7869C327.883 19.4578 326.996 19.1513 326.087 18.8676L325.217 18.5952L323.973 18.2377L323.512 18.1355C322.165 17.761 320.801 17.4205 319.369 17.1311H319.044C317.783 16.8928 316.47 16.6714 315.139 16.4671L314.56 16.365H313.895C312.548 16.1947 311.201 16.0415 309.785 15.9224C309.609 15.9133 309.433 15.9133 309.257 15.9224H309.035H308.182L305.471 15.7691H304.243H303.032H300.935C299.23 15.7691 297.763 15.7691 296.229 15.7691H295.802L293.722 15.8883H292.648C291.471 15.9734 290.312 16.0586 289.237 16.1777L288.504 16.2628C287.583 16.365 286.662 16.4671 285.776 16.6033L284.565 16.7906L282.86 17.063L282.536 17.1481C281.285 17.3637 280.074 17.6191 278.904 17.9142C277.71 18.2036 276.55 18.5441 275.493 18.8846L275.203 18.9697L272.918 19.7529C271.963 20.1274 271.026 20.5019 270.105 20.8935L269.218 21.3021L267.427 22.1193C267.069 22.2895 266.728 22.4768 266.387 22.6641L264.887 23.4642C264.529 23.6515 264.188 23.8728 263.847 24.0771C263.505 24.2814 262.926 24.6049 262.482 24.8943L262.346 24.9794L262.073 25.1837C261.067 25.8306 260.095 26.5286 259.174 27.2437L258.646 27.6522C257.679 28.4127 256.758 29.2128 255.883 30.0527L255.645 30.274C255.252 30.6486 254.894 31.0231 254.536 31.3977C254.178 31.7722 253.411 32.6234 252.831 33.2703L252.319 33.9003C251.995 34.3259 251.654 34.7344 251.33 35.143C250.751 35.9091 250.222 36.7093 249.625 37.5265C249.472 37.7478 249.335 38.0031 249.199 38.2245C248.824 38.8203 248.466 39.4332 248.142 40.0461C248.142 40.1823 247.971 40.3185 247.903 40.4547C247.835 40.5909 247.749 40.7611 247.681 40.9144C247.34 41.5783 246.999 42.2593 246.692 42.9573C246.573 43.2127 246.453 43.451 246.351 43.7064C245.959 44.6427 245.584 45.5791 245.243 46.5665C245.235 46.6002 245.235 46.635 245.243 46.6687C244.97 47.4007 244.731 48.1668 244.509 48.9329C244.066 50.4651 243.674 52.0314 243.333 53.5976C243.23 54.0573 243.145 54.534 243.043 54.9936C242.941 55.4533 242.804 56.1343 242.702 56.6961C242.599 57.2579 242.446 58.2283 242.344 58.9944L242.241 59.6754C242.025 61.2757 241.855 62.893 241.73 64.5274C241.73 64.8849 241.73 65.2254 241.73 65.5829C241.628 67.1832 241.559 68.7835 241.542 70.4349V70.7413L241.201 139.606C241.201 137.903 241.201 136.201 241.389 134.498C241.389 134.141 241.389 133.8 241.474 133.443C241.593 131.74 241.747 130.191 241.969 128.591L242.071 127.91C242.275 126.565 242.514 125.22 242.77 123.892C242.872 123.432 242.958 122.956 243.06 122.496C243.418 120.93 243.793 119.363 244.237 117.831C244.475 117.031 244.731 116.231 245.004 115.465C245.277 114.699 245.72 113.541 246.129 112.605C246.232 112.349 246.351 112.111 246.453 111.856C246.777 111.175 247.101 110.494 247.442 109.813L247.903 108.944C248.244 108.331 248.602 107.719 248.96 107.123L249.386 106.425C249.915 105.608 250.461 104.807 251.092 104.041C251.398 103.599 251.739 103.19 252.08 102.782L252.626 102.083C253.155 101.454 253.701 100.841 254.331 100.228C254.962 99.6149 255.218 99.3255 255.678 98.8999C256.565 98.0487 257.384 97.1974 258.441 96.4824L258.97 96.0738C259.89 95.3588 260.862 94.6608 261.868 94.0139C262.004 93.9078 262.146 93.811 262.295 93.7244C262.738 93.435 263.199 93.1796 263.659 92.9072L264.682 92.2944L266.2 91.4942L267.223 90.9494L268.928 90.1323L269.832 89.7237C270.753 89.3321 271.691 88.9576 272.663 88.5831C273.635 88.2085 274.368 88.0042 275.22 87.7148C276.363 87.3743 277.505 87.0338 278.631 86.7444H278.733C279.893 86.455 281.12 86.1996 282.348 85.9783C283.013 85.8421 283.695 85.7399 284.377 85.6208L285.571 85.4335C286.458 85.2973 287.378 85.1951 288.299 85.093L289.033 85.0079C290.169 84.8944 291.346 84.7923 292.562 84.7015H293.654L296.16 84.5823C297.678 84.5823 299.247 84.4972 300.85 84.5823C301.975 84.5823 303.067 84.5823 304.158 84.5823H305.403L308.097 84.7355H308.949H309.717C311.115 84.8547 312.479 85.0079 313.81 85.1782L315.054 85.3484C316.384 85.5527 317.697 85.774 318.959 86.0294H319.351C320.784 86.3188 322.165 86.6593 323.495 87.0338L325.2 87.5105L326.07 87.7829C326.968 88.078 327.855 88.3845 328.73 88.7022L330.435 89.3832L331.697 89.911L333.095 90.5749L334.306 91.1537C334.767 91.375 335.193 91.6134 335.636 91.8517L336.779 92.4646L338.058 93.2478L339.115 93.8947C339.541 94.1671 339.95 94.4735 340.36 94.7459L341.298 95.4099C341.741 95.7163 342.133 96.0568 342.56 96.3803C342.986 96.7037 343.105 96.8059 343.361 97.0102L344.657 98.1508L345.288 98.7297C345.913 99.3085 346.481 99.9043 346.993 100.517C351.635 105.552 355.003 111.623 356.815 118.223C358.772 125.342 359.719 132.7 359.629 140.082L359.578 71.1669Z" fill="#07091B" stroke="white" stroke-width="0.5" stroke-linecap="round" stroke-linejoin="round"/>
<path d="M393.884 159.916C393.884 159.611 394.013 159.321 394.094 159.015C394.288 158.194 394.481 157.406 394.643 156.52C394.723 156.15 394.788 155.796 394.869 155.426C394.949 155.056 394.981 154.863 395.03 154.573C395.078 154.283 395.175 153.623 395.256 153.156C395.337 152.69 395.401 152.191 395.466 151.708C395.579 150.919 395.676 150.098 395.756 149.326L395.901 148.006C395.998 147.008 396.063 145.978 396.127 144.948C396.127 144.707 396.127 144.481 396.127 144.24C396.127 143.017 396.224 141.793 396.224 140.554V140.232L396.547 75.1284C396.547 76.4803 396.547 77.8162 396.434 79.136C396.434 79.3774 396.434 79.6028 396.434 79.8442C396.434 80.8743 396.305 81.9043 396.224 82.9183L396.079 84.222C395.982 85.0106 395.901 85.8315 395.788 86.604C395.788 87.0869 395.643 87.5697 395.563 88.0526C395.444 88.8037 395.315 89.5601 395.175 90.322C395.175 90.6921 395.046 91.0462 394.965 91.4164C394.788 92.2533 394.61 93.0259 394.417 93.9111C394.417 94.2008 394.271 94.5066 394.191 94.8124C393.916 95.9069 393.626 96.9853 393.303 98.0314L393.11 98.5948C392.851 99.4156 392.577 100.204 392.303 101.009C391.818 102.393 391.302 103.745 390.689 105.065C390.075 106.385 389.478 107.737 388.8 109.024L388.123 110.264C387.703 111.036 387.251 111.793 386.799 112.533C386.541 112.968 386.267 113.386 385.992 113.804C385.508 114.545 385.008 115.285 384.491 115.993C384.217 116.38 383.959 116.75 383.668 117.12C382.829 118.231 381.958 119.341 381.022 120.339C380.102 121.369 379.117 122.383 378.117 123.381C377.584 123.896 377.052 124.411 376.503 124.99L375.664 125.763C374.776 126.536 373.872 127.372 372.936 128.048C372 128.724 371.016 129.513 370.015 130.221L369.015 130.897C368.369 131.332 367.723 131.766 367.062 132.185C365.69 133.054 364.27 133.907 362.801 134.712L361.994 135.13C360.752 135.79 359.477 136.418 358.186 137.029L356.782 137.689C355.458 138.269 354.102 138.848 352.715 139.395L351.795 139.766C350.181 140.409 348.373 141.021 346.598 141.6C345.355 142.003 344.113 142.389 342.838 142.759C341.224 143.226 339.61 143.66 337.819 144.063L336.108 144.433C334.946 144.691 333.768 144.948 332.557 145.173L330.314 145.56L327.296 146.059L324.892 146.381L321.777 146.767L319.179 147.024C318.232 147.121 317.264 147.201 316.274 147.266C315.37 147.346 314.45 147.411 313.53 147.459L310.512 147.62L307.139 147.749H305.525C303.734 147.749 301.926 147.749 300.087 147.749C298.247 147.749 296.73 147.749 295.084 147.668L292.259 147.555L289.258 147.427L286.514 147.25L283.528 147.024L281.382 146.815C280.349 146.719 279.316 146.606 278.3 146.477L276.234 146.22L273.006 145.769L271.392 145.511C270.133 145.302 268.891 145.061 267.664 144.819L266.728 144.642C265.114 144.336 263.678 143.998 262.193 143.628C261.806 143.548 261.418 143.435 261.047 143.339C259.821 143.017 258.594 142.711 257.416 142.357C255.802 141.906 254.334 141.423 252.833 140.908L251.38 140.393C250.396 140.039 249.412 139.701 248.475 139.331C247.281 138.864 246.103 138.397 244.957 137.898L244.247 137.577C243.311 137.158 242.391 136.724 241.487 136.289L240.487 135.806C239.567 135.339 238.663 134.857 237.776 134.374L237.227 134.084C236.178 133.488 235.161 132.893 234.161 132.265L233.402 131.782C232.643 131.284 231.901 130.801 231.175 130.286L230.352 129.722C229.432 129.046 228.512 128.37 227.64 127.662C220.004 121.659 213.963 113.877 210.049 105C206.061 95.6715 204.097 85.6063 204.288 75.4664L203.981 140.57C203.777 150.71 205.736 160.777 209.727 170.104C213.646 178.978 219.686 186.759 227.318 192.766C228.205 193.474 229.109 194.15 230.045 194.826L230.852 195.389C231.578 195.905 232.321 196.387 233.079 196.886L233.854 197.369C234.838 197.997 235.855 198.609 236.904 199.188L237.453 199.478C238.34 199.96 239.244 200.443 240.18 200.91L241.165 201.393C242.068 201.827 242.988 202.262 243.908 202.664L244.651 203.002L247.878 204.322L248.201 204.435C249.153 204.805 250.138 205.143 251.122 205.497C251.606 205.674 252.074 205.851 252.575 206.012C254.059 206.527 255.593 207.01 257.142 207.461L258.062 207.734L260.757 208.442L261.919 208.748C263.355 209.086 264.808 209.424 266.308 209.73H266.454L267.39 209.907C268.616 210.149 269.859 210.39 271.134 210.599L272.748 210.857L274.83 211.179L275.911 211.307L277.977 211.565C278.993 211.694 280.01 211.806 281.043 211.903L283.206 212.112L284.416 212.225L286.191 212.337L288.935 212.514L291.92 212.643L294.761 212.756H295.842C297.133 212.756 298.424 212.756 299.748 212.756C301.588 212.756 303.395 212.756 305.187 212.756H306.8H308.721L310.157 212.675L313.175 212.514C314.095 212.514 315.015 212.402 315.919 212.321C316.822 212.241 317.871 212.176 318.84 212.08L320.276 211.951L321.422 211.822L324.553 211.436L326.941 211.114L329.975 210.615L331.589 210.358L332.251 210.229C333.461 210.004 334.656 209.746 335.818 209.489L337.528 209.118C339.239 208.716 340.917 208.282 342.547 207.815C343.661 207.493 344.774 207.155 345.775 206.801L346.211 206.656C347.986 206.077 349.729 205.465 351.407 204.821L352.311 204.451C353.715 203.904 355.071 203.34 356.394 202.729L357.798 202.101C359.105 201.473 360.364 200.846 361.607 200.186L362.43 199.767C363.899 198.963 365.303 198.158 366.674 197.24L367.029 197.031L368.643 195.953L369.644 195.277C370.645 194.569 371.613 193.844 372.549 193.104C373.501 192.364 374.389 191.591 375.276 190.819L376.116 190.046L377.439 188.823L377.729 188.517C378.746 187.519 379.715 186.505 380.634 185.459C381.57 184.397 382.442 183.286 383.297 182.24L383.555 181.918C383.749 181.661 383.91 181.387 384.104 181.113C384.62 180.405 385.137 179.681 385.621 178.924C385.896 178.506 386.154 178.087 386.412 177.653C386.88 176.913 387.316 176.156 387.735 175.384C387.88 175.126 388.058 174.869 388.203 174.579C388.283 174.439 388.353 174.294 388.413 174.144C389.091 172.857 389.737 171.537 390.318 170.185C390.899 168.833 391.399 167.513 391.931 166.145C391.931 165.984 392.044 165.855 392.093 165.71C392.335 165.051 392.545 164.375 392.754 163.715C392.804 163.524 392.863 163.336 392.932 163.151C393.303 162.089 393.658 161.011 393.884 159.916Z" fill="#07091B" stroke="white" stroke-width="0.5" stroke-linecap="round" stroke-linejoin="round"/>
<path d="M390.85 45.0953C394.827 54.6023 396.783 64.8288 396.595 75.1284C396.688 85.4112 394.689 95.6061 390.721 105.097C386.844 114.139 380.737 122.057 372.968 128.113C363.988 134.919 353.765 139.915 342.87 142.824C330.819 146.289 316.585 147.979 300.167 147.893C283.748 147.808 269.525 146.01 257.496 142.502C246.703 139.594 236.586 134.601 227.721 127.807C220.085 121.804 214.044 114.022 210.13 105.145C206.141 95.8164 204.177 85.7511 204.368 75.6113C204.297 65.1804 206.231 54.8325 210.065 45.1275C213.799 35.9147 219.766 27.769 227.43 21.4197C236.293 14.314 246.544 9.12854 257.529 6.1939C269.686 2.67448 284.098 0.946962 300.764 1.01134C315.059 0.836237 329.307 2.68959 343.079 6.51577C353.985 9.5248 364.171 14.6919 373.033 21.7094C380.772 27.961 386.884 35.9835 390.85 45.0953ZM353.473 95.7138C355.403 88.9729 356.37 81.994 356.345 74.9835C356.425 68.0039 355.523 61.0475 353.666 54.3177C351.957 48.0794 348.775 42.3399 344.387 37.579C339.548 32.5897 333.631 28.7692 327.086 26.4091C318.623 23.4542 309.697 22.0368 300.732 22.2244C291.649 21.9242 282.585 23.2544 273.974 26.1516C267.408 28.4476 261.456 32.2136 256.577 37.1605C252.125 41.866 248.88 47.5758 247.119 53.8026C245.195 60.5119 244.228 67.458 244.247 74.4363C244.145 81.449 245.047 88.4402 246.926 95.1987C248.641 101.401 251.824 107.102 256.205 111.825C261.025 116.813 266.951 120.606 273.506 122.898C282.102 125.804 291.141 127.187 300.215 126.986C309.173 127.265 318.111 125.968 326.618 123.156C333.189 120.925 339.147 117.194 344.015 112.259C348.447 107.576 351.69 101.903 353.473 95.7138Z" fill="#07091B" stroke="white" stroke-width="0.5" stroke-linecap="round" stroke-linejoin="round"/>
</svg>
