<svg width="107" height="167" viewBox="0 0 107 167" fill="none" xmlns="http://www.w3.org/2000/svg">
<path fill-rule="evenodd" clip-rule="evenodd" d="M94.7141 133.83C101.722 128.235 105.943 118.237 105.943 104.665C105.943 74.0224 84.4304 36.7616 57.8934 21.4404C43.9246 13.3755 31.348 12.9973 22.5685 18.9174L22.5655 18.9127L22.3573 19.0616C22.1544 19.2017 21.9535 19.3453 21.7547 19.4923L13.253 25.5687L14.6225 27.7898C11.5606 33.3232 9.84375 40.5254 9.84375 49.1818C9.84375 79.8242 31.3563 117.085 57.8934 132.406C67.1077 137.726 75.7162 139.701 83.0287 138.73L84.5187 141.147L94.7399 133.871L94.7141 133.83Z" fill="#07091B"/>
<path d="M94.7141 133.83L94.5581 133.635L94.3837 133.774L94.5024 133.963L94.7141 133.83ZM57.8934 21.4404L58.0184 21.2239L57.8934 21.4404ZM22.5685 18.9174L22.3568 19.0504L22.4941 19.2691L22.7083 19.1247L22.5685 18.9174ZM22.5655 18.9127L22.7773 18.7798L22.6361 18.555L22.4202 18.7094L22.5655 18.9127ZM22.3573 19.0616L22.4994 19.2673L22.5027 19.265L22.3573 19.0616ZM21.7547 19.4923L21.9001 19.6957L21.9033 19.6933L21.7547 19.4923ZM13.253 25.5687L13.1077 25.3654L12.9177 25.5012L13.0402 25.7L13.253 25.5687ZM14.6225 27.7898L14.8413 27.9108L14.912 27.783L14.8353 27.6586L14.6225 27.7898ZM57.8934 132.406L57.7684 132.623L57.7684 132.623L57.8934 132.406ZM83.0287 138.73L83.2415 138.599L83.1564 138.461L82.9958 138.483L83.0287 138.73ZM84.5187 141.147L84.3059 141.278L84.446 141.505L84.6636 141.351L84.5187 141.147ZM94.7399 133.871L94.8849 134.075L95.0771 133.938L94.9517 133.738L94.7399 133.871ZM105.693 104.665C105.693 118.19 101.488 128.102 94.5581 133.635L94.8701 134.025C101.957 128.367 106.193 118.284 106.193 104.665H105.693ZM57.7684 21.6569C70.9899 29.2904 82.9739 42.3994 91.6531 57.4321C100.332 72.4648 105.693 89.3978 105.693 104.665H106.193C106.193 89.2894 100.797 72.2707 92.0861 57.1821C83.3747 42.0935 71.3338 28.9116 58.0184 21.2239L57.7684 21.6569ZM22.7083 19.1247C31.3799 13.2774 43.8475 13.6197 57.7684 21.6569L58.0184 21.2239C44.0017 13.1313 31.3161 12.7173 22.4287 18.7102L22.7083 19.1247ZM22.7802 18.7845L22.7773 18.7798L22.3538 19.0457L22.3568 19.0504L22.7802 18.7845ZM22.4202 18.7094L22.2119 18.8582L22.5027 19.265L22.7109 19.1161L22.4202 18.7094ZM21.9033 19.6933C22.1 19.5479 22.2986 19.4059 22.4994 19.2673L22.2152 18.8559C22.0101 18.9976 21.807 19.1427 21.6061 19.2912L21.9033 19.6933ZM21.6093 19.2889L13.1077 25.3654L13.3984 25.7721L21.9001 19.6957L21.6093 19.2889ZM13.0402 25.7L14.4097 27.921L14.8353 27.6586L13.4658 25.4375L13.0402 25.7ZM10.0938 49.1818C10.0938 40.5571 11.8044 33.3988 14.8413 27.9108L14.4038 27.6687C11.3167 33.2475 9.59375 40.4937 9.59375 49.1818H10.0938ZM58.0184 132.19C44.7968 124.556 32.8128 111.447 24.1337 96.4145C15.4545 81.3817 10.0938 64.4488 10.0938 49.1818H9.59375C9.59375 64.5572 14.9893 81.5759 23.7006 96.6645C32.412 111.753 44.4529 124.935 57.7684 132.623L58.0184 132.19ZM82.9958 138.483C75.7527 139.444 67.1997 137.491 58.0184 132.19L57.7684 132.623C67.0156 137.962 75.6797 139.958 83.0616 138.978L82.9958 138.483ZM82.8159 138.862L84.3059 141.278L84.7315 141.016L83.2415 138.599L82.8159 138.862ZM84.6636 141.351L94.8849 134.075L94.595 133.668L84.3737 140.943L84.6636 141.351ZM94.9517 133.738L94.9259 133.697L94.5024 133.963L94.5282 134.004L94.9517 133.738Z" fill="white"/>
<circle r="55.4829" transform="matrix(0.866025 0.5 -2.20305e-08 1 49.0496 83.2244)" fill="#07091B" stroke="white" stroke-width="0.5"/>
<g style="mix-blend-mode:overlay" filter="url(#filter0_i_2757_197174)">
<circle r="43.3701" transform="matrix(0.866025 0.5 -2.20305e-08 1 49.0498 85.2243)" fill="#07091B" fill-opacity="0.2"/>
</g>
<path fill-rule="evenodd" clip-rule="evenodd" d="M64.6759 94.2461C64.6759 104.211 57.68 108.25 49.0499 103.268C40.4198 98.2853 33.4238 86.1679 33.4238 76.2027C33.4238 66.2377 40.4198 62.1985 49.0499 67.1811C57.68 72.1636 64.6759 84.281 64.6759 94.2461ZM44.6219 89.8483L41.5893 88.0974C40.9521 87.7295 40.6373 87.5478 40.4454 87.2952C40.2381 87.0203 40.1114 86.6901 40.0961 86.3975C40.0845 86.1295 40.2419 85.9011 40.5567 85.4445L48.0445 74.5276C48.3631 74.0644 48.5243 73.8339 48.7278 73.8316C48.9466 73.8294 49.2076 73.9802 49.4264 74.235C49.6299 74.4722 49.7911 74.8888 50.1097 75.7199L51.6491 79.7114L51.6569 79.7318C52.001 80.6248 52.1755 81.0776 52.2517 81.4911C52.3362 81.9432 52.3362 82.3687 52.2517 82.7234C52.175 83.0514 52.0022 83.3062 51.6529 83.8093L47.7197 89.5668L47.7096 89.5815C47.3632 90.0815 47.1876 90.3349 46.9443 90.4621C46.6794 90.6018 46.3608 90.6305 46.0115 90.5487C45.6929 90.4666 45.3359 90.2605 44.6219 89.8483ZM52.2801 94.2698L56.6255 96.7786C57.2665 97.1487 57.589 97.3349 57.7811 97.2997C57.9883 97.2641 58.1188 97.0778 58.1304 96.801C58.1415 96.5544 57.9875 96.1587 57.6858 95.3833C57.6754 95.3568 57.665 95.33 57.6544 95.3027L55.4777 89.7464L55.453 89.6837C55.1471 88.9099 54.9927 88.5192 54.7944 88.2881C54.5758 88.0333 54.3184 87.8847 54.0997 87.887C53.9001 87.8914 53.7388 88.1131 53.4202 88.563L51.2514 91.6103L51.2439 91.6209C50.9264 92.0704 50.7678 92.295 50.7792 92.5611C50.7946 92.8537 50.9212 93.1883 51.1285 93.4631C51.3166 93.7135 51.6391 93.8997 52.2801 94.2698Z" fill="white"/>
<circle r="43.3701" transform="matrix(0.866025 0.5 -2.20305e-08 1 49.0498 85.2243)" stroke="white" stroke-width="0.5"/>
<defs>
<filter id="filter0_i_2757_197174" x="11.4902" y="36.7245" width="75.1191" height="101" filterUnits="userSpaceOnUse" color-interpolation-filters="sRGB">
<feFlood flood-opacity="0" result="BackgroundImageFix"/>
<feBlend mode="normal" in="SourceGraphic" in2="BackgroundImageFix" result="shape"/>
<feColorMatrix in="SourceAlpha" type="matrix" values="0 0 0 0 0 0 0 0 0 0 0 0 0 0 0 0 0 0 127 0" result="hardAlpha"/>
<feOffset dy="4"/>
<feGaussianBlur stdDeviation="2"/>
<feComposite in2="hardAlpha" operator="arithmetic" k2="-1" k3="1"/>
<feColorMatrix type="matrix" values="0 0 0 0 0 0 0 0 0 0 0 0 0 0 0 0 0 0 0.25 0"/>
<feBlend mode="normal" in2="shape" result="effect1_innerShadow_2757_197174"/>
</filter>
</defs>
</svg>
