<svg width="107" height="167" viewBox="0 0 107 167" fill="none" xmlns="http://www.w3.org/2000/svg">
<path fill-rule="evenodd" clip-rule="evenodd" d="M94.7141 133.83C101.722 128.235 105.943 118.237 105.943 104.665C105.943 74.0224 84.4304 36.7616 57.8934 21.4404C43.9246 13.3755 31.348 12.9973 22.5685 18.9174L22.5655 18.9127L22.3573 19.0616C22.1544 19.2017 21.9535 19.3453 21.7547 19.4923L13.253 25.5687L14.6225 27.7898C11.5606 33.3232 9.84375 40.5254 9.84375 49.1818C9.84375 79.8242 31.3563 117.085 57.8934 132.406C67.1077 137.726 75.7162 139.701 83.0287 138.73L84.5187 141.147L94.7399 133.871L94.7141 133.83Z" fill="#07091B"/>
<path d="M94.7141 133.83L94.5581 133.635L94.3837 133.774L94.5024 133.963L94.7141 133.83ZM57.8934 21.4404L58.0184 21.2239L57.8934 21.4404ZM22.5685 18.9174L22.3568 19.0504L22.4941 19.2691L22.7083 19.1247L22.5685 18.9174ZM22.5655 18.9127L22.7773 18.7798L22.6361 18.555L22.4202 18.7094L22.5655 18.9127ZM22.3573 19.0616L22.4994 19.2673L22.5027 19.265L22.3573 19.0616ZM21.7547 19.4923L21.9001 19.6957L21.9033 19.6933L21.7547 19.4923ZM13.253 25.5687L13.1077 25.3654L12.9177 25.5012L13.0402 25.7L13.253 25.5687ZM14.6225 27.7898L14.8413 27.9108L14.912 27.783L14.8353 27.6586L14.6225 27.7898ZM57.8934 132.406L57.7684 132.623L57.7684 132.623L57.8934 132.406ZM83.0287 138.73L83.2415 138.599L83.1564 138.461L82.9958 138.483L83.0287 138.73ZM84.5187 141.147L84.3059 141.278L84.446 141.505L84.6636 141.351L84.5187 141.147ZM94.7399 133.871L94.8849 134.075L95.0771 133.938L94.9517 133.738L94.7399 133.871ZM105.693 104.665C105.693 118.19 101.488 128.102 94.5581 133.635L94.8701 134.025C101.957 128.367 106.193 118.284 106.193 104.665H105.693ZM57.7684 21.6569C70.9899 29.2904 82.9739 42.3994 91.6531 57.4321C100.332 72.4648 105.693 89.3978 105.693 104.665H106.193C106.193 89.2894 100.797 72.2707 92.0861 57.1821C83.3747 42.0935 71.3338 28.9116 58.0184 21.2239L57.7684 21.6569ZM22.7083 19.1247C31.3799 13.2774 43.8475 13.6197 57.7684 21.6569L58.0184 21.2239C44.0017 13.1313 31.3161 12.7173 22.4287 18.7102L22.7083 19.1247ZM22.7802 18.7845L22.7773 18.7798L22.3538 19.0457L22.3568 19.0504L22.7802 18.7845ZM22.4202 18.7094L22.2119 18.8582L22.5027 19.265L22.7109 19.1161L22.4202 18.7094ZM21.9033 19.6933C22.1 19.5479 22.2986 19.4059 22.4994 19.2673L22.2152 18.8559C22.0101 18.9976 21.807 19.1427 21.6061 19.2912L21.9033 19.6933ZM21.6093 19.2889L13.1077 25.3654L13.3984 25.7721L21.9001 19.6957L21.6093 19.2889ZM13.0402 25.7L14.4097 27.921L14.8353 27.6586L13.4658 25.4375L13.0402 25.7ZM10.0938 49.1818C10.0938 40.5571 11.8044 33.3988 14.8413 27.9108L14.4038 27.6687C11.3167 33.2475 9.59375 40.4937 9.59375 49.1818H10.0938ZM58.0184 132.19C44.7968 124.556 32.8128 111.447 24.1337 96.4145C15.4545 81.3817 10.0938 64.4488 10.0938 49.1818H9.59375C9.59375 64.5572 14.9893 81.5759 23.7006 96.6645C32.412 111.753 44.4529 124.935 57.7684 132.623L58.0184 132.19ZM82.9958 138.483C75.7527 139.444 67.1997 137.491 58.0184 132.19L57.7684 132.623C67.0156 137.962 75.6797 139.958 83.0616 138.978L82.9958 138.483ZM82.8159 138.862L84.3059 141.278L84.7315 141.016L83.2415 138.599L82.8159 138.862ZM84.6636 141.351L94.8849 134.075L94.595 133.668L84.3737 140.943L84.6636 141.351ZM94.9517 133.738L94.9259 133.697L94.5024 133.963L94.5282 134.004L94.9517 133.738Z" fill="white"/>
<circle r="55.4829" transform="matrix(0.866025 0.5 -2.20305e-08 1 49.0496 83.2244)" fill="#07091B" stroke="white" stroke-width="0.5"/>
<g style="mix-blend-mode:overlay" filter="url(#filter0_i_2757_197150)">
<circle r="43.3701" transform="matrix(0.866025 0.5 -2.20305e-08 1 49.0498 85.2243)" fill="#07091B" fill-opacity="0.2"/>
</g>
<path d="M49.4073 87.3044L58.1185 92.3339C58.3042 92.4411 58.3919 92.4917 58.4053 92.2183C58.4765 91.2361 58.4765 90.2069 58.4053 89.1413C58.4053 88.9424 58.3197 88.8107 58.133 88.7029L40.7961 78.6935C40.5815 78.5696 40.5237 78.6184 40.5237 78.8507L40.5237 81.7955C40.5237 82.1755 40.5237 82.1755 40.8673 82.3738L49.4073 87.3044V87.3044ZM57.4325 84.857C57.4573 84.7962 57.4573 84.714 57.4325 84.6259C57.287 84.1762 57.1147 83.7277 56.9146 83.2845C56.6134 82.5507 56.2585 81.83 55.8541 81.1332C55.6632 80.743 55.4424 80.3642 55.1948 80.008C53.9548 78.0734 52.4806 76.3598 50.896 75.0113C50.0964 74.3424 49.2794 73.7718 48.4602 73.3072L40.7662 68.8651C40.5516 68.7412 40.5227 68.8234 40.5227 69.039L40.5227 74.9119C40.5227 75.1596 40.5227 75.2263 40.7951 75.3836L57.3293 84.9297C57.3293 84.9297 57.4727 84.9791 57.5016 84.8969L57.4315 84.8564L57.4325 84.857ZM57.4325 95.3793C57.189 95.2077 56.9435 95.066 56.7 94.9564L40.8105 85.7826C40.5959 85.6587 40.5237 85.617 40.5237 85.9482L40.5237 91.69C40.5237 91.9545 40.5237 92.0212 40.8105 92.1867L48.1466 96.4222C48.4974 96.6557 48.8481 96.8296 49.1917 96.9434C50.2563 97.4699 51.3035 97.8077 52.3021 97.9446C52.6652 98.009 53.016 98.0221 53.3472 97.9857L53.4472 98.0435C55.167 98.0036 56.5638 97.1876 57.4449 95.7045C57.4449 95.7045 57.5449 95.5121 57.4325 95.3817L57.4325 95.3793ZM37.6444 93.3357L37.6444 93.2368L37.6444 89.3819L37.6444 88.0752L37.6444 84.1869C37.6444 83.9713 37.6444 83.9391 37.4154 83.8069L34.306 82.0117C34.1337 81.9122 34.0625 81.8711 34.0625 81.6067L34.0625 78.463L37.3865 80.3821C37.5722 80.4893 37.6444 80.531 37.6444 80.2498L37.6444 77.1395C37.6444 76.9406 37.6444 76.8917 37.4154 76.7595L34.306 74.9643C34.1337 74.8648 34.0625 74.8237 34.0625 74.5592L34.0625 71.6478C34.0625 71.4656 34.0625 71.4167 34.2915 71.549L37.372 73.3275C37.5866 73.4514 37.6444 73.4847 37.6444 73.1703L37.6444 64.2526C37.6444 63.9881 37.6444 63.9214 37.9312 64.087L48.6769 70.291C49.4568 70.777 50.2316 71.3232 50.9981 71.929C52.5775 73.178 54.0951 74.7058 55.4827 76.4372C56.4029 77.594 57.2499 78.8382 58.004 80.1432C58.5714 81.151 59.0831 82.1826 59.5371 83.2286C59.9879 84.2834 60.3624 85.349 60.6564 86.4062C60.6925 86.6582 60.8844 86.925 61.0845 87.0012L63.6492 88.482C63.9783 88.672 63.9783 88.672 63.9928 89.0448L63.9928 91.7585C63.9928 92.0229 63.9071 92.0402 63.6771 91.9074L61.6994 90.7656C61.4993 90.65 61.4415 90.6167 61.4559 90.9228C61.5343 91.9759 61.5343 92.9873 61.4559 93.9498C61.4559 94.2309 61.4559 94.2643 61.7293 94.4221L63.9917 95.7283C64.0918 95.935 63.9917 96.0261 63.9917 96.1762C64.0062 96.3764 64.0062 96.5705 63.9917 96.754L63.9917 98.7565C63.9917 99.0376 63.9206 99.0799 63.7049 98.9554L60.9969 97.3919C60.8081 97.2412 60.6244 97.2746 60.5811 97.4664C59.9363 99.0299 58.9047 100.17 57.5718 100.792C57.0848 101.017 56.5731 101.198 56.0387 101.329C55.4651 101.379 54.907 101.453 54.319 101.428C53.2368 101.366 52.102 101.125 50.9372 100.716C49.8313 100.306 48.7099 99.7625 47.5844 99.0948L37.6403 93.3536L37.6403 93.3369L37.6444 93.3357Z" fill="white"/>
<circle r="43.3701" transform="matrix(0.866025 0.5 -2.20305e-08 1 49.0498 85.2243)" stroke="white" stroke-width="0.5"/>
<defs>
<filter id="filter0_i_2757_197150" x="11.4902" y="36.7245" width="75.1191" height="101" filterUnits="userSpaceOnUse" color-interpolation-filters="sRGB">
<feFlood flood-opacity="0" result="BackgroundImageFix"/>
<feBlend mode="normal" in="SourceGraphic" in2="BackgroundImageFix" result="shape"/>
<feColorMatrix in="SourceAlpha" type="matrix" values="0 0 0 0 0 0 0 0 0 0 0 0 0 0 0 0 0 0 127 0" result="hardAlpha"/>
<feOffset dy="4"/>
<feGaussianBlur stdDeviation="2"/>
<feComposite in2="hardAlpha" operator="arithmetic" k2="-1" k3="1"/>
<feColorMatrix type="matrix" values="0 0 0 0 0 0 0 0 0 0 0 0 0 0 0 0 0 0 0.25 0"/>
<feBlend mode="normal" in2="shape" result="effect1_innerShadow_2757_197150"/>
</filter>
</defs>
</svg>
