<svg width="129" height="44" viewBox="0 0 129 44" fill="none" xmlns="http://www.w3.org/2000/svg">
<path opacity="0.3" d="M122.938 8.80453H117.314V0.930664H104.964L99.2846 8.80453H89.1926L85.8181 12.1791V8.80453H77.9442V0.930664H53.1977V8.80453H18.384L12.7035 0.930664H0.330322V27.9268L16.0781 43.6745H31.8258V39.1752L36.3252 43.6745H66.6958V39.1752L71.1952 43.6745H85.8181V39.1752L90.3174 43.6745H118.438L128.562 33.551V14.4287L122.938 8.80453ZM19.4526 20.0529H11.5787V22.3026H19.4526V31.3013H7.07935L2.58 26.802V3.18034H11.5787V11.0542H19.4526V20.0529ZM53.1977 31.3013H26.2016L21.7023 26.802V11.0542H30.701V22.3026H32.9506V11.0542H41.9494V22.3026H44.199V11.0542H53.1977V31.3013ZM64.4461 31.3013H55.4474V11.0542H64.4461V31.3013ZM64.4461 8.80453H55.4474V3.18034H64.4461V8.80453ZM83.5684 20.0529H75.6945V22.3026H83.5684V31.3013H71.1952L66.6958 26.802V3.18034H75.6945V11.0542H83.5684V20.0529ZM103.815 20.0529H94.8168V22.3026H103.815V31.3013H90.3174L85.8181 26.802V15.5536L90.3174 11.0542H103.815V20.0529ZM126.312 31.3013H117.314V20.0529H115.064V31.3013H106.065V3.18034H115.064V11.0542H121.813L126.312 15.5536V31.3013Z" fill="white"/>
</svg>
