<svg width="330" height="64" viewBox="0 0 330 64" fill="none" xmlns="http://www.w3.org/2000/svg">
<g style="mix-blend-mode:lighten" filter="url(#filter0_f_2714_76781)">
<path fill-rule="evenodd" clip-rule="evenodd" d="M39.4115 50.1241C41.6905 48.3045 43.063 45.0535 43.063 40.6399C43.063 30.6754 36.0674 18.5588 27.4379 13.5765C22.8955 10.9539 18.8058 10.831 15.9508 12.7561L15.9498 12.7545L15.8803 12.8042C15.8155 12.849 15.7514 12.8948 15.6879 12.9417L12.9215 14.919L13.3669 15.6412C12.3712 17.4406 11.8129 19.7827 11.8129 22.5976C11.8129 32.5621 18.8084 44.6788 27.4379 49.661C30.4343 51.391 33.2337 52.0333 35.6116 51.7176L36.0961 52.5033L39.4199 50.1374L39.4115 50.1241Z" fill="url(#paint0_linear_2714_76781)"/>
</g>
<path fill-rule="evenodd" clip-rule="evenodd" d="M39.4115 50.1241C41.6905 48.3045 43.063 45.0535 43.063 40.6399C43.063 30.6754 36.0674 18.5588 27.4379 13.5765C22.8955 10.9539 18.8058 10.831 15.9508 12.7561L15.9498 12.7545L15.8803 12.8042C15.8155 12.849 15.7514 12.8948 15.6879 12.9417L12.9215 14.919L13.3669 15.6412C12.3712 17.4406 11.8129 19.7827 11.8129 22.5976C11.8129 32.5621 18.8084 44.6788 27.4379 49.661C30.4343 51.391 33.2337 52.0333 35.6116 51.7176L36.0961 52.5033L39.4199 50.1374L39.4115 50.1241Z" fill="url(#paint1_linear_2714_76781)"/>
<g style="mix-blend-mode:overlay" opacity="0.2">
<path fill-rule="evenodd" clip-rule="evenodd" d="M39.4115 50.1241C41.6905 48.3045 43.063 45.0535 43.063 40.6399C43.063 30.6754 36.0674 18.5588 27.4379 13.5765C22.8955 10.9539 18.8058 10.831 15.9508 12.7561L15.9498 12.7545L15.8803 12.8042C15.8155 12.849 15.7514 12.8948 15.6879 12.9417L12.9215 14.919L13.3669 15.6412C12.3712 17.4406 11.8129 19.7827 11.8129 22.5976C11.8129 32.5621 18.8084 44.6788 27.4379 49.661C30.4343 51.391 33.2337 52.0333 35.6116 51.7176L36.0961 52.5033L39.4199 50.1374L39.4115 50.1241Z" fill="#07091B"/>
</g>
<circle r="18.0423" transform="matrix(0.866025 0.5 -2.20305e-08 1 24.5621 33.668)" fill="url(#paint2_linear_2714_76781)"/>
<g style="mix-blend-mode:overlay" filter="url(#filter1_i_2714_76781)">
<ellipse rx="14.1033" ry="14.1033" transform="matrix(0.866025 0.5 -2.20305e-08 1 24.5621 34.3185)" fill="#07091B" fill-opacity="0.2"/>
</g>
<path d="M23.941 26.6922L25.324 27.4907L25.324 29.4721C26.0668 29.9995 26.6686 30.6526 27.1296 31.4313C27.5992 32.2052 27.8553 33.0579 27.898 33.9894L26.4893 33.1761C26.4552 32.8607 26.3826 32.5724 26.2716 32.3111C26.1607 32.0499 26.0198 31.8108 25.8491 31.594C25.6783 31.3673 25.482 31.1652 25.26 30.9877C25.0466 30.8054 24.8075 30.6378 24.5429 30.485C24.3721 30.3864 24.1843 30.2928 23.9794 30.204C23.7746 30.1153 23.591 30.0734 23.4288 30.0784C23.2581 30.0784 23.1172 30.14 23.0062 30.2632C22.8952 30.3765 22.8397 30.5663 22.8397 30.8325C22.8397 31.1775 22.908 31.4929 23.0446 31.7788C23.1812 32.0647 23.3562 32.3333 23.5697 32.5847C23.7916 32.8311 24.0349 33.0652 24.2996 33.287C24.5728 33.5039 24.8417 33.7183 25.1063 33.9303C25.5332 34.2654 25.9302 34.5981 26.2973 34.9284C26.6643 35.2586 26.9802 35.6085 27.2449 35.9782C27.5181 36.3528 27.7315 36.752 27.8851 37.1759C28.0388 37.5998 28.1156 38.0681 28.1156 38.5807C28.1156 39.1031 28.0388 39.5122 27.8851 39.8079C27.7315 40.0938 27.5223 40.2885 27.2577 40.392C27.0016 40.4906 26.6985 40.5078 26.3485 40.4438C26.007 40.3748 25.6442 40.2442 25.26 40.0519L25.26 41.989L23.8898 41.1979L23.8898 39.2165C23.4886 38.9257 23.1172 38.6028 22.7757 38.248C22.4428 37.8882 22.1482 37.5012 21.8921 37.0872C21.6446 36.6781 21.4439 36.2518 21.2903 35.8082C21.1366 35.3547 21.0427 34.8865 21.0085 34.4034L22.494 35.2611C22.5452 35.6061 22.6477 35.9314 22.8013 36.237C22.955 36.5327 23.1385 36.8063 23.352 37.0576C23.5654 37.309 23.7959 37.5357 24.0435 37.7378C24.291 37.93 24.5344 38.0952 24.7734 38.2332C25.0039 38.3663 25.2301 38.4772 25.4521 38.5659C25.674 38.6447 25.8704 38.6792 26.0411 38.6694C26.2204 38.6546 26.3656 38.5856 26.4765 38.4624C26.5875 38.3293 26.643 38.1198 26.643 37.8339C26.643 37.4988 26.5576 37.1932 26.3869 36.9172C26.2247 36.6362 26.0155 36.3725 25.7594 36.1261C25.5118 35.8747 25.2387 35.6381 24.9399 35.4163C24.6496 35.1995 24.3764 34.9826 24.1203 34.7657C23.7105 34.4305 23.3349 34.0905 22.9934 33.7454C22.6519 33.3906 22.3531 33.0209 22.097 32.6364C21.8494 32.2569 21.6531 31.8577 21.508 31.4387C21.3714 31.0247 21.3031 30.5811 21.3031 30.1079C21.3031 29.6348 21.3756 29.2626 21.5208 28.9915C21.6744 28.7254 21.8708 28.543 22.1098 28.4444C22.3574 28.3409 22.6391 28.3163 22.955 28.3705C23.2709 28.4149 23.5995 28.511 23.941 28.6588L23.941 26.6922Z" fill="white"/>
<ellipse rx="14.1033" ry="14.1033" transform="matrix(0.866025 0.5 -2.20305e-08 1 24.5621 34.3185)" stroke="white" stroke-width="0.28169"/>
<path d="M69.032 23.416C67.8373 23.416 66.8027 23.64 65.928 24.088C65.0747 24.536 64.3707 25.1333 63.816 25.88C63.2613 26.6267 62.8453 27.5013 62.568 28.504C62.312 29.4853 62.184 30.52 62.184 31.608C62.184 32.7173 62.3227 33.7733 62.6 34.776C62.8773 35.7787 63.2933 36.664 63.848 37.432C64.424 38.1787 65.1493 38.776 66.024 39.224C66.8987 39.672 67.9333 39.896 69.128 39.896C70.6 39.896 71.8267 39.576 72.808 38.936C73.8107 38.296 74.44 37.432 74.696 36.344H78.408C78.2373 37.432 77.8747 38.4027 77.32 39.256C76.7867 40.1093 76.1147 40.8347 75.304 41.432C74.4933 42.008 73.5547 42.456 72.488 42.776C71.4213 43.0747 70.28 43.224 69.064 43.224C67.2933 43.224 65.736 42.936 64.392 42.36C63.0693 41.784 61.96 40.984 61.064 39.96C60.168 38.936 59.496 37.72 59.048 36.312C58.6 34.904 58.376 33.3573 58.376 31.672C58.376 30.0293 58.6 28.504 59.048 27.096C59.5173 25.6667 60.2 24.44 61.096 23.416C61.992 22.3707 63.1013 21.56 64.424 20.984C65.768 20.3867 67.3253 20.088 69.096 20.088C71.592 20.088 73.6507 20.6747 75.272 21.848C76.8933 23.0213 77.8747 24.7493 78.216 27.032H74.568C74.2907 25.9227 73.672 25.048 72.712 24.408C71.752 23.7467 70.5253 23.416 69.032 23.416ZM81.5778 43V26.136H85.0018L85.1938 28.536C86.4951 26.744 88.2658 25.848 90.5058 25.848C90.7191 25.848 90.9218 25.8587 91.1138 25.88C91.3271 25.88 91.5191 25.8907 91.6898 25.912V29.304C91.4338 29.304 91.1778 29.3147 90.9218 29.336C90.6871 29.336 90.4524 29.336 90.2178 29.336C89.2791 29.3573 88.4898 29.528 87.8498 29.848C87.2311 30.1467 86.7191 30.552 86.3138 31.064C85.9298 31.576 85.6524 32.184 85.4818 32.888C85.3111 33.5707 85.2258 34.3067 85.2258 35.096V43H81.5778ZM109.631 26.136V40.312C109.631 41.272 109.609 42.2533 109.567 43.256C109.545 44.2587 109.375 45.24 109.055 46.2C108.564 47.736 107.679 48.9413 106.399 49.816C105.119 50.6907 103.401 51.128 101.247 51.128C99.9665 51.128 98.7292 50.9573 97.5345 50.616C96.3612 50.2747 95.2518 49.7093 94.2065 48.92C94.4412 48.4293 94.6652 47.9173 94.8785 47.384C95.1132 46.872 95.3478 46.36 95.5825 45.848C96.2865 46.4027 97.0865 46.872 97.9825 47.256C98.8998 47.64 99.9452 47.832 101.119 47.832C102.249 47.832 103.135 47.64 103.775 47.256C104.415 46.872 104.895 46.3493 105.215 45.688C105.556 45.048 105.769 44.3013 105.855 43.448C105.961 42.616 106.015 41.7627 106.015 40.888C105.417 41.7413 104.671 42.3493 103.775 42.712C102.9 43.0747 101.908 43.256 100.799 43.256C99.5398 43.256 98.4625 43.064 97.5665 42.68C96.6705 42.296 95.9665 41.7627 95.4545 41.08C94.9425 40.3973 94.5798 39.5867 94.3665 38.648C94.1532 37.7093 94.0465 36.6853 94.0465 35.576V26.136H97.6625V34.872C97.6625 35.5547 97.7052 36.216 97.7905 36.856C97.8972 37.4747 98.0892 38.0293 98.3665 38.52C98.6652 38.9893 99.0705 39.3733 99.5825 39.672C100.095 39.9493 100.767 40.088 101.599 40.088C102.452 40.088 103.156 39.9173 103.711 39.576C104.287 39.2347 104.735 38.7973 105.055 38.264C105.396 37.7093 105.631 37.08 105.759 36.376C105.908 35.672 105.983 34.9467 105.983 34.2V26.136H109.631ZM113.609 49.56V26.136H117.065L117.257 28.536C117.918 27.64 118.729 26.968 119.689 26.52C120.649 26.072 121.684 25.848 122.793 25.848C123.945 25.848 124.98 26.0613 125.897 26.488C126.814 26.8933 127.593 27.4693 128.233 28.216C128.894 28.9627 129.385 29.8693 129.705 30.936C130.046 31.9813 130.217 33.176 130.217 34.52C130.217 35.7787 130.057 36.9413 129.737 38.008C129.417 39.0747 128.937 40.0027 128.297 40.792C127.678 41.56 126.9 42.1573 125.961 42.584C125.044 43.0107 123.966 43.224 122.729 43.224C121.662 43.224 120.649 43.064 119.689 42.744C118.75 42.4027 117.94 41.88 117.257 41.176V49.56H113.609ZM122.025 40.056C122.814 40.056 123.497 39.9173 124.073 39.64C124.649 39.3413 125.118 38.9467 125.481 38.456C125.865 37.9653 126.142 37.3893 126.313 36.728C126.505 36.0667 126.601 35.352 126.601 34.584C126.601 33.816 126.505 33.1013 126.313 32.44C126.142 31.7573 125.865 31.1707 125.481 30.68C125.118 30.1893 124.638 29.8053 124.041 29.528C123.465 29.2507 122.772 29.112 121.961 29.112C121.172 29.112 120.489 29.2613 119.913 29.56C119.337 29.8587 118.846 30.2533 118.441 30.744C118.036 31.2347 117.726 31.8213 117.513 32.504C117.321 33.1653 117.225 33.848 117.225 34.552C117.225 36.1093 117.63 37.4107 118.441 38.456C119.252 39.5013 120.446 40.0347 122.025 40.056ZM138.603 26.136H143.659V29.304H138.603V36.728C138.603 37.1547 138.624 37.56 138.667 37.944C138.731 38.328 138.837 38.68 138.987 39C139.157 39.2987 139.392 39.544 139.691 39.736C139.989 39.928 140.395 40.024 140.907 40.024C141.803 40.024 142.571 39.7573 143.211 39.224L144.427 41.944C143.872 42.3707 143.232 42.6907 142.507 42.904C141.781 43.096 141.067 43.192 140.363 43.192C138.528 43.192 137.173 42.7333 136.299 41.816C135.424 40.8773 134.987 39.416 134.987 37.432V29.304H132.331V26.136H134.987V21.336H138.603V26.136ZM154.318 25.848C155.662 25.848 156.846 26.0613 157.87 26.488C158.894 26.9147 159.758 27.512 160.462 28.28C161.187 29.0267 161.731 29.9333 162.094 31C162.457 32.0667 162.638 33.2507 162.638 34.552C162.638 35.8747 162.457 37.0693 162.094 38.136C161.753 39.1813 161.23 40.088 160.526 40.856C159.822 41.624 158.947 42.2107 157.902 42.616C156.878 43.0213 155.683 43.224 154.318 43.224C152.974 43.224 151.79 43.0213 150.766 42.616C149.742 42.1893 148.878 41.6027 148.174 40.856C147.491 40.088 146.969 39.1707 146.606 38.104C146.265 37.0373 146.094 35.8533 146.094 34.552C146.094 33.2507 146.265 32.0667 146.606 31C146.969 29.9333 147.502 29.0267 148.206 28.28C148.91 27.512 149.774 26.9147 150.798 26.488C151.822 26.0613 152.995 25.848 154.318 25.848ZM154.318 40.056C155.15 40.056 155.854 39.9173 156.43 39.64C157.027 39.3413 157.507 38.9467 157.87 38.456C158.254 37.9653 158.531 37.3893 158.702 36.728C158.894 36.0667 158.99 35.352 158.99 34.584C158.99 33.816 158.894 33.1013 158.702 32.44C158.531 31.7573 158.254 31.1707 157.87 30.68C157.507 30.1893 157.027 29.8053 156.43 29.528C155.854 29.2507 155.15 29.112 154.318 29.112C153.507 29.112 152.814 29.2507 152.238 29.528C151.662 29.8053 151.182 30.1893 150.798 30.68C150.414 31.1707 150.126 31.7573 149.934 32.44C149.763 33.1013 149.678 33.816 149.678 34.584C149.678 35.352 149.763 36.0667 149.934 36.728C150.126 37.3893 150.403 37.9653 150.766 38.456C151.15 38.9467 151.63 39.3413 152.206 39.64C152.803 39.9173 153.507 40.056 154.318 40.056ZM173.377 43.224C172.011 43.224 170.827 43.0213 169.825 42.616C168.822 42.1893 167.979 41.6027 167.297 40.856C166.635 40.088 166.134 39.1813 165.793 38.136C165.473 37.0693 165.313 35.896 165.313 34.616C165.313 33.336 165.483 32.1627 165.825 31.096C166.187 30.0293 166.721 29.112 167.425 28.344C168.129 27.576 168.982 26.968 169.985 26.52C170.987 26.072 172.15 25.848 173.473 25.848C175.414 25.848 177.025 26.296 178.305 27.192C179.585 28.0667 180.395 29.464 180.737 31.384H176.993C176.801 30.6373 176.385 30.072 175.745 29.688C175.105 29.304 174.326 29.112 173.409 29.112C172.598 29.112 171.905 29.2613 171.329 29.56C170.753 29.8587 170.283 30.264 169.921 30.776C169.558 31.288 169.291 31.8853 169.121 32.568C168.971 33.2293 168.897 33.9227 168.897 34.648C168.897 35.3947 168.982 36.0987 169.153 36.76C169.323 37.4213 169.59 37.9973 169.953 38.488C170.315 38.9573 170.785 39.3413 171.361 39.64C171.937 39.9173 172.63 40.056 173.441 40.056C174.401 40.056 175.19 39.8427 175.809 39.416C176.449 38.9893 176.854 38.424 177.025 37.72H180.801C180.63 38.68 180.31 39.512 179.841 40.216C179.393 40.92 178.838 41.496 178.177 41.944C177.515 42.392 176.779 42.7227 175.969 42.936C175.158 43.128 174.294 43.224 173.377 43.224ZM191.314 40.056C192.722 40.056 193.724 39.6613 194.322 38.872C194.919 38.0827 195.218 36.9627 195.218 35.512V26.136H198.833V35.64C198.833 37.048 198.642 38.2427 198.258 39.224C197.874 40.184 197.351 40.9627 196.69 41.56C196.028 42.136 195.239 42.5627 194.322 42.84C193.426 43.096 192.423 43.224 191.314 43.224C188.967 43.224 187.132 42.616 185.81 41.4C184.508 40.184 183.858 38.264 183.858 35.64V26.136H187.474V35.512C187.474 36.9627 187.783 38.0827 188.402 38.872C189.042 39.64 190.012 40.0347 191.314 40.056ZM202.734 43V26.136H206.158L206.35 28.536C207.651 26.744 209.422 25.848 211.662 25.848C211.875 25.848 212.078 25.8587 212.27 25.88C212.483 25.88 212.675 25.8907 212.846 25.912V29.304C212.59 29.304 212.334 29.3147 212.078 29.336C211.843 29.336 211.609 29.336 211.374 29.336C210.435 29.3573 209.646 29.528 209.006 29.848C208.387 30.1467 207.875 30.552 207.47 31.064C207.086 31.576 206.809 32.184 206.638 32.888C206.467 33.5707 206.382 34.3067 206.382 35.096V43H202.734ZM215.203 43V26.136H218.627L218.819 28.536C220.12 26.744 221.891 25.848 224.131 25.848C224.344 25.848 224.547 25.8587 224.739 25.88C224.952 25.88 225.144 25.8907 225.315 25.912V29.304C225.059 29.304 224.803 29.3147 224.547 29.336C224.312 29.336 224.077 29.336 223.843 29.336C222.904 29.3573 222.115 29.528 221.475 29.848C220.856 30.1467 220.344 30.552 219.939 31.064C219.555 31.576 219.277 32.184 219.107 32.888C218.936 33.5707 218.851 34.3067 218.851 35.096V43H215.203ZM230.367 35.8C230.41 36.4187 230.538 36.9947 230.751 37.528C230.964 38.0613 231.252 38.5307 231.615 38.936C231.999 39.32 232.458 39.6293 232.991 39.864C233.546 40.0987 234.186 40.216 234.911 40.216C235.679 40.216 236.383 40.0773 237.023 39.8C237.663 39.5227 238.132 39.0427 238.431 38.36H242.175C241.962 39.2133 241.61 39.9493 241.119 40.568C240.65 41.1867 240.084 41.6987 239.423 42.104C238.783 42.488 238.068 42.776 237.279 42.968C236.511 43.1387 235.69 43.224 234.815 43.224C233.471 43.224 232.287 43.0213 231.263 42.616C230.26 42.2107 229.418 41.624 228.735 40.856C228.052 40.088 227.54 39.1813 227.199 38.136C226.879 37.0693 226.719 35.8747 226.719 34.552C226.719 33.272 226.9 32.1093 227.263 31.064C227.626 29.9973 228.148 29.08 228.831 28.312C229.535 27.544 230.378 26.9467 231.359 26.52C232.34 26.072 233.46 25.848 234.719 25.848C236.042 25.848 237.183 26.072 238.143 26.52C239.103 26.9467 239.903 27.5333 240.543 28.28C241.204 29.0267 241.695 29.9013 242.015 30.904C242.335 31.9067 242.495 32.9947 242.495 34.168C242.495 34.7227 242.463 35.2667 242.399 35.8H230.367ZM238.943 33.048C238.9 31.768 238.495 30.776 237.727 30.072C236.959 29.368 235.967 29.016 234.751 29.016C234.068 29.016 233.471 29.1227 232.959 29.336C232.447 29.5493 232.01 29.8373 231.647 30.2C231.306 30.5627 231.028 30.9893 230.815 31.48C230.602 31.9707 230.463 32.4933 230.399 33.048H238.943ZM245.797 43V26.136H249.285L249.477 28.472C250.095 27.5973 250.863 26.9467 251.781 26.52C252.719 26.072 253.711 25.848 254.757 25.848C255.951 25.848 256.954 26.0507 257.765 26.456C258.597 26.8613 259.269 27.416 259.781 28.12C260.314 28.824 260.687 29.656 260.901 30.616C261.135 31.576 261.253 32.6213 261.253 33.752V43H257.605V34.296C257.605 33.5707 257.551 32.8987 257.445 32.28C257.359 31.6613 257.178 31.1173 256.901 30.648C256.623 30.1573 256.229 29.7733 255.717 29.496C255.226 29.2187 254.586 29.08 253.797 29.08C253.05 29.08 252.367 29.2613 251.749 29.624C251.151 29.9867 250.682 30.456 250.341 31.032C250.021 31.608 249.786 32.248 249.637 32.952C249.509 33.656 249.445 34.328 249.445 34.968V43H245.797ZM272.533 43.224C271.168 43.224 269.984 43.0213 268.981 42.616C267.978 42.1893 267.136 41.6027 266.453 40.856C265.792 40.088 265.29 39.1813 264.949 38.136C264.629 37.0693 264.469 35.896 264.469 34.616C264.469 33.336 264.64 32.1627 264.981 31.096C265.344 30.0293 265.877 29.112 266.581 28.344C267.285 27.576 268.138 26.968 269.141 26.52C270.144 26.072 271.306 25.848 272.629 25.848C274.57 25.848 276.181 26.296 277.461 27.192C278.741 28.0667 279.552 29.464 279.893 31.384H276.149C275.957 30.6373 275.541 30.072 274.901 29.688C274.261 29.304 273.482 29.112 272.565 29.112C271.754 29.112 271.061 29.2613 270.485 29.56C269.909 29.8587 269.44 30.264 269.077 30.776C268.714 31.288 268.448 31.8853 268.277 32.568C268.128 33.2293 268.053 33.9227 268.053 34.648C268.053 35.3947 268.138 36.0987 268.309 36.76C268.48 37.4213 268.746 37.9973 269.109 38.488C269.472 38.9573 269.941 39.3413 270.517 39.64C271.093 39.9173 271.786 40.056 272.597 40.056C273.557 40.056 274.346 39.8427 274.965 39.416C275.605 38.9893 276.01 38.424 276.181 37.72H279.957C279.786 38.68 279.466 39.512 278.997 40.216C278.549 40.92 277.994 41.496 277.333 41.944C276.672 42.392 275.936 42.7227 275.125 42.936C274.314 43.128 273.45 43.224 272.533 43.224ZM298.662 26.136V40.312C298.662 41.272 298.64 42.2533 298.598 43.256C298.576 44.2587 298.406 45.24 298.086 46.2C297.595 47.736 296.71 48.9413 295.43 49.816C294.15 50.6907 292.432 51.128 290.278 51.128C288.998 51.128 287.76 50.9573 286.566 50.616C285.392 50.2747 284.283 49.7093 283.238 48.92C283.472 48.4293 283.696 47.9173 283.91 47.384C284.144 46.872 284.379 46.36 284.614 45.848C285.318 46.4027 286.118 46.872 287.014 47.256C287.931 47.64 288.976 47.832 290.15 47.832C291.28 47.832 292.166 47.64 292.806 47.256C293.446 46.872 293.926 46.3493 294.246 45.688C294.587 45.048 294.8 44.3013 294.886 43.448C294.992 42.616 295.046 41.7627 295.046 40.888C294.448 41.7413 293.702 42.3493 292.806 42.712C291.931 43.0747 290.939 43.256 289.83 43.256C288.571 43.256 287.494 43.064 286.598 42.68C285.702 42.296 284.998 41.7627 284.486 41.08C283.974 40.3973 283.611 39.5867 283.398 38.648C283.184 37.7093 283.078 36.6853 283.078 35.576V26.136H286.694V34.872C286.694 35.5547 286.736 36.216 286.822 36.856C286.928 37.4747 287.12 38.0293 287.398 38.52C287.696 38.9893 288.102 39.3733 288.614 39.672C289.126 39.9493 289.798 40.088 290.63 40.088C291.483 40.088 292.187 39.9173 292.742 39.576C293.318 39.2347 293.766 38.7973 294.086 38.264C294.427 37.7093 294.662 37.08 294.79 36.376C294.939 35.672 295.014 34.9467 295.014 34.2V26.136H298.662ZM324.545 20.376H328.897L321.633 31.64L329.121 43H324.737L319.329 34.584L313.793 43H309.569L317.089 31.672L309.793 20.376H314.209L319.393 28.792L324.545 20.376Z" fill="white"/>
<defs>
<filter id="filter0_f_2714_76781" x="0.54526" y="0.174899" width="53.7853" height="63.596" filterUnits="userSpaceOnUse" color-interpolation-filters="sRGB">
<feFlood flood-opacity="0" result="BackgroundImageFix"/>
<feBlend mode="normal" in="SourceGraphic" in2="BackgroundImageFix" result="shape"/>
<feGaussianBlur stdDeviation="5.6338" result="effect1_foregroundBlur_2714_76781"/>
</filter>
<filter id="filter1_i_2714_76781" x="12.3482" y="18.547" width="24.4277" height="33.7965" filterUnits="userSpaceOnUse" color-interpolation-filters="sRGB">
<feFlood flood-opacity="0" result="BackgroundImageFix"/>
<feBlend mode="normal" in="SourceGraphic" in2="BackgroundImageFix" result="shape"/>
<feColorMatrix in="SourceAlpha" type="matrix" values="0 0 0 0 0 0 0 0 0 0 0 0 0 0 0 0 0 0 127 0" result="hardAlpha"/>
<feOffset dy="2.25352"/>
<feGaussianBlur stdDeviation="1.12676"/>
<feComposite in2="hardAlpha" operator="arithmetic" k2="-1" k3="1"/>
<feColorMatrix type="matrix" values="0 0 0 0 0 0 0 0 0 0 0 0 0 0 0 0 0 0 0.25 0"/>
<feBlend mode="normal" in2="shape" result="effect1_innerShadow_2714_76781"/>
</filter>
<linearGradient id="paint0_linear_2714_76781" x1="11.8129" y1="52.5034" x2="52.3532" y2="24.0651" gradientUnits="userSpaceOnUse">
<stop stop-color="#AC50EF"/>
<stop offset="0.46875" stop-color="#7059FB"/>
<stop offset="1" stop-color="#2ECFF6"/>
</linearGradient>
<linearGradient id="paint1_linear_2714_76781" x1="11.8129" y1="52.5034" x2="52.3532" y2="24.065" gradientUnits="userSpaceOnUse">
<stop stop-color="#AC50EF"/>
<stop offset="0.46875" stop-color="#7059FB"/>
<stop offset="1" stop-color="#2ECFF6"/>
</linearGradient>
<linearGradient id="paint2_linear_2714_76781" x1="-1.41941e-06" y1="36.0845" x2="28.9648" y2="4.34199" gradientUnits="userSpaceOnUse">
<stop stop-color="#AC50EF"/>
<stop offset="0.46875" stop-color="#7059FB"/>
<stop offset="1" stop-color="#2ECFF6"/>
</linearGradient>
</defs>
</svg>
