<svg width="95" height="32" viewBox="0 0 95 32" fill="none" xmlns="http://www.w3.org/2000/svg">
<path opacity="0.3" d="M89.9072 5.91552H85.8076V0.176025H76.8056L72.6658 5.91552H65.3094L62.8496 8.3753V5.91552H57.1101V0.176025H39.0717V5.91552H13.695L9.55435 0.176025H0.535156V19.8543L12.0141 31.3333H23.4931V28.0535L26.7728 31.3333H48.9109V28.0535L52.1906 31.3333H62.8496V28.0535L66.1293 31.3333H86.6275L94.0068 23.9539V10.0152L89.9072 5.91552ZM14.4739 14.1148H8.73443V15.7546H14.4739V22.3141H5.45472L2.17501 19.0343V1.81588H8.73443V7.55537H14.4739V14.1148ZM39.0717 22.3141H19.3935L16.1138 19.0343V7.55537H22.6732V15.7546H24.313V7.55537H30.8725V15.7546H32.5123V7.55537H39.0717V22.3141ZM47.271 22.3141H40.7116V7.55537H47.271V22.3141ZM47.271 5.91552H40.7116V1.81588H47.271V5.91552ZM61.2098 14.1148H55.4703V15.7546H61.2098V22.3141H52.1906L48.9109 19.0343V1.81588H55.4703V7.55537H61.2098V14.1148ZM75.9684 14.1148H69.409V15.7546H75.9684V22.3141H66.1293L62.8496 19.0343V10.8351L66.1293 7.55537H75.9684V14.1148ZM92.367 22.3141H85.8076V14.1148H84.1677V22.3141H77.6083V1.81588H84.1677V7.55537H89.0873L92.367 10.8351V22.3141Z" fill="white"/>
</svg>
