<svg width="136" height="34" viewBox="0 0 136 34" fill="none" xmlns="http://www.w3.org/2000/svg">
<path opacity="0.4" d="M44.3256 13.3046C44.3256 10.8854 41.9732 8.31613 37.9024 8.31613C33.331 8.31613 28.3092 11.6696 27.5418 18.3597C26.7577 25.1166 30.962 28.1197 35.1996 28.1197C39.4373 28.1197 41.6562 26.468 43.9252 24.2658C41.9732 21.8133 39.454 22.9477 38.9701 23.198C38.4362 23.4649 37.7522 23.832 36.3508 23.832C34.7158 23.832 33.0474 23.0979 33.0474 20.0448C43.5248 19.0104 44.3256 15.7237 44.3256 13.3046ZM39.137 13.705C39.0702 14.4557 38.7699 15.7404 33.4645 16.4578C34.5823 12.4871 36.7178 12.1868 37.7022 12.1868C38.6198 12.1868 39.2037 12.9042 39.137 13.705ZM21.3855 14.3556C21.3855 14.3556 19.1332 21.4295 18.9497 22.0135C18.8829 21.4128 17.2313 8.71654 17.2313 8.71654C13.394 8.71654 11.3419 11.4527 10.2575 14.339C10.2575 14.339 7.52134 21.4295 7.28777 22.0301C7.27109 21.4796 6.87068 14.4224 6.87068 14.4224C6.63711 10.8854 3.40047 8.73323 0.781128 8.73323L3.95103 27.9695C7.9718 27.9529 10.1407 25.2334 11.2752 22.3471C11.2752 22.3471 13.6943 16.0907 13.7944 15.8071C13.8111 16.0741 15.5295 27.9695 15.5295 27.9695C19.567 27.9695 21.7359 25.4169 22.9037 22.6308L28.5595 8.73323C24.5721 8.73323 22.4699 11.4527 21.3855 14.3556ZM59.1407 8.28277C56.6549 8.28277 54.7529 9.63415 53.1513 11.6195V11.6028L54.5861 0.0410156C51.2827 0.0410156 48.5966 2.91061 48.0794 7.18164L45.5769 27.8194C47.4788 27.8194 49.4975 27.2688 50.582 25.8674C51.5496 27.1187 53.0011 28.1197 55.1533 28.1197C60.7257 28.1197 64.5463 21.6464 64.5463 15.5735C64.5129 10.0346 61.8268 8.28277 59.1407 8.28277ZM58.6235 18.2096C58.0396 21.5964 56.1543 23.8987 54.3358 23.8987C52.5006 23.8987 51.7165 23.0812 51.7165 23.0812C52.0668 20.1115 52.2837 18.293 52.9511 16.7247C53.6184 15.1565 55.2034 12.6539 56.8551 12.6539C58.4734 12.6539 59.2075 14.8061 58.6235 18.2096ZM78.4605 8.73323H74.5732L74.5898 8.53302C74.8568 5.9971 75.4574 4.6624 77.4428 4.44551C78.7941 4.31204 79.3947 3.61133 79.5449 2.84388C79.6617 2.24326 80.0287 0.157802 80.0287 0.157802C72.2208 0.10775 69.7683 3.47786 69.1343 8.61644L69.1176 8.73323H69.0342C67.7662 8.73323 66.3648 10.168 66.1312 11.9865L66.0478 12.6539H68.6504L66.4649 30.7057L65.7975 33.9423C65.8809 33.9423 65.981 33.959 66.0645 33.959C69.7182 33.8255 72.0539 30.9392 72.5711 26.7516L74.2728 12.6539H75.4908C76.692 12.6539 78.0934 11.4527 78.3437 9.45063L78.4605 8.73323ZM98.6811 8.39955C94.1932 8.39955 89.9555 11.7029 88.6542 16.8916C87.3529 22.0802 89.3215 28.2198 95.9283 28.2198C102.518 28.2198 106.322 21.8299 106.322 16.5078C106.322 11.2191 102.735 8.39955 98.6811 8.39955ZM100.5 18.0427C100.266 20.3951 99.2317 23.9654 96.3954 23.9654C93.5425 23.9654 93.9429 19.7945 94.2266 17.8092C94.5269 15.6903 95.7114 12.6706 98.264 12.6706C100.55 12.6706 100.767 15.39 100.5 18.0427ZM128.495 14.3556C128.495 14.3556 126.243 21.4295 126.059 22.0135C125.992 21.4128 124.341 8.71654 124.341 8.71654C120.503 8.71654 118.451 11.4527 117.367 14.339C117.367 14.339 114.631 21.4295 114.397 22.0301C114.38 21.4796 113.98 14.4224 113.98 14.4224C113.746 10.8854 110.51 8.73323 107.891 8.73323L111.044 27.9695C115.065 27.9529 117.233 25.2334 118.368 22.3471C118.368 22.3471 120.787 16.0907 120.87 15.8071C120.904 16.0741 122.606 27.9695 122.606 27.9695C126.643 27.9695 128.812 25.4169 129.98 22.6308L135.636 8.73323C131.665 8.73323 129.563 11.4527 128.495 14.3556ZM82.1309 0.157802L78.8609 26.5347L78.1935 29.7881C78.2769 29.7881 78.377 29.8047 78.4605 29.8047C81.9807 29.7547 84.4833 26.6682 84.9504 22.7809L86.8357 7.64878C87.4029 3.0274 84.6501 0.157802 82.1309 0.157802Z" fill="white"/>
</svg>
