<svg width="134" height="44" viewBox="0 0 134 44" fill="none" xmlns="http://www.w3.org/2000/svg">
<g opacity="0.3">
<path d="M17.1754 0H18.3508C22.4313 0.0896553 26.4453 1.74828 29.3283 4.68449C28.2638 5.78276 27.1771 6.83621 26.1348 7.93449C24.5159 6.45518 22.5644 5.31207 20.4354 4.90863C17.2863 4.23621 13.8932 4.84138 11.2542 6.6569C8.3712 8.56208 6.41964 11.7897 5.99828 15.2414C5.53257 18.6483 6.48617 22.2345 8.68168 24.8793C10.7885 27.4569 14.0041 29.0707 17.3306 29.1828C20.4354 29.3621 23.6732 28.3983 25.9352 26.2018C27.7094 24.6552 28.5299 22.3017 28.796 20.0155C25.1147 20.0155 21.4333 20.038 17.752 20.0155V15.3983H33.2536C34.0519 20.3517 32.8988 25.9328 29.173 29.4742C26.6892 31.9845 23.2518 33.4638 19.7479 33.7552C16.3549 34.0914 12.8509 33.4414 9.83487 31.7828C6.22005 29.8328 3.33707 26.538 1.91775 22.6604C0.587143 19.0966 0.564966 15.0621 1.80687 11.4759C2.93788 8.20346 5.11121 5.31207 7.90549 3.29483C10.5889 1.3 13.8489 0.201724 17.1754 0Z" fill="white"/>
<path d="M106.105 1.16602H110.851V33.1729C109.276 33.1729 107.679 33.1953 106.105 33.1505C106.127 22.5039 106.105 11.835 106.105 1.16602V1.16602Z" fill="white"/>
<path d="M43.8088 12.2613C46.7362 11.701 49.9075 12.3286 52.3247 14.0992C54.5202 15.6682 56.0504 18.1337 56.5162 20.8233C57.1149 23.9388 56.3609 27.3457 54.365 29.8112C52.2138 32.5681 48.6877 34.0474 45.2503 33.8233C42.1012 33.6439 39.0408 32.0526 37.178 29.4526C35.0712 26.5836 34.5611 22.6388 35.7143 19.2768C36.8675 15.6682 40.1275 12.9113 43.8088 12.2613V12.2613ZM44.4741 16.5199C43.2766 16.8337 42.1677 17.5285 41.3694 18.5147C39.2182 21.1147 39.3513 25.3509 41.7242 27.7716C43.077 29.1612 45.1173 29.8112 47.0023 29.4302C48.7543 29.1164 50.2845 27.9285 51.1272 26.3595C52.5909 23.6923 52.1695 20.0164 49.9296 17.932C48.4881 16.5872 46.3813 16.0268 44.4741 16.5199Z" fill="white"/>
<path d="M67.3145 12.26C70.6632 11.61 74.3224 12.5514 76.8284 14.9273C80.9089 18.6256 81.3525 25.5515 77.8707 29.8101C75.7639 32.4998 72.3487 33.9791 68.9778 33.8222C65.7622 33.7325 62.5909 32.1187 60.6837 29.4515C58.5325 26.5153 58.0668 22.4808 59.2865 19.0514C60.5063 15.5549 63.6997 12.8876 67.3145 12.26V12.26ZM67.9799 16.5187C66.7823 16.8325 65.6735 17.5273 64.8751 18.4911C62.7461 21.0463 62.8348 25.2153 65.119 27.6584C66.4718 29.1153 68.5786 29.8325 70.5302 29.4291C72.26 29.0929 73.8124 27.9273 74.6551 26.3584C76.0966 23.6687 75.6752 19.9928 73.4132 17.9083C71.9717 16.5635 69.8649 16.0256 67.9799 16.5187Z" fill="white"/>
<path d="M87.2541 13.5607C89.8045 11.947 93.1975 11.4987 95.9475 12.8883C96.8124 13.2694 97.522 13.9194 98.2095 14.5694C98.2317 13.9642 98.2095 13.3366 98.2317 12.709C99.7175 12.7314 101.203 12.709 102.711 12.7314V32.5004C102.689 35.4814 101.935 38.6418 99.8062 40.8159C97.4777 43.2142 93.9072 43.9538 90.6915 43.4607C87.2541 42.9452 84.2603 40.4124 82.9296 37.2073C84.2603 36.5573 85.6574 36.0418 87.0324 35.4366C87.8086 37.2745 89.3831 38.8435 91.3569 39.2021C93.3306 39.5607 95.6148 39.0676 96.9011 37.409C98.276 35.7056 98.276 33.3745 98.2095 31.29C97.1894 32.2987 96.014 33.1952 94.5947 33.5314C91.5121 34.4056 88.119 33.3297 85.7461 31.2228C83.351 29.1159 81.9317 25.8659 82.0648 22.6383C82.1313 18.9849 84.1716 15.4659 87.2541 13.5607V13.5607ZM91.8447 16.4297C90.492 16.6538 89.2279 17.4159 88.363 18.4694C86.2784 20.9797 86.2784 24.9918 88.3852 27.4573C89.5827 28.9142 91.5121 29.7211 93.3749 29.5193C95.1269 29.34 96.7458 28.2194 97.6107 26.6728C99.0744 24.0504 98.8305 20.4866 96.8567 18.2004C95.637 16.7883 93.6854 16.0935 91.8447 16.4297V16.4297Z" fill="white"/>
<path d="M116.547 14.7042C119.208 12.1938 123.31 11.3421 126.726 12.6645C129.964 13.8973 132.026 17.0128 133.068 20.218C128.256 22.2352 123.466 24.23 118.653 26.2473C119.319 27.5249 120.339 28.6904 121.714 29.1611C123.643 29.8559 125.95 29.6093 127.568 28.3093C128.212 27.8162 128.722 27.1662 129.21 26.5387C130.429 27.368 131.649 28.1749 132.869 29.0042C131.139 31.6266 128.234 33.4645 125.107 33.7559C121.647 34.1818 117.966 32.8369 115.726 30.1024C112.045 25.799 112.399 18.5818 116.547 14.7042V14.7042ZM118.919 18.8507C118.165 19.949 117.855 21.2938 117.877 22.6162C121.093 21.2714 124.308 19.9266 127.524 18.5593C126.992 17.3042 125.706 16.5421 124.397 16.3404C122.29 15.9593 120.095 17.1024 118.919 18.8507V18.8507Z" fill="white"/>
</g>
</svg>
