<svg width="163" height="33" viewBox="0 0 163 33" fill="none" xmlns="http://www.w3.org/2000/svg">
<g opacity="0.3">
<path d="M10.6431 32.1379H4.54688V16.7784H0.394043V11.7777H4.54671V8.21936C4.54671 4.00269 6.38345 0.978516 12.4631 0.978516C13.749 0.978516 15.7677 1.24046 15.7677 1.24046V5.8839H13.6474C11.4869 5.8839 10.6434 6.54809 10.6434 8.38434V11.7777H15.6868L15.2377 16.7784H10.6432L10.6431 32.1379ZM24.6309 11.3781C24.5421 11.3781 24.4507 11.3814 24.3602 11.3837C18.7075 11.3837 16.1212 15.6811 16.1212 21.7815C16.1212 29.4662 19.476 32.5419 24.4044 32.5419C27.2241 32.5419 29.0767 31.3424 30.2027 29.1039V32.14H36.0011V11.7799H30.2027V14.911C29.2833 12.8965 27.379 11.402 24.6309 11.3781ZM26.1052 16.1891C28.4794 16.1891 29.9044 17.8629 29.9044 20.7098L29.9099 23.6175C29.9099 25.5364 28.7329 27.7812 26.1052 27.7812C22.0655 27.7812 22.1734 23.3726 22.1734 21.9042C22.1734 16.965 24.3258 16.1891 26.1052 16.1891ZM38.3427 21.961C38.3427 19.4869 38.2256 11.3913 48.6613 11.3913C52.8504 11.3913 54.5996 12.7376 54.5996 12.7376L53.1937 17.1447C53.1937 17.1447 51.4467 16.1725 49.1704 16.1725C46.2549 16.1725 44.3946 17.8807 44.3946 20.8862L44.3978 23.0413C44.3978 25.9293 46.1928 27.8571 49.1764 27.8571C51.2502 27.8571 53.1615 26.8757 53.1615 26.8757L54.5638 31.1908C54.5638 31.1908 52.9644 32.5455 48.6906 32.5455C38.7541 32.5455 38.3429 25.2823 38.3429 21.961H38.3427ZM88.5974 11.3837C94.2503 11.3837 96.8773 15.6811 96.8773 21.7815C96.8773 29.4662 93.5224 32.5419 88.594 32.5419C85.7742 32.5419 83.6898 31.3425 82.5638 29.1039V32.14L76.8384 32.1377V1.59758L82.9173 1.06174V14.6351C83.7946 12.2604 86.678 11.3837 88.5975 11.3837H88.5974ZM86.8931 16.1891C84.5189 16.1891 82.9173 17.8629 82.9173 20.7098L82.9116 23.6175C82.9081 25.5364 84.0208 27.7812 86.8931 27.7812C90.9329 27.7812 90.825 23.3726 90.825 21.9042C90.825 16.965 88.6728 16.1891 86.8931 16.1891ZM65.1469 11.4005C58.7354 11.4005 55.3506 14.9335 55.3506 21.2121V22.3786C55.3506 30.5276 60.104 32.6256 65.7709 32.6256C71.2792 32.6256 73.7724 31.0685 73.7724 31.0685L72.6349 26.9218C72.6349 26.9218 69.7021 28.183 66.4998 28.183C63.18 28.183 61.7522 27.3278 61.3863 24.1033H74.2584V20.7767C74.2584 13.966 70.4596 11.4003 65.1468 11.4003L65.1469 11.4005ZM65.3014 15.5528C67.5208 15.5528 68.9589 16.9282 68.8799 20.1182H61.3974C61.5272 16.7608 63.078 15.5529 65.3014 15.5529V15.5528ZM108.998 11.3725C102.414 11.3725 98.948 15.1226 98.948 21.8428C98.948 31.0633 104.923 32.5475 109.009 32.5475C114.991 32.5475 118.971 29.2924 118.971 21.9265C118.971 14.2599 114.496 11.3725 108.998 11.3725V11.3725ZM108.915 16.2058C111.811 16.2058 112.958 18.3958 112.958 20.8885V23.0317C112.958 26.0514 111.353 27.7981 108.904 27.7981C106.615 27.7981 105.006 26.1643 105.006 23.0317V20.8885C105.006 17.5476 106.921 16.2058 108.915 16.2058V16.2058ZM131.081 11.3725C124.497 11.3725 121.031 15.1226 121.031 21.8428C121.031 31.0633 127.006 32.5475 131.092 32.5475C137.074 32.5475 141.055 29.2924 141.055 21.9265C141.055 14.2599 136.579 11.3725 131.081 11.3725V11.3725ZM130.999 16.2058C133.894 16.2058 135.041 18.3958 135.041 20.8885V23.0317C135.041 26.0514 133.436 27.7981 130.988 27.7981C128.698 27.7981 127.089 26.1643 127.089 23.0317V20.8885C127.089 17.5476 129.004 16.2058 130.999 16.2058V16.2058ZM143.352 32.1379V1.59758L149.448 1.06174V21.5318L155.497 11.7777H161.935L155.625 21.8801L162.178 32.1379H155.721L149.448 22.1776V32.1379H143.352Z" fill="white"/>
</g>
</svg>
