<svg width="99" height="33" viewBox="0 0 99 33" fill="none" xmlns="http://www.w3.org/2000/svg">
<g opacity="0.3">
<path d="M12.1018 0H12.9756C16.0092 0.0666522 18.9933 1.29972 21.1366 3.48258C20.3452 4.29906 19.5374 5.08223 18.7625 5.89872C17.559 4.79896 16.1081 3.94914 14.5254 3.64921C12.1843 3.14931 9.66177 3.59922 7.69983 4.94892C5.55655 6.36528 4.1057 8.76476 3.79245 11.3309C3.44623 13.8636 4.15516 16.5297 5.78736 18.496C7.35361 20.4122 9.7442 21.612 12.2172 21.6953C14.5254 21.8286 16.9325 21.1121 18.6141 19.4791C19.9331 18.3293 20.5431 16.5797 20.7409 14.8801C18.0041 14.8801 15.2673 14.8968 12.5305 14.8801V11.4475H24.0548C24.6483 15.13 23.791 19.2791 21.0212 21.9119C19.1747 23.7782 16.6192 24.8779 14.0143 25.0945C11.4918 25.3445 8.88689 24.8613 6.64468 23.6282C3.95732 22.1785 1.81403 19.729 0.758874 16.8463C-0.230336 14.1969 -0.246823 11.1976 0.67644 8.53148C1.51727 6.09867 3.13298 3.94914 5.21032 2.44947C7.20523 0.966456 9.62879 0.149967 12.1018 0Z" fill="white"/>
<path d="M78.2129 0.866699H81.7411V24.6615C80.5705 24.6615 79.3835 24.6781 78.2129 24.6448C78.2294 16.7299 78.2129 8.79829 78.2129 0.866699V0.866699Z" fill="white"/>
<path d="M31.9031 9.11461C34.0794 8.69804 36.437 9.1646 38.234 10.481C39.8662 11.6474 41.0038 13.4803 41.3501 15.4798C41.7952 17.796 41.2347 20.3287 39.7508 22.1617C38.1516 24.2112 35.5302 25.311 32.9747 25.1443C30.6336 25.011 28.3584 23.828 26.9735 21.8951C25.4073 19.7622 25.0281 16.8295 25.8854 14.3301C26.7427 11.6474 29.1663 9.59783 31.9031 9.11461V9.11461ZM32.3977 12.2806C31.5074 12.5138 30.6831 13.0304 30.0895 13.7636C28.4903 15.6965 28.5892 18.8458 30.3533 20.6453C31.359 21.6784 32.8758 22.1617 34.2772 21.8784C35.5797 21.6451 36.7173 20.762 37.3438 19.5956C38.4319 17.6127 38.1186 14.88 36.4535 13.3303C35.3818 12.3306 33.8156 11.914 32.3977 12.2806Z" fill="white"/>
<path d="M49.3784 9.11535C51.8679 8.63212 54.5882 9.33197 56.4512 11.0983C59.4848 13.8477 59.8146 18.9965 57.2261 22.1625C55.6599 24.1621 53.1209 25.2619 50.6149 25.1452C48.2243 25.0786 45.8667 23.8788 44.4488 21.8959C42.8496 19.7131 42.5034 16.7137 43.4101 14.1643C44.3169 11.5648 46.691 9.58191 49.3784 9.11535V9.11535ZM49.873 12.2813C48.9827 12.5146 48.1583 13.0312 47.5648 13.7477C45.9821 15.6473 46.048 18.7466 47.7462 20.5629C48.7519 21.646 50.3181 22.1792 51.769 21.8793C53.0549 21.6293 54.209 20.7628 54.8355 19.5964C55.9072 17.5968 55.5939 14.8641 53.9123 13.3144C52.8406 12.3147 51.2744 11.9147 49.873 12.2813Z" fill="white"/>
<path d="M64.2003 10.0809C66.0962 8.88112 68.6187 8.54786 70.6631 9.58097C71.3061 9.86424 71.8337 10.3475 72.3448 10.8307C72.3613 10.3808 72.3448 9.91423 72.3613 9.44766C73.4659 9.46432 74.5705 9.44766 75.6916 9.46432V24.1611C75.6751 26.3773 75.1146 28.7268 73.5318 30.3431C71.8007 32.126 69.1463 32.6759 66.7557 32.3093C64.2003 31.9261 61.9745 30.0431 60.9853 27.6603C61.9745 27.1771 63.0132 26.7939 64.0354 26.344C64.6124 27.7103 65.783 28.8767 67.2503 29.1433C68.7177 29.4099 70.4158 29.0434 71.372 27.8103C72.3942 26.5439 72.3942 24.811 72.3448 23.2613C71.5864 24.0111 70.7126 24.6777 69.6574 24.9276C67.3657 25.5775 64.8432 24.7776 63.0792 23.2113C61.2986 21.645 60.2434 19.2288 60.3423 16.8294C60.3918 14.1133 61.9086 11.4972 64.2003 10.0809V10.0809ZM67.613 12.2137C66.6073 12.3804 65.6676 12.9469 65.0246 13.7301C63.4748 15.5963 63.4748 18.579 65.0411 20.4119C65.9314 21.495 67.3657 22.0949 68.7506 21.9449C70.0531 21.8116 71.2566 20.9785 71.8996 19.8287C72.9878 17.8791 72.8064 15.2297 71.3391 13.5301C70.4323 12.4803 68.9815 11.9638 67.613 12.2137V12.2137Z" fill="white"/>
<path d="M85.9763 10.9306C87.9547 9.06432 91.0048 8.43112 93.5438 9.41424C95.9509 10.3307 97.4841 12.6469 98.259 15.0297C94.6814 16.5294 91.1202 18.0124 87.5426 19.512C88.0372 20.4618 88.7956 21.3283 89.8177 21.6782C91.2521 22.1948 92.9667 22.0115 94.1703 21.045C94.6484 20.6784 95.0276 20.1952 95.3903 19.7287C96.2971 20.3452 97.2039 20.9451 98.1106 21.5616C96.8247 23.5112 94.6649 24.8775 92.3402 25.0941C89.7683 25.4107 87.0315 24.411 85.3663 22.3781C82.6295 19.1788 82.8933 13.8133 85.9763 10.9306V10.9306ZM87.7404 14.0132C87.1799 14.8297 86.949 15.8295 86.9655 16.8126C89.3561 15.8128 91.7467 14.8131 94.1373 13.7966C93.7416 12.8635 92.7854 12.2969 91.8127 12.147C90.2464 11.8637 88.6142 12.7135 87.7404 14.0132V14.0132Z" fill="white"/>
</g>
</svg>
