<svg width="150" height="34" viewBox="0 0 150 34" fill="none" xmlns="http://www.w3.org/2000/svg">
<g opacity="0.3">
<path d="M25.349 33.393L15.5871 33.2124C12.4263 33.1496 9.2578 33.2752 6.15915 32.6238C1.44517 31.6505 1.11123 26.8783 0.761757 22.8753C0.280263 17.2476 0.466648 11.5179 1.37527 5.93728C1.88783 2.80554 3.907 0.937491 7.02895 0.733418C17.5675 -0.00438478 28.1759 0.0819538 38.6911 0.427308C39.8016 0.458704 40.9199 0.631381 42.015 0.827605C47.4201 1.78518 47.5521 7.19312 47.9016 11.7455C48.2511 16.345 48.1035 20.9681 47.4356 25.5361C46.8998 29.3193 45.8747 32.4903 41.549 32.7964C36.1283 33.1967 30.8319 33.5185 25.3956 33.4165C25.3956 33.393 25.3646 33.393 25.349 33.393V33.393ZM19.6099 23.8172C23.6949 21.4468 27.7021 19.1157 31.7638 16.761C27.6711 14.3906 23.6716 12.0595 19.6099 9.70478V23.8172Z" fill="white"/>
<path d="M126.202 29.0922C126.015 29.8614 125.852 30.4658 125.689 31.1094H121.868V1.32227H126.326V12.3109C126.559 12.0127 126.675 11.8871 126.776 11.7536C127.537 10.694 128.524 10.0033 129.797 9.73644C131.824 9.33614 133.556 10.2388 134.17 12.2089C134.566 13.4333 134.822 14.7441 134.853 16.0235C134.915 19.3123 134.869 22.5932 134.752 25.8819C134.705 26.8866 134.403 27.9148 134.022 28.8567C132.772 31.9649 128.687 32.4359 126.66 29.7437C126.536 29.5788 126.419 29.3983 126.202 29.0922V29.0922ZM126.419 20.8978V26.345C126.419 27.232 126.885 27.7735 127.763 27.9776C128.625 28.1817 129.324 27.8442 129.673 27.0357C129.821 26.6982 129.968 26.345 129.976 25.9918C130.061 22.6638 130.139 19.3358 130.162 16C130.162 15.3799 130.015 14.7363 129.828 14.1319C129.479 13.0409 128.516 12.7191 127.568 13.3548C126.854 13.8415 126.419 14.5322 126.419 15.4505V20.8978ZM114.304 10.1603H118.971V31.1251H115.329C115.197 30.3323 115.065 29.516 114.91 28.5584C114.661 28.9274 114.514 29.1628 114.358 29.3983C113.147 31.1643 111.431 31.7687 109.404 31.4469C107.672 31.1643 106.631 29.8143 106.398 27.6009C106.328 26.9415 106.297 26.2744 106.297 25.6151C106.282 20.7094 106.297 15.7881 106.297 10.8824V10.1446H111.019V11.0001C111.019 15.741 111.004 20.4739 111.035 25.2148C111.035 25.8898 111.105 26.5883 111.221 27.2634C111.353 27.9541 111.85 28.2052 112.518 28.1581C113.597 28.0718 114.343 27.2634 114.343 26.1802V11.0865C114.304 10.7804 114.304 10.4978 114.304 10.1603V10.1603ZM82.1683 10.1446H86.859V11.0315C86.859 15.7488 86.8434 20.4582 86.8745 25.1598C86.8745 25.8348 86.9366 26.5334 87.0764 27.1927C87.255 27.9698 87.7055 28.2209 88.4743 28.1189C89.5383 27.9698 90.1828 27.2241 90.1906 26.1331V11.1179V10.176H94.858V31.1251H91.2313C91.0992 30.348 90.9672 29.5474 90.7964 28.5349C90.5634 28.8881 90.4314 29.0922 90.2993 29.3041C89.0878 31.1015 87.3871 31.7609 85.3135 31.439C83.6516 31.1879 82.6343 29.9477 82.3236 27.9148C82.2382 27.2791 82.1761 26.6511 82.1761 26.0154C82.1605 20.9213 82.1605 15.8038 82.1605 10.7097L82.1683 10.1446ZM79.7608 21.3373C79.7453 22.0437 79.6987 22.7502 79.6599 23.4566C79.4813 25.5758 79.3958 28.582 77.7028 30.1283C76.6234 31.1015 75.2565 31.4547 73.8431 31.5018C73.2141 31.5175 72.5773 31.5175 71.9482 31.4312C68.9738 30.976 67.5915 29.6495 67.0944 26.345C66.5275 22.5304 66.4809 18.653 67.1566 14.8383C67.8555 10.8902 70.263 9.49312 74.0062 9.75214C77.5009 10.0033 79.0619 12.3188 79.4735 15.6154C79.6987 17.507 79.8074 19.4222 79.7608 21.3373V21.3373ZM75.008 20.6152C75.008 19.273 75.0391 17.923 74.9925 16.5808C74.9614 15.8038 74.8605 15.0188 74.6974 14.2496C74.511 13.3627 73.9518 12.9388 73.2529 12.9545C72.5695 12.9702 72.088 13.3941 71.8395 14.2182C71.7541 14.5244 71.6609 14.8383 71.6609 15.1444C71.6609 17.248 71.6453 19.3594 71.6298 21.4629C71.6143 23.4252 71.3658 25.4816 71.9793 27.3575C72.1657 27.9305 72.6471 28.2445 73.2762 28.2445C73.8897 28.2445 74.2935 27.9384 74.5188 27.3889C74.6974 26.9651 74.8527 26.502 74.8527 26.0468C74.9071 24.2415 75.008 22.4283 75.008 20.6152ZM60.2448 16.6671C60.6564 14.6342 61.0447 12.6484 61.4718 10.6548C62.0077 8.11954 62.6057 5.5843 63.1338 3.04121C63.2658 2.42113 63.5143 2.272 64.0967 2.2877C65.3471 2.33479 66.6207 2.3034 67.9565 2.3034C67.5216 3.9203 67.0944 5.45871 66.6751 6.97358C65.3471 11.7301 64.0191 16.5023 62.7066 21.2745C62.6057 21.6434 62.5591 22.0437 62.5591 22.4362C62.5435 25.0421 62.5591 27.6401 62.5591 30.246V31.0937H58.0004C57.9849 30.8582 57.9538 30.6227 57.9538 30.3873C57.9538 28.9117 57.8373 27.4282 57.9694 25.9683C58.3033 22.4597 57.2005 19.2338 56.3074 15.9686C55.127 11.6516 53.931 7.31893 52.7506 3.00196C52.6885 2.79789 52.6652 2.57811 52.603 2.32694H57.2549C58.2334 7.09131 59.2197 11.8557 60.2448 16.6671ZM149.438 22.1379H141.578C141.664 23.7313 141.695 25.2462 141.858 26.7453C141.974 27.7892 142.541 28.2366 143.434 28.2445C144.366 28.2602 144.91 27.7892 145.127 26.7532C145.197 26.4157 145.244 26.0781 145.275 25.7328C145.306 25.4267 145.322 25.097 145.345 24.6575C146.673 24.7281 147.97 24.8066 149.251 24.8615C149.997 27.0985 148.653 29.9713 146.393 30.8582C144.615 31.5646 142.79 31.5646 140.973 31.023C139.629 30.6227 138.627 29.7594 138.177 28.4329C137.758 27.1927 137.361 25.8976 137.276 24.6025C137.043 21.408 136.958 18.182 137.439 14.9796C137.525 14.4459 137.672 13.9357 137.835 13.4176C138.488 11.2827 139.909 9.97191 142.106 9.75214C143.302 9.6344 144.537 9.6815 145.718 9.88557C147.628 10.2231 148.645 11.6124 149.088 13.4333C149.29 14.2889 149.438 15.168 149.469 16.0392C149.476 18.0407 149.438 20.0265 149.438 22.1379ZM144.972 19.3829C144.972 17.8053 144.988 16.3218 144.957 14.8305C144.957 14.4773 144.825 14.1084 144.693 13.7708C144.429 13.1115 143.877 12.931 143.217 12.931C142.557 12.931 142.138 13.2685 141.974 13.8729C141.477 15.686 141.641 17.5384 141.656 19.3986C142.844 19.3829 143.924 19.3829 144.972 19.3829V19.3829Z" fill="white"/>
<path d="M98.4609 6.15043H93.8401V2.36719H107.632V6.12688H103.043V31.0947H98.4686L98.4609 6.15043Z" fill="white"/>
</g>
</svg>
