<svg width="111" height="29" viewBox="0 0 111 29" fill="none" xmlns="http://www.w3.org/2000/svg">
<path opacity="0.3" d="M36.0508 11.4978C36.0508 9.51215 34.1199 7.40322 30.7785 7.40322C27.0262 7.40322 22.9042 10.1558 22.2743 15.6472C21.6306 21.1934 25.0816 23.6584 28.56 23.6584C32.0383 23.6584 33.8597 22.3026 35.7221 20.495C34.1199 18.4819 32.052 19.4131 31.6549 19.6186C31.2167 19.8377 30.6552 20.1389 29.5049 20.1389C28.1628 20.1389 26.7934 19.5364 26.7934 17.0303C35.3934 16.1813 36.0508 13.4835 36.0508 11.4978ZM31.7918 11.8265C31.7371 12.4427 31.4906 13.4972 27.1358 14.086C28.0533 10.8268 29.8062 10.5803 30.6141 10.5803C31.3673 10.5803 31.8466 11.1692 31.7918 11.8265ZM17.2211 12.3606C17.2211 12.3606 15.3723 18.167 15.2217 18.6463C15.1669 18.1533 13.8112 7.73188 13.8112 7.73188C10.6615 7.73188 8.9771 9.97775 8.08697 12.3469C8.08697 12.3469 5.8411 18.167 5.64938 18.66C5.63568 18.208 5.30702 12.4153 5.30702 12.4153C5.1153 9.51215 2.4586 7.74558 0.308594 7.74558L2.91051 23.5351C6.21084 23.5214 7.99111 21.2893 8.92232 18.9201C8.92232 18.9201 10.908 13.7848 10.9902 13.552C11.0039 13.7711 12.4144 23.5351 12.4144 23.5351C15.7284 23.5351 17.5087 21.4399 18.4673 19.1529L23.1096 7.74558C19.8367 7.74558 18.1112 9.97775 17.2211 12.3606ZM48.2113 7.37583C46.1709 7.37583 44.6097 8.48507 43.2951 10.1147V10.101L44.4728 0.61084C41.7613 0.61084 39.5565 2.96626 39.132 6.47201L37.0778 23.4119C38.639 23.4119 40.296 22.96 41.1861 21.8096C41.9804 22.8367 43.1718 23.6584 44.9384 23.6584C49.5123 23.6584 52.6483 18.345 52.6483 13.3602C52.6209 8.81374 50.4161 7.37583 48.2113 7.37583ZM47.7868 15.524C47.3075 18.3039 45.76 20.1937 44.2674 20.1937C42.761 20.1937 42.1173 19.5227 42.1173 19.5227C42.4049 17.0851 42.583 15.5924 43.1307 14.3052C43.6785 13.0179 44.9795 10.9637 46.3352 10.9637C47.6635 10.9637 48.2661 12.7303 47.7868 15.524ZM64.0693 7.74558H60.8786L60.8923 7.58125C61.1114 5.49971 61.6044 4.40417 63.234 4.22614C64.3432 4.11659 64.8362 3.54142 64.9595 2.91149C65.0553 2.41849 65.3566 0.7067 65.3566 0.7067C58.9477 0.665617 56.9346 3.43187 56.4142 7.64972L56.4005 7.74558H56.332C55.2913 7.74558 54.141 8.92329 53.9492 10.416L53.8808 10.9637H56.0171L54.2231 25.781L53.6754 28.4377C53.7438 28.4377 53.826 28.4514 53.8945 28.4514C56.8935 28.3418 58.8107 25.9727 59.2352 22.5354L60.6321 10.9637H61.6317C62.6177 10.9637 63.7681 9.97775 63.9735 8.33444L64.0693 7.74558ZM80.6669 7.47169C76.9831 7.47169 73.5047 10.1832 72.4366 14.4421C71.3684 18.701 72.9843 23.7405 78.4073 23.7405C83.8165 23.7405 86.9388 18.4956 86.9388 14.1271C86.9388 9.78603 83.9946 7.47169 80.6669 7.47169ZM82.1595 15.387C81.9678 17.3179 81.1188 20.2485 78.7907 20.2485C76.449 20.2485 76.7777 16.8249 77.0105 15.1953C77.257 13.4561 78.2293 10.9774 80.3245 10.9774C82.2006 10.9774 82.3786 13.2096 82.1595 15.387ZM105.139 12.3606C105.139 12.3606 103.29 18.167 103.139 18.6463C103.084 18.1533 101.729 7.73188 101.729 7.73188C98.579 7.73188 96.8946 9.97775 96.0045 12.3469C96.0045 12.3469 93.7586 18.167 93.5669 18.66C93.5532 18.208 93.2245 12.4153 93.2245 12.4153C93.0328 9.51215 90.3761 7.74558 88.2261 7.74558L90.8143 23.5351C94.1147 23.5214 95.8949 21.2893 96.8261 18.9201C96.8261 18.9201 98.8118 13.7848 98.8803 13.552C98.9077 13.7711 100.305 23.5351 100.305 23.5351C103.619 23.5351 105.399 21.4399 106.357 19.1529L111 7.74558C107.741 7.74558 106.015 9.97775 105.139 12.3606ZM67.0821 0.7067L64.398 22.3574L63.8502 25.0278C63.9187 25.0278 64.0009 25.0415 64.0693 25.0415C66.9588 25.0004 69.013 22.467 69.3964 19.2762L70.9439 6.85545C71.4095 3.06212 69.1499 0.7067 67.0821 0.7067Z" fill="white"/>
</svg>
