<svg width="143" height="44" viewBox="0 0 143 44" fill="none" xmlns="http://www.w3.org/2000/svg">
<g opacity="0.3">
<path d="M21.0148 35.6646L12.7579 35.5119C10.0844 35.4588 7.40433 35.565 4.78339 35.014C0.79615 34.1908 0.513693 30.1543 0.218099 26.7685C-0.189165 22.0084 -0.0315143 17.162 0.737031 12.4417C1.17057 9.79277 2.87845 8.21271 5.51909 8.0401C14.4329 7.41604 23.4058 7.48907 32.2999 7.78118C33.2393 7.80774 34.1852 7.95379 35.1114 8.11977C39.6832 8.92971 39.7949 13.5039 40.0905 17.3545C40.3861 21.2449 40.2613 25.1552 39.6964 29.019C39.2431 32.219 38.3761 34.9011 34.7172 35.16C30.1323 35.4986 25.6524 35.7708 21.0542 35.6845C21.0542 35.6646 21.0279 35.6646 21.0148 35.6646V35.6646ZM16.1605 27.5651C19.6157 25.5602 23.0051 23.5884 26.4406 21.5967C22.9789 19.5918 19.596 17.62 16.1605 15.6284V27.5651Z" fill="white"/>
<path d="M106.319 32.0268C106.162 32.6774 106.024 33.1886 105.886 33.733H102.654V8.53809H106.425V17.8326C106.622 17.5804 106.72 17.4741 106.806 17.3613C107.449 16.465 108.284 15.8808 109.361 15.6551C111.075 15.3165 112.54 16.08 113.059 17.7463C113.394 18.782 113.611 19.8907 113.637 20.9729C113.69 23.7546 113.65 26.5297 113.552 29.3114C113.512 30.1612 113.256 31.0309 112.934 31.8276C111.877 34.4566 108.421 34.855 106.707 32.5778C106.602 32.4384 106.503 32.2857 106.319 32.0268V32.0268ZM106.503 25.0957V29.7031C106.503 30.4533 106.898 30.9114 107.64 31.084C108.369 31.2567 108.96 30.9712 109.256 30.2874C109.381 30.0019 109.505 29.7031 109.512 29.4044C109.584 26.5895 109.65 23.7745 109.67 20.953C109.67 20.4285 109.545 19.8841 109.387 19.3729C109.091 18.4501 108.277 18.1779 107.476 18.7156C106.871 19.1272 106.503 19.7115 106.503 20.4882V25.0957ZM96.2561 16.0136H100.204V33.7463H97.1232C97.0116 33.0757 96.8999 32.3853 96.7685 31.5753C96.5583 31.8874 96.4335 32.0865 96.3021 32.2857C95.2774 33.7795 93.8257 34.2907 92.1113 34.0185C90.6464 33.7795 89.7662 32.6376 89.5692 30.7654C89.51 30.2077 89.4838 29.6434 89.4838 29.0857C89.4706 24.9363 89.4838 20.7737 89.4838 16.6244V16.0003H93.4776V16.7239C93.4776 20.7339 93.4644 24.7372 93.4907 28.7471C93.4907 29.3181 93.5498 29.9089 93.6484 30.4799C93.76 31.0641 94.1804 31.2766 94.7453 31.2367C95.6584 31.1637 96.289 30.4799 96.289 29.5637V16.797C96.2561 16.538 96.2561 16.299 96.2561 16.0136V16.0136ZM69.0746 16.0003H73.0422V16.7505C73.0422 20.7405 73.029 24.7239 73.0553 28.7006C73.0553 29.2716 73.1079 29.8625 73.2261 30.4201C73.3772 31.0774 73.7582 31.2898 74.4085 31.2035C75.3084 31.0774 75.8536 30.4467 75.8602 29.5239V16.8235V16.0268H79.808V33.7463H76.7404C76.6287 33.089 76.517 32.4118 76.3725 31.5554C76.1755 31.8542 76.0638 32.0268 75.9521 32.206C74.9274 33.7264 73.4888 34.284 71.735 34.0118C70.3293 33.7994 69.4688 32.7504 69.206 31.0309C69.1338 30.4932 69.0812 29.9621 69.0812 29.4243C69.0681 25.1156 69.0681 20.787 69.0681 16.4783L69.0746 16.0003ZM67.0383 25.4675C67.0252 26.065 66.9858 26.6625 66.9529 27.26C66.8018 29.0525 66.7296 31.5952 65.2976 32.9031C64.3845 33.7264 63.2284 34.0251 62.0329 34.0649C61.5009 34.0782 60.9622 34.0782 60.4302 34.0052C57.9143 33.6201 56.7451 32.4981 56.3247 29.7031C55.8452 26.4766 55.8057 23.1969 56.3772 19.9704C56.9684 16.631 59.0047 15.4493 62.1709 15.6683C65.1268 15.8808 66.4471 17.8393 66.7953 20.6277C66.9858 22.2276 67.0777 23.8476 67.0383 25.4675V25.4675ZM63.0182 24.8567C63.0182 23.7214 63.0445 22.5795 63.0051 21.4443C62.9788 20.787 62.8934 20.1231 62.7555 19.4725C62.5978 18.7223 62.1249 18.3638 61.5337 18.377C60.9557 18.3903 60.5484 18.7488 60.3382 19.4459C60.2659 19.7048 60.1871 19.9704 60.1871 20.2293C60.1871 22.0086 60.174 23.7944 60.1608 25.5737C60.1477 27.2334 59.9375 28.9728 60.4564 30.5596C60.6141 31.0442 61.0213 31.3098 61.5534 31.3098C62.0723 31.3098 62.4139 31.0508 62.6044 30.5861C62.7555 30.2276 62.8869 29.8359 62.8869 29.4509C62.9328 27.9239 63.0182 26.3903 63.0182 24.8567ZM50.531 21.5173C50.8792 19.7978 51.2076 18.1181 51.5689 16.4318C52.0221 14.2874 52.5279 12.143 52.9746 9.99202C53.0863 9.46754 53.2965 9.3414 53.7891 9.35468C54.8467 9.39451 55.924 9.36796 57.0538 9.36796C56.686 10.7356 56.3247 12.0368 55.97 13.3181C54.8467 17.3414 53.7235 21.3779 52.6133 25.4144C52.5279 25.7264 52.4885 26.065 52.4885 26.3969C52.4754 28.6011 52.4885 30.7986 52.4885 33.0027V33.7197H48.6327C48.6195 33.5205 48.5933 33.3214 48.5933 33.1222C48.5933 31.8741 48.4947 30.6193 48.6064 29.3845C48.8889 26.4168 47.9561 23.6882 47.2007 20.9264C46.2022 17.275 45.1906 13.6103 44.1922 9.95883C44.1396 9.78621 44.1199 9.60032 44.0674 9.38787H48.0021C48.8297 13.4177 49.664 17.4476 50.531 21.5173ZM125.973 26.1446H119.326C119.398 27.4924 119.424 28.7737 119.562 30.0417C119.661 30.9247 120.14 31.3031 120.896 31.3098C121.684 31.323 122.144 30.9247 122.328 30.0484C122.387 29.7629 122.426 29.4774 122.452 29.1853C122.479 28.9264 122.492 28.6475 122.511 28.2758C123.635 28.3355 124.732 28.4019 125.816 28.4484C126.446 30.3405 125.31 32.7703 123.398 33.5205C121.894 34.118 120.35 34.118 118.813 33.66C117.677 33.3214 116.829 32.5911 116.448 31.4691C116.094 30.4201 115.759 29.3247 115.687 28.2293C115.489 25.5272 115.417 22.7986 115.824 20.0899C115.897 19.6384 116.022 19.2069 116.159 18.7687C116.711 16.9629 117.913 15.8542 119.772 15.6683C120.784 15.5688 121.828 15.6086 122.827 15.7812C124.443 16.0667 125.303 17.2418 125.678 18.782C125.848 19.5057 125.973 20.2492 125.999 20.9862C126.006 22.6791 125.973 24.3588 125.973 26.1446ZM122.196 23.8144C122.196 22.4799 122.209 21.2252 122.183 19.9638C122.183 19.665 122.071 19.353 121.96 19.0675C121.736 18.5098 121.27 18.3571 120.712 18.3571C120.153 18.3571 119.799 18.6426 119.661 19.1538C119.24 20.6874 119.378 22.2542 119.391 23.8276C120.396 23.8144 121.309 23.8144 122.196 23.8144V23.8144Z" fill="white"/>
<path d="M82.8557 12.6209H78.9473V9.4209H90.6133V12.601H86.7312V33.7196H82.8622L82.8557 12.6209Z" fill="white"/>
</g>
</svg>
