<svg width="143" height="44" viewBox="0 0 143 44" fill="none" xmlns="http://www.w3.org/2000/svg">
<g opacity="0.3" clip-path="url(#clip0_2741_137511)">
<path d="M13.4396 8.00049H14.4329C17.8811 8.07451 21.2732 9.44383 23.7094 11.8679C22.8099 12.7746 21.8916 13.6443 21.0108 14.551C19.6427 13.3298 17.9936 12.386 16.1945 12.053C13.5333 11.4978 10.6661 11.9974 8.43594 13.4963C5.99968 15.0692 4.35052 17.7338 3.99445 20.5835C3.6009 23.3962 4.40674 26.3569 6.26204 28.5404C8.04239 30.6684 10.7598 32.0007 13.5708 32.0932C16.1945 32.2413 18.9306 31.4456 20.8421 29.6321C22.3414 28.3553 23.0348 26.4124 23.2596 24.5249C20.1487 24.5249 17.0378 24.5434 13.9269 24.5249V20.713H27.0265C27.7011 24.8025 26.7266 29.4101 23.5782 32.3338C21.4793 34.4063 18.5745 35.6276 15.6135 35.8681C12.7462 36.1457 9.78525 35.6091 7.23655 34.2397C4.18185 32.6298 1.74559 29.9097 0.546201 26.7084C-0.578227 23.7662 -0.596968 20.4354 0.452498 17.4747C1.40826 14.7731 3.24483 12.386 5.60613 10.7206C7.87372 9.07374 10.6286 8.16703 13.4396 8.00049Z" fill="white"/>
<path d="M88.5894 8.96289H92.5998V35.3871C91.2692 35.3871 89.9199 35.4056 88.5894 35.3686C88.6081 26.579 88.5894 17.771 88.5894 8.96289V8.96289Z" fill="white"/>
<path d="M35.9463 18.1226C38.4201 17.66 41.0999 18.1782 43.1427 19.64C44.998 20.9353 46.2911 22.9708 46.6846 25.1913C47.1906 27.7634 46.5534 30.576 44.8668 32.6115C43.049 34.8875 40.0692 36.1088 37.1644 35.9237C34.5033 35.7757 31.9171 34.4619 30.3429 32.3154C28.5626 29.9469 28.1315 26.6901 29.106 23.9145C30.0805 20.9353 32.8354 18.6593 35.9463 18.1226V18.1226ZM36.5085 21.6385C35.4965 21.8975 34.5595 22.4711 33.8849 23.2853C32.067 25.4318 32.1795 28.9291 34.1847 30.9276C35.3279 32.0749 37.052 32.6115 38.6449 32.2969C40.1254 32.0378 41.4185 31.0571 42.1307 29.7618C43.3675 27.5598 43.0115 24.5251 41.1187 22.8042C39.9006 21.694 38.1202 21.2314 36.5085 21.6385Z" fill="white"/>
<path d="M55.8098 18.1225C58.6396 17.5859 61.7318 18.3631 63.8495 20.3246C67.2977 23.3778 67.6725 29.0957 64.7303 32.6115C62.9499 34.832 60.0639 36.0533 57.2153 35.9238C54.498 35.8498 51.8181 34.5175 50.2064 32.3154C48.3886 29.8914 47.995 26.5606 49.0257 23.7294C50.0565 20.8427 52.7551 18.6407 55.8098 18.1225V18.1225ZM56.372 21.6384C55.36 21.8974 54.423 22.4711 53.7484 23.2668C51.9493 25.3763 52.0242 28.8181 53.9545 30.8351C55.0977 32.0379 56.878 32.63 58.5272 32.2969C59.9889 32.0194 61.3008 31.0571 62.0129 29.7618C63.231 27.5413 62.875 24.5066 60.9634 22.7857C59.7453 21.6754 57.965 21.2313 56.372 21.6384Z" fill="white"/>
<path d="M72.6596 19.1954C74.8148 17.8631 77.6821 17.493 80.0059 18.6403C80.7368 18.9548 81.3365 19.4915 81.9174 20.0281C81.9362 19.5285 81.9174 19.0103 81.9362 18.4922C83.1918 18.5107 84.4474 18.4922 85.7218 18.5107V34.8316C85.703 37.2927 85.0658 39.9018 83.2668 41.6967C81.299 43.6767 78.2818 44.2873 75.5644 43.8802C72.6596 43.4546 70.1297 41.3636 69.0052 38.7175C70.1297 38.1809 71.3103 37.7553 72.4722 37.2557C73.1281 38.773 74.4587 40.0683 76.1266 40.3644C77.7945 40.6605 79.7248 40.2534 80.8118 38.884C81.9737 37.4777 81.9737 35.5533 81.9174 33.8323C81.0554 34.665 80.0621 35.4052 78.8627 35.6828C76.2578 36.4045 73.3905 35.5162 71.3853 33.7768C69.3613 32.0374 68.1619 29.3543 68.2744 26.6897C68.3306 23.6734 70.0547 20.7683 72.6596 19.1954V19.1954ZM76.5389 21.564C75.3957 21.749 74.3275 22.3781 73.5967 23.2478C71.8351 25.3203 71.8351 28.6326 73.6154 30.6681C74.6274 31.8709 76.2578 32.537 77.832 32.3705C79.3125 32.2225 80.6806 31.2972 81.4114 30.0204C82.6483 27.8554 82.4422 24.9132 80.7743 23.0258C79.7435 21.86 78.0944 21.2864 76.5389 21.564V21.564Z" fill="white"/>
<path d="M97.413 20.1394C99.6618 18.0669 103.129 17.3638 106.015 18.4555C108.751 19.4733 110.494 22.0454 111.375 24.6915C107.308 26.3569 103.26 28.0038 99.1933 29.6692C99.7555 30.7239 100.618 31.6862 101.78 32.0748C103.41 32.6484 105.359 32.4449 106.727 31.3716C107.27 30.9645 107.701 30.4279 108.114 29.9098C109.145 30.5944 110.175 31.2606 111.206 31.9452C109.744 34.1102 107.289 35.6276 104.647 35.8682C101.723 36.2197 98.6124 35.1095 96.7196 32.852C93.6087 29.2991 93.9085 23.3407 97.413 20.1394V20.1394ZM99.4182 23.5627C98.781 24.4695 98.5187 25.5797 98.5374 26.6715C101.255 25.5612 103.972 24.451 106.69 23.3222C106.24 22.2859 105.153 21.6568 104.047 21.4903C102.267 21.1757 100.411 22.1194 99.4182 23.5627V23.5627Z" fill="white"/>
</g>
<defs>
<clipPath id="clip0_2741_137511">
<rect width="143" height="44" fill="white"/>
</clipPath>
</defs>
</svg>
