<svg width="137" height="28" viewBox="0 0 137 28" fill="none" xmlns="http://www.w3.org/2000/svg">
<g opacity="0.4">
<path d="M8.71669 26.9595H3.56513V13.98H0.0557861V9.75418H3.56499V6.74719C3.56499 3.1839 5.11712 0.628326 10.2547 0.628326C11.3414 0.628326 13.0473 0.849685 13.0473 0.849685V4.77362H11.2555C9.4298 4.77362 8.71697 5.33489 8.71697 6.88661V9.75418H12.9789L12.5994 13.98H8.71683L8.71669 26.9595ZM20.5371 9.41648C20.462 9.41648 20.3848 9.41924 20.3084 9.42118C15.5315 9.42118 13.346 13.0527 13.346 18.2078C13.346 24.7018 16.1809 27.3009 20.3457 27.3009C22.7285 27.3009 24.294 26.2873 25.2456 24.3956V26.9613H30.1454V9.75598H25.2456V12.4019C24.4686 10.6996 22.8593 9.43665 20.5371 9.41648ZM21.783 13.482C23.7893 13.482 24.9935 14.8964 24.9935 17.3022L24.9981 19.7594C24.9981 21.3809 24.0035 23.2779 21.783 23.2779C18.3692 23.2779 18.4604 19.5524 18.4604 18.3116C18.4604 14.1377 20.2792 13.482 21.783 13.482ZM32.1242 18.3595C32.1242 16.2688 32.0253 9.42767 40.8439 9.42767C44.3839 9.42767 45.8621 10.5653 45.8621 10.5653L44.674 14.2895C44.674 14.2895 43.1978 13.4679 41.2742 13.4679C38.8104 13.4679 37.2384 14.9115 37.2384 17.4513L37.2411 19.2725C37.2411 21.7129 38.7579 23.342 41.2792 23.342C43.0317 23.342 44.6468 22.5127 44.6468 22.5127L45.8319 26.1592C45.8319 26.1592 44.4803 27.304 40.8687 27.304C32.4719 27.304 32.1244 21.1662 32.1244 18.3595H32.1242ZM74.5918 9.42118C79.3688 9.42118 81.5888 13.0527 81.5888 18.2078C81.5888 24.7018 78.7537 27.3009 74.5889 27.3009C72.2061 27.3009 70.4447 26.2874 69.4932 24.3956V26.9613L64.6549 26.9593V1.15146L69.7919 0.698658V12.1688C70.5333 10.1621 72.9698 9.42118 74.5919 9.42118H74.5918ZM73.1517 13.482C71.1454 13.482 69.7919 14.8964 69.7919 17.3022L69.7871 19.7594C69.7841 21.3809 70.7244 23.2779 73.1517 23.2779C76.5654 23.2779 76.4742 19.5524 76.4742 18.3116C76.4742 14.1377 74.6555 13.482 73.1517 13.482ZM54.7751 9.43541C49.3571 9.43541 46.4967 12.421 46.4967 17.7267V18.7124C46.4967 25.5987 50.5135 27.3717 55.3024 27.3717C59.9571 27.3717 62.0641 26.0558 62.0641 26.0558L61.1028 22.5517C61.1028 22.5517 58.6244 23.6174 55.9183 23.6174C53.1129 23.6174 51.9064 22.8947 51.5971 20.1699H62.4747V17.3587C62.4747 11.6034 59.2645 9.43527 54.7749 9.43527L54.7751 9.43541ZM54.9056 12.9443C56.7811 12.9443 57.9964 14.1066 57.9296 16.8023H51.6066C51.7162 13.9651 53.0268 12.9444 54.9056 12.9444V12.9443ZM91.8316 9.41178C86.2677 9.41178 83.3386 12.5807 83.3386 18.2596C83.3386 26.0514 88.3877 27.3056 91.8409 27.3056C96.8961 27.3056 100.259 24.5549 100.259 18.3304C100.259 11.8517 96.4777 9.41178 91.8316 9.41178V9.41178ZM91.7616 13.4961C94.2081 13.4961 95.1776 15.3467 95.1776 17.4532V19.2643C95.1776 21.8161 93.8211 23.2921 91.7523 23.2921C89.8175 23.2921 88.4577 21.9115 88.4577 19.2643V17.4532C88.4577 14.63 90.0758 13.4961 91.7616 13.4961V13.4961ZM110.493 9.41178C104.929 9.41178 102 12.5807 102 18.2596C102 26.0514 107.049 27.3056 110.502 27.3056C115.557 27.3056 118.921 24.5549 118.921 18.3304C118.921 11.8517 115.139 9.41178 110.493 9.41178V9.41178ZM110.423 13.4961C112.869 13.4961 113.839 15.3467 113.839 17.4532V19.2643C113.839 21.8161 112.482 23.2921 110.414 23.2921C108.479 23.2921 107.119 21.9115 107.119 19.2643V17.4532C107.119 14.63 108.737 13.4961 110.423 13.4961V13.4961ZM120.862 26.9595V1.15146L126.014 0.698658V17.9968L131.125 9.75418H136.566L131.234 18.2911L136.771 26.9595H131.315L126.014 18.5426V26.9595H120.862Z" fill="white"/>
</g>
</svg>
