<svg width="111" height="25" viewBox="0 0 111 25" fill="none" xmlns="http://www.w3.org/2000/svg">
<g opacity="0.3">
<path d="M18.7244 24.7109L11.4672 24.5767C9.11737 24.53 6.76179 24.6233 4.45817 24.139C0.953666 23.4155 0.705407 19.8677 0.4456 16.8918C0.0876438 12.708 0.226207 8.44835 0.901705 4.29957C1.28275 1.97136 2.78386 0.582595 5.1048 0.430881C12.9394 -0.117621 20.826 -0.053435 28.6433 0.203311C29.4689 0.226651 30.3003 0.355024 31.1143 0.500903C35.1327 1.21279 35.2308 5.2332 35.4906 8.61757C35.7505 12.037 35.6408 15.4739 35.1442 18.8699C34.7459 21.6824 33.9838 24.0398 30.7679 24.2674C26.738 24.565 22.8005 24.8042 18.7591 24.7284C18.7591 24.7109 18.736 24.7109 18.7244 24.7109V24.7109ZM14.4578 17.592C17.4947 15.8298 20.4738 14.0968 23.4933 12.3462C20.4507 10.584 17.4774 8.85098 14.4578 7.10044V17.592Z" fill="white"/>
<path d="M93.7016 21.5136C93.563 22.0854 93.4417 22.5347 93.3205 23.0132H90.48V0.868652H93.7939V9.03792C93.9671 8.81618 94.0537 8.72282 94.1288 8.62362C94.6946 7.83587 95.4278 7.32237 96.3747 7.12398C97.8816 6.82638 99.169 7.49743 99.6251 8.96206C99.9196 9.87235 100.11 10.8468 100.133 11.798C100.179 14.2429 100.145 16.682 100.058 19.127C100.024 19.8739 99.7983 20.6383 99.5154 21.3385C98.5859 23.6492 95.5491 23.9993 94.0422 21.9979C93.9498 21.8753 93.8632 21.7411 93.7016 21.5136V21.5136ZM93.8632 15.4216V19.4712C93.8632 20.1306 94.2096 20.5332 94.862 20.685C95.5029 20.8367 96.0225 20.5858 96.2823 19.9847C96.392 19.7338 96.5017 19.4712 96.5075 19.2087C96.571 16.7345 96.6287 14.2604 96.646 11.7805C96.646 11.3195 96.5363 10.841 96.3978 10.3917C96.138 9.58059 95.4221 9.34135 94.7177 9.814C94.1865 10.1758 93.8632 10.6893 93.8632 11.372V15.4216ZM84.8566 7.43908H88.3264V23.0249H85.6187C85.5205 22.4355 85.4224 21.8287 85.3069 21.1168C85.1222 21.391 85.0125 21.5661 84.897 21.7411C83.9963 23.054 82.7204 23.5034 81.2135 23.2641C79.926 23.054 79.1524 22.0504 78.9792 20.4049C78.9272 19.9147 78.9041 19.4187 78.9041 18.9286C78.8926 15.2816 78.9041 11.6229 78.9041 7.97592V7.42741H82.4144V8.06344C82.4144 11.5879 82.4029 15.1065 82.426 18.631C82.426 19.1328 82.4779 19.6521 82.5645 20.154C82.6627 20.6675 83.0322 20.8542 83.5287 20.8192C84.3312 20.755 84.8855 20.154 84.8855 19.3487V8.12763C84.8566 7.90006 84.8566 7.68999 84.8566 7.43908V7.43908ZM60.966 7.42741H64.4531V8.08678C64.4531 11.5937 64.4416 15.0948 64.4647 18.5901C64.4647 19.092 64.5109 19.6113 64.6148 20.1014C64.7476 20.6791 65.0824 20.8659 65.654 20.79C66.445 20.6791 66.9242 20.1248 66.9299 19.3137V8.15097V7.45075H70.3998V23.0249H67.7036C67.6054 22.4472 67.5073 21.852 67.3803 21.0993C67.2071 21.3618 67.1089 21.5136 67.0108 21.6711C66.1101 23.0074 64.8457 23.4975 63.3042 23.2583C62.0687 23.0716 61.3124 22.1496 61.0814 20.6383C61.0179 20.1656 60.9717 19.6988 60.9717 19.2262C60.9602 15.4391 60.9602 11.6346 60.9602 7.84754L60.966 7.42741ZM59.1762 15.7484C59.1646 16.2736 59.13 16.7987 59.1011 17.3239C58.9683 18.8994 58.9048 21.1343 57.6462 22.2838C56.8437 23.0074 55.8276 23.27 54.7768 23.305C54.3091 23.3166 53.8357 23.3166 53.3681 23.2524C51.1568 22.914 50.1291 21.9279 49.7596 19.4712C49.3382 16.6353 49.3035 13.7528 49.8058 10.9169C50.3254 7.98175 52.1152 6.94309 54.898 7.13565C57.4961 7.32237 58.6566 9.04376 58.9626 11.4945C59.13 12.9008 59.2108 14.3246 59.1762 15.7484V15.7484ZM55.6428 15.2116C55.6428 14.2137 55.6659 13.2101 55.6313 12.2123C55.6082 11.6346 55.5331 11.0511 55.4119 10.4792C55.2733 9.81984 54.8576 9.50474 54.338 9.51641C53.8299 9.52808 53.472 9.84318 53.2872 10.4559C53.2237 10.6834 53.1544 10.9169 53.1544 11.1444C53.1544 12.7083 53.1429 14.2779 53.1313 15.8418C53.1198 17.3005 52.935 18.8294 53.3911 20.224C53.5297 20.6499 53.8877 20.8834 54.3553 20.8834C54.8114 20.8834 55.1116 20.6558 55.2791 20.2473C55.4119 19.9322 55.5273 19.5879 55.5273 19.2495C55.5677 17.9074 55.6428 16.5595 55.6428 15.2116ZM44.6674 12.2765C44.9734 10.7651 45.2621 9.28883 45.5796 7.8067C45.978 5.92193 46.4226 4.03716 46.8152 2.14656C46.9133 1.68558 47.0981 1.57471 47.5311 1.58638C48.4606 1.62139 49.4075 1.59805 50.4005 1.59805C50.0772 2.8001 49.7596 3.9438 49.4479 5.06999C48.4606 8.60612 47.4733 12.1539 46.4976 15.7017C46.4226 15.976 46.3879 16.2736 46.3879 16.5653C46.3764 18.5026 46.3879 20.434 46.3879 22.3713V23.0015H42.9989C42.9873 22.8265 42.9643 22.6514 42.9643 22.4764C42.9643 21.3793 42.8777 20.2765 42.9758 19.1912C43.2241 16.5828 42.4042 14.1846 41.7403 11.7571C40.8627 8.54776 39.9736 5.32674 39.096 2.11738C39.0498 1.96567 39.0325 1.80228 38.9863 1.61556H42.4446C43.1721 5.15752 43.9053 8.69948 44.6674 12.2765ZM110.976 16.3436H105.133C105.197 17.5281 105.22 18.6543 105.341 19.7688C105.427 20.5449 105.849 20.8775 106.513 20.8834C107.206 20.895 107.61 20.5449 107.772 19.7747C107.823 19.5238 107.858 19.2728 107.881 19.0161C107.904 18.7885 107.916 18.5434 107.933 18.2167C108.92 18.2692 109.885 18.3275 110.837 18.3684C111.391 20.0314 110.393 22.1671 108.713 22.8265C107.39 23.3516 106.034 23.3516 104.683 22.949C103.684 22.6514 102.939 22.0095 102.604 21.0234C102.292 20.1014 101.998 19.1386 101.935 18.1758C101.761 15.8009 101.698 13.4026 102.056 11.0219C102.119 10.6251 102.229 10.2458 102.35 9.86068C102.835 8.27351 103.892 7.29903 105.526 7.13565C106.415 7.04812 107.333 7.08313 108.21 7.23485C109.631 7.48576 110.387 8.51859 110.716 9.87235C110.866 10.5084 110.976 11.1619 110.999 11.8096C111.005 13.2976 110.976 14.7739 110.976 16.3436ZM107.656 14.2954C107.656 13.1226 107.668 12.0197 107.645 10.911C107.645 10.6484 107.546 10.3742 107.448 10.1233C107.252 9.63311 106.842 9.4989 106.351 9.4989C105.86 9.4989 105.549 9.74981 105.427 10.1991C105.058 11.5471 105.179 12.9242 105.191 14.3071C106.074 14.2954 106.877 14.2954 107.656 14.2954V14.2954Z" fill="white"/>
<path d="M73.0797 4.45734H69.6445V1.64478H79.8982V4.43984H76.4861V23.0016H73.0855L73.0797 4.45734Z" fill="white"/>
</g>
</svg>
