<svg width="143" height="44" viewBox="0 0 143 44" fill="none" xmlns="http://www.w3.org/2000/svg">
<g opacity="0.3">
<path d="M47.6172 21.2635C47.6172 18.8444 45.2648 16.2751 41.194 16.2751C36.6227 16.2751 31.6009 19.6285 30.8334 26.3187C30.0493 33.0756 34.2536 36.0787 38.4912 36.0787C42.7289 36.0787 44.9478 34.427 47.2168 32.2247C45.2648 29.7722 42.7456 30.9067 42.2618 31.157C41.7279 31.4239 41.0438 31.791 39.6424 31.791C38.0074 31.791 36.339 31.0569 36.339 28.0038C46.8164 26.9694 47.6172 23.6827 47.6172 21.2635ZM42.4286 21.664C42.3619 22.4147 42.0615 23.6994 36.7561 24.4168C37.8739 20.446 40.0095 20.1457 40.9938 20.1457C41.9114 20.1457 42.4953 20.8631 42.4286 21.664ZM24.6771 22.3146C24.6771 22.3146 22.4248 29.3885 22.2413 29.9724C22.1746 29.3718 20.5229 16.6755 20.5229 16.6755C16.6856 16.6755 14.6335 19.4117 13.5491 22.2979C13.5491 22.2979 10.813 29.3885 10.5794 29.9891C10.5627 29.4386 10.1623 22.3814 10.1623 22.3814C9.92873 18.8444 6.6921 16.6922 4.07275 16.6922L7.24266 35.9285C11.2634 35.9118 13.4323 33.1924 14.5668 30.3061C14.5668 30.3061 16.9859 24.0497 17.086 23.7661C17.1027 24.033 18.8211 35.9285 18.8211 35.9285C22.8586 35.9285 25.0275 33.3759 26.1953 30.5897L31.8511 16.6922C27.8637 16.6922 25.7616 19.4117 24.6771 22.3146ZM62.4324 16.2418C59.9465 16.2418 58.0445 17.5931 56.4429 19.5785V19.5618L57.8777 8C54.5743 8 51.8883 10.8696 51.3711 15.1406L48.8685 35.7784C50.7704 35.7784 52.7892 35.2278 53.8736 33.8264C54.8413 35.0777 56.2928 36.0787 58.4449 36.0787C64.0173 36.0787 67.8379 29.6054 67.8379 23.5325C67.8045 17.9935 65.1184 16.2418 62.4324 16.2418ZM61.9152 26.1686C61.3312 29.5553 59.446 31.8577 57.6274 31.8577C55.7922 31.8577 55.0081 31.0402 55.0081 31.0402C55.3585 28.0705 55.5754 26.252 56.2427 24.6837C56.9101 23.1154 58.495 20.6129 60.1467 20.6129C61.765 20.6129 62.4991 22.7651 61.9152 26.1686ZM81.7521 16.6922H77.8648L77.8815 16.492C78.1484 13.9561 78.749 12.6214 80.7344 12.4045C82.0858 12.271 82.6864 11.5703 82.8365 10.8029C82.9533 10.2022 83.3204 8.11679 83.3204 8.11679C75.5124 8.06673 73.0599 11.4368 72.4259 16.5754L72.4092 16.6922H72.3258C71.0578 16.6922 69.6564 18.127 69.4228 19.9455L69.3394 20.6129H71.9421L69.7565 38.6647L69.0892 41.9013C69.1726 41.9013 69.2727 41.918 69.3561 41.918C73.0098 41.7845 75.3455 38.8982 75.8627 34.7106L77.5645 20.6129H78.7824C79.9836 20.6129 81.385 19.4117 81.6353 17.4096L81.7521 16.6922ZM101.973 16.3585C97.4848 16.3585 93.2472 19.6619 91.9458 24.8505C90.6445 30.0392 92.6132 36.1788 99.2199 36.1788C105.81 36.1788 109.614 29.7889 109.614 24.4668C109.614 19.1781 106.027 16.3585 101.973 16.3585ZM103.791 26.0017C103.558 28.3541 102.523 31.9244 99.6871 31.9244C96.8342 31.9244 97.2346 27.7535 97.5182 25.7681C97.8185 23.6493 99.003 20.6296 101.556 20.6296C103.841 20.6296 104.058 23.349 103.791 26.0017ZM131.787 22.3146C131.787 22.3146 129.534 29.3885 129.351 29.9724C129.284 29.3718 127.632 16.6755 127.632 16.6755C123.795 16.6755 121.743 19.4117 120.658 22.2979C120.658 22.2979 117.922 29.3885 117.689 29.9891C117.672 29.4386 117.272 22.3814 117.272 22.3814C117.038 18.8444 113.801 16.6922 111.182 16.6922L114.335 35.9285C118.356 35.9118 120.525 33.1924 121.66 30.3061C121.66 30.3061 124.079 24.0497 124.162 23.7661C124.195 24.033 125.897 35.9285 125.897 35.9285C129.935 35.9285 132.104 33.3759 133.271 30.5897L138.927 16.6922C134.956 16.6922 132.854 19.4117 131.787 22.3146ZM85.4225 8.11679L82.1525 34.4937L81.4851 37.747C81.5686 37.747 81.6687 37.7637 81.7521 37.7637C85.2723 37.7137 87.7749 34.6272 88.242 30.7399L90.1273 15.6078C90.6945 10.9864 87.9417 8.11679 85.4225 8.11679Z" fill="white"/>
</g>
</svg>
