<svg width="161" height="41" viewBox="0 0 161 41" fill="none" xmlns="http://www.w3.org/2000/svg">
<path opacity="0.3" d="M52.4167 15.93C52.4167 13.0673 49.6329 10.0269 44.8157 10.0269C39.4061 10.0269 33.4635 13.9952 32.5553 21.9121C31.6274 29.908 36.6026 33.4617 41.6173 33.4617C46.632 33.4617 49.2578 31.5071 51.9429 28.9011C49.6329 25.9989 46.6518 27.3414 46.0792 27.6375C45.4474 27.9534 44.638 28.3878 42.9796 28.3878C41.0448 28.3878 39.0705 27.5191 39.0705 23.9061C51.469 22.6821 52.4167 18.7927 52.4167 15.93ZM46.2766 16.4038C46.1977 17.2922 45.8423 18.8125 39.5641 19.6614C40.8868 14.9626 43.4139 14.6072 44.5788 14.6072C45.6646 14.6072 46.3556 15.4562 46.2766 16.4038ZM25.2702 17.1738C25.2702 17.1738 22.6049 25.5448 22.3877 26.2358C22.3088 25.525 20.3542 10.5007 20.3542 10.5007C15.8133 10.5007 13.385 13.7385 12.1017 17.154C12.1017 17.154 8.86383 25.5448 8.58743 26.2555C8.56769 25.604 8.09386 17.2528 8.09386 17.2528C7.81746 13.0673 3.98733 10.5204 0.887695 10.5204L4.63885 33.284C9.39689 33.2643 11.9635 30.0462 13.306 26.6306C13.306 26.6306 16.1687 19.2271 16.2872 18.8914C16.3069 19.2073 18.3404 33.284 18.3404 33.284C23.1182 33.284 25.6848 30.2633 27.0668 26.9663L33.7596 10.5204C29.0411 10.5204 26.5535 13.7385 25.2702 17.1738ZM69.9484 9.98737C67.0067 9.98737 64.756 11.5865 62.8607 13.936V13.9162L64.5586 0.234375C60.6495 0.234375 57.4709 3.63015 56.8588 8.68434L53.8974 33.1063C56.1481 33.1063 58.537 32.4548 59.8203 30.7964C60.9654 32.2771 62.683 33.4617 65.2298 33.4617C71.824 33.4617 76.3451 25.8014 76.3451 18.615C76.3056 12.0604 73.127 9.98737 69.9484 9.98737ZM69.3364 21.7344C68.6454 25.7422 66.4144 28.4667 64.2624 28.4667C62.0907 28.4667 61.1628 27.4993 61.1628 27.4993C61.5774 23.9851 61.8341 21.8331 62.6238 19.9773C63.4135 18.1214 65.2891 15.16 67.2436 15.16C69.1587 15.16 70.0274 17.7068 69.3364 21.7344ZM92.8107 10.5204H88.2106L88.2303 10.2835C88.5462 7.28259 89.2569 5.70316 91.6064 5.4465C93.2055 5.28856 93.9163 4.45936 94.094 3.55118C94.2322 2.84044 94.6665 0.372575 94.6665 0.372575C85.4268 0.313347 82.5246 4.30141 81.7744 10.3822L81.7546 10.5204H81.6559C80.1555 10.5204 78.4971 12.2183 78.2207 14.3703L78.122 15.16H81.2018L78.6155 36.5218L77.8258 40.352C77.9245 40.352 78.043 40.3717 78.1417 40.3717C82.4654 40.2138 85.2294 36.7982 85.8414 31.8428L87.8552 15.16H89.2964C90.7179 15.16 92.3763 13.7385 92.6725 11.3694L92.8107 10.5204ZM116.739 10.1256C111.428 10.1256 106.414 14.0347 104.874 20.1747C103.334 26.3148 105.663 33.5801 113.481 33.5801C121.28 33.5801 125.781 26.0186 125.781 19.7206C125.781 13.4621 121.537 10.1256 116.739 10.1256ZM118.891 21.537C118.615 24.3207 117.391 28.5457 114.034 28.5457C110.658 28.5457 111.132 23.61 111.468 21.2606C111.823 18.7532 113.225 15.1798 116.246 15.1798C118.95 15.1798 119.207 18.3979 118.891 21.537ZM152.02 17.1738C152.02 17.1738 149.354 25.5448 149.137 26.2358C149.058 25.525 147.104 10.5007 147.104 10.5007C142.563 10.5007 140.134 13.7385 138.851 17.154C138.851 17.154 135.613 25.5448 135.337 26.2555C135.317 25.604 134.843 17.2528 134.843 17.2528C134.567 13.0673 130.737 10.5204 127.637 10.5204L131.369 33.284C136.127 33.2643 138.693 30.0462 140.036 26.6306C140.036 26.6306 142.898 19.2271 142.997 18.8914C143.037 19.2073 145.05 33.284 145.05 33.284C149.828 33.284 152.395 30.2633 153.777 26.9663L160.47 10.5204C155.771 10.5204 153.283 13.7385 152.02 17.1738ZM97.1541 0.372575L93.2845 31.5861L92.4948 35.436C92.5935 35.436 92.712 35.4557 92.8107 35.4557C96.9764 35.3965 99.9379 31.7441 100.491 27.144L102.722 9.23714C103.393 3.76836 100.135 0.372575 97.1541 0.372575Z" fill="white"/>
</svg>
