<svg width="168" height="41" viewBox="0 0 168 41" fill="none" xmlns="http://www.w3.org/2000/svg">
<path opacity="0.3" d="M17.9449 0.137341C15.7834 0.382166 12.5411 1.39913 10.6964 2.4161C5.73981 5.10917 2.38575 9.30886 0.70872 14.9022C0.373314 15.9945 -0.0179928 18.97 0.000640816 20.3637C0.000640816 21.5878 0.373314 24.5822 0.596918 25.2978C0.70872 25.6368 0.950958 26.4466 1.15593 27.0681C1.49133 28.1227 3.11246 31.4373 3.39197 31.6633C3.44787 31.7198 3.74601 32.0964 4.02551 32.5296C4.71496 33.5654 6.52242 35.411 7.88268 36.4656C8.92617 37.2754 11.8703 38.9892 12.243 39.008C12.3361 39.008 12.3548 38.2924 12.2989 37.3507C12.1684 35.2603 12.5597 32.4166 13.3982 29.5163C13.5473 29.0267 13.6591 28.3864 13.6591 28.1039C13.6591 27.8214 13.7337 27.5201 13.8268 27.4259C13.92 27.3129 14.0877 26.7668 14.1809 26.2018C14.2927 25.6368 14.479 24.7705 14.6094 24.2809C14.7958 23.5464 14.7771 23.2639 14.5163 22.4729C14.1436 21.2676 14.125 19.309 14.4976 18.3674C15.3734 16.1263 16.3424 15.2788 17.9821 15.2788C19.9573 15.2788 20.9076 16.7854 20.5349 19.309C20.3672 20.4578 19.9014 22.2658 19.6033 22.8307C19.5287 23.0002 19.3983 23.471 19.3424 23.8665C19.2678 24.2809 19.1188 24.8647 19.0256 25.1848C18.7647 25.9193 19.2678 27.3506 19.9387 27.8967C20.5722 28.4052 21.8952 28.5559 23.1064 28.2734C23.9635 28.0851 24.3176 27.8591 25.212 26.9928C26.2741 25.9381 27.0754 24.714 27.0754 24.1302C27.0754 23.9607 27.1685 23.7347 27.2803 23.6217C27.8021 23.0944 28.0816 18.9889 27.6903 17.2563C27.2617 15.3542 25.9387 13.4897 24.2244 12.3974C22.5101 11.2863 18.9697 10.9661 16.7896 11.7194C15.2616 12.2468 13.9014 13.1319 13.0256 14.1677C12.243 15.0905 11.4231 16.5971 11.4231 17.1244C11.4231 17.3128 11.3299 17.5576 11.2181 17.6706C11.1063 17.7836 10.9759 18.4992 10.92 19.2714C10.8268 20.4201 10.9013 20.9475 11.2367 22.0774C11.4603 22.8496 11.8703 23.7535 12.1125 24.0925C12.6156 24.7705 12.6156 25.0342 12.1498 26.8421C12.0194 27.3317 11.7958 27.7837 11.6653 27.8402C10.4914 28.2922 8.10629 25.4485 7.30504 22.6236C7.0069 21.5501 6.98827 17.7271 7.2864 16.5971C7.41684 16.1263 7.64044 15.486 7.78951 15.147C7.93858 14.8268 8.06902 14.5067 8.06902 14.4314C8.06902 14.356 8.44169 13.7157 8.90753 13.0189C11.3299 9.32769 15.2616 7.3691 20.2368 7.3691C21.3735 7.3691 22.5474 7.44443 22.8641 7.53859C25.4356 8.3484 26.125 8.61205 27.1313 9.2147C29.0878 10.4012 30.504 12.0208 31.9201 14.7327C32.0133 14.9022 32.1437 15.3542 32.1996 15.7308C32.2741 16.1075 32.4046 16.4653 32.4978 16.5218C32.5909 16.5783 32.6655 17.8024 32.6655 19.2525C32.6655 21.8703 32.4791 22.9249 31.6965 25.0718C30.8207 27.4259 28.566 30.0248 26.5163 31.0418C25.3424 31.6068 23.1437 32.2282 22.2679 32.2282C21.0939 32.2282 18.7834 31.249 18.1498 30.458C17.8517 30.1002 17.5722 30.232 17.5722 30.7405C17.5722 30.9288 17.4977 31.2489 17.3858 31.4373C17.2927 31.6068 17.125 32.1341 17.0318 32.6049C16.4914 35.0908 15.7275 37.1059 14.5535 38.9892C14.1995 39.573 14.4976 39.912 15.4666 40.0438C15.9511 40.1191 16.6032 40.251 16.9014 40.3451C17.6467 40.59 21.6902 40.5523 23.0505 40.3075C24.2803 40.0815 26.2741 39.5165 27.1685 39.1398C32.7959 36.8046 37.063 32.0588 38.9077 26.0135C39.8953 22.7931 39.9512 19.0454 39.0568 15.2788C38.7587 14.0547 38.6655 13.7722 37.8642 11.8889C36.709 9.13937 34.1002 5.91898 31.4543 3.94154C29.181 2.2466 26.9449 1.2673 23.4604 0.419831C22.4915 0.193839 19.0442 0.00551214 17.9449 0.137341ZM67.6408 6.93594C66.9141 7.04894 65.7588 8.25423 65.4607 9.19587C65.1439 10.2317 65.4607 11.3428 66.3551 12.2091C68.3303 14.1489 71.7589 12.3221 71.3303 9.53485C71.0694 7.76458 69.4669 6.63462 67.6408 6.93594ZM47.3301 8.04707C47.1624 8.2354 47.1624 30.9476 47.3488 31.2113C47.442 31.3619 48.2432 31.4184 49.8084 31.3996L52.1376 31.3808L52.2308 27.5577C52.3053 24.4503 52.3799 23.697 52.6035 23.5652C52.7525 23.471 54.0196 23.3769 55.4172 23.3769C58.4731 23.3769 59.7588 23.1509 61.1563 22.3976C62.9824 21.3995 64.0445 19.9682 64.6222 17.6894C64.9762 16.2581 64.9762 15.2223 64.6036 13.7534C64.2681 12.4351 64.1191 12.1149 63.3178 11.0415C62.3302 9.70435 61.324 8.96987 59.6843 8.38606C58.7712 8.08474 58.0072 8.02824 53.0693 7.97174C49.9948 7.93408 47.4047 7.97174 47.3301 8.04707ZM57.56 12.7364C58.8085 13.1319 59.4234 13.6969 59.7029 14.7138C60.0569 16.051 59.7961 17.2939 59.0135 18.0472C58.1563 18.857 57.3923 19.0454 54.8954 19.0454C53.2557 19.0454 52.7525 18.9889 52.5289 18.744C52.2867 18.518 52.2308 17.9719 52.2308 15.825C52.2308 12.4351 52.2122 12.4539 54.8022 12.4539C55.9203 12.4539 57.001 12.5669 57.56 12.7364ZM90.2435 11.6253C90.2435 12.9247 90.1503 14.1489 90.0571 14.356C89.9267 14.6008 89.6658 14.7138 89.2186 14.7138C88.8832 14.7138 88.5665 14.7892 88.5292 14.9022C88.5105 14.9963 88.5105 15.6555 88.5664 16.3523C88.6596 17.5952 88.6782 17.6141 89.2373 17.7459C89.554 17.8024 89.9081 17.9154 90.0199 17.9907C90.1876 18.0849 90.2435 19.5727 90.2435 23.3392C90.2435 28.4052 90.2621 28.5935 90.672 29.3468C91.5292 30.9476 92.8708 31.5126 95.5913 31.4373L97.4174 31.3808L97.4733 29.554L97.5292 27.7084H97.0634C96.3553 27.7084 95.3118 27.1434 95.2 26.6914C95.1441 26.4654 95.0882 24.4692 95.0882 22.2281C95.0882 19.1395 95.1441 18.1037 95.3305 17.9531C95.4609 17.8401 95.9827 17.7271 96.4858 17.6894L97.4174 17.6329V14.808L96.3926 14.7515C95.8336 14.7138 95.3118 14.582 95.2373 14.469C95.1628 14.3372 95.0882 13.1131 95.0882 11.7383V9.25236H90.2435V11.6253ZM159.505 9.36536C159.43 9.44069 159.374 10.6272 159.374 12.0019C159.374 14.6762 159.356 14.7138 158.331 14.7138C157.865 14.7138 157.865 14.7327 157.921 16.164C157.977 17.5952 157.995 17.6329 158.48 17.6894C158.741 17.7271 159.058 17.8589 159.151 17.9719C159.263 18.1037 159.374 20.3825 159.43 23.2827C159.486 26.07 159.579 28.6124 159.654 28.9137C159.877 29.7423 161.033 30.797 162.132 31.1548C163.362 31.5691 166.492 31.6068 166.809 31.2113C166.958 31.0418 167.014 30.3638 166.977 29.3845L166.921 27.8026L166.269 27.6896C165.561 27.5766 164.76 27.1999 164.555 26.8798C164.48 26.7668 164.405 24.714 164.405 22.3223C164.405 17.4069 164.294 17.7271 165.915 17.7271C166.977 17.7271 167.07 17.5387 166.977 15.825L166.921 14.808L165.71 14.7138L164.499 14.6197L164.405 11.9831L164.312 9.34653L161.964 9.29003C160.679 9.2712 159.579 9.30886 159.505 9.36536ZM81.0198 14.2619C80.1068 14.5067 79.0446 15.1282 78.3366 15.8626C77.4794 16.7666 77.2558 16.7101 77.1626 15.5613L77.1067 14.808H72.4483V31.3808L74.7962 31.4184C77.1067 31.4749 77.1626 31.4561 77.2744 31.0418C77.3303 30.8158 77.3862 28.424 77.3862 25.7121C77.3862 20.3448 77.4049 20.1942 78.5043 19.1395C78.9887 18.6687 79.2496 18.5745 80.2931 18.518L81.5043 18.4427L82.231 19.2149C83.0882 20.1188 82.995 19.2525 83.0695 27.0493C83.0882 29.1209 83.1068 30.9476 83.1254 31.136C83.1627 31.3996 83.4608 31.4373 85.5478 31.3996L87.9143 31.3808V18.1602L87.3739 17.0868C86.4422 15.2223 85.0074 14.3372 82.8086 14.2242C82.026 14.2054 81.2248 14.2054 81.0198 14.2619ZM104.312 14.2619C102.299 14.808 101.331 15.3542 100.082 16.5971C98.405 18.3109 97.6411 20.3072 97.6411 23.0002C97.6597 27.7272 100.585 31.2301 104.908 31.6444C108.598 32.0023 111.449 30.91 113.275 28.4429C113.536 28.0851 114.095 26.9363 114.095 26.7291C114.095 26.6538 113.014 26.5784 111.709 26.5784H109.324L108.765 27.1623C108.113 27.8402 107.2 28.2734 106.362 28.2734C105.523 28.2734 104.237 27.6707 103.641 27.0304C103.194 26.5219 102.542 25.053 102.542 24.5445C102.542 24.375 103.902 24.3185 108.281 24.3185C111.43 24.3185 114.095 24.2432 114.225 24.1679C114.505 23.9795 114.244 20.9851 113.834 19.8928C112.995 17.6141 111.411 15.6931 109.809 15.0152C109.343 14.8268 108.803 14.582 108.616 14.4879C108.225 14.2807 104.908 14.1112 104.312 14.2619ZM107.945 18.3862C108.672 18.8947 109.306 20.1 109.213 20.778C109.157 21.2111 109.119 21.2111 105.97 21.2676C102.337 21.3241 102.318 21.3053 102.896 19.9493C103.306 19.0077 104.126 18.1602 104.89 17.9154C105.765 17.6329 107.181 17.8589 107.945 18.3862ZM131.89 14.2619C129.728 14.8457 128.219 15.8061 127.045 17.2939C126.579 17.8966 126.206 18.4615 126.206 18.5745C126.206 18.6687 126.076 19.0077 125.908 19.3279C125.741 19.6292 125.498 20.5708 125.368 21.4183C124.716 25.4485 126.505 29.215 129.859 30.91L131.144 31.5691H133.846C136.641 31.5691 136.884 31.5126 138.598 30.5898C139.846 29.9118 141.896 27.2753 141.579 26.7479C141.505 26.6538 140.443 26.5784 139.194 26.5784H136.902L136.436 27.1246C134.573 29.2527 131.088 28.1604 130.343 25.2037C130.231 24.8082 130.231 24.4692 130.324 24.3938C130.418 24.3374 133.082 24.2997 136.269 24.3185C140.815 24.3185 142.045 24.2809 142.064 24.0925C142.231 21.7384 141.113 18.2544 139.716 16.7478C138.933 15.9003 137.573 14.9587 136.902 14.7892C136.604 14.7138 136.269 14.582 136.138 14.4879C135.877 14.2807 132.467 14.1112 131.89 14.2619ZM134.797 17.9342C135.635 18.2356 136.604 19.2902 136.753 20.1C136.977 21.3241 136.995 21.3241 133.529 21.2676C130.418 21.2111 130.399 21.2111 130.343 20.778C130.269 20.2507 130.921 18.9512 131.48 18.4616C132.281 17.7836 133.679 17.5576 134.797 17.9342ZM148.101 14.2619C144.281 15.1847 142.902 16.5594 142.884 19.422C142.884 22.5106 144.412 23.81 148.94 24.6198C152.051 25.166 152.946 25.6556 152.908 26.8421C152.89 27.6896 152.312 28.2357 151.157 28.4805C149.704 28.8007 148.567 28.4429 147.654 27.4071L146.927 26.5784H144.672C142.846 26.5784 142.418 26.6349 142.418 26.8421C142.418 27.3882 143.163 28.8195 143.778 29.5352C144.356 30.1567 144.803 30.458 146.554 31.3054C146.722 31.3996 147.635 31.5503 148.548 31.6633C150.244 31.8704 153.188 31.6821 153.933 31.3054C154.101 31.2301 154.586 30.9853 154.995 30.797C156.058 30.2885 157.064 29.1397 157.436 28.0474C157.846 26.8044 157.735 25.0718 157.157 23.8665C156.468 22.4541 154.641 21.4371 151.921 20.9475C148.418 20.326 148.362 20.3072 147.803 19.761C147.132 19.0642 147.132 18.8194 147.803 18.0661C148.343 17.4634 148.381 17.4446 149.871 17.4446C151.362 17.4446 151.399 17.4634 151.94 18.0661C152.238 18.4051 152.48 18.8005 152.48 18.9512C152.48 19.1772 152.871 19.2337 154.809 19.2337C157.381 19.2337 157.306 19.2902 156.859 17.9531C156.039 15.5801 153.933 14.3749 150.43 14.243C149.349 14.2054 148.306 14.2054 148.101 14.2619ZM123.318 14.6573C122.498 14.9398 121.362 15.8815 121.008 16.5594C120.654 17.2374 120.337 16.9549 120.244 15.825L120.151 14.808H115.492L115.436 22.7177C115.418 27.0681 115.436 30.8158 115.492 31.0606C115.585 31.4749 115.641 31.4749 117.877 31.4373C119.163 31.4184 120.206 31.3054 120.281 31.1925C120.355 31.0983 120.43 29.102 120.43 26.7668C120.43 23.0756 120.467 22.4164 120.784 21.5878C121.436 19.874 122.834 18.857 124.585 18.857C125.07 18.857 125.275 18.7629 125.331 18.518C125.461 17.9719 125.48 15.4295 125.368 14.8645C125.256 14.4125 125.163 14.3372 124.66 14.356C124.324 14.3749 123.728 14.5067 123.318 14.6573ZM65.9265 14.9398C65.8706 15.0717 65.852 18.7817 65.8706 23.1886L65.9265 31.1925L68.144 31.2866C69.4856 31.3431 70.4545 31.3054 70.6036 31.1925C70.8086 31.0418 70.8645 29.441 70.8645 23.0379C70.8831 18.6687 70.8272 14.9963 70.7713 14.9022C70.585 14.6197 66.0197 14.6573 65.9265 14.9398Z" fill="white"/>
</svg>
