<svg width="113" height="38" viewBox="0 0 113 38" fill="none" xmlns="http://www.w3.org/2000/svg">
<g opacity="0.4">
<path d="M14.1206 0.57579H15.1138C18.562 0.651553 21.9541 2.05317 24.3903 4.53441C23.4908 5.4625 22.5725 6.35272 21.6917 7.28082C20.3236 6.03073 18.6745 5.06475 16.8754 4.72381C14.2143 4.15559 11.347 4.66699 9.11685 6.20119C6.68059 7.81116 5.03142 10.5386 4.67536 13.4555C4.28181 16.3345 5.08765 19.365 6.94295 21.6C8.7233 23.7782 11.4407 25.1419 14.2517 25.2366C16.8754 25.3882 19.6115 24.5737 21.523 22.7175C23.0223 21.4106 23.7157 19.4218 23.9406 17.4899C20.8296 17.4899 17.7187 17.5088 14.6078 17.4899V13.5881H27.7074C28.382 17.774 27.4075 22.4902 24.2591 25.4829C22.1602 27.6042 19.2554 28.8543 16.2944 29.1006C13.4272 29.3847 10.4662 28.8354 7.91746 27.4338C4.86276 25.7859 2.4265 23.0016 1.22711 19.7249C0.102681 16.7133 0.0839403 13.304 1.13341 10.2735C2.08917 7.50811 3.92574 5.06475 6.28704 3.36008C8.55463 1.67435 11.3095 0.746257 14.1206 0.57579Z" fill="white"/>
<path d="M89.2703 1.56081H93.2807V28.6082C91.9501 28.6082 90.6008 28.6271 89.2703 28.5892C89.289 19.5924 89.2703 10.5766 89.2703 1.56081V1.56081Z" fill="white"/>
<path d="M36.6275 10.9364C39.1012 10.4629 41.7811 10.9933 43.8238 12.4896C45.6791 13.8154 46.9722 15.8989 47.3658 18.1717C47.8718 20.8045 47.2346 23.6835 45.5479 25.7669C43.7301 28.0966 40.7504 29.3467 37.8456 29.1573C35.1844 29.0058 32.5983 27.661 31.0241 25.4639C29.2437 23.0395 28.8127 19.7059 29.7872 16.8648C30.7617 13.8154 33.5165 11.4857 36.6275 10.9364V10.9364ZM37.1897 14.5351C36.1777 14.8003 35.2407 15.3875 34.566 16.2209C32.7482 18.418 32.8606 21.9977 34.8659 24.0433C36.009 25.2177 37.7332 25.7669 39.3261 25.4449C40.8066 25.1798 42.0997 24.1759 42.8118 22.8501C44.0487 20.5961 43.6926 17.4899 41.7998 15.7284C40.5817 14.592 38.8014 14.1185 37.1897 14.5351Z" fill="white"/>
<path d="M56.4907 10.9364C59.3205 10.3871 62.4127 11.1826 64.5304 13.1903C67.9786 16.3156 68.3534 22.1683 65.4112 25.767C63.6308 28.0399 60.7448 29.29 57.8963 29.1574C55.1789 29.0817 52.499 27.7179 50.8873 25.464C49.0695 22.9827 48.6759 19.5734 49.7067 16.6754C50.7374 13.7207 53.436 11.4667 56.4907 10.9364V10.9364ZM57.0529 14.5351C56.0409 14.8003 55.1039 15.3875 54.4293 16.2019C52.6302 18.3612 52.7051 21.8842 54.6354 23.9487C55.7786 25.1799 57.5589 25.786 59.2081 25.445C60.6698 25.1609 61.9817 24.176 62.6938 22.8501C63.9119 20.5772 63.5559 17.471 61.6443 15.7095C60.4262 14.573 58.6459 14.1184 57.0529 14.5351Z" fill="white"/>
<path d="M73.3405 12.035C75.4957 10.6713 78.363 10.2925 80.6868 11.4668C81.4177 11.7888 82.0174 12.3381 82.5983 12.8874C82.6171 12.376 82.5983 11.8456 82.6171 11.3153C83.8727 11.3342 85.1283 11.3153 86.4027 11.3342V28.0399C86.3839 30.559 85.7468 33.2297 83.9477 35.0669C81.9799 37.0936 78.9627 37.7186 76.2453 37.3019C73.3405 36.8663 70.8106 34.726 69.6861 32.0175C70.8106 31.4682 71.9912 31.0326 73.1531 30.5212C73.8091 32.0743 75.1396 33.4002 76.8075 33.7032C78.4754 34.0063 80.4057 33.5896 81.4927 32.1879C82.6546 30.7485 82.6546 28.7786 82.5983 27.0171C81.7363 27.8695 80.743 28.6271 79.5436 28.9112C76.9387 29.6499 74.0714 28.7407 72.0662 26.9603C70.0422 25.1799 68.8428 22.4335 68.9553 19.706C69.0115 16.6187 70.7356 13.645 73.3405 12.035V12.035ZM77.2198 14.4594C76.0767 14.6488 75.0084 15.2928 74.2776 16.183C72.516 18.3044 72.516 21.6948 74.2963 23.7783C75.3083 25.0094 76.9387 25.6913 78.5129 25.5208C79.9934 25.3693 81.3615 24.4223 82.0924 23.1153C83.3292 20.8993 83.1231 17.8877 81.4552 15.9558C80.4245 14.7625 78.7753 14.1753 77.2198 14.4594V14.4594Z" fill="white"/>
<path d="M98.0941 13.0011C100.343 10.8797 103.81 10.16 106.696 11.2775C109.432 12.3192 111.175 14.952 112.056 17.6605C107.989 19.3652 103.941 21.0509 99.8745 22.7556C100.437 23.8352 101.299 24.8201 102.461 25.2179C104.091 25.805 106.04 25.5967 107.408 24.4981C107.952 24.0814 108.383 23.5322 108.795 23.0018C109.826 23.7026 110.856 24.3845 111.887 25.0853C110.425 27.3014 107.97 28.8545 105.328 29.1007C102.404 29.4606 99.2935 28.3242 97.4007 26.0134C94.2898 22.3768 94.5897 16.2779 98.0941 13.0011V13.0011ZM100.099 16.5051C99.4622 17.4332 99.1998 18.5697 99.2186 19.6872C101.936 18.5507 104.653 17.4143 107.371 16.2589C106.921 15.1982 105.834 14.5543 104.728 14.3838C102.948 14.0618 101.093 15.0278 100.099 16.5051V16.5051Z" fill="white"/>
</g>
</svg>
