<svg width="121" height="24" viewBox="0 0 121 24" fill="none" xmlns="http://www.w3.org/2000/svg">
<g opacity="0.3">
<path d="M7.74049 23.6083H3.20842V12.1897H0.121094V8.47203H3.2083V5.82664C3.2083 2.69186 4.57378 0.443604 9.09358 0.443604C10.0495 0.443604 11.5503 0.638343 11.5503 0.638343V4.0904H9.97398C8.36784 4.0904 7.74073 4.58418 7.74073 5.9493V8.47203H11.4902L11.1563 12.1897H7.74061L7.74049 23.6083ZM18.1394 8.17494C18.0734 8.17494 18.0054 8.17737 17.9382 8.17907C13.7358 8.17907 11.8131 11.3739 11.8131 15.9091C11.8131 21.6221 14.3071 23.9087 17.971 23.9087C20.0673 23.9087 21.4446 23.0169 22.2817 21.3528V23.6099H26.5923V8.47361H22.2817V10.8014C21.5982 9.30375 20.1824 8.19269 18.1394 8.17494ZM19.2355 11.7516C21.0005 11.7516 22.0599 12.9959 22.0599 15.1124L22.064 17.2741C22.064 18.7006 21.189 20.3695 19.2355 20.3695C16.2322 20.3695 16.3125 17.092 16.3125 16.0004C16.3125 12.3284 17.9126 11.7516 19.2355 11.7516ZM28.3332 16.0425C28.3332 14.2032 28.2461 8.18479 36.0043 8.18479C39.1186 8.18479 40.419 9.18559 40.419 9.18559L39.3738 12.462C39.3738 12.462 38.0751 11.7392 36.3828 11.7392C34.2153 11.7392 32.8323 13.0091 32.8323 15.2435L32.8347 16.8457C32.8347 18.9927 34.1691 20.4259 36.3872 20.4259C37.9289 20.4259 39.3498 19.6963 39.3498 19.6963L40.3924 22.9042C40.3924 22.9042 39.2033 23.9114 36.0261 23.9114C28.639 23.9114 28.3333 18.5117 28.3333 16.0425H28.3332ZM65.6938 8.17907C69.8963 8.17907 71.8493 11.3739 71.8493 15.9091C71.8493 21.6221 69.3552 23.9087 65.6913 23.9087C63.595 23.9087 62.0454 23.017 61.2083 21.3528V23.6099L56.9519 23.6082V0.90383L61.4711 0.505478V10.5963C62.1233 8.83088 64.2669 8.17907 65.6939 8.17907H65.6938ZM64.4268 11.7516C62.6618 11.7516 61.4711 12.9959 61.4711 15.1124L61.4669 17.2741C61.4642 18.7006 62.2915 20.3695 64.4268 20.3695C67.4301 20.3695 67.3499 17.092 67.3499 16.0004C67.3499 12.3284 65.7499 11.7516 64.4268 11.7516ZM48.2601 8.19159C43.4937 8.19159 40.9773 10.8181 40.9773 15.4858V16.353C40.9773 22.4112 44.5111 23.9709 48.724 23.9709C52.819 23.9709 54.6726 22.8133 54.6726 22.8133L53.8269 19.7306C53.8269 19.7306 51.6466 20.6681 49.2659 20.6681C46.7978 20.6681 45.7364 20.0324 45.4644 17.6352H55.0339V15.1621C55.0339 10.0989 52.2097 8.19147 48.26 8.19147L48.2601 8.19159ZM48.375 11.2785C50.0249 11.2785 51.094 12.301 51.0354 14.6726H45.4727C45.5691 12.1766 46.7221 11.2786 48.375 11.2786V11.2785ZM80.8604 8.17081C75.9656 8.17081 73.3887 10.9587 73.3887 15.9547C73.3887 22.8094 77.8307 23.9128 80.8686 23.9128C85.3159 23.9128 88.2746 21.4929 88.2746 16.0169C88.2746 10.3173 84.9478 8.17081 80.8604 8.17081V8.17081ZM80.7989 11.764C82.9512 11.764 83.804 13.392 83.804 15.2452V16.8385C83.804 19.0835 82.6107 20.382 80.7907 20.382C79.0886 20.382 77.8923 19.1674 77.8923 16.8385V15.2452C77.8923 12.7615 79.3158 11.764 80.7989 11.764V11.764ZM97.2777 8.17081C92.3829 8.17081 89.806 10.9587 89.806 15.9547C89.806 22.8094 94.248 23.9128 97.2858 23.9128C101.733 23.9128 104.692 21.4929 104.692 16.0169C104.692 10.3173 101.365 8.17081 97.2777 8.17081V8.17081ZM97.2161 11.764C99.3684 11.764 100.221 13.392 100.221 15.2452V16.8385C100.221 19.0835 99.0278 20.382 97.2079 20.382C95.5058 20.382 94.3095 19.1674 94.3095 16.8385V15.2452C94.3095 12.7615 95.733 11.764 97.2161 11.764V11.764ZM106.4 23.6083V0.90383L110.932 0.505478V15.7234L115.429 8.47203H120.215L115.524 15.9824L120.396 23.6083H115.596L110.932 16.2036V23.6083H106.4Z" fill="white"/>
</g>
</svg>
