<svg width="143" height="44" viewBox="0 0 143 44" fill="none" xmlns="http://www.w3.org/2000/svg">
<g opacity="0.3">
<path d="M9.01594 35.4105H3.6532V21.899H0V17.4999H3.65306V14.3697C3.65306 10.6603 5.26881 8 10.617 8C11.7482 8 13.524 8.23043 13.524 8.23043V12.3152H11.6588C9.75827 12.3152 9.01622 12.8995 9.01622 14.5148V17.4999H13.4529L13.0578 21.899H9.01608L9.01594 35.4105ZM21.3209 17.1484C21.2427 17.1484 21.1623 17.1513 21.0828 17.1533C16.1101 17.1533 13.835 20.9337 13.835 26.3001C13.835 33.0603 16.7862 35.766 21.1216 35.766C23.6021 35.766 25.2318 34.7107 26.2224 32.7416V35.4124H31.3231V17.5018H26.2224V20.2562C25.4136 18.4841 23.7383 17.1694 21.3209 17.1484ZM22.6178 21.3806C24.7064 21.3806 25.9599 22.853 25.9599 25.3574L25.9648 27.9153C25.9648 29.6032 24.9294 31.578 22.6178 31.578C19.0641 31.578 19.159 27.6998 19.159 26.4081C19.159 22.0631 21.0525 21.3806 22.6178 21.3806ZM33.383 26.458C33.383 24.2816 33.28 17.16 42.4602 17.16C46.1452 17.16 47.684 18.3443 47.684 18.3443L46.4472 22.2212C46.4472 22.2212 44.9105 21.3659 42.908 21.3659C40.3433 21.3659 38.7068 22.8686 38.7068 25.5126L38.7096 27.4084C38.7096 29.9489 40.2886 31.6448 42.9133 31.6448C44.7375 31.6448 46.4189 30.7814 46.4189 30.7814L47.6525 34.5774C47.6525 34.5774 46.2456 35.7691 42.4859 35.7691C33.7449 35.7691 33.3832 29.3797 33.3832 26.458H33.383ZM77.5914 17.1533C82.5642 17.1533 84.8752 20.9337 84.8752 26.3001C84.8752 33.0603 81.9239 35.766 77.5884 35.766C75.1079 35.766 73.2743 34.7109 72.2838 32.7416V35.4124L67.2472 35.4104V8.54458L72.5947 8.07321V20.0136C73.3665 17.9246 75.9029 17.1533 77.5916 17.1533H77.5914ZM76.0922 21.3806C74.0037 21.3806 72.5947 22.853 72.5947 25.3574L72.5897 27.9153C72.5866 29.6032 73.5655 31.578 76.0922 31.578C79.6459 31.578 79.551 27.6998 79.551 26.4081C79.551 22.0631 77.6577 21.3806 76.0922 21.3806ZM56.9624 17.1681C51.3222 17.1681 48.3446 20.2761 48.3446 25.7992V26.8254C48.3446 33.994 52.5261 35.8396 57.5113 35.8396C62.3568 35.8396 64.5501 34.4698 64.5501 34.4698L63.5495 30.822C63.5495 30.822 60.9695 31.9315 58.1524 31.9315C55.232 31.9315 53.9761 31.1792 53.6541 28.3426H64.9777V25.4162C64.9777 19.425 61.6358 17.168 56.9622 17.168L56.9624 17.1681ZM57.0983 20.8208C59.0506 20.8208 60.3157 22.0308 60.2462 24.837H53.664C53.7781 21.8835 55.1424 20.8209 57.0983 20.8209V20.8208ZM95.5379 17.1435C89.7459 17.1435 86.6967 20.4423 86.6967 26.354C86.6967 34.4652 91.9529 35.7708 95.5476 35.7708C100.81 35.7708 104.311 32.9074 104.311 26.4277C104.311 19.6834 100.374 17.1435 95.5379 17.1435V17.1435ZM95.465 21.3953C98.0118 21.3953 99.021 23.3217 99.021 25.5146V27.3999C99.021 30.0563 97.6089 31.5929 95.4554 31.5929C93.4412 31.5929 92.0257 30.1556 92.0257 27.3999V25.5146C92.0257 22.5756 93.7101 21.3953 95.465 21.3953V21.3953ZM114.964 17.1435C109.172 17.1435 106.123 20.4423 106.123 26.354C106.123 34.4652 111.379 35.7708 114.974 35.7708C120.236 35.7708 123.737 32.9074 123.737 26.4277C123.737 19.6834 119.801 17.1435 114.964 17.1435V17.1435ZM114.891 21.3953C117.438 21.3953 118.447 23.3217 118.447 25.5146V27.3999C118.447 30.0563 117.035 31.5929 114.882 31.5929C112.868 31.5929 111.452 30.1556 111.452 27.3999V25.5146C111.452 22.5756 113.136 21.3953 114.891 21.3953V21.3953ZM125.758 35.4105V8.54458L131.121 8.07321V26.0805L136.442 17.4999H142.106L136.555 26.3868L142.319 35.4105H136.64L131.121 26.6486V35.4105H125.758Z" fill="white"/>
</g>
</svg>
