<svg width="122" height="31" viewBox="0 0 122 31" fill="none" xmlns="http://www.w3.org/2000/svg">
<path opacity="0.3" d="M13.0805 0.934118C11.5049 1.11258 9.14157 1.85387 7.79689 2.59517C4.18391 4.55823 1.73904 7.6195 0.516606 11.6966C0.272119 12.4928 -0.0131155 14.6618 0.000467109 15.6777C0.000467109 16.57 0.272119 18.7527 0.435111 19.2743C0.516606 19.5214 0.69318 20.1117 0.842589 20.5647C1.08708 21.3335 2.26876 23.7495 2.4725 23.9143C2.51325 23.9555 2.73057 24.23 2.93431 24.5457C3.43687 25.3008 4.75438 26.6461 5.74591 27.4148C6.50654 28.0051 8.65259 29.2543 8.92424 29.2681C8.99216 29.2681 9.00574 28.7464 8.96499 28.06C8.86991 26.5363 9.15515 24.4634 9.76637 22.3493C9.87503 21.9924 9.95652 21.5257 9.95652 21.3197C9.95652 21.1138 10.0109 20.8942 10.0788 20.8255C10.1467 20.7432 10.2689 20.3451 10.3368 19.9332C10.4183 19.5214 10.5542 18.8899 10.6492 18.533C10.7851 17.9976 10.7715 17.7917 10.5813 17.2152C10.3097 16.3366 10.2961 14.9089 10.5677 14.2225C11.2061 12.5889 11.9124 11.9712 13.1077 11.9712C14.5474 11.9712 15.2402 13.0694 14.9685 14.9089C14.8463 15.7463 14.5067 17.0642 14.2894 17.476C14.235 17.5995 14.14 17.9427 14.0992 18.231C14.0449 18.533 13.9362 18.9586 13.8683 19.1919C13.6782 19.7273 14.0449 20.7706 14.5339 21.1687C14.9957 21.5394 15.96 21.6492 16.8429 21.4433C17.4677 21.306 17.7258 21.1413 18.3777 20.5098C19.1519 19.7411 19.736 18.8488 19.736 18.4232C19.736 18.2996 19.8039 18.1349 19.8854 18.0525C20.2657 17.6682 20.4695 14.6755 20.1842 13.4126C19.8718 12.0261 18.9075 10.667 17.6579 9.87084C16.4083 9.06091 13.8276 8.82754 12.2384 9.37665C11.1246 9.76102 10.1331 10.4062 9.49471 11.1612C8.92424 11.8339 8.32661 12.9321 8.32661 13.3165C8.32661 13.4538 8.2587 13.6322 8.1772 13.7146C8.0957 13.797 8.00063 14.3186 7.95988 14.8814C7.89197 15.7188 7.9463 16.1032 8.19078 16.9269C8.35377 17.4897 8.65259 18.1486 8.82916 18.3957C9.19589 18.8899 9.1959 19.0821 8.85633 20.4C8.76125 20.7569 8.59826 21.0864 8.50318 21.1276C7.64748 21.457 5.9089 19.3841 5.32485 17.325C5.10753 16.5425 5.09395 13.7558 5.31127 12.9321C5.40635 12.5889 5.56934 12.1222 5.678 11.8751C5.78666 11.6417 5.88174 11.4083 5.88174 11.3534C5.88174 11.2985 6.15339 10.8318 6.49296 10.3239C8.2587 7.63323 11.1246 6.20555 14.7512 6.20555C15.5797 6.20555 16.4354 6.26046 16.6663 6.3291C18.5407 6.91939 19.0433 7.11158 19.7768 7.55086C21.2029 8.41571 22.2352 9.59629 23.2675 11.5731C23.3354 11.6966 23.4305 12.0261 23.4712 12.3006C23.5256 12.5752 23.6206 12.836 23.6885 12.8772C23.7565 12.9184 23.8108 13.8107 23.8108 14.8677C23.8108 16.7759 23.675 17.5446 23.1045 19.1096C22.4661 20.8255 20.8226 22.72 19.3285 23.4613C18.4728 23.8731 16.8701 24.3261 16.2317 24.3261C15.376 24.3261 13.6917 23.6123 13.2299 23.0357C13.0126 22.7749 12.8089 22.871 12.8089 23.2416C12.8089 23.3789 12.7545 23.6123 12.673 23.7495C12.6051 23.8731 12.4829 24.2575 12.415 24.6007C12.0211 26.4127 11.4642 27.8816 10.6085 29.2543C10.3504 29.6799 10.5677 29.927 11.274 30.0231C11.6272 30.078 12.1026 30.1741 12.3199 30.2427C12.8632 30.4212 15.8106 30.3937 16.8022 30.2153C17.6986 30.0505 19.152 29.6387 19.8039 29.3642C23.9059 27.6619 27.0163 24.2026 28.361 19.796C29.0808 17.4485 29.1216 14.7167 28.4696 11.9712C28.2523 11.0789 28.1844 10.873 27.6003 9.5002C26.7582 7.49595 24.8566 5.14852 22.9279 3.70711C21.2708 2.47162 19.6409 1.75778 17.101 1.14003C16.3947 0.975302 13.8819 0.838025 13.0805 0.934118ZM49.3054 5.88981C48.7756 5.97218 47.9335 6.85075 47.7162 7.53714C47.4853 8.29216 47.7162 9.10209 48.3681 9.73357C49.8079 11.1475 52.3071 9.81593 51.9947 7.78424C51.8045 6.49383 50.6364 5.67017 49.3054 5.88981ZM34.5003 6.69975C34.3781 6.83702 34.3781 23.3926 34.5139 23.5848C34.5818 23.6946 35.1658 23.7358 36.3068 23.7221L38.0046 23.7084L38.0725 20.9216C38.1269 18.6566 38.1812 18.1075 38.3442 18.0114C38.4528 17.9427 39.3765 17.8741 40.3952 17.8741C42.6227 17.8741 43.5599 17.7094 44.5786 17.1602C45.9097 16.4327 46.6839 15.3894 47.105 13.7283C47.363 12.685 47.363 11.93 47.0914 10.8592C46.8469 9.8983 46.7382 9.66493 46.1542 8.88245C45.4343 7.90778 44.7008 7.37241 43.5056 6.94685C42.84 6.7272 42.2831 6.68602 38.6837 6.64484C36.4426 6.61738 34.5546 6.64484 34.5003 6.69975ZM41.9572 10.1179C42.8672 10.4062 43.3154 10.8181 43.5192 11.5593C43.7772 12.534 43.5871 13.44 43.0166 13.9891C42.3918 14.5794 41.8349 14.7167 40.0148 14.7167C38.8196 14.7167 38.4528 14.6755 38.2899 14.4971C38.1133 14.3323 38.0725 13.9342 38.0725 12.3693C38.0725 9.8983 38.0589 9.91203 39.9469 9.91203C40.7619 9.91203 41.5497 9.99439 41.9572 10.1179ZM65.7811 9.30801C65.7811 10.2552 65.7131 11.1475 65.6452 11.2985C65.5502 11.477 65.36 11.5593 65.034 11.5593C64.7895 11.5593 64.5586 11.6143 64.5315 11.6966C64.5179 11.7653 64.5179 12.2457 64.5586 12.7537C64.6265 13.6597 64.6401 13.6734 65.0476 13.7695C65.2785 13.8107 65.5366 13.8931 65.6181 13.948C65.7403 14.0166 65.7811 15.1011 65.7811 17.8466C65.7811 21.5394 65.7946 21.6767 66.0935 22.2258C66.7183 23.3926 67.6962 23.8044 69.6793 23.7495L71.0104 23.7084L71.0511 22.3768L71.0919 21.0315H70.7523C70.2362 21.0315 69.4755 20.6196 69.394 20.2902C69.3533 20.1254 69.3125 18.6703 69.3125 17.0367C69.3125 14.7854 69.3533 14.0303 69.4891 13.9205C69.5842 13.8381 69.9645 13.7558 70.3312 13.7283L71.0104 13.6871V11.628L70.2633 11.5868C69.8558 11.5593 69.4755 11.4633 69.4212 11.3809C69.3669 11.2848 69.3125 10.3925 69.3125 9.39037V7.57832H65.7811V9.30801ZM116.268 7.66069C116.213 7.7156 116.173 8.58044 116.173 9.58256C116.173 11.5319 116.159 11.5593 115.412 11.5593C115.072 11.5593 115.072 11.5731 115.113 12.6164C115.154 13.6597 115.167 13.6871 115.521 13.7283C115.711 13.7558 115.942 13.8519 116.01 13.9342C116.091 14.0303 116.173 15.6914 116.213 17.8054C116.254 19.8371 116.322 21.6904 116.376 21.91C116.539 22.514 117.381 23.2828 118.183 23.5436C119.079 23.8456 121.361 23.8731 121.592 23.5848C121.701 23.4613 121.741 22.9671 121.714 22.2532L121.674 21.1001L121.198 21.0177C120.682 20.9354 120.098 20.6608 119.949 20.4274C119.894 20.3451 119.84 18.8488 119.84 17.1053C119.84 13.5224 119.758 13.7558 120.94 13.7558C121.714 13.7558 121.782 13.6185 121.714 12.3693L121.674 11.628L120.791 11.5593L119.908 11.4907L119.84 9.56884L119.772 7.64696L118.061 7.60578C117.123 7.59205 116.322 7.6195 116.268 7.66069ZM59.0577 11.2299C58.3921 11.4083 57.6179 11.8614 57.1018 12.3967C56.477 13.0557 56.314 13.0145 56.2461 12.1771L56.2053 11.628H52.8097V23.7084L54.5211 23.7358C56.2053 23.777 56.2461 23.7633 56.3276 23.4613C56.3683 23.2965 56.4091 21.5531 56.4091 19.5763C56.4091 15.6639 56.4226 15.5541 57.224 14.7854C57.5772 14.4422 57.7673 14.3735 58.5279 14.3323L59.4108 14.2774L59.9405 14.8403C60.5653 15.4992 60.4974 14.8677 60.5518 20.551C60.5653 22.061 60.5789 23.3926 60.5925 23.5299C60.6197 23.7221 60.837 23.7495 62.3582 23.7221L64.0832 23.7084V14.0715L63.6893 13.289C63.0102 11.93 61.9643 11.2848 60.3616 11.2024C59.7911 11.1887 59.2071 11.1887 59.0577 11.2299ZM76.0359 11.2299C74.569 11.628 73.8627 12.0261 72.9527 12.9321C71.7302 14.1813 71.1734 15.6365 71.1734 17.5995C71.1869 21.0452 73.3194 23.5985 76.4706 23.9005C79.1599 24.1614 81.2381 23.3652 82.5692 21.5668C82.7593 21.306 83.1668 20.4686 83.1668 20.3176C83.1668 20.2627 82.379 20.2078 81.4282 20.2078H79.6897L79.2822 20.6334C78.8068 21.1276 78.1412 21.4433 77.53 21.4433C76.9188 21.4433 75.9816 21.004 75.547 20.5373C75.221 20.1666 74.7456 19.0959 74.7456 18.7252C74.7456 18.6017 75.7371 18.5605 78.929 18.5605C81.2245 18.5605 83.1668 18.5056 83.2619 18.4506C83.4656 18.3134 83.2755 16.1307 82.9766 15.3345C82.3654 13.6734 81.2109 12.2732 80.0428 11.779C79.7032 11.6417 79.3093 11.4633 79.1735 11.3946C78.8883 11.2436 76.4706 11.1201 76.0359 11.2299ZM78.6845 14.2362C79.2143 14.6069 79.6761 15.4855 79.6082 15.9797C79.5674 16.2954 79.5403 16.2954 77.2448 16.3366C74.5962 16.3778 74.5826 16.364 75.0037 15.3756C75.3025 14.6893 75.9001 14.0715 76.457 13.8931C77.0954 13.6871 78.1277 13.8519 78.6845 14.2362ZM96.1382 11.2299C94.5626 11.6554 93.4624 12.3556 92.6067 13.44C92.2672 13.8793 91.9955 14.2912 91.9955 14.3735C91.9955 14.4422 91.9004 14.6893 91.7782 14.9226C91.6559 15.1423 91.4794 15.8287 91.3843 16.4464C90.9089 19.3841 92.2128 22.1297 94.6577 23.3652L95.5949 23.8456H97.5644C99.6018 23.8456 99.7783 23.8045 101.028 23.1318C101.938 22.6376 103.432 20.7157 103.201 20.3313C103.147 20.2627 102.373 20.2078 101.463 20.2078H99.7919L99.4524 20.6059C98.0941 22.1571 95.5541 21.3609 95.0108 19.2057C94.9293 18.9174 94.9293 18.6703 94.9973 18.6154C95.0652 18.5742 97.0075 18.5467 99.3301 18.5605C102.644 18.5605 103.541 18.533 103.554 18.3957C103.677 16.6798 102.862 14.1402 101.843 13.0419C101.272 12.4242 100.281 11.7378 99.7919 11.6143C99.5746 11.5593 99.3301 11.4633 99.235 11.3946C99.0449 11.2436 96.5593 11.1201 96.1382 11.2299ZM98.2571 13.9068C98.8683 14.1264 99.5746 14.8952 99.6833 15.4855C99.8463 16.3778 99.8598 16.3778 97.3335 16.3366C95.0652 16.2954 95.0516 16.2954 95.0108 15.9797C94.9565 15.5953 95.4319 14.6481 95.8394 14.2912C96.4234 13.797 97.4421 13.6322 98.2571 13.9068ZM107.955 11.2299C105.171 11.9025 104.166 12.9047 104.152 14.9913C104.152 17.2426 105.266 18.1898 108.566 18.7801C110.835 19.1782 111.487 19.5351 111.459 20.4C111.446 21.0177 111.025 21.4158 110.183 21.5943C109.123 21.8277 108.295 21.5668 107.629 20.8118L107.099 20.2078H105.456C104.125 20.2078 103.812 20.249 103.812 20.4C103.812 20.7981 104.356 21.8414 104.804 22.363C105.225 22.8161 105.551 23.0357 106.828 23.6534C106.95 23.7221 107.616 23.8319 108.281 23.9143C109.517 24.0653 111.663 23.928 112.206 23.6534C112.329 23.5985 112.682 23.4201 112.981 23.2828C113.755 22.9121 114.488 22.0748 114.76 21.2786C115.059 20.3725 114.977 19.1096 114.556 18.231C114.054 17.2014 112.723 16.4601 110.74 16.1032C108.186 15.6502 108.145 15.6365 107.738 15.2384C107.249 14.7304 107.249 14.552 107.738 14.0029C108.132 13.5636 108.159 13.5499 109.245 13.5499C110.332 13.5499 110.359 13.5636 110.753 14.0029C110.97 14.25 111.147 14.5383 111.147 14.6481C111.147 14.8128 111.432 14.854 112.845 14.854C114.719 14.854 114.665 14.8952 114.339 13.9205C113.741 12.1908 112.206 11.3123 109.653 11.2162C108.865 11.1887 108.104 11.1887 107.955 11.2299ZM89.8902 11.5182C89.2926 11.7241 88.464 12.4105 88.206 12.9047C87.9479 13.3989 87.717 13.1929 87.6491 12.3693L87.5812 11.628H84.1855L84.1448 17.3936C84.1312 20.5647 84.1448 23.2965 84.1855 23.475C84.2534 23.777 84.2942 23.777 85.9241 23.7495C86.8613 23.7358 87.6219 23.6534 87.6762 23.5711C87.7306 23.5024 87.7849 22.0473 87.7849 20.3451C87.7849 17.6544 87.8121 17.174 88.043 16.57C88.5184 15.3207 89.537 14.5794 90.8138 14.5794C91.167 14.5794 91.3164 14.5108 91.3571 14.3323C91.4522 13.9342 91.4658 12.081 91.3843 11.6692C91.3028 11.3397 91.2349 11.2848 90.8681 11.2985C90.6237 11.3123 90.189 11.4083 89.8902 11.5182ZM48.0557 11.7241C48.015 11.8202 48.0014 14.5245 48.015 17.7368L48.0557 23.5711L49.6721 23.6397C50.65 23.6809 51.3563 23.6534 51.465 23.5711C51.6144 23.4613 51.6551 22.2944 51.6551 17.627C51.6687 14.4422 51.628 11.7653 51.5872 11.6966C51.4514 11.4907 48.1237 11.5182 48.0557 11.7241Z" fill="white"/>
</svg>
