<svg width="16" height="13" viewBox="0 0 16 13" fill="none" xmlns="http://www.w3.org/2000/svg">
<g clip-path="url(#clip0_2727_137338)">
<path fill-rule="evenodd" clip-rule="evenodd" d="M6 6.5C6 10.0899 3.08985 13 -0.5 13C-0.668236 13 -0.834979 12.9936 -1 12.9811V0.0189448C-0.834979 0.00639146 -0.668236 0 -0.5 0C3.08985 0 6 2.91015 6 6.5ZM-0.5 0H16V0.0189448C12.6438 0.274257 10 3.07839 10 6.5C10 9.92161 12.6438 12.7257 16 12.9811V13H-0.5H-1V12.9811C-4.35622 12.7257 -7 9.92161 -7 6.5C-7 3.07839 -4.35622 0.274257 -1 0.0189448V0H-0.5ZM16 12.9811V0.0189448C16.165 0.00639146 16.3318 0 16.5 0C20.0899 0 23 2.91015 23 6.5C23 10.0899 20.0899 13 16.5 13C16.3318 13 16.165 12.9936 16 12.9811Z" fill="#07091B"/>
</g>
<defs>
<clipPath id="clip0_2727_137338">
<rect width="16" height="13" fill="white"/>
</clipPath>
</defs>
</svg>
