<svg width="256" height="256" viewBox="0 0 256 256" fill="none" xmlns="http://www.w3.org/2000/svg">
<rect width="256" height="256" rx="60" fill="#07091B"/>
<g style="mix-blend-mode:lighten" filter="url(#filter0_f_2714_76831)">
<path fill-rule="evenodd" clip-rule="evenodd" d="M172.524 189.345C180.175 183.236 184.783 172.322 184.783 157.505C184.783 124.053 161.298 83.3751 132.327 66.6491C117.078 57.8446 103.348 57.4318 93.7632 63.8949L93.7604 63.8904L93.5677 64.0281C93.3227 64.1967 93.0804 64.3699 92.841 64.5475L83.594 71.1567L85.0887 73.5809C81.7461 79.6216 79.8719 87.4842 79.8719 96.9343C79.8719 130.386 103.357 171.064 132.327 187.79C142.387 193.598 151.784 195.754 159.767 194.694L161.394 197.333L172.553 189.39L172.524 189.345Z" fill="url(#paint0_linear_2714_76831)"/>
</g>
<path fill-rule="evenodd" clip-rule="evenodd" d="M172.524 189.345C180.175 183.236 184.783 172.322 184.783 157.505C184.783 124.053 161.298 83.3751 132.327 66.6491C117.078 57.8446 103.348 57.4318 93.7632 63.8949L93.7604 63.8904L93.5677 64.0281C93.3227 64.1967 93.0804 64.3699 92.841 64.5475L83.594 71.1567L85.0887 73.5809C81.7461 79.6216 79.8719 87.4842 79.8719 96.9343C79.8719 130.386 103.357 171.064 132.327 187.79C142.387 193.598 151.784 195.754 159.767 194.694L161.394 197.333L172.553 189.39L172.524 189.345Z" fill="url(#paint1_linear_2714_76831)"/>
<g style="mix-blend-mode:overlay" opacity="0.2">
<path fill-rule="evenodd" clip-rule="evenodd" d="M172.524 189.345C180.175 183.236 184.783 172.322 184.783 157.505C184.783 124.053 161.298 83.3751 132.327 66.6491C117.078 57.8446 103.348 57.4318 93.7632 63.8949L93.7604 63.8904L93.5677 64.0281C93.3227 64.1967 93.0804 64.3699 92.841 64.5475L83.594 71.1567L85.0887 73.5809C81.7461 79.6216 79.8719 87.4842 79.8719 96.9343C79.8719 130.386 103.357 171.064 132.327 187.79C142.387 193.598 151.784 195.754 159.767 194.694L161.394 197.333L172.553 189.39L172.524 189.345Z" fill="#07091B"/>
</g>
<circle r="60.5704" transform="matrix(0.866025 0.5 -2.20305e-08 1 122.673 134.099)" fill="url(#paint2_linear_2714_76831)"/>
<g style="mix-blend-mode:overlay" filter="url(#filter1_i_2714_76831)">
<ellipse rx="47.3469" ry="47.3469" transform="matrix(0.866025 0.5 -2.20305e-08 1 122.673 136.283)" fill="#07091B" fill-opacity="0.2"/>
</g>
<path d="M120.588 110.681L125.231 113.362L125.231 120.013C127.724 121.784 129.745 123.976 131.292 126.591C132.869 129.189 133.728 132.051 133.872 135.179L129.143 132.448C129.028 131.389 128.785 130.421 128.412 129.545C128.039 128.668 127.567 127.865 126.993 127.137C126.42 126.376 125.761 125.697 125.016 125.102C124.299 124.489 123.497 123.927 122.608 123.414C122.035 123.083 121.405 122.769 120.717 122.471C120.029 122.173 119.413 122.032 118.868 122.049C118.295 122.049 117.822 122.256 117.45 122.669C117.077 123.05 116.891 123.687 116.891 124.58C116.891 125.739 117.12 126.798 117.578 127.757C118.037 128.717 118.625 129.619 119.341 130.463C120.086 131.29 120.903 132.076 121.792 132.821C122.709 133.549 123.611 134.269 124.5 134.98C125.933 136.105 127.266 137.222 128.498 138.331C129.73 139.44 130.791 140.614 131.679 141.855C132.596 143.113 133.313 144.453 133.829 145.876C134.345 147.299 134.603 148.871 134.603 150.592C134.603 152.346 134.345 153.72 133.829 154.712C133.313 155.672 132.611 156.326 131.722 156.673C130.862 157.004 129.845 157.062 128.67 156.847C127.524 156.615 126.305 156.177 125.016 155.531L125.016 162.034L120.416 159.379L120.416 152.727C119.069 151.75 117.822 150.667 116.676 149.475C115.558 148.267 114.569 146.968 113.709 145.578C112.878 144.205 112.205 142.774 111.689 141.285C111.173 139.762 110.858 138.19 110.743 136.569L115.73 139.448C115.902 140.606 116.246 141.698 116.762 142.724C117.278 143.717 117.894 144.635 118.61 145.479C119.327 146.323 120.101 147.084 120.932 147.763C121.763 148.408 122.58 148.962 123.382 149.426C124.156 149.872 124.915 150.245 125.661 150.543C126.406 150.807 127.065 150.923 127.638 150.89C128.24 150.84 128.727 150.609 129.1 150.195C129.472 149.748 129.659 149.045 129.659 148.085C129.659 146.96 129.372 145.934 128.799 145.008C128.254 144.064 127.552 143.179 126.692 142.352C125.861 141.508 124.944 140.714 123.941 139.969C122.967 139.241 122.049 138.513 121.19 137.785C119.814 136.66 118.553 135.518 117.407 134.36C116.26 133.168 115.257 131.927 114.397 130.637C113.566 129.362 112.907 128.022 112.42 126.616C111.961 125.226 111.732 123.737 111.732 122.148C111.732 120.56 111.975 119.31 112.463 118.4C112.979 117.507 113.638 116.894 114.44 116.563C115.271 116.216 116.217 116.133 117.278 116.315C118.338 116.464 119.441 116.787 120.588 117.283L120.588 110.681Z" fill="white"/>
<ellipse rx="47.3469" ry="47.3469" transform="matrix(0.866025 0.5 -2.20305e-08 1 122.673 136.283)" stroke="white" stroke-width="0.945674"/>
<defs>
<filter id="filter0_f_2714_76831" x="42.0449" y="21.658" width="180.565" height="213.502" filterUnits="userSpaceOnUse" color-interpolation-filters="sRGB">
<feFlood flood-opacity="0" result="BackgroundImageFix"/>
<feBlend mode="normal" in="SourceGraphic" in2="BackgroundImageFix" result="shape"/>
<feGaussianBlur stdDeviation="18.9135" result="effect1_foregroundBlur_2714_76831"/>
</filter>
<filter id="filter1_i_2714_76831" x="81.6689" y="83.3359" width="82.0073" height="113.459" filterUnits="userSpaceOnUse" color-interpolation-filters="sRGB">
<feFlood flood-opacity="0" result="BackgroundImageFix"/>
<feBlend mode="normal" in="SourceGraphic" in2="BackgroundImageFix" result="shape"/>
<feColorMatrix in="SourceAlpha" type="matrix" values="0 0 0 0 0 0 0 0 0 0 0 0 0 0 0 0 0 0 127 0" result="hardAlpha"/>
<feOffset dy="7.56539"/>
<feGaussianBlur stdDeviation="3.7827"/>
<feComposite in2="hardAlpha" operator="arithmetic" k2="-1" k3="1"/>
<feColorMatrix type="matrix" values="0 0 0 0 0 0 0 0 0 0 0 0 0 0 0 0 0 0 0.25 0"/>
<feBlend mode="normal" in2="shape" result="effect1_innerShadow_2714_76831"/>
</filter>
<linearGradient id="paint0_linear_2714_76831" x1="79.8719" y1="197.333" x2="215.972" y2="101.862" gradientUnits="userSpaceOnUse">
<stop stop-color="#AC50EF"/>
<stop offset="0.46875" stop-color="#7059FB"/>
<stop offset="1" stop-color="#2ECFF6"/>
</linearGradient>
<linearGradient id="paint1_linear_2714_76831" x1="79.8719" y1="197.333" x2="215.972" y2="101.862" gradientUnits="userSpaceOnUse">
<stop stop-color="#AC50EF"/>
<stop offset="0.46875" stop-color="#7059FB"/>
<stop offset="1" stop-color="#2ECFF6"/>
</linearGradient>
<linearGradient id="paint2_linear_2714_76831" x1="-4.76516e-06" y1="121.141" x2="97.239" y2="14.5767" gradientUnits="userSpaceOnUse">
<stop stop-color="#AC50EF"/>
<stop offset="0.46875" stop-color="#7059FB"/>
<stop offset="1" stop-color="#2ECFF6"/>
</linearGradient>
</defs>
</svg>
